<?xml version="1.0" encoding="utf-8"?>
<!-- Generator: Adobe Illustrator 26.4.1, SVG Export Plug-In . SVG Version: 6.00 Build 0)  -->
<svg version="1.1" id="Слой_1" xmlns="http://www.w3.org/2000/svg" xmlns:xlink="http://www.w3.org/1999/xlink" x="0px" y="0px"
	 viewBox="0 0 840 530" style="enable-background:new 0 0 840 530;" xml:space="preserve">
<style type="text/css">
	.st0{fill:#F5C3AD;}
</style>
<path class="st0" d="M70,113c16.8-48.41,104.04-59.2,159-66c123.21-15.24,142.68,23.35,293,18c71.45-2.54,98.74-12.39,150,4
	c51.48,16.46,117.85,56.41,118.5,103.5c0.38,27.73-22.4,31.1-32.5,63.5c-24.18,77.58,82.3,135.77,62.5,196.5
	C804.13,482.72,708.24,513.67,640,496c-42.71-11.06-55.5-36.22-109-44c-42.94-6.24-75.86,3.98-95,9
	c-102.12,26.78-290.41,31.02-332-40c-26.02-44.42,28.92-78.06,10-174C99.16,171.75,57.05,150.3,70,113z"/>
</svg>
