<?xml version="1.0" encoding="utf-8"?>
<!-- Generator: Adobe Illustrator 26.4.1, SVG Export Plug-In . SVG Version: 6.00 Build 0)  -->
<svg version="1.1" id="Слой_1" xmlns="http://www.w3.org/2000/svg" xmlns:xlink="http://www.w3.org/1999/xlink" x="0px" y="0px"
	 viewBox="0 0 840 530" style="enable-background:new 0 0 840 530;" xml:space="preserve">
<style type="text/css">
	.st0{fill:#F5C3AD;}
</style>
<path class="st0" d="M7.5,167.5c-9.72-53.44,86.44-138.47,193-156c93.17-15.32,114.87,34.02,285,77c176.93,44.7,280.47,23.43,305,84
	c13.86,34.23-15.65,49.82-8,120c8.9,81.67,54.31,110.45,38,140c-15.6,28.26-64.17,14.71-152,28c-98.24,14.86-99.62,41.22-175,54
	c-96.76,16.41-244.71-1.54-306-90c-39.15-56.5-9.04-92.82-58-156C76.76,200.45,14.82,207.73,7.5,167.5z"/>
</svg>
