<?xml version="1.0" encoding="utf-8"?>
<!-- Generator: Adobe Illustrator 26.4.1, SVG Export Plug-In . SVG Version: 6.00 Build 0)  -->
<svg version="1.1" id="Слой_1" xmlns="http://www.w3.org/2000/svg" xmlns:xlink="http://www.w3.org/1999/xlink" x="0px" y="0px"
	 viewBox="0 0 595.28 491.74" style="enable-background:new 0 0 595.28 491.74;" xml:space="preserve">
<style type="text/css">
	.st0{fill:#E48185;}
	.st1{fill:none;stroke:#B26268;stroke-miterlimit:10;}
	.st2{fill:#F7F2F3;}
	.st3{fill:#F6B8C4;}
	.st4{fill:#646E67;stroke:#646E67;stroke-miterlimit:10;}
	.st5{fill:#E48185;stroke:#E48185;stroke-miterlimit:10;}
	.st6{fill:#65816D;stroke:#65816D;stroke-miterlimit:10;}
</style>
<path class="st0" d="M288.96,9.96c27.46,6.43,62.44,12.11,103.15,12.77c44.66,0.72,82.82-4.82,112.09-11.23
	c1.4,16.4,2.8,32.79,4.2,49.19c0.03,0.26,0.06,0.53,0.09,0.79c22.83,127.85,45.65,255.7,68.48,383.55
	c-120.51,0.51-241.02,1.02-361.53,1.53c23.91-129.02,47.83-258.04,71.74-387.06c0.09-2.21,0.17-4.43,0.26-6.64
	C287.94,38.55,288.45,24.26,288.96,9.96z"/>
<path class="st1" d="M364.02,58.98"/>
<path class="st1" d="M373.38,62.13c-28.71-1.71-57.41-3.41-86.12-5.12"/>
<path class="st1" d="M467.43,62.68c13.65-0.56,27.3-1.13,40.95-1.69"/>
<path class="st1" d="M229.98,423.57c102.89,0.51,205.79,1.02,308.68,1.53"/>
<g>
	<circle class="st2" cx="396.19" cy="261.51" r="96.89"/>
	<g>
		<path class="st3" d="M397.08,243.56c-3.63,0.07-8.29,1.55-19.05,13.6c-16.87,18.88-25.31,28.32-22.31,38.94
			c3.08,10.91,17.19,19.59,26.04,16.85c7.53-2.33,9.19-12.28,14.55-11.79c4.9,0.45,4.87,8.89,10.98,11.85
			c8.49,4.12,25.38-4.02,29.62-16.09c4.65-13.27-7.62-26.65-20.39-40.57C404.99,243.79,398.95,243.53,397.08,243.56z"/>
		<ellipse class="st3" cx="353.24" cy="248.99" rx="9.1" ry="10.42"/>
		<ellipse class="st3" cx="379.96" cy="220.58" rx="9.01" ry="11.65"/>
		<ellipse class="st3" cx="413.15" cy="220.58" rx="9.01" ry="11.65"/>
		<ellipse class="st3" cx="439.2" cy="248.77" rx="9.04" ry="10.12"/>
	</g>
</g>
<g>
	<path class="st4" d="M236.34,366.38c-1.15-10.98-77.73-10.7-96.24-10.64c-19.39,0.07-93.64,0.34-94.72,11.14
		c-0.88,8.79,46.55,25.18,94.68,25.23C189.11,392.16,237.27,375.24,236.34,366.38z"/>
	<g>
		<circle class="st5" cx="164.83" cy="360.09" r="9.16"/>
		<circle class="st5" cx="151.28" cy="369.55" r="8.48"/>
		<circle class="st5" cx="137.06" cy="366.38" r="8.26"/>
		<circle class="st5" cx="137.34" cy="350.93" r="9.01"/>
		<ellipse class="st5" cx="76.59" cy="365.12" rx="14.27" ry="10.27"/>
		<circle class="st5" cx="145.45" cy="384.09" r="14.31"/>
		<circle class="st5" cx="123.89" cy="382.32" r="13.17"/>
		<circle class="st5" cx="172" cy="380.69" r="17.71"/>
		<circle class="st5" cx="202.78" cy="378.16" r="17.09"/>
		<circle class="st5" cx="76.79" cy="378.16" r="9.01"/>
		<circle class="st5" cx="94.29" cy="364.53" r="13.32"/>
		<circle class="st5" cx="149.51" cy="361.06" r="7.83"/>
		<circle class="st5" cx="182.51" cy="361.44" r="10.51"/>
		<circle class="st5" cx="118.58" cy="362.98" r="16.97"/>
		<circle class="st5" cx="97.3" cy="384.09" r="16.97"/>
	</g>
	<path class="st6" d="M45.39,367.63c-9.96,25.16-19.92,50.31-29.88,75.47c20.33,11.13,64.48,31.76,124.09,31.91
		c59.27,0.15,103.32-20.03,123.72-31c-8.99-25.63-17.99-51.25-26.98-76.88c-14.89,8.6-49.3,25.82-96.27,25.73
		C94.09,392.77,60.31,376.15,45.39,367.63z"/>
	<path class="st1" d="M115.73,364.97c-0.18,0.52-1.19,3.6,0.45,6.3c1.8,2.95,6.06,4.27,10.13,2.7"/>
	<path class="st1" d="M163.46,371.73c-0.19,0.4-1.66,3.29-4.95,4.05c-2.8,0.65-5.81-0.5-7.65-2.93"/>
	<path class="st1" d="M134.19,361.82c0.21-0.38,1.59-2.77,4.5-3.38c2.37-0.5,4.87,0.37,6.53,2.25"/>
	<path class="st1" d="M85.34,364.07"/>
	<path class="st5" d="M195.2,371.95c-0.87,2.66-3.16,4.59-5.85,4.95c-3.02,0.41-6.03-1.22-7.43-4.05"/>
	<path class="st5" d="M135.09,385.68c0.5-1.02,1.94-3.6,4.95-4.95c3.82-1.72,8.61-0.74,12.16,2.48"/>
	<path class="st5" d="M161.66,359.57c0.09-0.15,1.26-1.96,3.38-2.03c1.76-0.05,3.42,1.13,4.05,2.93"/>
	<path class="st1" d="M184.32,371.19c0.16,0.52,1.16,3.61,4.09,4.82c3.19,1.32,7.41-0.13,9.77-3.8"/>
	<path class="st1" d="M133.53,375.06c-0.18,0.52-1.19,3.6,0.45,6.3c1.8,2.95,6.06,4.27,10.13,2.7"/>
	<path class="st1" d="M82.81,374.86c0.46,0.3,3.18,2.06,6.21,1.15c3.31-0.99,5.66-4.79,5.17-9.12"/>
	<path class="st1" d="M105.35,359.53c-0.05-0.43-0.35-3.17,1.63-5.39c1.62-1.81,4.14-2.58,6.59-2.05"/>
	<path class="st1" d="M177.26,361.24c0.12,0.41,0.83,3.08-0.8,5.57c-1.33,2.03-3.71,3.18-6.21,3.02"/>
	<path class="st1" d="M99.69,379.79c0.21-0.38,1.59-2.77,4.5-3.38c2.37-0.5,4.87,0.37,6.53,2.25"/>
</g>
<path class="st1" d="M301,48.78c-0.57,2.95-1.13,5.9-1.7,8.85"/>
<path class="st1" d="M311.04,49.51c-0.57,2.95-1.13,5.9-1.7,8.85"/>
<path class="st1" d="M320.99,50.21c-0.57,2.95-1.13,5.9-1.7,8.85"/>
<path class="st1" d="M330.88,51.01c-0.57,2.95-1.13,5.9-1.7,8.85"/>
<path class="st1" d="M474.62,53.83c-0.57,2.95-1.13,5.9-1.7,8.85"/>
<path class="st1" d="M482.87,53.47c-0.57,2.95-1.13,5.9-1.7,8.85"/>
<path class="st1" d="M491.5,53.47c-0.57,2.95-1.13,5.9-1.7,8.85"/>
<path class="st1" d="M508.44,61.85"/>
</svg>
