<?xml version="1.0" encoding="utf-8"?>
<!-- Generator: Adobe Illustrator 26.4.1, SVG Export Plug-In . SVG Version: 6.00 Build 0)  -->
<svg version="1.1" id="Слой_1" xmlns="http://www.w3.org/2000/svg" xmlns:xlink="http://www.w3.org/1999/xlink" x="0px" y="0px"
	 viewBox="0 0 1920 906" style="enable-background:new 0 0 1920 906;" xml:space="preserve">
<style type="text/css">
	.st0{fill:#64816D;}
	.st1{fill:#FFFFFF;}
	.st2{fill:none;stroke:#FFFFFF;stroke-width:0.5;stroke-miterlimit:10;}
	.st3{fill:none;stroke:#FFFFFF;stroke-miterlimit:10;}
</style>
<path class="st0" d="M0,29C42.91,16.02,116.24,0.36,203,16c129.32,23.31,214.4,102.79,248,135c112.9,108.21,111.79,197.62,170,201
	c78.18,4.54,93.26-156,212-187c106.06-27.69,223.49,66.59,295,124c140.92,113.14,154.67,209.83,247.5,214.5
	c69.35,3.49,143.35-46.38,164.21-60.43c51.67-34.82,57.86-59.04,112.29-87.07c30.61-15.76,83.4-42.94,138-30
	c63.51,15.05,111.9,80.2,129.5,161.5c0.33,139.67,0.67,279.33,1,419c-640.33,0-1280.67,0-1921,0C-0.33,614-0.17,321.5,0,29z"/>
<line class="st1" x1="115" y1="184" x2="133" y2="218"/>
<line class="st1" x1="166.62" y1="184" x2="160" y2="227"/>
<line class="st2" x1="91.55" y1="227" x2="133" y2="242.06"/>
<path class="st3" d="M767.31,270.8c5.29,14.01,16.42,23.51,26.89,23c16.21-0.78,23.49-25.2,24.02-38.56
	c0.17-4.41,0.4-10.12-2.92-12.27c-7.07-4.57-28.54,8.07-28.3,19.08c0.28,12.64,29.33,29.82,51.83,21.06
	c23.2-9.03,31.72-42.62,25.21-47.98c-5.78-4.77-29.41,7.82-29.3,19.12c0.12,13.26,33.02,33.13,55.83,20.91
	c17.97-9.63,19.57-33.78,19.67-35.77"/>
<path class="st3" d="M123.85,491.01c-7.51,12.21-21.48,17.5-32.63,13.49c-14.33-5.15-21.32-24.7-15.45-32.52
	c4.59-6.11,18.17-6.56,21.14-1.69c4.65,7.62-12.22,35.59-29.08,32.57c-10.83-1.94-20.92-16.55-18.9-34.65"/>
<path class="st3" d="M1741.5,736.5c-41.96-4.88-65.26-43.26-73-56c-26.94-44.37-33.29-112.96-4-131c18.64-11.48,51.84-2.55,71,14
	c18.85,16.29,21.8,37.96,31,37c8.84-0.92,7.65-21.07,23-41c12.65-16.41,37.25-33.64,52-28c25.2,9.63,34.49,90.87-2,147
	C1834.5,686.2,1796.43,742.89,1741.5,736.5z"/>
<path class="st3" d="M755.04,565.75c-1.43,0.32,2.36,12.04-2.73,16.52c-4.36,3.84-13.14,0.48-13.31,1.28
	c-0.16,0.77,8.52,1.16,14.76,6.9c6.69,6.16,7.14,15.34,8.66,15.08c1.48-0.26-1.15-8.6,3.21-14.6c4.91-6.76,15.99-6.78,15.88-7.38
	c-0.1-0.54-8.73,2.98-15.4-0.48C757.71,578.72,756.52,565.42,755.04,565.75z"/>
<path class="st3" d="M105.5,807.5L105.5,807.5c0,0-5.8-9.74-6.15-10.33c-3.47-5.84-11.51-23.59-11.85-44.67
	c-0.31-19.23,5.77-42.92,12-43c8.31-0.11,15.62,41.77,16,44c4.91,28.8,2.21,52.52,9,54c1.46,0.32,2.78-0.52,3.72-1.15
	c14.55-9.74,22.54-24.6,31.28-32.85c14.56-13.73,37.68-15.23,40-11c1.5,2.74-5.31,9.19-19,22c-26.01,24.33-34.06,25.91-35,35
	c-0.95,9.16,6.87,10.99,19,37c5.9,12.66,9.93,21.28,7,24c-4.42,4.1-23.48-6.33-34-20c-1.88-2.44-3.17-4.57-3.42-4.98
	c-8.48-14.08-7.19-26.99-8.58-27.02c-1.56-0.03-1.59,16.15-7,35c-3.46,12.07-7.62,26.57-14,27c-8.13,0.55-21.06-21.7-16-39
	c3.63-12.38,14.81-16.57,13-21c-2.52-6.17-23.78,3.02-49-5c-14.99-4.77-29.39-14.98-28-20c1.36-4.92,17.73-4.43,32-4
	C81.38,802.24,105.5,807.5,105.5,807.5z"/>
<path class="st3" d="M773.15,506.01c-2.15,0.48,3.56,18.18-4.11,24.93c-6.59,5.8-19.83,0.73-20.09,1.94
	c-0.24,1.16,12.86,1.76,22.27,10.41c10.1,9.29,10.78,23.15,13.07,22.75c2.23-0.39-1.73-12.98,4.84-22.03
	c7.41-10.2,24.13-10.24,23.96-11.13c-0.15-0.82-13.17,4.5-23.24-0.73C777.17,525.57,775.38,505.51,773.15,506.01z"/>
</svg>
