<?xml version="1.0" encoding="utf-8"?>
<!-- Generator: Adobe Illustrator 26.4.1, SVG Export Plug-In . SVG Version: 6.00 Build 0)  -->
<svg version="1.1" id="Слой_1" xmlns="http://www.w3.org/2000/svg" xmlns:xlink="http://www.w3.org/1999/xlink" x="0px" y="0px"
	 viewBox="0 0 370 358" style="enable-background:new 0 0 370 358;" xml:space="preserve">
<style type="text/css">
	.st0{fill:#F6B8C4;}
	.st1{fill:#E6E6E6;}
	.st2{fill:#F2F2F2;}
	.st3{fill:none;stroke:#F6B8C4;stroke-width:3;stroke-miterlimit:10;}
	.st4{fill:none;stroke:#F6B8C4;stroke-miterlimit:10;}
	.st5{fill:#F6B8C4;stroke:#E6E6E6;stroke-width:10;stroke-miterlimit:10;}
	.st6{fill:none;stroke:#FFFFFF;stroke-width:10;stroke-miterlimit:10;}
	.st7{fill:#FFFFFF;}
	.st8{fill:none;stroke:#E6E6E6;stroke-width:4;stroke-miterlimit:10;}
</style>
<g>
	<circle class="st0" cx="-650.5" cy="179.5" r="172.5"/>
	<path class="st1" d="M-650.5,12c44.74,0,86.8,17.42,118.44,49.06C-500.42,92.7-483,134.76-483,179.5s-17.42,86.8-49.06,118.44
		C-563.7,329.58-605.76,347-650.5,347s-86.8-17.42-118.44-49.06C-800.58,266.3-818,224.24-818,179.5s17.42-86.8,49.06-118.44
		C-737.3,29.42-695.24,12-650.5,12 M-650.5,2C-748.53,2-828,81.47-828,179.5S-748.53,357-650.5,357S-473,277.53-473,179.5
		S-552.47,2-650.5,2L-650.5,2z"/>
</g>
<g>
	<circle class="st0" cx="-252.5" cy="179.5" r="172.5"/>
	<path class="st1" d="M-252.5,12c44.74,0,86.8,17.42,118.44,49.06C-102.42,92.7-85,134.76-85,179.5s-17.42,86.8-49.06,118.44
		C-165.7,329.58-207.76,347-252.5,347s-86.8-17.42-118.44-49.06C-402.58,266.3-420,224.24-420,179.5s17.42-86.8,49.06-118.44
		C-339.3,29.42-297.24,12-252.5,12 M-252.5,2C-350.53,2-430,81.47-430,179.5S-350.53,357-252.5,357S-75,277.53-75,179.5
		S-154.47,2-252.5,2L-252.5,2z"/>
</g>
<g>
	<circle class="st0" cx="186.5" cy="179.5" r="172.5"/>
	<path class="st1" d="M186.5,12c44.74,0,86.8,17.42,118.44,49.06C336.58,92.7,354,134.76,354,179.5s-17.42,86.8-49.06,118.44
		C273.3,329.58,231.24,347,186.5,347s-86.8-17.42-118.44-49.06C36.42,266.3,19,224.24,19,179.5S36.42,92.7,68.06,61.06
		C99.7,29.42,141.76,12,186.5,12 M186.5,2C88.47,2,9,81.47,9,179.5S88.47,357,186.5,357S364,277.53,364,179.5S284.53,2,186.5,2
		L186.5,2z"/>
</g>
<g>
	<rect x="-732" y="79" class="st2" width="163" height="202"/>
	<path class="st2" d="M-574,84v192h-153V84H-574 M-564,74h-173v212h173V74L-564,74z"/>
</g>
<g>
	<line class="st3" x1="-681.5" y1="114.5" x2="-589.5" y2="114.5"/>
</g>
<g>
	<line class="st3" x1="-681" y1="187.5" x2="-589" y2="187.5"/>
</g>
<g>
	<line class="st3" x1="-681" y1="223.5" x2="-589" y2="223.5"/>
</g>
<g>
	<line class="st3" x1="-681" y1="151.5" x2="-589" y2="151.5"/>
</g>
<g>
	<line class="st3" x1="-681" y1="259.5" x2="-589" y2="259.5"/>
</g>
<g>
	<g>
		<path class="st0" d="M-703,99v13h-13V99H-703 M-700,96h-19v19h19V96L-700,96z"/>
	</g>
	<polyline class="st4" points="-713.85,105.5 -709.5,109.45 -697.5,92.5 	"/>
</g>
<g>
	<g>
		<path class="st0" d="M-703,243v13h-13v-13H-703 M-700,240h-19v19h19V240L-700,240z"/>
	</g>
	<polyline class="st4" points="-713.85,249.5 -709.5,253.45 -697.5,236.5 	"/>
</g>
<g>
	<g>
		<path class="st0" d="M-703,207v13h-13v-13H-703 M-700,204h-19v19h19V204L-700,204z"/>
	</g>
	<polyline class="st4" points="-713.85,213.5 -709.5,217.45 -697.5,200.5 	"/>
</g>
<g>
	<g>
		<path class="st0" d="M-703,172v13h-13v-13H-703 M-700,169h-19v19h19V169L-700,169z"/>
	</g>
	<polyline class="st4" points="-713.85,178.5 -709.5,182.45 -697.5,165.5 	"/>
</g>
<g>
	<g>
		<path class="st0" d="M-702,135v13h-13v-13H-702 M-699,132h-19v19h19V132L-699,132z"/>
	</g>
	<polyline class="st4" points="-712.85,141.5 -708.5,145.45 -696.5,128.5 	"/>
</g>
<path class="st5" d="M-365,254c25,0,50,0,75,0c1.17-40.51-21.12-67.95-37.3-68C-343.5,185.95-366.05,213.33-365,254z"/>
<circle class="st5" cx="-328" cy="165" r="18"/>
<g>
	<path class="st6" d="M-217.14,88.78V61.02c0-6.8-5.51-12.32-12.32-12.32h-60.76c-6.8,0-12.32,5.51-12.32,12.32v27.76
		c0,6.8,5.51,12.32,12.32,12.32h50.61h10.15C-222.65,101.1-217.14,95.58-217.14,88.78z"/>
	<path class="st6" d="M-220,97c6.13,5.05,8.8,8.39,8,10c-1.31,2.65-11.93,0.68-31.85-5.9"/>
</g>
<circle class="st2" cx="-276" cy="176" r="5"/>
<circle class="st2" cx="-226" cy="176" r="5"/>
<circle class="st2" cx="-251" cy="176" r="5"/>
<circle class="st2" cx="-285" cy="75" r="5"/>
<circle class="st2" cx="-235" cy="75" r="5"/>
<circle class="st2" cx="-260" cy="75" r="5"/>
<path class="st5" d="M-272-15"/>
<g>
	<g>
		<rect x="160.35" y="85.06" class="st1" width="60" height="14.93"/>
		<path class="st1" d="M215.35,90.06v4.93h-50v-4.93H215.35 M225.35,80.06h-70v24.93h70V80.06L225.35,80.06z"/>
	</g>
	<g>
		<path class="st7" d="M256.84,158.07v119.27c0,6.99-5.67,12.66-12.66,12.66H135.66c-6.99,0-12.66-5.67-12.66-12.66V156.37
			c0-0.12,0.09-0.21,0.21-0.21h131.72C255.98,156.16,256.84,157.02,256.84,158.07z"/>
		<path class="st7" d="M256.84,156.16H123c0-36.96,29.96-66.92,66.92-66.92S256.84,119.2,256.84,156.16z"/>
		<g>
			<circle class="st0" cx="190.58" cy="167.31" r="38.96"/>
			<g>
				<path class="st1" d="M190.58,133.36c18.72,0,33.96,15.23,33.96,33.96s-15.23,33.96-33.96,33.96s-33.96-15.23-33.96-33.96
					S171.85,133.36,190.58,133.36 M190.58,123.36c-24.28,0-43.96,19.68-43.96,43.96s19.68,43.96,43.96,43.96
					c24.28,0,43.96-19.68,43.96-43.96S214.85,123.36,190.58,123.36L190.58,123.36z"/>
			</g>
		</g>
	</g>
	<g>
		<path class="st1" d="M210.85,67v9.06h-39.24V67H210.85 M214.85,63h-47.24v17.06h47.24V63L214.85,63z"/>
	</g>
	<g>
		<path class="st0" d="M154.22,249.71c-2.36,0-4.29-1.92-4.29-4.29v-4.48c0-2.36,1.92-4.29,4.29-4.29h3.92
			c2.36,0,4.29,1.92,4.29,4.29v4.48c0,2.36-1.92,4.29-4.29,4.29H154.22z"/>
		<g>
			<path class="st1" d="M158.14,238.65c1.26,0,2.29,1.03,2.29,2.29v4.48c0,1.26-1.03,2.29-2.29,2.29h-3.92
				c-1.26,0-2.29-1.03-2.29-2.29v-4.48c0-1.26,1.03-2.29,2.29-2.29H158.14 M158.14,234.65h-3.92c-3.47,0-6.29,2.81-6.29,6.29v4.48
				c0,3.47,2.81,6.29,6.29,6.29h3.92c3.47,0,6.29-2.81,6.29-6.29v-4.48C164.43,237.47,161.62,234.65,158.14,234.65L158.14,234.65z"
				/>
		</g>
	</g>
	<g>
		<path class="st0" d="M224.44,249.72c-2.36,0-4.29-1.92-4.29-4.29v-4.48c0-2.36,1.92-4.29,4.29-4.29h3.93
			c2.36,0,4.29,1.92,4.29,4.29v4.48c0,2.36-1.92,4.29-4.29,4.29H224.44z"/>
		<g>
			<path class="st1" d="M228.37,238.66c1.26,0,2.29,1.03,2.29,2.29v4.48c0,1.26-1.03,2.29-2.29,2.29h-3.92
				c-1.26,0-2.29-1.03-2.29-2.29v-4.48c0-1.26,1.03-2.29,2.29-2.29H228.37 M228.37,234.66h-3.92c-3.47,0-6.29,2.81-6.29,6.29v4.48
				c0,3.47,2.81,6.29,6.29,6.29h3.92c3.47,0,6.29-2.81,6.29-6.29v-4.48C234.65,237.48,231.84,234.66,228.37,234.66L228.37,234.66z"
				/>
		</g>
	</g>
	<g>
		<path class="st0" d="M188.44,249.72c-2.36,0-4.29-1.92-4.29-4.29v-4.48c0-2.36,1.92-4.29,4.29-4.29h3.93
			c2.36,0,4.29,1.92,4.29,4.29v4.48c0,2.36-1.92,4.29-4.29,4.29H188.44z"/>
		<g>
			<path class="st1" d="M192.37,238.66c1.26,0,2.29,1.03,2.29,2.29v4.48c0,1.26-1.03,2.29-2.29,2.29h-3.92
				c-1.26,0-2.29-1.03-2.29-2.29v-4.48c0-1.26,1.03-2.29,2.29-2.29H192.37 M192.37,234.66h-3.92c-3.47,0-6.29,2.81-6.29,6.29v4.48
				c0,3.47,2.81,6.29,6.29,6.29h3.92c3.47,0,6.29-2.81,6.29-6.29v-4.48C198.65,237.48,195.84,234.66,192.37,234.66L192.37,234.66z"
				/>
		</g>
	</g>
</g>
<path class="st8" d="M171,162c1.65-11.89,2.33-12.75,3-13c2.99-1.12,9.21,8.44,12,13c3.33,0,6.67,0,10,0c0.53-1.54,4.7-13.47,8-13
	c2.5,0.36,3.85,7.71,5,14c0.76,4.13,1.13,6.19,1,8c-0.57,7.67-7.68,18.48-19,19c-12.6,0.58-20.69-12.02-21-20
	C169.98,169.37,170.32,166.92,171,162z"/>
<path class="st8" d="M176,184c-1.67,3.16-4.54,9.73-2,15c5.69,11.81,35.13,10.14,39,1c0.89-2.1,1.4-6.9-8-17"/>
<path class="st5" d="M-209.55,254.22c25,0,50,0,75,0c1.17-40.51-21.12-67.95-37.3-68C-188.05,186.17-210.59,213.56-209.55,254.22z"
	/>
<circle class="st5" cx="-172.55" cy="165.22" r="18"/>
</svg>
