<svg width="448" height="207" viewBox="0 0 448 207" fill="none" xmlns="http://www.w3.org/2000/svg">
<rect width="448" height="207" rx="9" fill="#F5C3AD"/>
<g clip-path="url(#clip0_125_294)">
<path d="M60.4 27.1001C60.3915 27.0958 60.3787 27.0872 60.3701 27.0829C60.3787 27.0915 60.3915 27.0958 60.4 27.1001Z" fill="white"/>
<path d="M61.8994 26.8107C61.9037 26.815 61.908 26.815 61.9123 26.8193C61.908 26.815 61.9037 26.8107 61.8994 26.8107Z" fill="white"/>
<path d="M21.2275 50.3065C21.211 50.3188 21.1987 50.3271 21.1822 50.3395C21.1987 50.3271 21.2152 50.3147 21.2275 50.3065Z" fill="white"/>
<path d="M22.9052 52.5764C22.9052 52.5813 22.9052 52.5813 22.9052 52.5764V52.5715C22.9101 52.5764 22.9052 52.5764 22.9052 52.5764Z" fill="white"/>
<path d="M19.183 49.2874C19.1873 49.2917 19.1958 49.2917 19.2001 49.296C19.1958 49.2917 19.1873 49.2874 19.183 49.2874Z" fill="white"/>
<path d="M69.3809 38.3378C69.3438 36.6917 69.0758 35.029 68.7131 33.42C68.7502 32.9291 68.7296 32.3391 68.338 31.9925C67.7692 30.0864 66.9818 28.2423 65.9926 26.5136C66.648 25.5152 67.4518 23.9928 66.4419 22.9655C65.704 22.458 64.5746 23.0563 64.1418 23.737C62.662 21.7938 60.9142 20.0569 58.948 18.6088C59.3273 15.1638 55.9761 13.1422 56.2811 16.8718C55.3743 16.3603 54.4303 15.9023 53.4658 15.5021C53.5358 15.0235 52.8269 14.7059 52.6043 15.1638C51.9035 14.8998 51.1945 14.6687 50.4732 14.4707C50.4526 14.1406 49.8673 13.9426 49.7106 14.2727C39.0758 11.8509 26.7428 15.6011 20.4402 24.8056C20.1888 24.8138 20.0857 25.0737 20.1022 25.2924C19.7106 25.8741 19.3438 26.4723 19.0016 27.0829C18.3998 26.988 17.9588 27.6812 18.4534 28.1185C18.0082 29.0138 17.6125 29.9297 17.2704 30.8703C16.413 30.7259 15.939 31.9183 16.8046 32.2813C16.4666 33.387 16.2152 34.5133 16.042 35.6561C11.7922 33.4406 12.7609 37.6406 15.7494 38.6968C15.704 39.9262 15.7535 41.1557 15.8813 42.381C15.0033 42.2779 14.723 43.0741 15.094 43.7673C15.3495 44.1881 15.8112 44.4397 16.2275 44.6749C16.4913 45.9993 16.8499 47.3071 17.3199 48.5737C16.6067 49.1348 17.427 49.8485 17.9629 50.1497C20.0321 54.8159 23.54 58.8095 27.8598 61.516C27.7321 62.0936 28.4617 62.5309 28.9109 62.1431C29.5375 62.4979 30.1805 62.828 30.8359 63.1291C30.8607 63.5211 31.3759 63.7191 31.6809 63.4963C32.493 63.8346 33.3215 64.1317 34.1624 64.3875C34.249 64.569 34.5004 64.6515 34.6694 64.5319C52.1467 68.9588 69.995 57.0933 69.3809 38.3378ZM67.0107 48.4953C66.8706 49.0234 66.2316 49.1018 65.77 49.0234C66.1904 48.846 66.5696 48.5819 66.9612 48.3468C67.0231 48.3715 67.0189 48.4334 67.0107 48.4953ZM51.3471 62.8775C47.1014 64.8248 42.2745 64.9238 37.7856 63.8264C44.5293 65.1136 51.7634 63.4592 57.2621 59.3418C55.4649 60.7899 53.4658 61.974 51.3471 62.8775ZM40.3537 64.3751C40.3454 64.3751 40.3413 64.3751 40.333 64.371C40.3372 64.3751 40.3454 64.3751 40.3537 64.3751ZM26.6026 59.2386C26.4419 59.2345 26.2523 59.218 26.1492 59.0818C26.4625 59.1644 26.7922 59.1726 27.1138 59.1644C27.122 59.1726 27.1302 59.1767 27.1385 59.185C26.9612 59.2304 26.7799 59.2386 26.6026 59.2386ZM22.2127 54.0196C21.6397 54.0279 20.8607 53.9866 20.5144 53.475C21.1039 53.7308 21.7263 53.8463 22.3446 53.9949C22.3487 53.999 22.3528 54.0031 22.3528 54.0072C22.3075 54.0114 22.258 54.0155 22.2127 54.0196ZM21.3306 53.0872C21.4089 53.1202 21.4872 53.1491 21.5573 53.1986C21.244 53.1078 20.9225 53.0501 20.5927 53.0418C20.8194 52.9222 21.0997 53.0171 21.3306 53.0872ZM14.488 36.7164C14.1995 36.3946 13.878 36.0976 13.6183 35.7469C13.6265 35.7304 13.6307 35.7139 13.6389 35.6974C14.4097 36.2255 15.1393 36.8113 15.8277 37.4384C15.8236 37.5003 15.8153 37.5663 15.8112 37.6282C15.366 37.3353 14.8879 37.0754 14.488 36.7164ZM57.6084 17.6722C57.5919 17.1936 57.5342 16.7151 57.5466 16.2365C57.662 16.7563 57.765 17.2803 57.8269 17.8125C57.7568 17.7671 57.6826 17.7217 57.6084 17.6722ZM57.9546 18.5386C58.0453 18.9058 58.136 19.2812 58.1278 19.6608C57.9299 19.24 57.7856 18.7903 57.662 18.3406C57.7609 18.4066 57.8598 18.4726 57.9546 18.5386ZM64.1047 25.6967C64.1129 25.3749 64.15 25.0531 64.2407 24.7437C64.3644 24.917 64.488 25.0944 64.6076 25.2718C64.3891 25.8287 64.3232 26.4228 64.1789 27.0004C64.1047 26.5714 64.0964 26.1299 64.1047 25.6967ZM65.8524 23.5926C65.8936 23.5555 65.9307 23.5183 65.9678 23.4771C65.8565 24.1413 65.5144 24.7148 65.2712 25.3336C65.1929 25.2099 65.1146 25.0902 65.0321 24.9706C65.2588 24.4879 65.4979 23.9887 65.8524 23.5926ZM67.596 32.9456C67.6331 32.8919 67.6743 32.8424 67.7197 32.7929C67.6208 33.1353 67.4724 33.4613 67.3075 33.7748C67.3281 33.651 67.3611 33.5314 67.4023 33.4118C67.3982 33.4324 67.3899 33.4489 67.3858 33.4695C67.4394 33.288 67.5053 33.1106 67.596 32.9456ZM68.6307 35.8748C68.6966 36.374 68.7461 36.8732 68.7832 37.3724C68.0453 37.4178 67.5342 38.1398 67.3611 38.8082C67.3405 37.7726 67.2498 36.7412 67.1055 35.718C67.1426 35.718 67.1756 35.7056 67.2127 35.6891C67.2127 35.6891 67.2127 35.6891 67.2086 35.6891C67.798 35.4746 67.9959 34.7815 68.3668 34.3235C68.4699 34.8351 68.5565 35.355 68.6307 35.8748ZM63.0865 51.8536C63.0453 51.7133 62.9835 51.5483 63.0618 51.408C63.0659 51.5607 63.1484 51.6886 63.2226 51.8206C63.1937 51.866 63.1649 51.9114 63.1401 51.9568C63.1195 51.9238 63.103 51.8908 63.0865 51.8536ZM65.0074 48.2519C65.0033 48.2684 64.995 48.2808 64.9909 48.2973C64.9579 48.2271 64.925 48.157 64.8879 48.0827C64.892 48.091 64.8961 48.0951 64.8961 48.1034C64.892 48.0951 64.8879 48.0869 64.8837 48.0745C64.8837 48.0745 64.8837 48.0786 64.8879 48.0786C64.756 47.7774 64.6735 47.4556 64.5952 47.138C64.9332 47.3937 65.0321 47.8476 65.0074 48.2519ZM64.3438 47.204C64.4551 47.567 64.5457 47.9383 64.7189 48.2766C64.5169 47.9548 64.3438 47.5918 64.3438 47.204ZM66.7098 39.8272C66.7139 39.8355 66.7139 39.8396 66.718 39.8478C65.8936 39.4477 64.7848 38.8783 64.6529 37.8799C65.2259 38.5895 65.8565 39.3363 66.6768 39.7571C66.6851 39.7818 66.6974 39.8066 66.7098 39.8272ZM65.2671 37.7355C65.8978 38.1439 66.2152 38.8247 66.5367 39.4765C65.9678 38.8907 65.3743 38.3255 64.9167 37.6447C65.0363 37.6612 65.1599 37.6736 65.2671 37.7355ZM59.4427 25.1191C60.7288 25.2759 61.817 26.2248 62.6001 27.2108C62.5383 27.1737 62.4765 27.1366 62.4147 27.1036C62.4147 27.1036 62.4147 27.1036 62.4188 27.1036C62.2374 27.0004 62.056 26.8932 61.8747 26.7941C61.8829 26.7983 61.8912 26.8024 61.8994 26.8065C60.8648 26.2165 59.8425 25.5152 58.6307 25.3708C58.8285 25.1604 59.1624 25.1356 59.4427 25.1191ZM62.4765 27.7843C61.1616 27.2232 59.7642 26.6786 58.676 25.7256C58.6801 25.7297 58.6842 25.7338 58.6884 25.738C58.643 25.6967 58.5977 25.6513 58.5606 25.6059C59.0841 25.6596 59.5581 25.8906 60.0321 26.1052C60.028 26.101 60.0198 26.101 60.0156 26.0969C60.9472 26.6415 61.8623 27.2108 62.8104 27.7307C62.798 27.7224 62.7856 27.7183 62.7733 27.71C62.9011 27.7761 63.0124 27.8709 63.1525 27.9122C63.1566 27.9163 63.1607 27.9205 63.1649 27.9246C62.9258 27.8998 62.6991 27.8709 62.4765 27.7843ZM58.9975 26.2413C59.6694 26.7735 60.4691 27.1159 61.2193 27.5326C60.3042 27.215 59.2696 26.8519 58.7172 26.0061C58.8079 26.0886 58.8986 26.167 58.9975 26.2413ZM53.1731 19.7351C54.4386 19.5948 55.6917 19.8753 56.8499 20.3663C55.0115 19.9826 53.1566 20.0816 51.3017 20.2508C51.8417 19.8671 52.526 19.7351 53.1731 19.7351ZM51.7304 20.6262C53.6018 20.3622 55.4814 20.3292 57.3487 20.6551C55.4773 20.8036 53.5194 21.1997 51.6851 20.6345C51.6974 20.6304 51.7139 20.6262 51.7304 20.6262ZM54.2819 19.3926C53.2803 19.3143 52.1838 19.3803 51.3141 19.9331C52.1385 18.9429 53.5194 18.9512 54.6199 19.4215C54.5086 19.4133 54.3974 19.4091 54.2819 19.3926ZM51.2976 21.014C53.4328 21.6081 55.7164 21.1708 57.8557 20.8119C57.9217 20.8531 57.9917 20.8985 58.0659 20.9192C58.0783 20.9357 58.0865 20.9563 58.103 20.9687C56.3718 21.4472 52.7527 22.2146 51.2893 21.0099C51.2893 21.0099 51.2935 21.014 51.2976 21.014ZM65.9555 33.5314C65.9307 33.4984 65.9019 33.4695 65.8771 33.4406C65.8854 33.4489 65.8936 33.4613 65.9019 33.4695C65.5103 33.0074 64.995 32.6114 64.4221 32.4051C65.1022 32.2937 65.6133 33.0322 65.9555 33.5314ZM64.1665 32.5165C65.1723 32.863 66.042 33.845 66.3141 34.8723C65.6587 34.0265 65.0692 33.0281 63.9975 32.665C64.0429 32.6072 64.1047 32.5577 64.1665 32.5165ZM63.9274 32.8094C64.7312 33.0941 65.3001 33.8202 65.6834 34.5587C65.1063 34.0595 63.9274 33.6758 63.9274 32.8094ZM65.0981 43.3836C65.0775 43.3464 65.061 43.3052 65.0445 43.268C65.0445 43.268 65.0445 43.2722 65.0486 43.2722C65.0445 43.2598 65.0404 43.2515 65.0363 43.2392C65.0363 43.2433 65.0363 43.2433 65.0404 43.2474C65.0033 43.1608 64.9579 43.0783 64.9332 42.9916C65.0651 43.2144 65.2424 43.3877 65.4196 43.5775C65.4979 43.6971 65.6092 43.7879 65.6958 43.8993C65.6917 43.8952 65.6917 43.891 65.6875 43.8869C65.7452 43.9653 65.8071 44.0396 65.8771 44.1056C65.601 43.8869 65.2836 43.6889 65.0981 43.3836ZM65.8771 43.8663C65.568 43.5156 65.2547 43.169 64.9538 42.8183C65.4856 42.9174 65.7823 43.4702 65.9472 43.9364C65.9225 43.9158 65.8978 43.891 65.8771 43.8663ZM64.657 43.0741C64.7972 43.4578 65.0156 43.8044 65.366 44.0231C65.0198 43.8209 64.6859 43.495 64.657 43.0741ZM68.8203 37.9129C68.3421 38.3048 67.9258 38.7545 67.563 39.2537C67.7733 38.6431 68.0865 37.8469 68.812 37.7437C68.812 37.8015 68.8161 37.8593 68.8203 37.9129ZM68.136 33.5025C67.9093 34.0182 67.5837 34.4968 67.2745 34.9671C67.2498 34.8062 67.2498 34.6453 67.2539 34.4803C67.6002 34.0265 67.8846 33.5232 68.0618 32.9786C68.0907 33.1518 68.1896 33.3251 68.136 33.5025ZM64.4633 27.4873C64.7065 27.0458 64.9785 26.6209 65.1682 26.1505C65.2176 26.233 65.2671 26.3156 65.3166 26.3981C65.0033 26.7405 64.7354 27.1159 64.4633 27.4873ZM65.0527 25.9649C65.0404 25.9979 65.0321 26.0309 65.0198 26.0639C65.0239 26.0556 65.0239 26.0474 65.028 26.0433C64.8673 26.5342 64.6282 26.9963 64.3809 27.4543C64.3685 27.4295 64.3561 27.4047 64.3438 27.38C64.4839 26.7694 64.5911 26.1505 64.7931 25.5564C64.8796 25.6926 64.9662 25.8287 65.0527 25.9649ZM58.3339 19.1616C58.3174 19.0255 58.2885 18.8893 58.2638 18.7532C58.2968 18.7779 58.3339 18.8027 58.3668 18.8274C58.3545 18.9388 58.3421 19.0502 58.3339 19.1616ZM57.2168 18.0518C57.2539 18.5634 57.4806 19.0378 57.6579 19.5123C57.596 19.4628 57.5342 19.4133 57.4682 19.3679C57.2951 18.8852 57.1014 18.4107 56.9983 17.9115C57.0725 17.9569 57.1426 18.0023 57.2127 18.0477C57.2168 18.0518 57.2168 18.0518 57.2168 18.0518ZM27.6331 19.9496C35.8936 13.4063 48.3421 13.2619 56.7675 19.5824C54.8879 18.8934 52.2992 17.829 50.8648 19.8506C50.2259 20.6345 50.906 21.5463 51.7057 21.8433C53.9893 22.5117 56.4996 21.8846 58.6966 21.1502C60.6339 22.9201 62.2663 25.0201 63.5523 27.3057C57.9423 20.7541 54.4221 28.0772 64.0346 28.5269C64.0882 28.5641 64.1541 28.5806 64.2201 28.5764C64.8137 29.7811 65.3001 31.0354 65.6875 32.3185C64.9332 31.4356 63.1896 31.8853 63.3998 33.1683C63.8945 34.4019 65.3701 34.9878 66.4501 35.6355C66.615 36.6834 66.7222 37.7396 66.7428 38.7999C64.5169 35.2064 62.6372 38.6555 66.7304 40.1655C66.6851 41.3125 66.5655 42.4594 66.3512 43.5857C64.3809 40.6235 62.9917 44.0849 66.0956 44.8028C65.8936 45.6692 65.6422 46.5232 65.3413 47.3607C64.2778 45.5949 63.0783 47.1503 64.6653 49.0523C64.3355 49.7866 63.9728 50.5086 63.5771 51.21C62.7362 50.3642 62.324 51.7464 62.9093 52.324C61.1162 55.1294 58.7419 57.5718 55.9761 59.4284C55.9678 59.4202 55.9596 59.416 55.9472 59.4119C55.8895 59.4532 55.8277 59.4944 55.7617 59.5274C55.7741 59.5357 55.7906 59.5398 55.8071 59.5398C48.305 64.6639 38.1937 64.6928 30.3372 60.4144C28.4905 59.35 26.7799 58.0422 25.2795 56.5322C25.3083 56.5363 25.3372 56.5404 25.366 56.5487C25.4114 56.5569 25.4608 56.5652 25.5062 56.5734C25.5268 56.5775 25.5474 56.5817 25.568 56.5858C25.6752 56.6064 25.7823 56.6229 25.8895 56.6436C26.817 55.0304 24.6117 53.8175 24.7477 55.9463C24.2119 55.3357 23.7007 54.7045 23.2308 54.0444C25.1764 52.1259 22.662 50.0342 22.258 52.5839C21.8211 51.8866 21.4254 51.1688 21.0626 50.4303C23.8986 48.8625 21.1203 45.203 20.1599 48.3633C19.7725 47.3484 19.4468 46.3087 19.1912 45.2566C22.7939 44.1303 20.8895 38.9361 18.7213 42.7812C18.5771 41.7333 18.5029 40.6771 18.4864 39.6168C18.7584 39.5797 19.0016 39.4477 19.2613 39.3775C19.249 39.3816 19.2407 39.3858 19.2283 39.3858C19.2448 39.3816 19.2654 39.3734 19.2819 39.3693C19.2778 39.3693 19.2737 39.3734 19.2696 39.3734C20.6175 38.9608 21.953 37.5251 21.7964 36.0522C21.2852 34.4267 19.2737 35.6396 18.6265 36.5638C19.3232 30.1566 22.5589 23.9515 27.6331 19.9496ZM26.8829 59.02C26.718 59.0323 26.5573 58.9952 26.3883 58.9952C26.2852 58.9993 26.1863 58.9704 26.0915 58.9292C26.3718 58.9044 26.6727 58.9086 26.9365 59.0158C26.92 59.02 26.8994 59.02 26.8829 59.02ZM21.6974 53.7143C21.2523 53.6731 20.8401 53.4626 20.4196 53.3265C20.3949 53.2894 20.3743 53.2564 20.3495 53.2192C20.3578 53.211 20.3701 53.1986 20.3825 53.1903C20.9967 53.2481 21.8499 53.2357 22.2127 53.8092C22.0437 53.7679 21.8747 53.7267 21.6974 53.7143ZM19.3067 49.7C19.1995 49.6753 19.0882 49.6546 18.981 49.634C18.9851 49.634 18.9893 49.634 18.9975 49.6381C18.7832 49.5886 18.5688 49.5309 18.3668 49.4442C18.3133 49.3163 18.2597 49.1843 18.2102 49.0523C18.7543 49.2049 19.2613 49.469 19.7354 49.7743C19.587 49.7536 19.4468 49.7289 19.3067 49.7ZM16.7593 43.9158C16.7387 43.792 16.718 43.6682 16.6974 43.5403C17.1797 43.7879 17.6331 44.0849 18.0453 44.4439C18.0577 44.5058 18.0742 44.5676 18.0865 44.6295C17.6125 44.448 17.1756 44.2005 16.7593 43.9158ZM21.413 36.6504C21.0503 37.7066 20.2135 38.6803 19.1088 38.9649C20.1805 38.4451 20.9637 37.4261 21.4419 36.3534C21.4377 36.4524 21.4295 36.5514 21.413 36.6504ZM20.5062 42.5172C20.5515 42.3769 20.6175 42.2407 20.6381 42.0922C21.211 43.0576 20.3289 44.25 19.4427 44.6667C19.9909 44.0602 20.2176 43.2639 20.5062 42.5172ZM20.4237 41.8653C20.0775 42.8679 19.8178 43.9653 19.08 44.7863C18.8285 43.9447 19.7683 42.4017 20.399 41.8406C20.4114 41.8488 20.4196 41.8529 20.432 41.8612C20.4279 41.8612 20.4279 41.8653 20.4237 41.8653ZM20.1228 41.7952C19.6241 42.2408 19.4427 42.8885 19.1748 43.4785C19.0882 43.6724 18.9975 43.8663 18.9357 44.0726C18.7048 43.2268 19.3891 42.1871 20.1228 41.7952ZM16.6974 37.719C16.6274 37.6654 16.5532 37.6158 16.479 37.5622C16.4831 37.5003 16.4913 37.4384 16.4955 37.3766C16.751 37.6488 17.0396 37.8881 17.2745 38.1811C17.0849 38.0243 16.8912 37.8716 16.6974 37.719ZM20.4196 36.9929C20.737 36.6381 21.0709 36.3039 21.3264 35.8996C21.3635 35.9408 21.38 35.9986 21.4006 36.0522C20.8978 37.327 19.8384 38.573 18.4864 38.9691C18.4864 38.9361 18.4864 38.9031 18.4864 38.8701C19.2448 38.3832 19.8837 37.7149 20.4196 36.9929ZM21.0709 35.8748C20.2753 36.8608 19.5334 37.9376 18.4864 38.6761C18.9316 37.4838 19.9456 36.4359 20.9678 35.6809C21.0338 35.7015 21.1039 35.718 21.1616 35.7593C21.1327 35.7964 21.0997 35.8335 21.0709 35.8748ZM20.5309 35.7139C19.8054 36.3699 19.0676 37.0259 18.5523 37.8716C18.5565 37.8675 18.5606 37.8593 18.5647 37.8551C18.5565 37.8675 18.5523 37.8758 18.5441 37.8881C18.5441 37.884 18.5482 37.884 18.5482 37.8799C18.5358 37.8964 18.5276 37.917 18.5152 37.9335C18.4823 36.8443 19.6241 36.044 20.5556 35.6933C20.5474 35.6974 20.5391 35.7056 20.5309 35.7139ZM16.4542 37.9335C16.5119 37.9789 16.5655 38.0243 16.6191 38.0697C16.5614 38.0367 16.5078 38.0078 16.4501 37.9748C16.4501 37.9665 16.4501 37.95 16.4542 37.9335ZM16.6274 43.07C16.6232 43.0411 16.6191 43.0164 16.615 42.9875C17.1014 43.2433 17.5424 43.6022 17.8516 44.0561C17.4847 43.7343 17.0643 43.4867 16.648 43.2309C16.6438 43.1773 16.6356 43.1236 16.6274 43.07ZM20.4814 49.0647C20.5062 48.6108 20.5515 48.058 20.9266 47.7527C20.6917 48.3179 20.7246 48.9533 20.6422 49.5515C20.5845 49.3865 20.4691 49.2379 20.4814 49.0647ZM21.0255 49.9145C21.0008 49.9352 20.972 49.9476 20.9472 49.9641C21.3842 49.3287 21.5449 48.5201 21.5985 47.7568C22.1962 48.3715 21.7757 49.5474 21.0503 49.8939C21.0668 49.8815 21.0791 49.8692 21.0956 49.8609C21.0709 49.8774 21.0462 49.898 21.0255 49.9145ZM21.3677 48.0992C21.2687 48.7181 21.1657 49.3741 20.803 49.898C20.8236 49.1389 20.8524 48.2313 21.31 47.5877C21.3347 47.6 21.3553 47.6083 21.38 47.6207C21.3759 47.7816 21.38 47.9425 21.3677 48.0992ZM22.7609 53.3554C22.6125 52.8933 22.5177 52.2992 22.9052 51.9279C22.8433 52.0599 22.8392 52.2126 22.8269 52.357C22.8269 52.3528 22.8269 52.3487 22.8269 52.3446C22.8269 52.3528 22.8269 52.3611 22.8269 52.3693C22.8269 52.3652 22.8269 52.3611 22.8269 52.357C22.8351 52.7283 22.7568 53.1285 22.864 53.4874C22.8598 53.4957 22.8598 53.4998 22.8557 53.508C22.8269 53.4585 22.7774 53.4131 22.7609 53.3554ZM22.8928 52.8232C22.8969 52.7406 22.9011 52.6581 22.9052 52.5797C22.9052 52.5797 22.9052 52.5797 22.9052 52.5839C22.9052 52.5797 22.9052 52.5756 22.9052 52.5715V52.5756C22.9093 52.2951 22.9917 52.031 23.1319 51.7917C23.136 51.7917 23.136 51.7917 23.1401 51.7917C23.136 52.3363 23.0783 52.9057 22.8928 53.4173C22.8598 53.3059 22.8681 53.1862 22.8681 53.0707C22.8804 52.9882 22.8887 52.9057 22.8928 52.8232ZM23.0494 53.376L23.0453 53.3801C23.202 52.9346 23.2638 52.4519 23.305 51.9856C23.3091 51.9526 23.3091 51.9155 23.3133 51.8825C23.6925 52.3446 23.3627 52.9676 23.0494 53.376ZM25.5886 56.0453C25.5927 55.7442 25.568 55.443 25.432 55.1666C25.9266 55.41 25.7947 55.9917 25.5804 56.3878C25.5845 56.2722 25.5927 56.1609 25.5886 56.0453ZM25.4072 56.1155C25.3949 56.2434 25.3908 56.3754 25.3701 56.5033C25.2795 56.0866 25.2836 55.6451 25.3166 55.2202C25.3784 55.3646 25.399 55.5214 25.4155 55.674C25.4155 55.6781 25.4155 55.6864 25.4155 55.6905C25.4155 55.6988 25.4155 55.7112 25.4155 55.7194C25.4155 55.7112 25.4155 55.7029 25.4155 55.6988C25.4237 55.8349 25.4155 55.9752 25.4072 56.1155ZM25.1929 55.7235C25.197 55.7895 25.197 55.8555 25.2011 55.9216C25.2011 55.9216 25.2011 55.9216 25.2011 55.9257C25.2011 55.9298 25.2011 55.9298 25.2011 55.9339V55.9381C25.2011 55.9381 25.2011 55.9381 25.2011 55.9339V55.9381C25.2011 55.9628 25.2053 55.9917 25.2053 56.0164C25.2053 56.0123 25.2053 56.0082 25.2053 56.0041C25.2053 56.0164 25.2053 56.0247 25.2053 56.0371C25.2053 56.0412 25.2053 56.0412 25.2053 56.0453C25.2053 56.0495 25.2053 56.0495 25.2053 56.0536C25.2135 56.1691 25.2176 56.2846 25.2382 56.4001C25.0981 56.0536 24.9621 55.5791 25.197 55.2449C25.1888 55.3976 25.1888 55.5585 25.1929 55.7235ZM15.8565 37.1084C15.2506 36.6009 14.6158 36.1306 13.9563 35.6933C14.6818 35.9161 15.2712 36.4111 15.8854 36.8402C15.8772 36.931 15.8689 37.0176 15.8565 37.1084ZM16.4295 38.3131C16.7716 38.5111 17.1261 38.6968 17.493 38.8371C17.493 38.8577 17.493 38.8783 17.493 38.8989C17.1302 38.804 16.7634 38.7133 16.4171 38.5606C16.4213 38.4781 16.4254 38.3956 16.4295 38.3131ZM16.8046 39.1052C17.0313 39.1712 17.2704 39.2084 17.493 39.2909C17.4889 40.6647 17.6166 42.0386 17.8475 43.3918C17.4724 43.037 17.0437 42.7235 16.5655 42.5254C16.4336 41.3455 16.3759 40.1573 16.4089 38.9732C16.5367 39.0227 16.6686 39.0681 16.8046 39.1052ZM16.0049 43.3712C15.9019 43.2928 15.8236 43.1855 15.7494 43.0824C15.8277 43.103 15.906 43.136 15.9802 43.169C15.9884 43.2392 15.9967 43.3052 16.0049 43.3712ZM16.8211 44.25C17.2374 44.4851 17.6785 44.6914 18.1319 44.8399C18.1401 44.8771 18.1484 44.9142 18.1566 44.9513C17.6991 44.8729 17.2621 44.7162 16.8623 44.4769C16.8458 44.4026 16.8335 44.3242 16.8211 44.25ZM19.3809 49.1513C19.5169 49.3163 19.6983 49.4566 19.7848 49.6588C19.2737 49.3122 18.7172 49.011 18.1195 48.8377C18.0989 48.7882 18.0824 48.7387 18.0618 48.6851C18.5482 48.6315 19.0387 48.7924 19.3809 49.1513ZM18.4575 49.6629C18.9439 49.8362 19.4592 49.931 19.9621 50.0383C19.9909 50.0961 20.0156 50.1538 20.0445 50.2116C19.5499 50.1951 19.0593 50.1291 18.5894 49.9723C18.5482 49.8692 18.5029 49.766 18.4575 49.6629ZM26.6933 58.8054C26.5161 58.7683 26.3347 58.7724 26.1533 58.7807C26.2729 58.6775 26.4336 58.6734 26.5779 58.7064C26.615 58.7435 26.6562 58.7724 26.6933 58.8054ZM66.751 48.2973C66.4584 48.4871 66.1698 48.681 65.8607 48.8336C66.1203 48.6026 66.4213 48.2106 66.8005 48.2601C66.784 48.2725 66.7675 48.289 66.751 48.2973ZM67.9588 43.7054C67.9794 43.6971 68 43.693 68.0206 43.6889C68.1401 44.2046 67.3034 44.3861 66.92 44.4521C67.2044 44.1262 67.5878 43.9199 67.9588 43.7054ZM67.7898 43.5568C67.4971 43.7631 67.1756 43.9323 66.9324 44.2005C66.9983 43.825 67.4847 43.5197 67.8516 43.5197C67.831 43.5321 67.8104 43.5445 67.7898 43.5568ZM67.5218 39.6581C67.9011 39.1547 68.3297 38.6638 68.8368 38.2842C68.8409 38.408 68.845 38.5359 68.8491 38.6596C68.4781 39.0557 68.0494 39.4807 67.5218 39.6581ZM66.8912 29.5089C67.2292 30.3175 67.526 31.1426 67.7774 31.9801C67.2168 32.3803 66.8541 32.9538 66.7345 33.6345C66.2399 31.745 65.6175 29.8719 64.723 28.1267C65.0115 27.7224 65.2918 27.3099 65.6257 26.9427C66.0997 27.7719 66.5202 28.6301 66.8912 29.5089ZM66.2935 24.4425C66.2358 24.9912 65.8978 25.4492 65.6422 25.9236C65.5639 25.7957 65.4814 25.6678 65.4031 25.5399C65.6752 24.8839 66.0668 24.2816 66.2069 23.5761C66.3677 23.8401 66.3264 24.1537 66.2935 24.4425ZM64.5045 24.1248C64.7189 23.7081 65.1187 23.4895 65.5556 23.3616C65.263 23.7659 65.0651 24.2445 64.8425 24.69C64.723 24.5168 64.5993 24.3435 64.4757 24.1743C64.4839 24.1619 64.4963 24.1454 64.5045 24.1248ZM61.5161 21.5091C62.3652 22.359 63.1525 23.2749 63.8739 24.2362C63.6224 24.8344 63.5894 25.4904 63.6224 26.1299C62.3034 24.001 60.6669 22.0661 58.7749 20.4241C58.7749 20.0239 58.9274 19.6402 58.9233 19.2359C59.8343 19.9331 60.6999 20.6964 61.5161 21.5091ZM59.1748 19.1864C59.1748 19.1864 59.1706 19.1822 59.1665 19.1822C59.1665 19.1822 59.1706 19.1864 59.1748 19.1864ZM58.0536 16.22C58.4039 16.8058 58.3545 17.532 58.3792 18.1921C58.3009 18.1384 58.2267 18.0848 58.1484 18.0312C58.1072 17.3587 58.0288 16.6903 57.9093 16.0261C57.9629 16.088 58.0082 16.154 58.0536 16.22ZM56.8252 17.0781C56.7716 16.5707 56.5985 15.6878 57.122 15.4031C57.0107 16.055 57.1138 16.7316 57.1673 17.3876C57.0643 17.3215 56.9571 17.2597 56.8499 17.1936C56.8417 17.1565 56.8293 17.1153 56.8252 17.0781ZM49.7354 14.8255C49.8302 15.0483 50.1352 15.1679 50.3166 14.974C51.0791 15.1803 51.8335 15.4278 52.5754 15.7084C52.7032 15.8528 52.9217 16.0219 53.1195 15.9229C54.2613 16.385 55.366 16.9379 56.4254 17.5608C56.5326 18.0105 56.6438 18.4602 56.8293 18.8811C53.5029 16.418 49.5705 14.776 45.4773 14.1489C46.9159 14.2479 48.3421 14.4831 49.7354 14.8255ZM19.0511 28.3743C19.4798 28.3041 19.7312 27.8008 19.5622 27.4006C19.8384 26.9014 20.1311 26.4063 20.4443 25.9277C20.7741 25.9484 20.9555 25.4987 20.9184 25.2223C23.6471 21.2905 27.5136 18.1591 31.9324 16.3273C23.9604 20.3869 18.0082 28.5269 17.5466 37.5828C17.1921 37.1579 16.9448 36.6628 16.6274 36.2131C16.8087 34.9383 17.0767 33.6799 17.4435 32.4463C17.9464 32.3226 18.0288 31.712 17.8145 31.3077C18.1607 30.301 18.5729 29.3232 19.0511 28.3743ZM14.554 35.4334C15.0486 35.5819 15.5556 35.784 15.9761 36.0935C15.9637 36.176 15.9555 36.2585 15.9431 36.341C15.3248 35.9284 14.6694 35.553 13.9398 35.3797C14.15 35.3838 14.352 35.3962 14.554 35.4334ZM15.6958 38.2264C14.8013 37.7644 13.878 37.1043 13.6183 36.0728C14.2036 36.8526 14.9621 37.4426 15.7906 37.9376C15.7823 38.0449 15.7782 38.1522 15.77 38.2595C15.7452 38.2512 15.7205 38.2388 15.6958 38.2264ZM15.9266 42.7812C15.9307 42.806 15.9349 42.8349 15.939 42.8596C15.8772 42.8349 15.8153 42.8142 15.7494 42.7936C15.8071 42.7853 15.8689 42.7812 15.9266 42.7812ZM15.8524 43.8539C15.6628 43.7054 15.4732 43.5321 15.4361 43.2804C15.601 43.5073 15.8359 43.6641 16.075 43.8085C16.0874 43.8828 16.0997 43.9612 16.1121 44.0354C16.0255 43.9777 15.9349 43.9158 15.8524 43.8539ZM16.9777 45.0338C17.3776 45.2236 17.8186 45.302 18.2556 45.3433C18.5276 46.4242 18.878 47.4845 19.2943 48.5201C18.8821 48.2643 18.3957 48.2684 17.9299 48.3262C17.5383 47.2493 17.2168 46.1519 16.9777 45.0338ZM17.5053 49.044C17.4765 49.0234 17.4435 49.011 17.4229 48.9821C17.4353 48.9615 17.4435 48.9409 17.46 48.9244C17.4765 48.9656 17.4889 49.0028 17.5053 49.044ZM17.4311 49.2256C17.4188 49.209 17.4105 49.1925 17.4023 49.176C17.4682 49.2173 17.5342 49.2544 17.6043 49.2874C17.629 49.3493 17.6537 49.4112 17.6785 49.4731C17.5919 49.3906 17.5053 49.3122 17.4311 49.2256ZM18.8244 50.4633C19.2943 50.5953 19.7807 50.6159 20.2671 50.6365C20.6298 51.342 21.0255 52.0269 21.4542 52.6953C21.0091 52.5302 20.4979 52.5302 20.1311 52.8644C19.6447 52.0929 19.216 51.2884 18.8244 50.4633ZM34.9208 63.9584C34.8714 63.946 34.8178 63.9295 34.7683 63.9172C34.7436 63.8676 34.7106 63.8264 34.6653 63.7893C34.5911 63.6077 34.3726 63.6779 34.249 63.7645C33.4287 63.517 32.6249 63.224 31.8335 62.8981C31.7675 62.5681 31.3842 62.3948 31.0997 62.5763C30.4361 62.271 29.7848 61.9409 29.1459 61.582C29.1335 61.1653 28.5606 60.7321 28.1855 61.0127C25.4031 59.2675 22.967 56.9654 21.0668 54.2878C21.5655 54.4528 22.1096 54.4446 22.6208 54.3662C23.0865 54.9644 23.54 55.5667 24.0387 56.1402C23.8656 56.1237 23.6842 56.1567 23.5235 56.2269C23.7543 56.2681 23.9893 56.3094 24.2242 56.3506C24.9538 57.1799 25.7288 57.9638 26.5573 58.694C26.3594 58.661 26.1657 58.628 25.9678 58.5909C25.2795 59.449 26.8335 59.6924 27.4023 59.4036C30.6875 62.0771 34.6364 63.913 38.7955 64.701C37.4847 64.5566 36.1904 64.3008 34.9208 63.9584ZM65.4649 51.932C62.7568 56.6271 58.4987 60.4062 53.5111 62.5227C57.7073 60.3361 61.2646 56.9571 63.6884 52.8892C65.0321 53.2357 65.6175 51.6308 64.3149 51.7794C64.6735 51.1069 65.0033 50.4179 65.3001 49.7165C65.7246 49.8238 66.1904 49.8362 66.6109 49.7041C66.2646 50.4674 65.8854 51.21 65.4649 51.932ZM67.967 45.9539C67.7898 46.6099 67.5795 47.2617 67.3487 47.9012C66.9695 47.5505 66.4171 47.5546 66.0049 47.8434C66.3058 46.9564 66.5532 46.0488 66.751 45.1287C67.3446 45.1906 67.9629 44.8358 68.3421 44.3944C68.2349 44.9183 68.1113 45.4382 67.967 45.9539ZM68.4946 43.594C68.2968 42.9504 67.5424 42.9462 67.0767 43.3011C67.2168 42.3026 67.3075 41.2918 67.3528 40.2852C67.8722 39.9716 68.4328 39.7282 68.8656 39.2702C68.8615 40.7184 68.7461 42.1665 68.4946 43.594Z" fill="white"/>
<path d="M31.9588 46.5521C30.8194 40.6806 32.5273 32.772 39.0978 28.8743C46.7701 24.3229 57.2089 27.5656 59.5862 32.7821C63.5203 41.4014 47.2467 59.4509 38.5844 56.8227C33.6779 55.3532 32.1562 47.5353 31.9588 46.5521Z" fill="white"/>
</g>
<path d="M39.6484 97.4141C38.2031 97.8828 36.6406 98.1172 34.9609 98.1172C29.1016 98.1172 26.1719 95.207 26.1719 89.3867C26.1719 83.8789 29.1016 81.125 34.9609 81.125C36.6406 81.125 38.2031 81.3594 39.6484 81.8281V83.7031C38.2031 83.1562 36.7188 82.8828 35.1953 82.8828C30.625 82.8828 28.3398 85.0508 28.3398 89.3867C28.3398 94.0352 30.625 96.3594 35.1953 96.3594C36.7188 96.3594 38.2031 96.0859 39.6484 95.5391V97.4141ZM43 98V85.6953H53.8398V98H51.6719V87.4531H45.168V98H43ZM56.7812 94.2852C56.7812 91.7617 58.4453 90.5 61.7734 90.5C62.8438 90.5 63.9141 90.5781 64.9844 90.7344V89.5742C64.9844 88.1602 63.8789 87.4531 61.668 87.4531C60.4023 87.4531 59.1055 87.6484 57.7773 88.0391V86.2812C59.1055 85.8906 60.4023 85.6953 61.668 85.6953C65.3242 85.6953 67.1523 86.9688 67.1523 89.5156V98H65.9336L65.1836 96.7812C63.957 97.5938 62.6211 98 61.1758 98C58.2461 98 56.7812 96.7617 56.7812 94.2852ZM61.7734 92.2578C59.8906 92.2578 58.9492 92.9219 58.9492 94.25C58.9492 95.5781 59.6914 96.2422 61.1758 96.2422C62.6758 96.2422 63.9453 95.8438 64.9844 95.0469V92.4922C63.9141 92.3359 62.8438 92.2578 61.7734 92.2578ZM79.9375 97.6484C78.9219 97.8828 77.8281 98 76.6562 98C72.2812 98 70.0938 95.8711 70.0938 91.6133C70.0938 87.668 72.2812 85.6953 76.6562 85.6953C77.8281 85.6953 78.9219 85.8125 79.9375 86.0469V87.8047C78.9219 87.5703 77.7891 87.4531 76.5391 87.4531C73.6875 87.4531 72.2617 88.8398 72.2617 91.6133C72.2617 94.6992 73.6875 96.2422 76.5391 96.2422C77.7891 96.2422 78.9219 96.125 79.9375 95.8906V97.6484ZM87.7773 85.6953C91.2773 85.6953 93.0273 87.4258 93.0273 90.8867C93.0273 91.3789 92.9922 91.9062 92.9219 92.4688H84.2852C84.2852 94.9844 85.7539 96.2422 88.6914 96.2422C90.0898 96.2422 91.332 96.0859 92.418 95.7734V97.5312C91.332 97.8438 90.0117 98 88.457 98C84.2305 98 82.1172 95.9023 82.1172 91.707C82.1172 87.6992 84.0039 85.6953 87.7773 85.6953ZM84.2852 90.6641H90.9414C90.8945 88.5078 89.8398 87.4297 87.7773 87.4297C85.5898 87.4297 84.4258 88.5078 84.2852 90.6641ZM95.9453 98V85.6953H98.1133V90.8516H104.617V85.6953H106.785V98H104.617V92.6094H98.1133V98H95.9453ZM119.102 98V88.4844L112.48 98H110.312V85.6953H112.363V95.2109L118.984 85.6953H121.152V98H119.102ZM129.754 85.6953C133.254 85.6953 135.004 87.4258 135.004 90.8867C135.004 91.3789 134.969 91.9062 134.898 92.4688H126.262C126.262 94.9844 127.73 96.2422 130.668 96.2422C132.066 96.2422 133.309 96.0859 134.395 95.7734V97.5312C133.309 97.8438 131.988 98 130.434 98C126.207 98 124.094 95.9023 124.094 91.707C124.094 87.6992 125.98 85.6953 129.754 85.6953ZM126.262 90.6641H132.918C132.871 88.5078 131.816 87.4297 129.754 87.4297C127.566 87.4297 126.402 88.5078 126.262 90.6641ZM152.57 98V88.4844L145.949 98H143.781V85.6953H145.832V95.2109L152.453 85.6953H154.621V98H152.57ZM164.008 98V85.6953H174.848V98H172.68V87.4531H166.176V98H164.008ZM177.789 91.8477C177.789 87.668 179.82 85.5781 183.883 85.5781C187.945 85.5781 189.977 87.668 189.977 91.8477C189.977 96.0273 187.945 98.1172 183.883 98.1172C179.836 98.1172 177.805 96.0273 177.789 91.8477ZM179.957 91.8008C179.957 94.8398 181.266 96.3594 183.883 96.3594C186.5 96.3594 187.809 94.8398 187.809 91.8008C187.809 88.8242 186.5 87.3359 183.883 87.3359C181.266 87.3359 179.957 88.8242 179.957 91.8008ZM196.469 96.2422H202.668V87.4531H198.332C198.332 91.8203 197.711 94.75 196.469 96.2422ZM191.148 102.453V96.2422H193.305C195.211 96.2422 196.164 93.3125 196.164 87.4531V85.6953H204.836V96.2422H207.004V102.453H204.836V98H193.305V102.453H191.148ZM213.203 96.2422H219.402V87.4531H215.066C215.066 91.8203 214.445 94.75 213.203 96.2422ZM207.883 102.453V96.2422H210.039C211.945 96.2422 212.898 93.3125 212.898 87.4531V85.6953H221.57V96.2422H223.738V102.453H221.57V98H210.039V102.453H207.883ZM231.449 85.6953C234.949 85.6953 236.699 87.4258 236.699 90.8867C236.699 91.3789 236.664 91.9062 236.594 92.4688H227.957C227.957 94.9844 229.426 96.2422 232.363 96.2422C233.762 96.2422 235.004 96.0859 236.09 95.7734V97.5312C235.004 97.8438 233.684 98 232.129 98C227.902 98 225.789 95.9023 225.789 91.707C225.789 87.6992 227.676 85.6953 231.449 85.6953ZM227.957 90.6641H234.613C234.566 88.5078 233.512 87.4297 231.449 87.4297C229.262 87.4297 228.098 88.5078 227.957 90.6641ZM241.785 95.4922C242.637 95.9141 243.586 96.125 244.633 96.125C247.422 96.125 248.816 94.5898 248.816 91.5195C248.816 88.8398 247.43 87.5 244.656 87.5C243.562 87.5 242.605 87.5938 241.785 87.7812V95.4922ZM239.617 86.1992C241.25 85.8633 242.938 85.6953 244.68 85.6953C248.859 85.6953 250.949 87.6445 250.949 91.543C250.949 95.8477 248.848 98 244.645 98C243.66 98 242.707 97.8047 241.785 97.4141V102.453H239.617V86.1992ZM269.488 98L267.766 95.1172C266.609 93.1875 265.492 92.2227 264.414 92.2227V90.7812C265.664 90.7812 266.594 89.9258 267.203 88.2148C267.82 86.4961 268.863 85.6367 270.332 85.6367H271.586V87.582H270.66C269.816 87.582 269.195 88.1523 268.797 89.293C268.398 90.4336 267.711 91.1953 266.734 91.5781C267.656 91.7422 268.762 92.8516 270.051 94.9062L271.996 98H269.488ZM263.277 85.6133V98H261.109V85.6133H263.277ZM252.426 98L254.371 94.9062C255.66 92.8516 256.766 91.7422 257.688 91.5781C256.711 91.1953 256.023 90.4336 255.625 89.293C255.227 88.1523 254.605 87.582 253.762 87.582H252.836V85.6367H254.09C255.559 85.6367 256.598 86.4961 257.207 88.2148C257.824 89.9258 258.758 90.7812 260.008 90.7812V92.2227C258.93 92.2227 257.812 93.1875 256.656 95.1172L254.934 98H252.426ZM273.461 94.2852C273.461 91.7617 275.125 90.5 278.453 90.5C279.523 90.5 280.594 90.5781 281.664 90.7344V89.5742C281.664 88.1602 280.559 87.4531 278.348 87.4531C277.082 87.4531 275.785 87.6484 274.457 88.0391V86.2812C275.785 85.8906 277.082 85.6953 278.348 85.6953C282.004 85.6953 283.832 86.9688 283.832 89.5156V98H282.613L281.863 96.7812C280.637 97.5938 279.301 98 277.855 98C274.926 98 273.461 96.7617 273.461 94.2852ZM278.453 92.2578C276.57 92.2578 275.629 92.9219 275.629 94.25C275.629 95.5781 276.371 96.2422 277.855 96.2422C279.355 96.2422 280.625 95.8438 281.664 95.0469V92.4922C280.594 92.3359 279.523 92.2578 278.453 92.2578ZM287.359 98V85.6953H289.527V90.8516H296.031V85.6953H298.199V98H296.031V92.6094H289.527V98H287.359ZM310.516 98V88.4844L303.895 98H301.727V85.6953H303.777V95.2109L310.398 85.6953H312.566V98H310.516ZM321.168 85.6953C324.668 85.6953 326.418 87.4258 326.418 90.8867C326.418 91.3789 326.383 91.9062 326.312 92.4688H317.676C317.676 94.9844 319.145 96.2422 322.082 96.2422C323.48 96.2422 324.723 96.0859 325.809 95.7734V97.5312C324.723 97.8438 323.402 98 321.848 98C317.621 98 315.508 95.9023 315.508 91.707C315.508 87.6992 317.395 85.6953 321.168 85.6953ZM317.676 90.6641H324.332C324.285 88.5078 323.23 87.4297 321.168 87.4297C318.98 87.4297 317.816 88.5078 317.676 90.6641ZM42.3555 125L40.6328 122.117C39.4766 120.188 38.3594 119.223 37.2812 119.223V117.781C38.5312 117.781 39.4609 116.926 40.0703 115.215C40.6875 113.496 41.7305 112.637 43.1992 112.637H44.4531V114.582H43.5273C42.6836 114.582 42.0625 115.152 41.6641 116.293C41.2656 117.434 40.5781 118.195 39.6016 118.578C40.5234 118.742 41.6289 119.852 42.918 121.906L44.8633 125H42.3555ZM36.1445 112.613V125H33.9766V112.613H36.1445ZM25.293 125L27.2383 121.906C28.5273 119.852 29.6328 118.742 30.5547 118.578C29.5781 118.195 28.8906 117.434 28.4922 116.293C28.0938 115.152 27.4727 114.582 26.6289 114.582H25.7031V112.637H26.957C28.4258 112.637 29.4648 113.496 30.0742 115.215C30.6914 116.926 31.625 117.781 32.875 117.781V119.223C31.7969 119.223 30.6797 120.188 29.5234 122.117L27.8008 125H25.293ZM55.7031 125V115.484L49.082 125H46.9141V112.695H48.9648V122.211L55.5859 112.695H57.7539V125H55.7031ZM67.8203 123.242C69.0391 123.242 69.6484 122.617 69.6484 121.367C69.6484 120.195 68.6992 119.609 66.8008 119.609H65.8633V118.191C68.2852 117.918 69.4961 117.102 69.4961 115.742C69.4961 114.883 68.9961 114.453 67.9961 114.453H63.4492V123.242H67.8203ZM61.2812 125V112.695H68.1953C70.6016 112.695 71.8047 113.723 71.8047 115.777C71.8047 117.051 71.0391 117.996 69.5078 118.613C71.1797 119.027 72.0156 119.934 72.0156 121.332C72.0156 123.777 70.6602 125 67.9492 125H61.2812ZM74.3594 118.848C74.3594 114.668 76.3906 112.578 80.4531 112.578C84.5156 112.578 86.5469 114.668 86.5469 118.848C86.5469 123.027 84.5156 125.117 80.4531 125.117C76.4062 125.117 74.375 123.027 74.3594 118.848ZM76.5273 118.801C76.5273 121.84 77.8359 123.359 80.4531 123.359C83.0703 123.359 84.3789 121.84 84.3789 118.801C84.3789 115.824 83.0703 114.336 80.4531 114.336C77.8359 114.336 76.5273 115.824 76.5273 118.801ZM98.5586 112.695V114.453H94.2227V125H92.0547V114.453H87.7188V112.695H98.5586ZM100.328 125V112.695H102.496V117.852H109V112.695H111.168V125H109V119.609H102.496V125H100.328ZM126.707 125V112.695H128.875V125H126.707ZM116.863 112.695V123.207H120.59C121.98 123.207 122.676 122.547 122.676 121.227C122.676 120.156 121.965 119.621 120.543 119.621H118.457V117.863H120.648C123.461 117.863 124.867 119.02 124.867 121.332C124.867 123.777 123.508 125 120.789 125H114.695V112.695H116.863ZM133.445 125H130.926L135.824 118.848L130.926 112.695H133.445L137.078 117.266L140.711 112.695H143.23L138.332 118.848L143.23 125H140.711L137.078 120.43L133.445 125ZM147.742 122.832L145.984 127.93H143.816L145.574 122.832H147.742ZM155.664 125V112.695H166.504V125H164.336V114.453H157.832V125H155.664ZM169.445 118.848C169.445 114.668 171.477 112.578 175.539 112.578C179.602 112.578 181.633 114.668 181.633 118.848C181.633 123.027 179.602 125.117 175.539 125.117C171.492 125.117 169.461 123.027 169.445 118.848ZM171.613 118.801C171.613 121.84 172.922 123.359 175.539 123.359C178.156 123.359 179.465 121.84 179.465 118.801C179.465 115.824 178.156 114.336 175.539 114.336C172.922 114.336 171.613 115.824 171.613 118.801ZM184.562 125V112.695H195.402V125H193.234V114.453H186.73V125H184.562ZM198.344 121.285C198.344 118.762 200.008 117.5 203.336 117.5C204.406 117.5 205.477 117.578 206.547 117.734V116.574C206.547 115.16 205.441 114.453 203.23 114.453C201.965 114.453 200.668 114.648 199.34 115.039V113.281C200.668 112.891 201.965 112.695 203.23 112.695C206.887 112.695 208.715 113.969 208.715 116.516V125H207.496L206.746 123.781C205.52 124.594 204.184 125 202.738 125C199.809 125 198.344 123.762 198.344 121.285ZM203.336 119.258C201.453 119.258 200.512 119.922 200.512 121.25C200.512 122.578 201.254 123.242 202.738 123.242C204.238 123.242 205.508 122.844 206.547 122.047V119.492C205.477 119.336 204.406 119.258 203.336 119.258ZM218.781 123.242C220 123.242 220.609 122.617 220.609 121.367C220.609 120.195 219.66 119.609 217.762 119.609H216.824V118.191C219.246 117.918 220.457 117.102 220.457 115.742C220.457 114.883 219.957 114.453 218.957 114.453H214.41V123.242H218.781ZM212.242 125V112.695H219.156C221.562 112.695 222.766 113.723 222.766 115.777C222.766 117.051 222 117.996 220.469 118.613C222.141 119.027 222.977 119.934 222.977 121.332C222.977 123.777 221.621 125 218.91 125H212.242ZM225.906 125V112.695H228.074V123.242H232.645V112.695H234.812V123.242H239.383V112.695H241.551V125H225.906ZM253.867 125V115.484L247.246 125H245.078V112.695H247.129V122.211L253.75 112.695H255.918V125H253.867ZM260.5 125H257.98L262.879 118.848L257.98 112.695H260.5L264.133 117.266L267.766 112.695H270.285L265.387 118.848L270.285 125H267.766L264.133 120.43L260.5 125ZM284.734 123.242C285.953 123.242 286.562 122.617 286.562 121.367C286.562 120.195 285.613 119.609 283.715 119.609H282.777V118.191C285.199 117.918 286.41 117.102 286.41 115.742C286.41 114.883 285.91 114.453 284.91 114.453H280.363V123.242H284.734ZM278.195 125V112.695H285.109C287.516 112.695 288.719 113.723 288.719 115.777C288.719 117.051 287.953 117.996 286.422 118.613C288.094 119.027 288.93 119.934 288.93 121.332C288.93 123.777 287.574 125 284.863 125H278.195ZM306.801 112.695V114.453H302.465V125H300.297V114.453H295.961V112.695H306.801ZM316.305 125V114.488H312.109C311.031 114.488 310.492 114.949 310.492 115.871C310.492 116.965 311.742 117.766 314.242 118.273V119.809L309.848 125H307.105L311.863 119.504C309.41 118.746 308.184 117.543 308.184 115.895C308.184 113.762 309.504 112.695 312.145 112.695H318.473V125H316.305ZM337.598 125L335.875 122.117C334.719 120.188 333.602 119.223 332.523 119.223V117.781C333.773 117.781 334.703 116.926 335.312 115.215C335.93 113.496 336.973 112.637 338.441 112.637H339.695V114.582H338.77C337.926 114.582 337.305 115.152 336.906 116.293C336.508 117.434 335.82 118.195 334.844 118.578C335.766 118.742 336.871 119.852 338.16 121.906L340.105 125H337.598ZM331.387 112.613V125H329.219V112.613H331.387ZM320.535 125L322.48 121.906C323.77 119.852 324.875 118.742 325.797 118.578C324.82 118.195 324.133 117.434 323.734 116.293C323.336 115.152 322.715 114.582 321.871 114.582H320.945V112.637H322.199C323.668 112.637 324.707 113.496 325.316 115.215C325.934 116.926 326.867 117.781 328.117 117.781V119.223C327.039 119.223 325.922 120.188 324.766 122.117L323.043 125H320.535ZM347.23 112.695C350.73 112.695 352.48 114.426 352.48 117.887C352.48 118.379 352.445 118.906 352.375 119.469H343.738C343.738 121.984 345.207 123.242 348.145 123.242C349.543 123.242 350.785 123.086 351.871 122.773V124.531C350.785 124.844 349.465 125 347.91 125C343.684 125 341.57 122.902 341.57 118.707C341.57 114.699 343.457 112.695 347.23 112.695ZM343.738 117.664H350.395C350.348 115.508 349.293 114.43 347.23 114.43C345.043 114.43 343.879 115.508 343.738 117.664ZM353.641 123.242C355.492 123.242 356.418 122.188 356.418 120.078V112.695H365.793V125H363.625V114.453H358.586V120.078C358.586 123.359 356.938 125 353.641 125V123.242ZM367.855 112.695H370.211L373.691 122.305L377.289 112.695H379.586L374.477 125.363C373.57 127.598 372.211 128.992 370.398 129.547L369.566 128.012C370.941 127.41 371.941 126.43 372.566 125.07L367.855 112.695ZM393.285 123.359C395.332 123.359 396.355 121.84 396.355 118.801C396.355 115.824 395.332 114.336 393.285 114.336C391.152 114.336 390.086 115.824 390.086 118.801C390.086 121.84 391.152 123.359 393.285 123.359ZM381.625 125V112.695H383.781V117.852H387.836C388.125 114.336 389.941 112.578 393.285 112.578C396.855 112.578 398.641 114.676 398.641 118.871C398.641 123.035 396.855 125.117 393.285 125.117C389.855 125.117 388.035 123.281 387.824 119.609H383.781V125H381.625ZM42.3555 152L40.6328 149.117C39.4766 147.188 38.3594 146.223 37.2812 146.223V144.781C38.5312 144.781 39.4609 143.926 40.0703 142.215C40.6875 140.496 41.7305 139.637 43.1992 139.637H44.4531V141.582H43.5273C42.6836 141.582 42.0625 142.152 41.6641 143.293C41.2656 144.434 40.5781 145.195 39.6016 145.578C40.5234 145.742 41.6289 146.852 42.918 148.906L44.8633 152H42.3555ZM36.1445 139.613V152H33.9766V139.613H36.1445ZM25.293 152L27.2383 148.906C28.5273 146.852 29.6328 145.742 30.5547 145.578C29.5781 145.195 28.8906 144.434 28.4922 143.293C28.0938 142.152 27.4727 141.582 26.6289 141.582H25.7031V139.637H26.957C28.4258 139.637 29.4648 140.496 30.0742 142.215C30.6914 143.926 31.625 144.781 32.875 144.781V146.223C31.7969 146.223 30.6797 147.188 29.5234 149.117L27.8008 152H25.293ZM55.7031 152V142.484L49.082 152H46.9141V139.695H48.9648V149.211L55.5859 139.695H57.7539V152H55.7031ZM60.6953 140.281C62.2578 139.812 63.625 139.578 64.7969 139.578C68.0391 139.578 69.6602 140.719 69.6602 143C69.6602 144.203 69.1211 145.113 68.043 145.73C69.1211 146.316 69.6602 147.195 69.6602 148.367C69.6602 150.867 68.0391 152.117 64.7969 152.117C63.625 152.117 62.2578 151.883 60.6953 151.414V149.539C62.2578 150.086 63.625 150.359 64.7969 150.359C66.5938 150.359 67.4922 149.695 67.4922 148.367C67.4922 147.195 66.8984 146.609 65.7109 146.609H61.8672V144.852H65.6758C66.8867 144.852 67.4922 144.234 67.4922 143C67.4922 141.891 66.5938 141.336 64.7969 141.336C63.625 141.336 62.2578 141.609 60.6953 142.156V140.281ZM72.6016 152V139.695H74.7695V144.852H81.2734V139.695H83.4414V152H81.2734V146.609H74.7695V152H72.6016ZM92.043 139.695C95.543 139.695 97.293 141.426 97.293 144.887C97.293 145.379 97.2578 145.906 97.1875 146.469H88.5508C88.5508 148.984 90.0195 150.242 92.957 150.242C94.3555 150.242 95.5977 150.086 96.6836 149.773V151.531C95.5977 151.844 94.2773 152 92.7227 152C88.4961 152 86.3828 149.902 86.3828 145.707C86.3828 141.699 88.2695 139.695 92.043 139.695ZM88.5508 144.664H95.207C95.1602 142.508 94.1055 141.43 92.043 141.43C89.8555 141.43 88.6914 142.508 88.5508 144.664ZM100.211 152V139.695H102.379V144.852H108.883V139.695H111.051V152H108.883V146.609H102.379V152H100.211ZM114.578 152V139.695H116.746V144.852H123.25V139.695H125.418V152H123.25V146.609H116.746V152H114.578ZM127.48 139.695H129.836L133.316 149.305L136.914 139.695H139.211L134.102 152.363C133.195 154.598 131.836 155.992 130.023 156.547L129.191 155.012C130.566 154.41 131.566 153.43 132.191 152.07L127.48 139.695ZM152.91 150.359C154.957 150.359 155.98 148.84 155.98 145.801C155.98 142.824 154.957 141.336 152.91 141.336C150.777 141.336 149.711 142.824 149.711 145.801C149.711 148.84 150.777 150.359 152.91 150.359ZM141.25 152V139.695H143.406V144.852H147.461C147.75 141.336 149.566 139.578 152.91 139.578C156.48 139.578 158.266 141.676 158.266 145.871C158.266 150.035 156.48 152.117 152.91 152.117C149.48 152.117 147.66 150.281 147.449 146.609H143.406V152H141.25ZM176.312 151.648C175.297 151.883 174.203 152 173.031 152C168.656 152 166.469 149.871 166.469 145.613C166.469 141.668 168.656 139.695 173.031 139.695C174.203 139.695 175.297 139.812 176.312 140.047V141.805C175.297 141.57 174.164 141.453 172.914 141.453C170.062 141.453 168.637 142.84 168.637 145.613C168.637 148.699 170.062 150.242 172.914 150.242C174.164 150.242 175.297 150.125 176.312 149.891V151.648ZM187.867 152V142.484L181.246 152H179.078V139.695H181.129V149.211L187.75 139.695H189.918V152H187.867ZM202.527 139.695V141.453H198.191V152H196.023V141.453H191.688V139.695H202.527ZM202.832 139.695H205.188L208.668 149.305L212.266 139.695H214.562L209.453 152.363C208.547 154.598 207.188 155.992 205.375 156.547L204.543 155.012C205.918 154.41 206.918 153.43 207.543 152.07L202.832 139.695ZM216.016 148.285C216.016 145.762 217.68 144.5 221.008 144.5C222.078 144.5 223.148 144.578 224.219 144.734V143.574C224.219 142.16 223.113 141.453 220.902 141.453C219.637 141.453 218.34 141.648 217.012 142.039V140.281C218.34 139.891 219.637 139.695 220.902 139.695C224.559 139.695 226.387 140.969 226.387 143.516V152H225.168L224.418 150.781C223.191 151.594 221.855 152 220.41 152C217.48 152 216.016 150.762 216.016 148.285ZM221.008 146.258C219.125 146.258 218.184 146.922 218.184 148.25C218.184 149.578 218.926 150.242 220.41 150.242C221.91 150.242 223.18 149.844 224.219 149.047V146.492C223.148 146.336 222.078 146.258 221.008 146.258ZM229.914 152V139.695H232.082V150.242H238.891V139.695H241.059V150.242H243.227V156.453H241.059V152H229.914ZM254.945 152V142.484L248.324 152H246.156V139.695H248.207V149.211L254.828 139.695H256.996V152H254.945ZM272.184 150.359C274.23 150.359 275.254 148.84 275.254 145.801C275.254 142.824 274.23 141.336 272.184 141.336C270.051 141.336 268.984 142.824 268.984 145.801C268.984 148.84 270.051 150.359 272.184 150.359ZM260.523 152V139.695H262.68V144.852H266.734C267.023 141.336 268.84 139.578 272.184 139.578C275.754 139.578 277.539 141.676 277.539 145.871C277.539 150.035 275.754 152.117 272.184 152.117C268.754 152.117 266.934 150.281 266.723 146.609H262.68V152H260.523Z" fill="black"/>
<path d="M45.8311 27.856C45.8951 27.92 45.9271 28.784 45.9271 30.448C45.9271 32.1973 45.8951 34.6613 45.8311 37.84C45.7885 40.9973 45.7351 43.728 45.6711 46.032L45.5751 49.456C45.0205 49.8613 44.5191 50.064 44.0711 50.064C43.8365 50.064 43.6658 49.9787 43.5591 49.808C43.5378 49.7867 43.5271 49.5307 43.5271 49.04L43.9431 32.336L40.4551 38.48H40.0711C39.8151 38.4587 39.5911 38.4053 39.3991 38.32C39.2285 38.2347 39.1431 38.0853 39.1431 37.872C39.1431 37.6373 39.2178 37.3493 39.3671 37.008L43.9751 28.112C44.2311 27.792 44.6151 27.632 45.1271 27.632C45.3405 27.632 45.5751 27.7067 45.8311 27.856Z" fill="black"/>
<line x1="334.976" y1="49.7736" x2="332.034" y2="29.3692" stroke="white"/>
<line x1="362.502" y1="61.5933" x2="381.069" y2="52.6341" stroke="white"/>
<line x1="347.596" y1="53.7059" x2="371.596" y2="20.7059" stroke="white"/>
<defs>
<clipPath id="clip0_125_294">
<rect width="65" height="60" fill="white" transform="translate(8 9)"/>
</clipPath>
</defs>
</svg>
