<svg width="1440" height="362" viewBox="0 0 1440 362" fill="none" xmlns="http://www.w3.org/2000/svg">
<path d="M-23.1571 80.0965C40.3299 27.336 137.048 19.367 294.383 6.41059C455.886 -6.88699 585.655 3.16977 700.54 12.5511C928.399 31.1636 954.445 54.4224 1105.64 50.0763C1262.42 45.5733 1279.98 19.251 1358.83 33.0194C1556.56 67.5426 1697.62 276.961 1613.07 345.502C1567.29 382.618 1495.53 345.85 1180.54 343.455C900.548 341.327 802.374 369.205 564.451 339.362C475.772 328.241 474.284 322.469 395.659 315.482C144.105 293.124 47.4297 342.234 -26.3219 301.837C-104.62 258.949 -101.804 145.459 -23.1571 80.0965Z" fill="#64816D"/>
<path d="M1365.67 152.959C1361.15 149.201 1352.9 151.878 1347.3 154.583C1337.32 159.403 1325.88 171.625 1333.69 179.493C1340.53 186.392 1347.48 181.883 1352.95 173.845C1360.66 162.505 1347.6 150.379 1333.99 148.723C1320.69 147.107 1297.78 155.413 1304.84 166.795C1308.83 173.232 1309.38 175.496 1316.76 173.809C1329.02 171.011 1324.9 147.68 1314.76 140.258C1304.09 132.456 1292.04 141.734 1286.5 154.307" stroke="white" stroke-width="2"/>
<path d="M455.649 44.5896C452.926 42.328 447.966 43.9385 444.593 45.5668C438.585 48.4671 431.701 55.8219 436.401 60.5563C440.522 64.7081 444.701 61.9946 447.992 57.1578C452.634 50.3337 444.775 43.0365 436.582 42.0403C428.582 41.0675 414.796 46.0661 419.043 52.9154C421.445 56.7889 421.774 58.1511 426.217 57.1362C433.59 55.4522 431.114 41.4123 425.01 36.9464C418.593 32.2513 411.337 37.8343 408.006 45.4003" stroke="white" stroke-width="2"/>
<path d="M706.313 252.581C709.861 261.844 720.58 271.281 720.58 271.281C720.58 271.281 704.126 265.02 693.372 266.15C680.175 267.538 663.522 268.148 663.011 281.375C662.49 294.874 679.833 298.41 693.372 298.089C705.397 297.804 720.58 283.692 720.58 283.692C720.58 283.692 709.849 297.081 708.635 307.357C707.369 318.082 705.271 330.45 715.437 334.165C725.015 337.665 732.736 329.573 737.834 320.761C743.542 310.897 744.637 294.118 744.637 294.118C744.637 294.118 747.373 308.79 758.407 314.472C770.132 320.511 786.804 330.908 791.919 318.775C795.702 309.802 788.846 302.989 782.297 295.773C775.277 288.037 758.407 283.692 758.407 283.692C758.407 283.692 779.913 277.308 786.279 266.15C790.925 258.006 795.798 250.056 790.26 242.486C783.486 233.226 770.977 240.333 761.061 246.127C752.321 251.233 744.637 266.15 744.637 266.15C744.637 266.15 744.576 248.11 737.834 240.169C729.821 230.73 724.032 217.591 713.115 223.455C703.11 228.829 702.257 241.993 706.313 252.581Z" stroke="white"/>
<path d="M1334 264L1350.5 252M1334 275H1365.5M1334 290L1350.5 299" stroke="white" stroke-width="2"/>
</svg>
