<svg width="1136" height="360" viewBox="0 0 1136 360" fill="none" xmlns="http://www.w3.org/2000/svg">
<path d="M214.023 127.215V267.58H67.4077V127.215L140.732 44.6777L214.023 127.215Z" fill="#65816D" stroke="#65816D" stroke-miterlimit="10"/>
<path d="M112.706 189.188C112.706 189.188 116.621 189.215 120.955 187.945C126.824 186.226 125.515 176.255 130.851 171.385C137.275 165.522 150.17 169.959 153.121 170.969C187.096 182.648 204.757 250.074 190.65 259.97C188.884 261.208 187.468 260.948 181.577 260.797C148.83 259.959 144.226 266.763 136.209 261.624C130.097 257.706 131.347 240.546 133.323 206.979C133.436 205.082 133.732 200.969 136.623 198.473C139.057 196.37 142.395 196.214 142.395 196.219C142.395 196.23 136.769 197.813 131.26 198.705C119.867 200.542 108.474 195.479 108.167 192.079C108.076 191.095 108.582 190.377 108.582 190.377C109.47 189.123 111.522 189.193 112.706 189.188Z" fill="#E48185" stroke="#E48185" stroke-miterlimit="10"/>
<path d="M109.196 193.7C108.436 193.511 107.769 191.879 108.42 190.652C109.239 189.107 111.592 189.236 112.033 189.928C112.647 190.869 110.402 193.998 109.196 193.7Z" fill="#A48A7B" stroke="#A48A7B" stroke-miterlimit="10"/>
<path d="M140.985 179.179C140.155 179.092 139.402 179.93 139.407 180.784C139.412 181.551 140.021 182.335 140.807 182.346C141.647 182.351 142.277 181.454 142.228 180.638C142.191 179.973 141.69 179.254 140.985 179.179Z" fill="#706F6F" stroke="#706F6F" stroke-miterlimit="10"/>
<path d="M150.649 179.806C149.955 182.983 148.98 185.561 147.99 188.177C145.664 194.317 144.603 194.922 145.055 196.457C146.234 200.434 155.528 203.672 160.637 199.77C164.886 196.522 164.202 189.89 164.03 188.177C163.658 184.545 162.172 182.075 160.363 179.071C160.045 178.541 154.698 169.759 152.297 170.699C151.043 171.191 151.952 173.801 150.649 179.806Z" fill="#A48A7B" stroke="#A48A7B" stroke-miterlimit="10"/>
<path d="M113.734 260.492C109.205 257.492 102.922 243.311 107.412 229.032C107.412 229.032 110.277 219.92 119.646 210.749C120.06 210.344 120.976 209.581 122.806 208.057C125.008 206.225 125.676 205.761 126.107 205.988C126.71 206.306 126.112 207.582 126.931 209.506C127.178 210.084 127.512 210.873 128.218 211.408C129.65 212.5 131.066 211.278 133.435 211.781C133.823 211.862 136.827 212.549 138.34 214.954C139.428 216.688 139.153 218.369 140.311 220.061C140.429 220.234 140.736 220.661 140.768 221.255C140.806 221.871 140.531 222.368 140.176 222.925C139.848 223.449 139.024 224.746 138.34 225.395C136.181 227.443 127.814 230.248 123.905 226.406C122.553 225.076 121.837 223.049 122.257 222.682C122.618 222.363 123.598 223.422 125.913 224.498C128.934 225.898 129.768 225.254 131.97 226.589C132.407 226.854 132.783 227.13 135.406 229.762C137.36 231.724 138.722 233.091 139.482 233.945C144.101 239.117 146.411 247.418 146.583 248.067C148.091 253.644 149.911 260.313 146.858 262.967C144.887 264.68 142.05 263.842 137.236 262.967C120.513 259.935 118.553 263.686 113.734 260.492Z" fill="#F6B8C4" stroke="#F6B8C4" stroke-miterlimit="10"/>
<path d="M134.663 218.174C134.253 218.131 133.876 218.547 133.876 218.974C133.876 219.353 134.183 219.747 134.571 219.753C134.991 219.758 135.303 219.309 135.276 218.904C135.266 218.569 135.013 218.212 134.663 218.174Z" fill="#706F6F" stroke="#706F6F" stroke-miterlimit="10"/>
<path d="M140.618 220.493C140.763 220.428 141.075 220.617 141.118 220.898C141.172 221.255 140.768 221.52 140.612 221.46C140.397 221.379 140.386 220.59 140.618 220.493Z" fill="#D9767F"/>
<path d="M114.224 261.059C114.536 260.102 113.761 258.892 110.95 256.325C106.228 252.012 104.656 251.996 101.301 248.688C98.6306 246.051 96.9884 243.451 96.5846 242.803C95.0985 240.398 94.3501 239.198 93.6986 237.35C92.8586 234.977 92.5948 232.842 91.3725 232.588C90.888 232.486 90.468 232.723 90.3226 232.81C88.8473 233.685 88.5942 236.582 89.1865 238.739C89.6011 240.257 90.188 240.484 93.7686 244.732C96.2131 247.629 95.6854 247.18 97.6884 249.423C100.284 252.331 102.448 254.379 103.94 255.779C107.951 259.551 107.375 258.459 108.759 260.048C109.852 261.308 110.557 262.383 111.779 262.464C112.754 262.529 113.933 261.94 114.224 261.059Z" fill="#F6B8C4" stroke="#F6B8C4" stroke-miterlimit="10"/>
<path d="M224.21 263.559V267.477C224.21 270.206 222.008 272.411 219.294 272.411H61.2373C58.5236 272.411 56.3214 270.206 56.3214 267.477V263.559C56.3214 260.835 58.5236 258.624 61.2373 258.624H219.294C222.008 258.624 224.21 260.835 224.21 263.559Z" fill="#B2B2B2" stroke="#B2B2B2" stroke-miterlimit="10"/>
<path d="M141.184 149.373C139.585 147.763 137.679 146.476 136.036 144.909C130.442 139.559 123.157 137.381 118.543 131.944C112.604 124.94 111.15 112.552 116.529 104.9C118.774 101.7 123.378 97.8091 127.895 98.463C133.183 99.2251 138.906 106.3 141.458 111.893C142.051 113.19 142.95 115.46 144.027 115.39C145.114 115.32 145.604 112.893 146.412 110.607C146.703 109.785 150.025 100.619 155.21 98.8305C159.345 97.4038 165.117 100.506 168.041 104.532C174.227 113.055 170.986 129.468 162.727 135.808C159.948 137.937 154.139 140.823 151.452 145.006C150.779 146.049 149.858 147.146 148.017 149.33C146.283 151.389 145.647 151.956 144.807 152C143.596 152.054 142.794 150.994 141.184 149.373Z" stroke="#F6B8C4" stroke-miterlimit="10"/>
<path d="M238.721 148.168L235.776 150.648C233.687 152.41 230.564 152.135 228.808 150.032L140.732 44.6775L52.4931 150.221C50.7378 152.324 47.6203 152.599 45.5258 150.837L42.5806 148.357C40.4861 146.595 40.2169 143.46 41.9721 141.358L136.543 28.2317C136.779 27.9561 137.937 26.6536 139.902 26.4753C142.191 26.2699 143.709 27.7508 143.919 27.9615C175.73 65.7009 207.53 103.435 239.335 141.174C241.09 143.271 240.815 146.406 238.721 148.168Z" fill="#B2B2B2" stroke="#B2B2B2" stroke-miterlimit="10"/>
<path d="M81.125 317H78.875L85.9883 300.242H88.3906L95.5391 317H93.1367L90.9688 311.727H85.4258L86.0234 309.969H90.2422L87.1133 302.375L81.125 317ZM99.7578 314.492C100.609 314.914 101.559 315.125 102.605 315.125C105.395 315.125 106.789 313.59 106.789 310.52C106.789 307.84 105.402 306.5 102.629 306.5C101.535 306.5 100.578 306.594 99.7578 306.781V314.492ZM97.5898 305.199C99.2227 304.863 100.91 304.695 102.652 304.695C106.832 304.695 108.922 306.645 108.922 310.543C108.922 314.848 106.82 317 102.617 317C101.633 317 100.68 316.805 99.7578 316.414V321.453H97.5898V305.199ZM116.938 304.695C120.438 304.695 122.188 306.426 122.188 309.887C122.188 310.379 122.152 310.906 122.082 311.469H113.445C113.445 313.984 114.914 315.242 117.852 315.242C119.25 315.242 120.492 315.086 121.578 314.773V316.531C120.492 316.844 119.172 317 117.617 317C113.391 317 111.277 314.902 111.277 310.707C111.277 306.699 113.164 304.695 116.938 304.695ZM113.445 309.664H120.102C120.055 307.508 119 306.43 116.938 306.43C114.75 306.43 113.586 307.508 113.445 309.664ZM125.105 317V304.695H127.273V309.852H133.777V304.695H135.945V317H133.777V311.609H127.273V317H125.105ZM143.035 315.242H149.234V306.453H144.898C144.898 310.82 144.277 313.75 143.035 315.242ZM137.715 321.453V315.242H139.871C141.777 315.242 142.73 312.312 142.73 306.453V304.695H151.402V315.242H153.57V321.453H151.402V317H139.871V321.453H137.715ZM156.207 317V304.695H158.375V309.852H164.879V304.695H167.047V317H164.879V311.609H158.375V317H156.207ZM169.988 313.285C169.988 310.762 171.652 309.5 174.98 309.5C176.051 309.5 177.121 309.578 178.191 309.734V308.574C178.191 307.16 177.086 306.453 174.875 306.453C173.609 306.453 172.312 306.648 170.984 307.039V305.281C172.312 304.891 173.609 304.695 174.875 304.695C178.531 304.695 180.359 305.969 180.359 308.516V317H179.141L178.391 315.781C177.164 316.594 175.828 317 174.383 317C171.453 317 169.988 315.762 169.988 313.285ZM174.98 311.258C173.098 311.258 172.156 311.922 172.156 313.25C172.156 314.578 172.898 315.242 174.383 315.242C175.883 315.242 177.152 314.844 178.191 314.047V311.492C177.121 311.336 176.051 311.258 174.98 311.258ZM191.621 317V306.488H187.426C186.348 306.488 185.809 306.949 185.809 307.871C185.809 308.965 187.059 309.766 189.559 310.273V311.809L185.164 317H182.422L187.18 311.504C184.727 310.746 183.5 309.543 183.5 307.895C183.5 305.762 184.82 304.695 187.461 304.695H193.789V317H191.621ZM108.875 344V331.695H119.715V344H117.547V333.453H111.043V344H108.875ZM121.484 342.242C123.336 342.242 124.262 341.188 124.262 339.078V331.695H133.637V344H131.469V333.453H126.43V339.078C126.43 342.359 124.781 344 121.484 344V342.242ZM136.578 340.285C136.578 337.762 138.242 336.5 141.57 336.5C142.641 336.5 143.711 336.578 144.781 336.734V335.574C144.781 334.16 143.676 333.453 141.465 333.453C140.199 333.453 138.902 333.648 137.574 334.039V332.281C138.902 331.891 140.199 331.695 141.465 331.695C145.121 331.695 146.949 332.969 146.949 335.516V344H145.73L144.98 342.781C143.754 343.594 142.418 344 140.973 344C138.043 344 136.578 342.762 136.578 340.285ZM141.57 338.258C139.688 338.258 138.746 338.922 138.746 340.25C138.746 341.578 139.488 342.242 140.973 342.242C142.473 342.242 143.742 341.844 144.781 341.047V338.492C143.711 338.336 142.641 338.258 141.57 338.258ZM159.559 331.695V333.453H155.223V344H153.055V333.453H148.719V331.695H159.559ZM160.742 340.285C160.742 337.762 162.406 336.5 165.734 336.5C166.805 336.5 167.875 336.578 168.945 336.734V335.574C168.945 334.16 167.84 333.453 165.629 333.453C164.363 333.453 163.066 333.648 161.738 334.039V332.281C163.066 331.891 164.363 331.695 165.629 331.695C169.285 331.695 171.113 332.969 171.113 335.516V344H169.895L169.145 342.781C167.918 343.594 166.582 344 165.137 344C162.207 344 160.742 342.762 160.742 340.285ZM165.734 338.258C163.852 338.258 162.91 338.922 162.91 340.25C162.91 341.578 163.652 342.242 165.137 342.242C166.637 342.242 167.906 341.844 168.945 341.047V338.492C167.875 338.336 166.805 338.258 165.734 338.258Z" fill="black"/>
<path d="M512.18 331C509.531 326.781 507.863 324.375 507.176 323.781C506.488 323.18 505.84 322.879 505.23 322.879V321.32C506.48 321.32 507.742 320.141 509.016 317.781C510.297 315.422 511.672 314.242 513.141 314.242H514.395V316.117H513.469C512.625 316.117 511.68 317.043 510.633 318.895C509.586 320.738 508.613 321.812 507.715 322.117C508.301 322.219 508.945 322.66 509.648 323.441C510.352 324.215 512.07 326.734 514.805 331H512.18ZM503.824 314.242V331H501.656V314.242H503.824ZM516.281 324.848C516.281 320.668 518.312 318.578 522.375 318.578C526.438 318.578 528.469 320.668 528.469 324.848C528.469 329.027 526.438 331.117 522.375 331.117C518.328 331.117 516.297 329.027 516.281 324.848ZM518.449 324.801C518.449 327.84 519.758 329.359 522.375 329.359C524.992 329.359 526.301 327.84 526.301 324.801C526.301 321.824 524.992 320.336 522.375 320.336C519.758 320.336 518.449 321.824 518.449 324.801ZM533.566 328.492C534.418 328.914 535.367 329.125 536.414 329.125C539.203 329.125 540.598 327.59 540.598 324.52C540.598 321.84 539.211 320.5 536.438 320.5C535.344 320.5 534.387 320.594 533.566 320.781V328.492ZM531.398 319.199C533.031 318.863 534.719 318.695 536.461 318.695C540.641 318.695 542.73 320.645 542.73 324.543C542.73 328.848 540.629 331 536.426 331C535.441 331 534.488 330.805 533.566 330.414V335.453H531.398V319.199ZM545.672 331V318.695H548.426L552.586 328.457L556.629 318.695H559.266V331H557.332V321.59L553.371 331H551.66L547.605 321.59V331H545.672ZM562.195 327.285C562.195 324.762 563.859 323.5 567.188 323.5C568.258 323.5 569.328 323.578 570.398 323.734V322.574C570.398 321.16 569.293 320.453 567.082 320.453C565.816 320.453 564.52 320.648 563.191 321.039V319.281C564.52 318.891 565.816 318.695 567.082 318.695C570.738 318.695 572.566 319.969 572.566 322.516V331H571.348L570.598 329.781C569.371 330.594 568.035 331 566.59 331C563.66 331 562.195 329.762 562.195 327.285ZM567.188 325.258C565.305 325.258 564.363 325.922 564.363 327.25C564.363 328.578 565.105 329.242 566.59 329.242C568.09 329.242 569.359 328.844 570.398 328.047V325.492C569.328 325.336 568.258 325.258 567.188 325.258Z" fill="black"/>
<path d="M935.262 329.242C938.496 329.242 940.113 326.703 940.113 321.625V314.242H951.129V331H948.961V316H942.281V321.625C942.281 327.875 939.941 331 935.262 331V329.242ZM959.953 318.695C963.453 318.695 965.203 320.426 965.203 323.887C965.203 324.379 965.168 324.906 965.098 325.469H956.461C956.461 327.984 957.93 329.242 960.867 329.242C962.266 329.242 963.508 329.086 964.594 328.773V330.531C963.508 330.844 962.188 331 960.633 331C956.406 331 954.293 328.902 954.293 324.707C954.293 320.699 956.18 318.695 959.953 318.695ZM956.461 323.664H963.117C963.07 321.508 962.016 320.43 959.953 320.43C957.766 320.43 956.602 321.508 956.461 323.664ZM976.5 331L974.777 328.117C973.621 326.188 972.504 325.223 971.426 325.223V323.781C972.676 323.781 973.605 322.934 974.215 321.238C974.832 319.543 975.875 318.695 977.344 318.695H978.598V320.57H977.672C976.828 320.57 976.207 321.145 975.809 322.293C975.41 323.434 974.723 324.195 973.746 324.578C974.668 324.742 975.773 325.852 977.062 327.906L979.008 331H976.5ZM970.289 318.695V331H968.121V318.695H970.289ZM980.473 327.285C980.473 324.762 982.137 323.5 985.465 323.5C986.535 323.5 987.605 323.578 988.676 323.734V322.574C988.676 321.16 987.57 320.453 985.359 320.453C984.094 320.453 982.797 320.648 981.469 321.039V319.281C982.797 318.891 984.094 318.695 985.359 318.695C989.016 318.695 990.844 319.969 990.844 322.516V331H989.625L988.875 329.781C987.648 330.594 986.312 331 984.867 331C981.938 331 980.473 329.762 980.473 327.285ZM985.465 325.258C983.582 325.258 982.641 325.922 982.641 327.25C982.641 328.578 983.383 329.242 984.867 329.242C986.367 329.242 987.637 328.844 988.676 328.047V325.492C987.605 325.336 986.535 325.258 985.465 325.258ZM996.539 328.492C997.391 328.914 998.34 329.125 999.387 329.125C1002.18 329.125 1003.57 327.59 1003.57 324.52C1003.57 321.84 1002.18 320.5 999.41 320.5C998.316 320.5 997.359 320.594 996.539 320.781V328.492ZM994.371 319.199C996.004 318.863 997.691 318.695 999.434 318.695C1003.61 318.695 1005.7 320.645 1005.7 324.543C1005.7 328.848 1003.6 331 999.398 331C998.414 331 997.461 330.805 996.539 330.414V335.453H994.371V319.199ZM1017.9 330.648C1016.89 330.883 1015.79 331 1014.62 331C1010.25 331 1008.06 328.871 1008.06 324.613C1008.06 320.668 1010.25 318.695 1014.62 318.695C1015.79 318.695 1016.89 318.812 1017.9 319.047V320.805C1016.89 320.57 1015.75 320.453 1014.5 320.453C1011.65 320.453 1010.23 321.84 1010.23 324.613C1010.23 327.699 1011.65 329.242 1014.5 329.242C1015.75 329.242 1016.89 329.125 1017.9 328.891V330.648ZM1029.75 318.695V320.453H1025.41V331H1023.25V320.453H1018.91V318.695H1029.75ZM1038.06 329.242C1039.28 329.242 1039.89 328.617 1039.89 327.367C1039.89 326.195 1038.94 325.609 1037.04 325.609H1036.1V324.191C1038.52 323.918 1039.73 323.102 1039.73 321.742C1039.73 320.883 1039.23 320.453 1038.23 320.453H1033.69V329.242H1038.06ZM1031.52 331V318.695H1038.43C1040.84 318.695 1042.04 319.723 1042.04 321.777C1042.04 323.051 1041.28 323.996 1039.75 324.613C1041.42 325.027 1042.25 325.934 1042.25 327.332C1042.25 329.777 1040.9 331 1038.19 331H1031.52ZM1044.6 327.285C1044.6 324.762 1046.26 323.5 1049.59 323.5C1050.66 323.5 1051.73 323.578 1052.8 323.734V322.574C1052.8 321.16 1051.7 320.453 1049.48 320.453C1048.22 320.453 1046.92 320.648 1045.59 321.039V319.281C1046.92 318.891 1048.22 318.695 1049.48 318.695C1053.14 318.695 1054.97 319.969 1054.97 322.516V331H1053.75L1053 329.781C1051.77 330.594 1050.44 331 1048.99 331C1046.06 331 1044.6 329.762 1044.6 327.285ZM1049.59 325.258C1047.71 325.258 1046.77 325.922 1046.77 327.25C1046.77 328.578 1047.51 329.242 1048.99 329.242C1050.49 329.242 1051.76 328.844 1052.8 328.047V325.492C1051.73 325.336 1050.66 325.258 1049.59 325.258Z" fill="black"/>
<path d="M512.984 5.77246C528.853 9.49913 549.067 12.7911 572.592 13.1736C598.4 13.5909 620.452 10.3801 637.367 6.66501C638.176 16.17 638.985 25.6693 639.794 35.1743C639.811 35.325 639.828 35.4815 639.846 35.6321C653.039 109.731 666.226 183.829 679.419 257.928C609.779 258.224 540.139 258.519 470.498 258.815C484.315 184.038 498.138 109.261 511.955 34.4846C512.007 33.2037 512.054 31.9171 512.106 30.6362C512.395 22.3425 512.689 14.0604 512.984 5.77246Z" fill="#E48185"/>
<path d="M561.769 36.0089C545.178 35.0179 528.593 34.0326 512.002 33.0415" stroke="#B26268" stroke-miterlimit="10"/>
<path d="M616.118 36.3276C624.006 36.0031 631.894 35.6727 639.782 35.3481" stroke="#B26268" stroke-miterlimit="10"/>
<path d="M478.901 245.49C538.359 245.786 597.822 246.082 657.28 246.377" stroke="#B26268" stroke-miterlimit="10"/>
<path d="M574.95 207.72C605.873 207.72 630.941 182.578 630.941 151.565C630.941 120.551 605.873 95.4097 574.95 95.4097C544.027 95.4097 518.959 120.551 518.959 151.565C518.959 182.578 544.027 207.72 574.95 207.72Z" fill="#F7F2F3"/>
<path d="M575.464 141.161C573.367 141.202 570.674 142.06 564.456 149.044C554.707 159.986 549.83 165.457 551.563 171.612C553.343 177.935 561.497 182.966 566.611 181.378C570.963 180.028 571.922 174.261 575.019 174.545C577.851 174.806 577.834 179.697 581.364 181.413C586.271 183.801 596.031 179.083 598.481 172.087C601.168 164.396 594.078 156.642 586.698 148.574C580.035 141.295 576.545 141.144 575.464 141.161Z" fill="#F6B8C4"/>
<path d="M550.13 150.348C553.034 150.348 555.389 147.644 555.389 144.308C555.389 140.973 553.034 138.269 550.13 138.269C547.226 138.269 544.871 140.973 544.871 144.308C544.871 147.644 547.226 150.348 550.13 150.348Z" fill="#F6B8C4"/>
<path d="M565.571 134.595C568.447 134.595 570.778 131.572 570.778 127.843C570.778 124.114 568.447 121.091 565.571 121.091C562.695 121.091 560.364 124.114 560.364 127.843C560.364 131.572 562.695 134.595 565.571 134.595Z" fill="#F6B8C4"/>
<path d="M584.751 134.595C587.626 134.595 589.958 131.572 589.958 127.843C589.958 124.114 587.626 121.091 584.751 121.091C581.875 121.091 579.544 124.114 579.544 127.843C579.544 131.572 581.875 134.595 584.751 134.595Z" fill="#F6B8C4"/>
<path d="M599.805 150.046C602.69 150.046 605.029 147.42 605.029 144.181C605.029 140.941 602.69 138.315 599.805 138.315C596.919 138.315 594.581 140.941 594.581 144.181C594.581 147.42 596.919 150.046 599.805 150.046Z" fill="#F6B8C4"/>
<path d="M482.576 212.345C481.911 205.981 437.657 206.143 426.961 206.178C415.756 206.218 372.848 206.375 372.224 212.634C371.716 217.729 399.124 227.228 426.938 227.257C455.283 227.286 483.113 217.48 482.576 212.345Z" fill="#646E67" stroke="#646E67" stroke-miterlimit="10"/>
<path d="M441.252 214.008C444.175 214.008 446.545 211.631 446.545 208.699C446.545 205.767 444.175 203.39 441.252 203.39C438.328 203.39 435.958 205.767 435.958 208.699C435.958 211.631 438.328 214.008 441.252 214.008Z" fill="#E48185" stroke="#E48185" stroke-miterlimit="10"/>
<path d="M433.422 219.097C436.128 219.097 438.322 216.896 438.322 214.182C438.322 211.468 436.128 209.267 433.422 209.267C430.715 209.267 428.521 211.468 428.521 214.182C428.521 216.896 430.715 219.097 433.422 219.097Z" fill="#E48185" stroke="#E48185" stroke-miterlimit="10"/>
<path d="M425.204 217.132C427.84 217.132 429.977 214.989 429.977 212.345C429.977 209.701 427.84 207.557 425.204 207.557C422.568 207.557 420.431 209.701 420.431 212.345C420.431 214.989 422.568 217.132 425.204 217.132Z" fill="#E48185" stroke="#E48185" stroke-miterlimit="10"/>
<path d="M425.366 208.612C428.242 208.612 430.573 206.274 430.573 203.39C430.573 200.506 428.242 198.168 425.366 198.168C422.49 198.168 420.159 200.506 420.159 203.39C420.159 206.274 422.49 208.612 425.366 208.612Z" fill="#E48185" stroke="#E48185" stroke-miterlimit="10"/>
<path d="M390.26 217.567C394.814 217.567 398.506 214.902 398.506 211.614C398.506 208.327 394.814 205.662 390.26 205.662C385.705 205.662 382.013 208.327 382.013 211.614C382.013 214.902 385.705 217.567 390.26 217.567Z" fill="#E48185" stroke="#E48185" stroke-miterlimit="10"/>
<path d="M430.053 230.903C434.62 230.903 438.322 227.189 438.322 222.609C438.322 218.028 434.62 214.315 430.053 214.315C425.485 214.315 421.783 218.028 421.783 222.609C421.783 227.189 425.485 230.903 430.053 230.903Z" fill="#E48185" stroke="#E48185" stroke-miterlimit="10"/>
<path d="M417.593 229.216C421.797 229.216 425.204 225.799 425.204 221.583C425.204 217.367 421.797 213.95 417.593 213.95C413.39 213.95 409.983 217.367 409.983 221.583C409.983 225.799 413.39 229.216 417.593 229.216Z" fill="#E48185" stroke="#E48185" stroke-miterlimit="10"/>
<path d="M445.395 230.903C451.047 230.903 455.629 226.307 455.629 220.638C455.629 214.969 451.047 210.374 445.395 210.374C439.743 210.374 435.161 214.969 435.161 220.638C435.161 226.307 439.743 230.903 445.395 230.903Z" fill="#E48185" stroke="#E48185" stroke-miterlimit="10"/>
<path d="M463.182 229.077C468.637 229.077 473.058 224.642 473.058 219.172C473.058 213.702 468.637 209.267 463.182 209.267C457.728 209.267 453.306 213.702 453.306 219.172C453.306 224.642 457.728 229.077 463.182 229.077Z" fill="#E48185" stroke="#E48185" stroke-miterlimit="10"/>
<path d="M390.375 224.394C393.251 224.394 395.582 222.056 395.582 219.172C395.582 216.288 393.251 213.95 390.375 213.95C387.5 213.95 385.169 216.288 385.169 219.172C385.169 222.056 387.5 224.394 390.375 224.394Z" fill="#E48185" stroke="#E48185" stroke-miterlimit="10"/>
<path d="M400.488 218.992C404.739 218.992 408.186 215.536 408.186 211.272C408.186 207.009 404.739 203.552 400.488 203.552C396.237 203.552 392.791 207.009 392.791 211.272C392.791 215.536 396.237 218.992 400.488 218.992Z" fill="#E48185" stroke="#E48185" stroke-miterlimit="10"/>
<path d="M432.399 213.799C434.898 213.799 436.924 211.768 436.924 209.261C436.924 206.755 434.898 204.723 432.399 204.723C429.9 204.723 427.874 206.755 427.874 209.261C427.874 211.768 429.9 213.799 432.399 213.799Z" fill="#E48185" stroke="#E48185" stroke-miterlimit="10"/>
<path d="M451.469 215.573C454.823 215.573 457.542 212.846 457.542 209.481C457.542 206.117 454.823 203.39 451.469 203.39C448.114 203.39 445.395 206.117 445.395 209.481C445.395 212.846 448.114 215.573 451.469 215.573Z" fill="#E48185" stroke="#E48185" stroke-miterlimit="10"/>
<path d="M414.525 220.209C419.941 220.209 424.332 215.806 424.332 210.374C424.332 204.942 419.941 200.539 414.525 200.539C409.109 200.539 404.718 204.942 404.718 210.374C404.718 215.806 409.109 220.209 414.525 220.209Z" fill="#E48185" stroke="#E48185" stroke-miterlimit="10"/>
<path d="M402.228 232.444C407.644 232.444 412.034 228.041 412.034 222.609C412.034 217.177 407.644 212.773 402.228 212.773C396.812 212.773 392.421 217.177 392.421 222.609C392.421 228.041 396.812 232.444 402.228 232.444Z" fill="#E48185" stroke="#E48185" stroke-miterlimit="10"/>
<path d="M372.23 213.069C366.474 227.651 360.719 242.227 354.963 256.81C366.711 263.26 392.225 275.217 426.672 275.304C460.923 275.391 486.378 263.695 498.167 257.337C492.972 242.482 487.771 227.634 482.576 212.779C473.971 217.764 454.087 227.744 426.944 227.692C400.373 227.64 380.852 218.007 372.23 213.069Z" fill="#65816D" stroke="#65816D" stroke-miterlimit="10"/>
<path d="M412.878 211.527C412.774 211.829 412.19 213.614 413.138 215.179C414.178 216.888 416.64 217.653 418.992 216.744" stroke="#B26268" stroke-miterlimit="10"/>
<path d="M440.46 215.445C440.35 215.677 439.501 217.352 437.6 217.793C435.982 218.169 434.242 217.503 433.179 216.094" stroke="#B26268" stroke-miterlimit="10"/>
<path d="M423.546 209.702C423.667 209.481 424.464 208.096 426.146 207.743C427.516 207.453 428.96 207.957 429.92 209.047" stroke="#B26268" stroke-miterlimit="10"/>
<path d="M458.802 215.573C458.299 217.114 456.976 218.233 455.421 218.442C453.676 218.679 451.937 217.735 451.128 216.094" fill="#E48185"/>
<path d="M458.802 215.573C458.299 217.114 456.976 218.233 455.421 218.442C453.676 218.679 451.937 217.735 451.128 216.094" stroke="#E48185" stroke-miterlimit="10"/>
<path d="M424.066 223.53C424.355 222.939 425.187 221.444 426.926 220.662C429.134 219.665 431.902 220.233 433.953 222.099" fill="#E48185"/>
<path d="M424.066 223.53C424.355 222.939 425.187 221.444 426.926 220.662C429.134 219.665 431.902 220.233 433.953 222.099" stroke="#E48185" stroke-miterlimit="10"/>
<path d="M439.42 208.398C439.472 208.311 440.148 207.262 441.373 207.221C442.39 207.192 443.35 207.876 443.714 208.919" fill="#E48185"/>
<path d="M439.42 208.398C439.472 208.311 440.148 207.262 441.373 207.221C442.39 207.192 443.35 207.876 443.714 208.919" stroke="#E48185" stroke-miterlimit="10"/>
<path d="M452.515 215.132C452.607 215.434 453.185 217.225 454.878 217.926C456.722 218.691 459.16 217.851 460.524 215.723" stroke="#B26268" stroke-miterlimit="10"/>
<path d="M423.164 217.375C423.06 217.677 422.477 219.462 423.424 221.027C424.464 222.736 426.926 223.501 429.278 222.591" stroke="#B26268" stroke-miterlimit="10"/>
<path d="M393.854 217.259C394.12 217.433 395.692 218.453 397.443 217.926C399.356 217.352 400.714 215.15 400.43 212.64" stroke="#B26268" stroke-miterlimit="10"/>
<path d="M406.88 208.375C406.851 208.125 406.677 206.537 407.822 205.251C408.758 204.202 410.214 203.755 411.63 204.063" stroke="#B26268" stroke-miterlimit="10"/>
<path d="M448.435 209.365C448.504 209.603 448.915 211.151 447.973 212.594C447.204 213.77 445.829 214.437 444.384 214.344" stroke="#B26268" stroke-miterlimit="10"/>
<path d="M403.609 220.117C403.73 219.897 404.528 218.511 406.209 218.158C407.579 217.868 409.024 218.372 409.983 219.462" stroke="#B26268" stroke-miterlimit="10"/>
<path d="M519.942 28.2717C519.612 29.9815 519.289 31.6912 518.959 33.401" stroke="#B26268" stroke-miterlimit="10"/>
<path d="M525.744 28.6948C525.414 30.4046 525.091 32.1143 524.761 33.8241" stroke="#B26268" stroke-miterlimit="10"/>
<path d="M531.493 29.1003C531.164 30.8101 530.84 32.5198 530.511 34.2296" stroke="#B26268" stroke-miterlimit="10"/>
<path d="M537.209 29.5642C536.879 31.274 536.556 32.9837 536.226 34.6934" stroke="#B26268" stroke-miterlimit="10"/>
<path d="M620.273 31.1985C619.944 32.9082 619.62 34.618 619.291 36.3277" stroke="#B26268" stroke-miterlimit="10"/>
<path d="M625.041 30.9897C624.711 32.6995 624.388 34.4092 624.058 36.119" stroke="#B26268" stroke-miterlimit="10"/>
<path d="M630.028 30.9897C629.698 32.6995 629.375 34.4092 629.045 36.119" stroke="#B26268" stroke-miterlimit="10"/>
<path d="M933.146 265.65H898.471C891.134 265.65 885.184 259.694 885.184 252.348V173.454C885.184 166.109 891.134 160.152 898.471 160.152H933.146C940.483 160.152 946.433 166.109 946.433 173.454V252.348C946.427 259.694 940.483 265.65 933.146 265.65Z" fill="#F5C3AD"/>
<path d="M933.487 150.688H898.136V160.158H933.487V150.688Z" fill="#E2AE9C"/>
<path d="M1101.15 266.886H981.514C976.123 266.886 971.754 262.513 971.754 257.116V107.591C971.754 102.194 976.123 97.8208 981.514 97.8208H1101.15C1106.54 97.8208 1110.91 102.194 1110.91 107.591V257.122C1110.91 262.513 1106.54 266.886 1101.15 266.886Z" fill="#F5C3AD"/>
<path d="M1086.15 81.1462H996.529V97.8268H1086.15V81.1462Z" fill="#E2AE9C"/>
<path d="M1095.3 81.1463H987.369C984.218 81.1463 981.667 78.5918 981.667 75.437V62.0584C981.667 58.9036 984.218 56.3491 987.369 56.3491H1095.29C1098.44 56.3491 1101 58.9036 1101 62.0584V75.4311C1101 78.5859 1098.44 81.1463 1095.3 81.1463Z" fill="#F5C3AD"/>
<path d="M1041.33 211.836C1058.58 211.836 1072.56 197.841 1072.56 180.576C1072.56 163.312 1058.58 149.316 1041.33 149.316C1024.09 149.316 1010.11 163.312 1010.11 180.576C1010.11 197.841 1024.09 211.836 1041.33 211.836Z" fill="#F7F2F3"/>
<path d="M1041.62 174.785C1040.45 174.808 1038.95 175.285 1035.48 179.175C1030.04 185.267 1027.32 188.316 1028.29 191.742C1029.28 195.262 1033.83 198.063 1036.68 197.174C1039.11 196.421 1039.65 193.213 1041.38 193.372C1042.96 193.519 1042.95 196.239 1044.91 197.198C1047.65 198.528 1053.09 195.903 1054.46 192.007C1055.96 187.728 1052 183.407 1047.89 178.917C1044.17 174.861 1042.22 174.779 1041.62 174.785Z" fill="#F6B8C4"/>
<path d="M1027.49 179.899C1029.11 179.899 1030.43 178.395 1030.43 176.539C1030.43 174.682 1029.11 173.178 1027.49 173.178C1025.87 173.178 1024.56 174.682 1024.56 176.539C1024.56 178.395 1025.87 179.899 1027.49 179.899Z" fill="#F6B8C4"/>
<path d="M1036.1 171.135C1037.71 171.135 1039.01 169.452 1039.01 167.374C1039.01 165.297 1037.71 163.613 1036.1 163.613C1034.5 163.613 1033.2 165.297 1033.2 167.374C1033.2 169.452 1034.5 171.135 1036.1 171.135Z" fill="#F6B8C4"/>
<path d="M1046.8 171.135C1048.4 171.135 1049.7 169.452 1049.7 167.374C1049.7 165.297 1048.4 163.613 1046.8 163.613C1045.19 163.613 1043.89 165.297 1043.89 167.374C1043.89 169.452 1045.19 171.135 1046.8 171.135Z" fill="#F6B8C4"/>
<path d="M1055.2 179.729C1056.81 179.729 1058.11 178.269 1058.11 176.468C1058.11 174.667 1056.81 173.207 1055.2 173.207C1053.59 173.207 1052.28 174.667 1052.28 176.468C1052.28 178.269 1053.59 179.729 1055.2 179.729Z" fill="#F6B8C4"/>
<path d="M915.808 232.06C924.351 232.06 931.276 225.127 931.276 216.574C931.276 208.022 924.351 201.088 915.808 201.088C907.266 201.088 900.34 208.022 900.34 216.574C900.34 225.127 907.266 232.06 915.808 232.06Z" fill="#F7F2F3"/>
<path d="M915.95 213.702C915.367 213.714 914.627 213.949 912.91 215.874C910.217 218.893 908.871 220.4 909.347 222.101C909.841 223.843 912.093 225.232 913.504 224.791C914.703 224.42 914.974 222.825 915.826 222.908C916.608 222.978 916.602 224.326 917.578 224.803C918.936 225.462 921.629 224.161 922.305 222.231C923.046 220.112 921.088 217.969 919.048 215.744C917.214 213.737 916.249 213.696 915.95 213.702Z" fill="#F6B8C4"/>
<path d="M908.947 216.239C909.749 216.239 910.4 215.493 910.4 214.573C910.4 213.653 909.749 212.907 908.947 212.907C908.145 212.907 907.495 213.653 907.495 214.573C907.495 215.493 908.145 216.239 908.947 216.239Z" fill="#F6B8C4"/>
<path d="M913.216 211.889C914.011 211.889 914.656 211.056 914.656 210.029C914.656 209.002 914.011 208.169 913.216 208.169C912.42 208.169 911.775 209.002 911.775 210.029C911.775 211.056 912.42 211.889 913.216 211.889Z" fill="#F6B8C4"/>
<path d="M918.513 211.889C919.308 211.889 919.953 211.056 919.953 210.029C919.953 209.002 919.308 208.169 918.513 208.169C917.717 208.169 917.072 209.002 917.072 210.029C917.072 211.056 917.717 211.889 918.513 211.889Z" fill="#F6B8C4"/>
<path d="M922.675 216.156C923.474 216.156 924.122 215.432 924.122 214.538C924.122 213.644 923.474 212.919 922.675 212.919C921.877 212.919 921.229 213.644 921.229 214.538C921.229 215.432 921.877 216.156 922.675 216.156Z" fill="#F6B8C4"/>
<path d="M874.155 143.372H838.803V152.842H874.155V143.372Z" fill="#E2AE9C"/>
<path d="M861.579 143.372H851.373C851.208 143.372 851.073 143.236 851.073 143.071V117.15C851.073 114.949 852.854 113.165 855.053 113.165H858.128C860.203 113.165 861.879 114.849 861.879 116.92V143.071C861.885 143.236 861.75 143.372 861.579 143.372Z" fill="#E2AE9C"/>
<path d="M860.386 152.842H852.578V228.128H860.386V152.842Z" fill="#F7F2F3"/>
<path d="M855.594 232.707L852.754 228.446C852.284 227.74 852.79 226.792 853.642 226.792H859.316C860.168 226.792 860.674 227.74 860.203 228.446L857.364 232.707C856.94 233.343 856.012 233.343 855.594 232.707Z" fill="#F7F2F3"/>
</svg>
