<svg width="448" height="207" viewBox="0 0 448 207" fill="none" xmlns="http://www.w3.org/2000/svg">
<rect width="448" height="207" rx="9" fill="#F6B8C4"/>
<g clip-path="url(#clip0_126_298)">
<path d="M60.4 27.1C60.3915 27.0957 60.3787 27.0872 60.3702 27.0829C60.3787 27.0915 60.3915 27.0957 60.4 27.1Z" fill="white"/>
<path d="M61.8994 26.8107C61.9037 26.815 61.908 26.815 61.9123 26.8193C61.908 26.815 61.9037 26.8107 61.8994 26.8107Z" fill="white"/>
<path d="M21.2275 50.3065C21.211 50.3189 21.1987 50.3271 21.1822 50.3395C21.1987 50.3271 21.2152 50.3148 21.2275 50.3065Z" fill="white"/>
<path d="M22.9052 52.5764C22.9052 52.5814 22.9052 52.5814 22.9052 52.5764V52.5715C22.9101 52.5764 22.9052 52.5764 22.9052 52.5764Z" fill="white"/>
<path d="M19.183 49.2875C19.1873 49.2918 19.1958 49.2918 19.2001 49.296C19.1958 49.2918 19.1873 49.2875 19.183 49.2875Z" fill="white"/>
<path d="M69.3809 38.3378C69.3438 36.6917 69.0758 35.029 68.7131 33.42C68.7502 32.9291 68.7296 32.3391 68.338 31.9925C67.7692 30.0864 66.9819 28.2423 65.9926 26.5136C66.648 25.5152 67.4518 23.9928 66.4419 22.9655C65.704 22.458 64.5746 23.0563 64.1418 23.737C62.662 21.7938 60.9143 20.0569 58.9481 18.6088C59.3273 15.1638 55.9761 13.1422 56.2811 16.8718C55.3743 16.3603 54.4303 15.9023 53.4658 15.5021C53.5359 15.0235 52.8269 14.7059 52.6043 15.1638C51.9035 14.8998 51.1946 14.6687 50.4732 14.4707C50.4526 14.1406 49.8673 13.9426 49.7106 14.2727C39.0758 11.8509 26.7428 15.6011 20.4402 24.8056C20.1888 24.8138 20.0857 25.0737 20.1022 25.2924C19.7106 25.8741 19.3438 26.4723 19.0016 27.0829C18.3998 26.988 17.9588 27.6812 18.4534 28.1185C18.0082 29.0138 17.6125 29.9297 17.2704 30.8703C16.413 30.7259 15.939 31.9183 16.8046 32.2813C16.4666 33.387 16.2152 34.5133 16.042 35.6561C11.7923 33.4406 12.7609 37.6406 15.7494 38.6968C15.704 39.9262 15.7535 41.1557 15.8813 42.381C15.0033 42.2779 14.723 43.0741 15.094 43.7673C15.3495 44.1881 15.8112 44.4397 16.2275 44.6749C16.4913 45.9993 16.85 47.3071 17.3199 48.5737C16.6068 49.1348 17.427 49.8485 17.9629 50.1497C20.0322 54.8159 23.54 58.8095 27.8599 61.516C27.7321 62.0936 28.4617 62.5309 28.911 62.1431C29.5375 62.4979 30.1805 62.828 30.8359 63.1291C30.8607 63.5211 31.3759 63.7191 31.681 63.4963C32.493 63.8346 33.3215 64.1317 34.1624 64.3875C34.249 64.569 34.5004 64.6515 34.6694 64.5319C52.1467 68.9588 69.9951 57.0933 69.3809 38.3378ZM67.0107 48.4953C66.8706 49.0234 66.2317 49.1018 65.77 49.0234C66.1904 48.846 66.5697 48.5819 66.9613 48.3468C67.0231 48.3715 67.019 48.4334 67.0107 48.4953ZM51.3471 62.8775C47.1014 64.8248 42.2745 64.9238 37.7857 63.8264C44.5293 65.1136 51.7634 63.4592 57.2622 59.3418C55.465 60.7899 53.4658 61.974 51.3471 62.8775ZM40.3537 64.3751C40.3454 64.3751 40.3413 64.3751 40.3331 64.371C40.3372 64.3751 40.3454 64.3751 40.3537 64.3751ZM26.6026 59.2386C26.4419 59.2345 26.2523 59.218 26.1492 59.0818C26.4625 59.1644 26.7923 59.1726 27.1138 59.1644C27.122 59.1726 27.1303 59.1767 27.1385 59.185C26.9613 59.2304 26.7799 59.2386 26.6026 59.2386ZM22.2127 54.0196C21.6397 54.0279 20.8607 53.9866 20.5144 53.475C21.1039 53.7308 21.7263 53.8463 22.3446 53.9949C22.3487 53.999 22.3528 54.0031 22.3528 54.0072C22.3075 54.0114 22.258 54.0155 22.2127 54.0196ZM21.3306 53.0872C21.4089 53.1202 21.4872 53.1491 21.5573 53.1986C21.244 53.1078 20.9225 53.0501 20.5927 53.0418C20.8195 52.9222 21.0998 53.0171 21.3306 53.0872ZM14.488 36.7164C14.1995 36.3946 13.878 36.0976 13.6183 35.7469C13.6265 35.7304 13.6307 35.7139 13.6389 35.6974C14.4097 36.2255 15.1393 36.8113 15.8277 37.4384C15.8236 37.5003 15.8153 37.5663 15.8112 37.6282C15.366 37.3353 14.8879 37.0754 14.488 36.7164ZM57.6084 17.6722C57.5919 17.1936 57.5342 16.7151 57.5466 16.2365C57.662 16.7563 57.765 17.2803 57.8269 17.8125C57.7568 17.7671 57.6826 17.7217 57.6084 17.6722ZM57.9547 18.5386C58.0453 18.9058 58.136 19.2812 58.1278 19.6608C57.9299 19.24 57.7857 18.7903 57.662 18.3406C57.7609 18.4066 57.8599 18.4726 57.9547 18.5386ZM64.1047 25.6967C64.1129 25.3749 64.15 25.0531 64.2407 24.7437C64.3644 24.917 64.488 25.0944 64.6076 25.2718C64.3891 25.8287 64.3232 26.4228 64.1789 27.0004C64.1047 26.5714 64.0965 26.1299 64.1047 25.6967ZM65.8524 23.5926C65.8937 23.5555 65.9308 23.5183 65.9678 23.4771C65.8566 24.1413 65.5144 24.7148 65.2712 25.3336C65.1929 25.2099 65.1146 25.0902 65.0322 24.9706C65.2589 24.4879 65.4979 23.9887 65.8524 23.5926ZM67.596 32.9456C67.6331 32.8919 67.6744 32.8424 67.7197 32.7929C67.6208 33.1353 67.4724 33.4613 67.3075 33.7748C67.3281 33.651 67.3611 33.5314 67.4023 33.4118C67.3982 33.4324 67.3899 33.4489 67.3858 33.4695C67.4394 33.288 67.5054 33.1106 67.596 32.9456ZM68.6307 35.8748C68.6966 36.374 68.7461 36.8732 68.7832 37.3724C68.0453 37.4178 67.5342 38.1398 67.3611 38.8082C67.3405 37.7726 67.2498 36.7412 67.1055 35.718C67.1426 35.718 67.1756 35.7056 67.2127 35.6891C67.2127 35.6891 67.2127 35.6891 67.2086 35.6891C67.798 35.4746 67.9959 34.7815 68.3669 34.3235C68.4699 34.8351 68.5565 35.355 68.6307 35.8748ZM63.0866 51.8536C63.0453 51.7133 62.9835 51.5483 63.0618 51.408C63.066 51.5607 63.1484 51.6886 63.2226 51.8206C63.1937 51.866 63.1649 51.9114 63.1401 51.9568C63.1195 51.9238 63.1031 51.8908 63.0866 51.8536ZM65.0074 48.2519C65.0033 48.2684 64.9951 48.2808 64.9909 48.2973C64.958 48.2271 64.925 48.157 64.8879 48.0827C64.892 48.091 64.8961 48.0951 64.8961 48.1034C64.892 48.0951 64.8879 48.0869 64.8838 48.0745C64.8838 48.0745 64.8838 48.0786 64.8879 48.0786C64.756 47.7774 64.6735 47.4556 64.5952 47.138C64.9332 47.3937 65.0322 47.8476 65.0074 48.2519ZM64.3438 47.204C64.4551 47.567 64.5458 47.9383 64.7189 48.2766C64.5169 47.9548 64.3438 47.5918 64.3438 47.204ZM66.7098 39.8272C66.7139 39.8355 66.7139 39.8396 66.7181 39.8478C65.8937 39.4477 64.7848 38.8783 64.6529 37.8799C65.2259 38.5895 65.8566 39.3363 66.6768 39.7571C66.6851 39.7818 66.6974 39.8066 66.7098 39.8272ZM65.2671 37.7355C65.8978 38.1439 66.2152 38.8247 66.5367 39.4765C65.9678 38.8907 65.3743 38.3255 64.9167 37.6447C65.0363 37.6612 65.1599 37.6736 65.2671 37.7355ZM59.4427 25.1191C60.7288 25.2759 61.817 26.2248 62.6002 27.2108C62.5383 27.1737 62.4765 27.1366 62.4147 27.1036C62.4147 27.1036 62.4147 27.1036 62.4188 27.1036C62.2374 27.0004 62.0561 26.8932 61.8747 26.7941C61.8829 26.7983 61.8912 26.8024 61.8994 26.8065C60.8648 26.2165 59.8425 25.5152 58.6307 25.3708C58.8285 25.1604 59.1624 25.1356 59.4427 25.1191ZM62.4765 27.7843C61.1616 27.2232 59.7642 26.6786 58.676 25.7256C58.6801 25.7297 58.6843 25.7338 58.6884 25.738C58.643 25.6967 58.5977 25.6513 58.5606 25.6059C59.0841 25.6596 59.5581 25.8906 60.0322 26.1052C60.028 26.101 60.0198 26.101 60.0157 26.0969C60.9472 26.6415 61.8623 27.2108 62.8104 27.7307C62.798 27.7224 62.7857 27.7183 62.7733 27.71C62.9011 27.7761 63.0124 27.8709 63.1525 27.9122C63.1566 27.9163 63.1608 27.9205 63.1649 27.9246C62.9258 27.8998 62.6991 27.8709 62.4765 27.7843ZM58.9975 26.2413C59.6694 26.7735 60.4691 27.1159 61.2193 27.5326C60.3042 27.215 59.2696 26.8519 58.7172 26.0061C58.8079 26.0886 58.8986 26.167 58.9975 26.2413ZM53.1731 19.7351C54.4386 19.5948 55.6917 19.8753 56.85 20.3663C55.0115 19.9826 53.1566 20.0816 51.3017 20.2508C51.8417 19.8671 52.526 19.7351 53.1731 19.7351ZM51.7304 20.6262C53.6018 20.3622 55.4814 20.3292 57.3487 20.6551C55.4773 20.8036 53.5194 21.1997 51.6851 20.6345C51.6974 20.6304 51.7139 20.6262 51.7304 20.6262ZM54.2819 19.3926C53.2803 19.3143 52.1838 19.3803 51.3141 19.9331C52.1385 18.9429 53.5194 18.9512 54.6199 19.4215C54.5087 19.4133 54.3974 19.4091 54.2819 19.3926ZM51.2976 21.014C53.4328 21.6081 55.7164 21.1708 57.8557 20.8119C57.9217 20.8531 57.9918 20.8985 58.066 20.9192C58.0783 20.9357 58.0866 20.9563 58.1031 20.9687C56.3718 21.4472 52.7527 22.2146 51.2894 21.0099C51.2894 21.0099 51.2935 21.014 51.2976 21.014ZM65.9555 33.5314C65.9307 33.4984 65.9019 33.4695 65.8772 33.4406C65.8854 33.4489 65.8937 33.4613 65.9019 33.4695C65.5103 33.0074 64.9951 32.6114 64.4221 32.4051C65.1022 32.2937 65.6134 33.0322 65.9555 33.5314ZM64.1665 32.5165C65.1723 32.863 66.042 33.845 66.3141 34.8723C65.6587 34.0265 65.0692 33.0281 63.9975 32.665C64.0429 32.6072 64.1047 32.5577 64.1665 32.5165ZM63.9275 32.8094C64.7312 33.0941 65.3001 33.8202 65.6834 34.5587C65.1063 34.0595 63.9275 33.6758 63.9275 32.8094ZM65.0981 43.3836C65.0775 43.3464 65.061 43.3052 65.0445 43.268C65.0445 43.268 65.0445 43.2722 65.0486 43.2722C65.0445 43.2598 65.0404 43.2515 65.0363 43.2392C65.0363 43.2433 65.0363 43.2433 65.0404 43.2474C65.0033 43.1608 64.958 43.0783 64.9332 42.9916C65.0651 43.2144 65.2424 43.3877 65.4196 43.5775C65.4979 43.6971 65.6092 43.7879 65.6958 43.8993C65.6917 43.8952 65.6917 43.891 65.6875 43.8869C65.7453 43.9653 65.8071 44.0396 65.8772 44.1056C65.601 43.8869 65.2836 43.6889 65.0981 43.3836ZM65.8772 43.8663C65.568 43.5156 65.2547 43.169 64.9538 42.8183C65.4856 42.9174 65.7824 43.4702 65.9472 43.9364C65.9225 43.9158 65.8978 43.891 65.8772 43.8663ZM64.657 43.0741C64.7972 43.4578 65.0157 43.8044 65.366 44.0231C65.0198 43.8209 64.6859 43.495 64.657 43.0741ZM68.8203 37.9129C68.3421 38.3048 67.9258 38.7545 67.5631 39.2537C67.7733 38.6431 68.0866 37.8469 68.812 37.7437C68.812 37.8015 68.8162 37.8593 68.8203 37.9129ZM68.136 33.5025C67.9093 34.0182 67.5837 34.4968 67.2745 34.9671C67.2498 34.8062 67.2498 34.6453 67.2539 34.4803C67.6002 34.0265 67.8846 33.5232 68.0618 32.9786C68.0907 33.1518 68.1896 33.3251 68.136 33.5025ZM64.4633 27.4873C64.7065 27.0458 64.9786 26.6209 65.1682 26.1505C65.2176 26.233 65.2671 26.3156 65.3166 26.3981C65.0033 26.7405 64.7354 27.1159 64.4633 27.4873ZM65.0528 25.9649C65.0404 25.9979 65.0322 26.0309 65.0198 26.0639C65.0239 26.0556 65.0239 26.0474 65.028 26.0433C64.8673 26.5342 64.6282 26.9963 64.3809 27.4543C64.3685 27.4295 64.3561 27.4047 64.3438 27.38C64.4839 26.7694 64.5911 26.1505 64.7931 25.5564C64.8796 25.6926 64.9662 25.8287 65.0528 25.9649ZM58.3339 19.1616C58.3174 19.0255 58.2885 18.8893 58.2638 18.7532C58.2968 18.7779 58.3339 18.8027 58.3669 18.8274C58.3545 18.9388 58.3421 19.0502 58.3339 19.1616ZM57.2168 18.0518C57.2539 18.5634 57.4806 19.0378 57.6579 19.5123C57.596 19.4628 57.5342 19.4133 57.4683 19.3679C57.2951 18.8852 57.1014 18.4107 56.9983 17.9115C57.0725 17.9569 57.1426 18.0023 57.2127 18.0477C57.2168 18.0518 57.2168 18.0518 57.2168 18.0518ZM27.6331 19.9496C35.8937 13.4063 48.3421 13.2619 56.7675 19.5824C54.8879 18.8934 52.2993 17.829 50.8648 19.8506C50.2259 20.6345 50.906 21.5463 51.7057 21.8433C53.9893 22.5117 56.4996 21.8846 58.6966 21.1502C60.634 22.9201 62.2663 25.0201 63.5523 27.3057C57.9423 20.7541 54.4221 28.0772 64.0346 28.5269C64.0882 28.5641 64.1542 28.5806 64.2201 28.5764C64.8137 29.7811 65.3001 31.0354 65.6875 32.3185C64.9332 31.4356 63.1896 31.8853 63.3998 33.1683C63.8945 34.4019 65.3702 34.9878 66.4501 35.6355C66.615 36.6834 66.7222 37.7396 66.7428 38.7999C64.5169 35.2064 62.6373 38.6555 66.7304 40.1655C66.6851 41.3125 66.5655 42.4594 66.3512 43.5857C64.3809 40.6235 62.9918 44.0849 66.0956 44.8028C65.8937 45.6692 65.6422 46.5232 65.3413 47.3607C64.2778 45.5949 63.0783 47.1503 64.6653 49.0523C64.3355 49.7866 63.9728 50.5086 63.5771 51.21C62.7362 50.3642 62.324 51.7464 62.9093 52.324C61.1162 55.1294 58.742 57.5718 55.9761 59.4284C55.9678 59.4202 55.9596 59.416 55.9472 59.4119C55.8895 59.4532 55.8277 59.4944 55.7617 59.5274C55.7741 59.5357 55.7906 59.5398 55.8071 59.5398C48.305 64.6639 38.1937 64.6928 30.3372 60.4144C28.4905 59.35 26.7799 58.0422 25.2795 56.5322C25.3083 56.5363 25.3372 56.5404 25.366 56.5487C25.4114 56.5569 25.4608 56.5652 25.5062 56.5734C25.5268 56.5775 25.5474 56.5817 25.568 56.5858C25.6752 56.6064 25.7824 56.6229 25.8895 56.6436C26.817 55.0304 24.6117 53.8175 24.7477 55.9463C24.2119 55.3357 23.7007 54.7045 23.2308 54.0444C25.1764 52.1259 22.662 50.0342 22.258 52.5839C21.8211 51.8866 21.4254 51.1688 21.0627 50.4303C23.8986 48.8625 21.1204 45.203 20.1599 48.3633C19.7725 47.3484 19.4468 46.3087 19.1913 45.2566C22.7939 44.1303 20.8895 38.9361 18.7214 42.7812C18.5771 41.7333 18.5029 40.6771 18.4864 39.6168C18.7585 39.5797 19.0017 39.4477 19.2613 39.3775C19.249 39.3816 19.2407 39.3858 19.2284 39.3858C19.2448 39.3816 19.2655 39.3734 19.2819 39.3693C19.2778 39.3693 19.2737 39.3734 19.2696 39.3734C20.6175 38.9608 21.953 37.5251 21.7964 36.0522C21.2852 34.4267 19.2737 35.6396 18.6265 36.5638C19.3232 30.1566 22.5589 23.9515 27.6331 19.9496ZM26.8829 59.02C26.7181 59.0323 26.5573 58.9952 26.3883 58.9952C26.2852 58.9993 26.1863 58.9704 26.0915 58.9292C26.3718 58.9044 26.6727 58.9086 26.9365 59.0158C26.92 59.02 26.8994 59.02 26.8829 59.02ZM21.6974 53.7143C21.2523 53.6731 20.8401 53.4626 20.4196 53.3265C20.3949 53.2894 20.3743 53.2564 20.3495 53.2192C20.3578 53.211 20.3702 53.1986 20.3825 53.1903C20.9967 53.2481 21.85 53.2357 22.2127 53.8092C22.0437 53.7679 21.8747 53.7267 21.6974 53.7143ZM19.3067 49.7C19.1995 49.6753 19.0882 49.6546 18.981 49.634C18.9852 49.634 18.9893 49.634 18.9975 49.6381C18.7832 49.5886 18.5688 49.5309 18.3669 49.4442C18.3133 49.3163 18.2597 49.1843 18.2102 49.0523C18.7543 49.2049 19.2613 49.469 19.7354 49.7743C19.587 49.7536 19.4468 49.7289 19.3067 49.7ZM16.7593 43.9158C16.7387 43.792 16.7181 43.6682 16.6974 43.5403C17.1797 43.7879 17.6331 44.0849 18.0453 44.4439C18.0577 44.5058 18.0742 44.5676 18.0866 44.6295C17.6125 44.448 17.1756 44.2005 16.7593 43.9158ZM21.413 36.6504C21.0503 37.7066 20.2135 38.6803 19.1088 38.9649C20.1805 38.4451 20.9637 37.4261 21.4419 36.3534C21.4378 36.4524 21.4295 36.5514 21.413 36.6504ZM20.5062 42.5172C20.5515 42.3769 20.6175 42.2407 20.6381 42.0922C21.211 43.0576 20.3289 44.25 19.4427 44.6667C19.9909 44.0602 20.2176 43.2639 20.5062 42.5172ZM20.4237 41.8653C20.0775 42.8679 19.8178 43.9653 19.08 44.7863C18.8285 43.9447 19.7683 42.4017 20.399 41.8406C20.4114 41.8488 20.4196 41.8529 20.432 41.8612C20.4279 41.8612 20.4279 41.8653 20.4237 41.8653ZM20.1228 41.7952C19.6241 42.2408 19.4427 42.8885 19.1748 43.4785C19.0882 43.6724 18.9975 43.8663 18.9357 44.0726C18.7049 43.2268 19.3891 42.1871 20.1228 41.7952ZM16.6974 37.719C16.6274 37.6654 16.5532 37.6158 16.479 37.5622C16.4831 37.5003 16.4913 37.4384 16.4955 37.3766C16.751 37.6488 17.0396 37.8881 17.2745 38.1811C17.0849 38.0243 16.8912 37.8716 16.6974 37.719ZM20.4196 36.9929C20.737 36.6381 21.0709 36.3039 21.3265 35.8996C21.3636 35.9408 21.3801 35.9986 21.4007 36.0522C20.8978 37.327 19.8384 38.573 18.4864 38.9691C18.4864 38.9361 18.4864 38.9031 18.4864 38.8701C19.2448 38.3832 19.8838 37.7149 20.4196 36.9929ZM21.0709 35.8748C20.2754 36.8608 19.5334 37.9376 18.4864 38.6761C18.9316 37.4838 19.9456 36.4359 20.9678 35.6809C21.0338 35.7015 21.1039 35.718 21.1616 35.7593C21.1327 35.7964 21.0998 35.8335 21.0709 35.8748ZM20.5309 35.7139C19.8054 36.3699 19.0676 37.0259 18.5524 37.8716C18.5565 37.8675 18.5606 37.8593 18.5647 37.8551C18.5565 37.8675 18.5524 37.8758 18.5441 37.8881C18.5441 37.884 18.5482 37.884 18.5482 37.8799C18.5359 37.8964 18.5276 37.917 18.5153 37.9335C18.4823 36.8443 19.6241 36.044 20.5556 35.6933C20.5474 35.6974 20.5392 35.7056 20.5309 35.7139ZM16.4542 37.9335C16.512 37.9789 16.5655 38.0243 16.6191 38.0697C16.5614 38.0367 16.5078 38.0078 16.4501 37.9748C16.4501 37.9665 16.4501 37.95 16.4542 37.9335ZM16.6274 43.07C16.6232 43.0411 16.6191 43.0164 16.615 42.9875C17.1014 43.2433 17.5425 43.6022 17.8516 44.0561C17.4847 43.7343 17.0643 43.4867 16.648 43.2309C16.6439 43.1773 16.6356 43.1236 16.6274 43.07ZM20.4815 49.0647C20.5062 48.6108 20.5515 48.058 20.9266 47.7527C20.6917 48.3179 20.7247 48.9533 20.6422 49.5515C20.5845 49.3865 20.4691 49.2379 20.4815 49.0647ZM21.0256 49.9145C21.0008 49.9352 20.972 49.9476 20.9472 49.9641C21.3842 49.3287 21.5449 48.5201 21.5985 47.7568C22.1962 48.3715 21.7758 49.5474 21.0503 49.8939C21.0668 49.8815 21.0791 49.8692 21.0956 49.8609C21.0709 49.8774 21.0462 49.898 21.0256 49.9145ZM21.3677 48.0992C21.2688 48.7181 21.1657 49.3741 20.803 49.898C20.8236 49.1389 20.8524 48.2313 21.31 47.5877C21.3347 47.6 21.3553 47.6083 21.3801 47.6207C21.3759 47.7816 21.38 47.9425 21.3677 48.0992ZM22.7609 53.3554C22.6125 52.8933 22.5177 52.2992 22.9052 51.9279C22.8434 52.0599 22.8392 52.2126 22.8269 52.357C22.8269 52.3528 22.8269 52.3487 22.8269 52.3446C22.8269 52.3528 22.8269 52.3611 22.8269 52.3693C22.8269 52.3652 22.8269 52.3611 22.8269 52.357C22.8351 52.7283 22.7568 53.1285 22.864 53.4874C22.8599 53.4957 22.8599 53.4998 22.8557 53.508C22.8269 53.4585 22.7774 53.4131 22.7609 53.3554ZM22.8928 52.8232C22.8969 52.7406 22.9011 52.6581 22.9052 52.5797C22.9052 52.5797 22.9052 52.5797 22.9052 52.5839C22.9052 52.5797 22.9052 52.5756 22.9052 52.5715V52.5756C22.9093 52.2951 22.9918 52.031 23.1319 51.7917C23.136 51.7917 23.136 51.7917 23.1401 51.7917C23.136 52.3363 23.0783 52.9057 22.8928 53.4173C22.8599 53.3059 22.8681 53.1862 22.8681 53.0707C22.8805 52.9882 22.8887 52.9057 22.8928 52.8232ZM23.0495 53.376L23.0453 53.3801C23.202 52.9346 23.2638 52.4519 23.305 51.9856C23.3092 51.9526 23.3092 51.9155 23.3133 51.8825C23.6925 52.3446 23.3627 52.9676 23.0495 53.376ZM25.5886 56.0453C25.5927 55.7442 25.568 55.443 25.432 55.1666C25.9266 55.41 25.7947 55.9917 25.5804 56.3878C25.5845 56.2722 25.5927 56.1609 25.5886 56.0453ZM25.4073 56.1155C25.3949 56.2434 25.3908 56.3754 25.3702 56.5033C25.2795 56.0866 25.2836 55.6451 25.3166 55.2202C25.3784 55.3646 25.399 55.5214 25.4155 55.674C25.4155 55.6781 25.4155 55.6864 25.4155 55.6905C25.4155 55.6988 25.4155 55.7112 25.4155 55.7194C25.4155 55.7112 25.4155 55.7029 25.4155 55.6988C25.4237 55.8349 25.4155 55.9752 25.4073 56.1155ZM25.1929 55.7235C25.197 55.7895 25.197 55.8555 25.2012 55.9216C25.2012 55.9216 25.2012 55.9216 25.2012 55.9257C25.2012 55.9298 25.2012 55.9298 25.2012 55.9339V55.9381C25.2012 55.9381 25.2012 55.9381 25.2012 55.9339V55.9381C25.2012 55.9628 25.2053 55.9917 25.2053 56.0164C25.2053 56.0123 25.2053 56.0082 25.2053 56.0041C25.2053 56.0164 25.2053 56.0247 25.2053 56.0371C25.2053 56.0412 25.2053 56.0412 25.2053 56.0453C25.2053 56.0495 25.2053 56.0495 25.2053 56.0536C25.2135 56.1691 25.2176 56.2846 25.2383 56.4001C25.0981 56.0536 24.9621 55.5791 25.197 55.2449C25.1888 55.3976 25.1888 55.5585 25.1929 55.7235ZM15.8566 37.1084C15.2506 36.6009 14.6158 36.1306 13.9563 35.6933C14.6818 35.9161 15.2712 36.4111 15.8854 36.8402C15.8772 36.931 15.8689 37.0176 15.8566 37.1084ZM16.4295 38.3131C16.7716 38.5111 17.1261 38.6968 17.493 38.8371C17.493 38.8577 17.493 38.8783 17.493 38.8989C17.1303 38.804 16.7634 38.7133 16.4171 38.5606C16.4213 38.4781 16.4254 38.3956 16.4295 38.3131ZM16.8046 39.1052C17.0313 39.1712 17.2704 39.2084 17.493 39.2909C17.4889 40.6647 17.6167 42.0386 17.8475 43.3918C17.4724 43.037 17.0437 42.7235 16.5655 42.5254C16.4336 41.3455 16.3759 40.1573 16.4089 38.9732C16.5367 39.0227 16.6686 39.0681 16.8046 39.1052ZM16.0049 43.3712C15.9019 43.2928 15.8236 43.1855 15.7494 43.0824C15.8277 43.103 15.906 43.136 15.9802 43.169C15.9885 43.2392 15.9967 43.3052 16.0049 43.3712ZM16.8211 44.25C17.2374 44.4851 17.6785 44.6914 18.1319 44.8399C18.1402 44.8771 18.1484 44.9142 18.1566 44.9513C17.6991 44.8729 17.2622 44.7162 16.8623 44.4769C16.8458 44.4026 16.8335 44.3242 16.8211 44.25ZM19.3809 49.1513C19.5169 49.3163 19.6983 49.4566 19.7848 49.6588C19.2737 49.3122 18.7172 49.011 18.1195 48.8377C18.0989 48.7882 18.0824 48.7387 18.0618 48.6851C18.5482 48.6315 19.0387 48.7924 19.3809 49.1513ZM18.4575 49.6629C18.9439 49.8362 19.4592 49.931 19.9621 50.0383C19.9909 50.0961 20.0157 50.1538 20.0445 50.2116C19.5499 50.1951 19.0594 50.1291 18.5894 49.9723C18.5482 49.8692 18.5029 49.766 18.4575 49.6629ZM26.6933 58.8054C26.5161 58.7683 26.3347 58.7724 26.1533 58.7807C26.2729 58.6775 26.4336 58.6734 26.5779 58.7064C26.615 58.7435 26.6562 58.7724 26.6933 58.8054ZM66.751 48.2973C66.4584 48.4871 66.1698 48.681 65.8607 48.8336C66.1204 48.6026 66.4213 48.2106 66.8005 48.2601C66.784 48.2725 66.7675 48.289 66.751 48.2973ZM67.9588 43.7054C67.9794 43.6971 68 43.693 68.0206 43.6889C68.1401 44.2046 67.3034 44.3861 66.92 44.4521C67.2045 44.1262 67.5878 43.9199 67.9588 43.7054ZM67.7898 43.5568C67.4971 43.7631 67.1756 43.9323 66.9324 44.2005C66.9983 43.825 67.4847 43.5197 67.8516 43.5197C67.831 43.5321 67.8104 43.5445 67.7898 43.5568ZM67.5218 39.6581C67.9011 39.1547 68.3298 38.6638 68.8368 38.2842C68.8409 38.408 68.845 38.5359 68.8491 38.6596C68.4781 39.0557 68.0495 39.4807 67.5218 39.6581ZM66.8912 29.5089C67.2292 30.3175 67.526 31.1426 67.7774 31.9801C67.2168 32.3803 66.8541 32.9538 66.7345 33.6345C66.2399 31.745 65.6175 29.8719 64.723 28.1267C65.0115 27.7224 65.2918 27.3099 65.6257 26.9427C66.0998 27.7719 66.5202 28.6301 66.8912 29.5089ZM66.2935 24.4425C66.2358 24.9912 65.8978 25.4492 65.6422 25.9236C65.5639 25.7957 65.4814 25.6678 65.4031 25.5399C65.6752 24.8839 66.0668 24.2816 66.2069 23.5761C66.3677 23.8401 66.3265 24.1537 66.2935 24.4425ZM64.5045 24.1248C64.7189 23.7081 65.1187 23.4895 65.5556 23.3616C65.263 23.7659 65.0651 24.2445 64.8425 24.69C64.723 24.5168 64.5993 24.3435 64.4757 24.1743C64.4839 24.1619 64.4963 24.1454 64.5045 24.1248ZM61.5161 21.5091C62.3652 22.359 63.1525 23.2749 63.8739 24.2362C63.6224 24.8344 63.5894 25.4904 63.6224 26.1299C62.3034 24.001 60.6669 22.0661 58.7749 20.4241C58.7749 20.0239 58.9275 19.6402 58.9233 19.2359C59.8343 19.9331 60.6999 20.6964 61.5161 21.5091ZM59.1748 19.1864C59.1748 19.1864 59.1707 19.1822 59.1665 19.1822C59.1665 19.1822 59.1707 19.1864 59.1748 19.1864ZM58.0536 16.22C58.404 16.8058 58.3545 17.532 58.3792 18.1921C58.3009 18.1384 58.2267 18.0848 58.1484 18.0312C58.1072 17.3587 58.0289 16.6903 57.9093 16.0261C57.9629 16.088 58.0082 16.154 58.0536 16.22ZM56.8252 17.0781C56.7716 16.5707 56.5985 15.6878 57.122 15.4031C57.0107 16.055 57.1138 16.7316 57.1674 17.3876C57.0643 17.3215 56.9571 17.2597 56.85 17.1936C56.8417 17.1565 56.8293 17.1153 56.8252 17.0781ZM49.7354 14.8255C49.8302 15.0483 50.1352 15.1679 50.3166 14.974C51.0791 15.1803 51.8335 15.4278 52.5754 15.7084C52.7032 15.8528 52.9217 16.0219 53.1195 15.9229C54.2613 16.385 55.366 16.9379 56.4254 17.5608C56.5326 18.0105 56.6439 18.4602 56.8293 18.8811C53.5029 16.418 49.5705 14.776 45.4773 14.1489C46.9159 14.2479 48.3421 14.4831 49.7354 14.8255ZM19.0511 28.3743C19.4798 28.3041 19.7312 27.8008 19.5622 27.4006C19.8384 26.9014 20.1311 26.4063 20.4444 25.9277C20.7741 25.9484 20.9555 25.4987 20.9184 25.2223C23.6472 21.2905 27.5136 18.1591 31.9324 16.3273C23.9604 20.3869 18.0082 28.5269 17.5466 37.5828C17.1921 37.1579 16.9448 36.6628 16.6274 36.2131C16.8087 34.9383 17.0767 33.6799 17.4435 32.4463C17.9464 32.3226 18.0289 31.712 17.8145 31.3077C18.1608 30.301 18.573 29.3232 19.0511 28.3743ZM14.554 35.4334C15.0486 35.5819 15.5556 35.784 15.9761 36.0935C15.9637 36.176 15.9555 36.2585 15.9431 36.341C15.3248 35.9284 14.6694 35.553 13.9398 35.3797C14.15 35.3838 14.352 35.3962 14.554 35.4334ZM15.6958 38.2264C14.8013 37.7644 13.878 37.1043 13.6183 36.0728C14.2036 36.8526 14.9621 37.4426 15.7906 37.9376C15.7824 38.0449 15.7782 38.1522 15.77 38.2595C15.7453 38.2512 15.7205 38.2388 15.6958 38.2264ZM15.9266 42.7812C15.9308 42.806 15.9349 42.8349 15.939 42.8596C15.8772 42.8349 15.8153 42.8142 15.7494 42.7936C15.8071 42.7853 15.8689 42.7812 15.9266 42.7812ZM15.8524 43.8539C15.6628 43.7054 15.4732 43.5321 15.4361 43.2804C15.601 43.5073 15.8359 43.6641 16.075 43.8085C16.0874 43.8828 16.0998 43.9612 16.1121 44.0354C16.0256 43.9777 15.9349 43.9158 15.8524 43.8539ZM16.9777 45.0338C17.3776 45.2236 17.8186 45.302 18.2556 45.3433C18.5276 46.4242 18.878 47.4845 19.2943 48.5201C18.8821 48.2643 18.3957 48.2684 17.9299 48.3262C17.5383 47.2493 17.2168 46.1519 16.9777 45.0338ZM17.5054 49.044C17.4765 49.0234 17.4435 49.011 17.4229 48.9821C17.4353 48.9615 17.4435 48.9409 17.46 48.9244C17.4765 48.9656 17.4889 49.0028 17.5054 49.044ZM17.4312 49.2256C17.4188 49.209 17.4106 49.1925 17.4023 49.176C17.4683 49.2173 17.5342 49.2544 17.6043 49.2874C17.629 49.3493 17.6538 49.4112 17.6785 49.4731C17.5919 49.3906 17.5054 49.3122 17.4312 49.2256ZM18.8244 50.4633C19.2943 50.5953 19.7807 50.6159 20.2671 50.6365C20.6298 51.342 21.0256 52.0269 21.4542 52.6953C21.0091 52.5302 20.4979 52.5302 20.1311 52.8644C19.6447 52.0929 19.216 51.2884 18.8244 50.4633ZM34.9209 63.9584C34.8714 63.946 34.8178 63.9295 34.7683 63.9172C34.7436 63.8676 34.7106 63.8264 34.6653 63.7893C34.5911 63.6077 34.3726 63.6779 34.249 63.7645C33.4287 63.517 32.6249 63.224 31.8335 62.8981C31.7675 62.5681 31.3842 62.3948 31.0998 62.5763C30.4361 62.271 29.7848 61.9409 29.1459 61.582C29.1336 61.1653 28.5606 60.7321 28.1855 61.0127C25.4031 59.2675 22.967 56.9654 21.0668 54.2878C21.5655 54.4528 22.1096 54.4446 22.6208 54.3662C23.0866 54.9644 23.54 55.5667 24.0387 56.1402C23.8656 56.1237 23.6843 56.1567 23.5235 56.2269C23.7543 56.2681 23.9893 56.3094 24.2242 56.3506C24.9538 57.1799 25.7288 57.9638 26.5573 58.694C26.3594 58.661 26.1657 58.628 25.9678 58.5909C25.2795 59.449 26.8335 59.6924 27.4023 59.4036C30.6876 62.0771 34.6364 63.913 38.7955 64.701C37.4847 64.5566 36.1904 64.3008 34.9209 63.9584ZM65.465 51.932C62.7568 56.6271 58.4988 60.4062 53.5111 62.5227C57.7073 60.3361 61.2646 56.9571 63.6884 52.8892C65.0322 53.2357 65.6175 51.6308 64.3149 51.7794C64.6735 51.1069 65.0033 50.4179 65.3001 49.7165C65.7246 49.8238 66.1904 49.8362 66.6109 49.7041C66.2646 50.4674 65.8854 51.21 65.465 51.932ZM67.967 45.9539C67.7898 46.6099 67.5796 47.2617 67.3487 47.9012C66.9695 47.5505 66.4171 47.5546 66.0049 47.8434C66.3059 46.9564 66.5532 46.0488 66.751 45.1287C67.3446 45.1906 67.9629 44.8358 68.3421 44.3944C68.235 44.9183 68.1113 45.4382 67.967 45.9539ZM68.4946 43.594C68.2968 42.9504 67.5425 42.9462 67.0767 43.3011C67.2168 42.3026 67.3075 41.2918 67.3528 40.2852C67.8722 39.9716 68.4328 39.7282 68.8656 39.2702C68.8615 40.7184 68.7461 42.1665 68.4946 43.594Z" fill="white"/>
<g clip-path="url(#clip1_126_298)">
<path d="M48.6018 24.4906C46.6406 22.4187 42.6222 20.0274 39.2047 21.3578C35.0229 22.9872 35.7562 28.6233 28.6534 36.3688C27.7009 37.4086 27.0054 38.0489 26.6231 39.2422C25.0534 44.1265 31.5612 49.2912 32.9087 50.3627C34.7353 51.8145 38.7848 55.0289 45.1469 55.0667C50.8301 55.1003 58.7325 52.6053 59.6814 48.7753C60.4518 45.6702 55.8083 45.0868 52.7086 38.4112C49.6712 31.8772 52.2061 28.2991 48.6018 24.4906Z" fill="white"/>
</g>
</g>
<path d="M28.9922 104V87.2422H42.8789V104H40.7109V89H31.1602V104H28.9922ZM46.0547 97.8477C46.0547 93.668 48.0859 91.5781 52.1484 91.5781C56.2109 91.5781 58.2422 93.668 58.2422 97.8477C58.2422 102.027 56.2109 104.117 52.1484 104.117C48.1016 104.117 46.0703 102.027 46.0547 97.8477ZM48.2227 97.8008C48.2227 100.84 49.5312 102.359 52.1484 102.359C54.7656 102.359 56.0742 100.84 56.0742 97.8008C56.0742 94.8242 54.7656 93.3359 52.1484 93.3359C49.5312 93.3359 48.2227 94.8242 48.2227 97.8008ZM69.9609 104V94.4844L63.3398 104H61.1719V91.6953H63.2227V101.211L69.8438 91.6953H72.0117V104H69.9609ZM84.7969 103.648C83.7812 103.883 82.6875 104 81.5156 104C77.1406 104 74.9531 101.871 74.9531 97.6133C74.9531 93.668 77.1406 91.6953 81.5156 91.6953C82.6875 91.6953 83.7812 91.8125 84.7969 92.0469V93.8047C83.7812 93.5703 82.6484 93.4531 81.3984 93.4531C78.5469 93.4531 77.1211 94.8398 77.1211 97.6133C77.1211 100.699 78.5469 102.242 81.3984 102.242C82.6484 102.242 83.7812 102.125 84.7969 101.891V103.648ZM95.9414 104L94.2188 101.117C93.0625 99.1875 91.9453 98.2227 90.8672 98.2227V96.7812C92.1172 96.7812 93.0469 95.9336 93.6562 94.2383C94.2734 92.543 95.3164 91.6953 96.7852 91.6953H98.0391V93.5703H97.1133C96.2695 93.5703 95.6484 94.1445 95.25 95.293C94.8516 96.4336 94.1641 97.1953 93.1875 97.5781C94.1094 97.7422 95.2148 98.8516 96.5039 100.906L98.4492 104H95.9414ZM89.7305 91.6953V104H87.5625V91.6953H89.7305ZM109.922 102.242H116.121V93.4531H111.785C111.785 97.8203 111.164 100.75 109.922 102.242ZM104.602 108.453V102.242H106.758C108.664 102.242 109.617 99.3125 109.617 93.4531V91.6953H118.289V102.242H120.457V108.453H118.289V104H106.758V108.453H104.602ZM122.508 97.8477C122.508 93.668 124.539 91.5781 128.602 91.5781C132.664 91.5781 134.695 93.668 134.695 97.8477C134.695 102.027 132.664 104.117 128.602 104.117C124.555 104.117 122.523 102.027 122.508 97.8477ZM124.676 97.8008C124.676 100.84 125.984 102.359 128.602 102.359C131.219 102.359 132.527 100.84 132.527 97.8008C132.527 94.8242 131.219 93.3359 128.602 93.3359C125.984 93.3359 124.676 94.8242 124.676 97.8008ZM149.531 97.9062C149.531 102.047 147.508 104.117 143.461 104.117C139.375 104.117 137.332 102.047 137.332 97.9062V94.0977C137.332 89.5273 139.457 87.2422 143.707 87.2422C145.988 87.2422 147.797 86.8164 149.133 85.9648V87.875C147.938 88.625 146.117 89 143.672 89C140.93 89 139.559 90.6602 139.559 93.9805C140.566 92.457 141.906 91.6953 143.578 91.6953C147.547 91.6953 149.531 93.6797 149.531 97.6484V97.9062ZM143.461 102.359C146.055 102.359 147.352 100.875 147.352 97.9062C147.352 94.9844 146.094 93.5234 143.578 93.5234C140.898 93.5234 139.559 94.9844 139.559 97.9062C139.559 100.875 140.859 102.359 143.461 102.359ZM154.77 101.492C155.621 101.914 156.57 102.125 157.617 102.125C160.406 102.125 161.801 100.59 161.801 97.5195C161.801 94.8398 160.414 93.5 157.641 93.5C156.547 93.5 155.59 93.5938 154.77 93.7812V101.492ZM152.602 92.1992C154.234 91.8633 155.922 91.6953 157.664 91.6953C161.844 91.6953 163.934 93.6445 163.934 97.543C163.934 101.848 161.832 104 157.629 104C156.645 104 155.691 103.805 154.77 103.414V108.453H152.602V92.1992ZM166.289 97.8477C166.289 93.668 168.32 91.5781 172.383 91.5781C176.445 91.5781 178.477 93.668 178.477 97.8477C178.477 102.027 176.445 104.117 172.383 104.117C168.336 104.117 166.305 102.027 166.289 97.8477ZM168.457 97.8008C168.457 100.84 169.766 102.359 172.383 102.359C175 102.359 176.309 100.84 176.309 97.8008C176.309 94.8242 175 93.3359 172.383 93.3359C169.766 93.3359 168.457 94.8242 168.457 97.8008ZM190.195 104V94.4844L183.574 104H181.406V91.6953H183.457V101.211L190.078 91.6953H192.246V104H190.195ZM183.727 87.2422H185.309C185.309 88.4141 185.816 89 186.832 89C187.848 89 188.355 88.4141 188.355 87.2422H189.938C189.938 89.2734 188.902 90.2891 186.832 90.2891C184.762 90.2891 183.727 89.2734 183.727 87.2422ZM210.422 104V94.4844L203.801 104H201.633V91.6953H203.684V101.211L210.305 91.6953H212.473V104H210.422ZM221.273 92.2812C222.836 91.8125 224.203 91.5781 225.375 91.5781C228.617 91.5781 230.238 92.7188 230.238 95C230.238 96.2031 229.699 97.1133 228.621 97.7305C229.699 98.3164 230.238 99.1953 230.238 100.367C230.238 102.867 228.617 104.117 225.375 104.117C224.203 104.117 222.836 103.883 221.273 103.414V101.539C222.836 102.086 224.203 102.359 225.375 102.359C227.172 102.359 228.07 101.695 228.07 100.367C228.07 99.1953 227.477 98.6094 226.289 98.6094H222.445V96.8516H226.254C227.465 96.8516 228.07 96.2344 228.07 95C228.07 93.8906 227.172 93.3359 225.375 93.3359C224.203 93.3359 222.836 93.6094 221.273 94.1562V92.2812ZM232.594 100.285C232.594 97.7617 234.258 96.5 237.586 96.5C238.656 96.5 239.727 96.5781 240.797 96.7344V95.5742C240.797 94.1602 239.691 93.4531 237.48 93.4531C236.215 93.4531 234.918 93.6484 233.59 94.0391V92.2812C234.918 91.8906 236.215 91.6953 237.48 91.6953C241.137 91.6953 242.965 92.9688 242.965 95.5156V104H241.746L240.996 102.781C239.77 103.594 238.434 104 236.988 104C234.059 104 232.594 102.762 232.594 100.285ZM237.586 98.2578C235.703 98.2578 234.762 98.9219 234.762 100.25C234.762 101.578 235.504 102.242 236.988 102.242C238.488 102.242 239.758 101.844 240.797 101.047V98.4922C239.727 98.3359 238.656 98.2578 237.586 98.2578ZM258.398 97.9062C258.398 102.047 256.375 104.117 252.328 104.117C248.242 104.117 246.199 102.047 246.199 97.9062V94.0977C246.199 89.5273 248.324 87.2422 252.574 87.2422C254.855 87.2422 256.664 86.8164 258 85.9648V87.875C256.805 88.625 254.984 89 252.539 89C249.797 89 248.426 90.6602 248.426 93.9805C249.434 92.457 250.773 91.6953 252.445 91.6953C256.414 91.6953 258.398 93.6797 258.398 97.6484V97.9062ZM252.328 102.359C254.922 102.359 256.219 100.875 256.219 97.9062C256.219 94.9844 254.961 93.5234 252.445 93.5234C249.766 93.5234 248.426 94.9844 248.426 97.9062C248.426 100.875 249.727 102.359 252.328 102.359ZM260.883 97.8477C260.883 93.668 262.914 91.5781 266.977 91.5781C271.039 91.5781 273.07 93.668 273.07 97.8477C273.07 102.027 271.039 104.117 266.977 104.117C262.93 104.117 260.898 102.027 260.883 97.8477ZM263.051 97.8008C263.051 100.84 264.359 102.359 266.977 102.359C269.594 102.359 270.902 100.84 270.902 97.8008C270.902 94.8242 269.594 93.3359 266.977 93.3359C264.359 93.3359 263.051 94.8242 263.051 97.8008ZM285.082 91.6953V93.4531H280.746V104H278.578V93.4531H274.242V91.6953H285.082ZM285.094 102.242C286.945 102.242 287.871 101.188 287.871 99.0781V91.6953H297.246V104H295.078V93.4531H290.039V99.0781C290.039 102.359 288.391 104 285.094 104V102.242ZM309.562 104V94.4844L302.941 104H300.773V91.6953H302.824V101.211L309.445 91.6953H311.613V104H309.562ZM321.68 102.242C322.898 102.242 323.508 101.617 323.508 100.367C323.508 99.1953 322.559 98.6094 320.66 98.6094H319.723V97.1914C322.145 96.918 323.355 96.1016 323.355 94.7422C323.355 93.8828 322.855 93.4531 321.855 93.4531H317.309V102.242H321.68ZM315.141 104V91.6953H322.055C324.461 91.6953 325.664 92.7227 325.664 94.7773C325.664 96.0508 324.898 96.9961 323.367 97.6133C325.039 98.0273 325.875 98.9336 325.875 100.332C325.875 102.777 324.52 104 321.809 104H315.141ZM328.219 97.8477C328.219 93.668 330.25 91.5781 334.312 91.5781C338.375 91.5781 340.406 93.668 340.406 97.8477C340.406 102.027 338.375 104.117 334.312 104.117C330.266 104.117 328.234 102.027 328.219 97.8477ZM330.387 97.8008C330.387 100.84 331.695 102.359 334.312 102.359C336.93 102.359 338.238 100.84 338.238 97.8008C338.238 94.8242 336.93 93.3359 334.312 93.3359C331.695 93.3359 330.387 94.8242 330.387 97.8008ZM352.125 104V94.4844L345.504 104H343.336V91.6953H345.387V101.211L352.008 91.6953H354.176V104H352.125ZM345.656 87.2422H347.238C347.238 88.4141 347.746 89 348.762 89C349.777 89 350.285 88.4141 350.285 87.2422H351.867C351.867 89.2734 350.832 90.2891 348.762 90.2891C346.691 90.2891 345.656 89.2734 345.656 87.2422ZM38.0156 130.648C37 130.883 35.9062 131 34.7344 131C30.3594 131 28.1719 128.871 28.1719 124.613C28.1719 120.668 30.3594 118.695 34.7344 118.695C35.9062 118.695 37 118.812 38.0156 119.047V120.805C37 120.57 35.8672 120.453 34.6172 120.453C31.7656 120.453 30.3398 121.84 30.3398 124.613C30.3398 127.699 31.7656 129.242 34.6172 129.242C35.8672 129.242 37 129.125 38.0156 128.891V130.648ZM45.8555 118.695C49.3555 118.695 51.1055 120.426 51.1055 123.887C51.1055 124.379 51.0703 124.906 51 125.469H42.3633C42.3633 127.984 43.832 129.242 46.7695 129.242C48.168 129.242 49.4102 129.086 50.4961 128.773V130.531C49.4102 130.844 48.0898 131 46.5352 131C42.3086 131 40.1953 128.902 40.1953 124.707C40.1953 120.699 42.082 118.695 45.8555 118.695ZM42.3633 123.664H49.0195C48.9727 121.508 47.918 120.43 45.8555 120.43C43.668 120.43 42.5039 121.508 42.3633 123.664ZM54.0234 131V118.695H56.7773L60.9375 128.457L64.9805 118.695H67.6172V131H65.6836V121.59L61.7227 131H60.0117L55.957 121.59V131H54.0234ZM73.3008 118.695V129.207H77.0273C78.418 129.207 79.1133 128.547 79.1133 127.227C79.1133 126.156 78.4023 125.621 76.9805 125.621H74.8945V123.863H77.0859C79.8984 123.863 81.3047 125.02 81.3047 127.332C81.3047 129.777 79.9453 131 77.2266 131H71.1328V118.695H73.3008ZM93.6094 131V121.484L86.9883 131H84.8203V118.695H86.8711V128.211L93.4922 118.695H95.6602V131H93.6094ZM116.953 124.906C116.953 129.047 114.93 131.117 110.883 131.117C106.797 131.117 104.754 129.047 104.754 124.906V121.098C104.754 116.527 106.879 114.242 111.129 114.242C113.41 114.242 115.219 113.816 116.555 112.965V114.875C115.359 115.625 113.539 116 111.094 116C108.352 116 106.98 117.66 106.98 120.98C107.988 119.457 109.328 118.695 111 118.695C114.969 118.695 116.953 120.68 116.953 124.648V124.906ZM110.883 129.359C113.477 129.359 114.773 127.875 114.773 124.906C114.773 121.984 113.516 120.523 111 120.523C108.32 120.523 106.98 121.984 106.98 124.906C106.98 127.875 108.281 129.359 110.883 129.359ZM122.191 128.492C123.043 128.914 123.992 129.125 125.039 129.125C127.828 129.125 129.223 127.59 129.223 124.52C129.223 121.84 127.836 120.5 125.062 120.5C123.969 120.5 123.012 120.594 122.191 120.781V128.492ZM120.023 119.199C121.656 118.863 123.344 118.695 125.086 118.695C129.266 118.695 131.355 120.645 131.355 124.543C131.355 128.848 129.254 131 125.051 131C124.066 131 123.113 130.805 122.191 130.414V135.453H120.023V119.199ZM133.711 127.285C133.711 124.762 135.375 123.5 138.703 123.5C139.773 123.5 140.844 123.578 141.914 123.734V122.574C141.914 121.16 140.809 120.453 138.598 120.453C137.332 120.453 136.035 120.648 134.707 121.039V119.281C136.035 118.891 137.332 118.695 138.598 118.695C142.254 118.695 144.082 119.969 144.082 122.516V131H142.863L142.113 129.781C140.887 130.594 139.551 131 138.105 131C135.176 131 133.711 129.762 133.711 127.285ZM138.703 125.258C136.82 125.258 135.879 125.922 135.879 127.25C135.879 128.578 136.621 129.242 138.105 129.242C139.605 129.242 140.875 128.844 141.914 128.047V125.492C140.844 125.336 139.773 125.258 138.703 125.258ZM156.691 118.695V120.453H152.355V131H150.188V120.453H145.852V118.695H156.691ZM160.629 118.695V129.207H164.355C165.746 129.207 166.441 128.547 166.441 127.227C166.441 126.156 165.73 125.621 164.309 125.621H162.223V123.863H164.414C167.227 123.863 168.633 125.02 168.633 127.332C168.633 129.777 167.273 131 164.555 131H158.461V118.695H160.629ZM179.883 131V120.488H175.688C174.609 120.488 174.07 120.949 174.07 121.871C174.07 122.965 175.32 123.766 177.82 124.273V125.809L173.426 131H170.684L175.441 125.504C172.988 124.746 171.762 123.543 171.762 121.895C171.762 119.762 173.082 118.695 175.723 118.695H182.051V131H179.883ZM185.578 131V118.695H188.332L192.492 128.457L196.535 118.695H199.172V131H197.238V121.59L193.277 131H191.566L187.512 121.59V131H185.578ZM208.547 131V118.695H210.715V123.852H217.219V118.695H219.387V131H217.219V125.609H210.715V131H208.547ZM222.328 127.285C222.328 124.762 223.992 123.5 227.32 123.5C228.391 123.5 229.461 123.578 230.531 123.734V122.574C230.531 121.16 229.426 120.453 227.215 120.453C225.949 120.453 224.652 120.648 223.324 121.039V119.281C224.652 118.891 225.949 118.695 227.215 118.695C230.871 118.695 232.699 119.969 232.699 122.516V131H231.48L230.73 129.781C229.504 130.594 228.168 131 226.723 131C223.793 131 222.328 129.762 222.328 127.285ZM227.32 125.258C225.438 125.258 224.496 125.922 224.496 127.25C224.496 128.578 225.238 129.242 226.723 129.242C228.223 129.242 229.492 128.844 230.531 128.047V125.492C229.461 125.336 228.391 125.258 227.32 125.258ZM236.227 131V118.695H238.395V129.242H242.965V118.695H245.133V129.242H249.703V118.695H251.871V131H236.227ZM264.188 131V121.484L257.566 131H255.398V118.695H257.449V128.211L264.07 118.695H266.238V131H264.188ZM269.766 131V118.695H272.52L276.68 128.457L280.723 118.695H283.359V131H281.426V121.59L277.465 131H275.754L271.699 121.59V131H269.766ZM292.734 131V118.695H295.488L299.648 128.457L303.691 118.695H306.328V131H304.395V121.59L300.434 131H298.723L294.668 121.59V131H292.734ZM314.918 118.695C318.418 118.695 320.168 120.426 320.168 123.887C320.168 124.379 320.133 124.906 320.062 125.469H311.426C311.426 127.984 312.895 129.242 315.832 129.242C317.23 129.242 318.473 129.086 319.559 128.773V130.531C318.473 130.844 317.152 131 315.598 131C311.371 131 309.258 128.902 309.258 124.707C309.258 120.699 311.145 118.695 314.918 118.695ZM311.426 123.664H318.082C318.035 121.508 316.98 120.43 314.918 120.43C312.73 120.43 311.566 121.508 311.426 123.664ZM323.086 131V118.695H325.254V123.852H331.758V118.695H333.926V131H331.758V125.609H325.254V131H323.086ZM339.621 118.695V129.207H343.348C344.738 129.207 345.434 128.547 345.434 127.227C345.434 126.156 344.723 125.621 343.301 125.621H341.215V123.863H343.406C346.219 123.863 347.625 125.02 347.625 127.332C347.625 129.777 346.266 131 343.547 131H337.453V118.695H339.621ZM351.141 131V118.695H353.309V129.242H357.879V118.695H360.047V129.242H364.617V118.695H366.785V131H351.141ZM379.102 131V121.484L372.48 131H370.312V118.695H372.363V128.211L378.984 118.695H381.152V131H379.102ZM384.68 131V118.695H387.434L391.594 128.457L395.637 118.695H398.273V131H396.34V121.59L392.379 131H390.668L386.613 121.59V131H384.68Z" fill="black"/>
<path d="M43.636 28.688C41.6307 34.8747 40.3293 38.6933 39.732 40.144L39.7 40.272C39.7 40.4427 39.9667 40.528 40.5 40.528H43.924C43.9453 40.0373 43.9667 39.3867 43.988 38.576C44.0093 37.744 44.0307 37.008 44.052 36.368C44.0947 35.7067 44.1693 35.0987 44.276 34.544C44.404 33.8187 44.8093 33.456 45.492 33.456C45.5987 33.456 45.748 33.488 45.94 33.552V40.72C46.1533 40.7413 46.74 40.752 47.7 40.752C48.212 40.752 48.468 40.9227 48.468 41.264C48.468 41.328 48.3507 41.5307 48.116 41.872C47.924 42.128 47.4973 42.256 46.836 42.256H45.78L45.62 48.592C45.5987 48.9547 45.5667 49.2427 45.524 49.456C45.4813 49.648 45.3533 49.8293 45.14 50C44.948 50.1493 44.6707 50.224 44.308 50.224C44.0093 50.224 43.828 50.0853 43.764 49.808C43.764 47.3547 43.796 44.848 43.86 42.288L39.252 42.256C38.5693 42.256 38.1213 42.2027 37.908 42.096C37.6947 41.9893 37.588 41.68 37.588 41.168C37.588 41.04 37.6093 40.848 37.652 40.592C39.1453 36.1973 40.66 31.9733 42.196 27.92C42.2813 27.8987 42.4093 27.888 42.58 27.888C43.1773 27.888 43.5293 28.1547 43.636 28.688Z" fill="black"/>
<circle cx="348" cy="55" r="5.5" stroke="white"/>
<circle cx="363" cy="38" r="3" fill="white"/>
<circle cx="363.5" cy="71.5" r="10" stroke="white"/>
<defs>
<clipPath id="clip0_126_298">
<rect width="65" height="60" fill="white" transform="translate(8 9)"/>
</clipPath>
<clipPath id="clip1_126_298">
<rect width="57.626" height="50.0685" fill="white" transform="translate(47.7274 1) rotate(45.5263)"/>
</clipPath>
</defs>
</svg>
