<svg width="448" height="207" viewBox="0 0 448 207" fill="none" xmlns="http://www.w3.org/2000/svg">
<rect width="448" height="207" rx="9" fill="#64816D"/>
<g clip-path="url(#clip0_126_297)">
<path d="M60.4 27.1C60.3915 27.0957 60.3787 27.0872 60.3701 27.0829C60.3787 27.0915 60.3915 27.0957 60.4 27.1Z" fill="white"/>
<path d="M61.8994 26.8107C61.9037 26.815 61.908 26.815 61.9123 26.8193C61.908 26.815 61.9037 26.8107 61.8994 26.8107Z" fill="white"/>
<path d="M21.2275 50.3065C21.211 50.3189 21.1987 50.3271 21.1822 50.3395C21.1987 50.3271 21.2152 50.3148 21.2275 50.3065Z" fill="white"/>
<path d="M22.9052 52.5764C22.9052 52.5814 22.9052 52.5814 22.9052 52.5764V52.5715C22.9101 52.5764 22.9052 52.5764 22.9052 52.5764Z" fill="white"/>
<path d="M19.183 49.2875C19.1873 49.2918 19.1958 49.2918 19.2001 49.296C19.1958 49.2918 19.1873 49.2875 19.183 49.2875Z" fill="white"/>
<path d="M69.3809 38.3378C69.3438 36.6917 69.0758 35.029 68.7131 33.42C68.7502 32.9291 68.7296 32.3391 68.338 31.9925C67.7692 30.0864 66.9818 28.2423 65.9926 26.5136C66.648 25.5152 67.4518 23.9928 66.4419 22.9655C65.704 22.458 64.5746 23.0563 64.1418 23.737C62.662 21.7938 60.9142 20.0569 58.948 18.6088C59.3273 15.1638 55.9761 13.1422 56.2811 16.8718C55.3743 16.3603 54.4303 15.9023 53.4658 15.5021C53.5358 15.0235 52.8269 14.7059 52.6043 15.1638C51.9035 14.8998 51.1945 14.6687 50.4732 14.4707C50.4526 14.1406 49.8673 13.9426 49.7106 14.2727C39.0758 11.8509 26.7428 15.6011 20.4402 24.8056C20.1888 24.8138 20.0857 25.0737 20.1022 25.2924C19.7106 25.8741 19.3438 26.4723 19.0016 27.0829C18.3998 26.988 17.9588 27.6812 18.4534 28.1185C18.0082 29.0138 17.6125 29.9297 17.2704 30.8703C16.413 30.7259 15.939 31.9183 16.8046 32.2813C16.4666 33.387 16.2152 34.5133 16.042 35.6561C11.7922 33.4406 12.7609 37.6406 15.7494 38.6968C15.704 39.9262 15.7535 41.1557 15.8813 42.381C15.0033 42.2779 14.723 43.0741 15.094 43.7673C15.3495 44.1881 15.8112 44.4397 16.2275 44.6749C16.4913 45.9993 16.8499 47.3071 17.3199 48.5737C16.6067 49.1348 17.427 49.8485 17.9629 50.1497C20.0321 54.8159 23.54 58.8095 27.8598 61.516C27.7321 62.0936 28.4617 62.5309 28.9109 62.1431C29.5375 62.4979 30.1805 62.828 30.8359 63.1291C30.8607 63.5211 31.3759 63.7191 31.6809 63.4963C32.493 63.8346 33.3215 64.1317 34.1624 64.3875C34.249 64.569 34.5004 64.6515 34.6694 64.5319C52.1467 68.9588 69.995 57.0933 69.3809 38.3378ZM67.0107 48.4953C66.8706 49.0234 66.2316 49.1018 65.77 49.0234C66.1904 48.846 66.5696 48.5819 66.9612 48.3468C67.0231 48.3715 67.0189 48.4334 67.0107 48.4953ZM51.3471 62.8775C47.1014 64.8248 42.2745 64.9238 37.7856 63.8264C44.5293 65.1136 51.7634 63.4592 57.2621 59.3418C55.4649 60.7899 53.4658 61.974 51.3471 62.8775ZM40.3537 64.3751C40.3454 64.3751 40.3413 64.3751 40.333 64.371C40.3372 64.3751 40.3454 64.3751 40.3537 64.3751ZM26.6026 59.2386C26.4419 59.2345 26.2523 59.218 26.1492 59.0818C26.4625 59.1644 26.7922 59.1726 27.1138 59.1644C27.122 59.1726 27.1302 59.1767 27.1385 59.185C26.9612 59.2304 26.7799 59.2386 26.6026 59.2386ZM22.2127 54.0196C21.6397 54.0279 20.8607 53.9866 20.5144 53.475C21.1039 53.7308 21.7263 53.8463 22.3446 53.9949C22.3487 53.999 22.3528 54.0031 22.3528 54.0072C22.3075 54.0114 22.258 54.0155 22.2127 54.0196ZM21.3306 53.0872C21.4089 53.1202 21.4872 53.1491 21.5573 53.1986C21.244 53.1078 20.9225 53.0501 20.5927 53.0418C20.8194 52.9222 21.0997 53.0171 21.3306 53.0872ZM14.488 36.7164C14.1995 36.3946 13.878 36.0976 13.6183 35.7469C13.6265 35.7304 13.6307 35.7139 13.6389 35.6974C14.4097 36.2255 15.1393 36.8113 15.8277 37.4384C15.8236 37.5003 15.8153 37.5663 15.8112 37.6282C15.366 37.3353 14.8879 37.0754 14.488 36.7164ZM57.6084 17.6722C57.5919 17.1936 57.5342 16.7151 57.5466 16.2365C57.662 16.7563 57.765 17.2803 57.8269 17.8125C57.7568 17.7671 57.6826 17.7217 57.6084 17.6722ZM57.9546 18.5386C58.0453 18.9058 58.136 19.2812 58.1278 19.6608C57.9299 19.24 57.7856 18.7903 57.662 18.3406C57.7609 18.4066 57.8598 18.4726 57.9546 18.5386ZM64.1047 25.6967C64.1129 25.3749 64.15 25.0531 64.2407 24.7437C64.3644 24.917 64.488 25.0944 64.6076 25.2718C64.3891 25.8287 64.3232 26.4228 64.1789 27.0004C64.1047 26.5714 64.0964 26.1299 64.1047 25.6967ZM65.8524 23.5926C65.8936 23.5555 65.9307 23.5183 65.9678 23.4771C65.8565 24.1413 65.5144 24.7148 65.2712 25.3336C65.1929 25.2099 65.1146 25.0902 65.0321 24.9706C65.2588 24.4879 65.4979 23.9887 65.8524 23.5926ZM67.596 32.9456C67.6331 32.8919 67.6743 32.8424 67.7197 32.7929C67.6208 33.1353 67.4724 33.4613 67.3075 33.7748C67.3281 33.651 67.3611 33.5314 67.4023 33.4118C67.3982 33.4324 67.3899 33.4489 67.3858 33.4695C67.4394 33.288 67.5053 33.1106 67.596 32.9456ZM68.6307 35.8748C68.6966 36.374 68.7461 36.8732 68.7832 37.3724C68.0453 37.4178 67.5342 38.1398 67.3611 38.8082C67.3405 37.7726 67.2498 36.7412 67.1055 35.718C67.1426 35.718 67.1756 35.7056 67.2127 35.6891C67.2127 35.6891 67.2127 35.6891 67.2086 35.6891C67.798 35.4746 67.9959 34.7815 68.3668 34.3235C68.4699 34.8351 68.5565 35.355 68.6307 35.8748ZM63.0865 51.8536C63.0453 51.7133 62.9835 51.5483 63.0618 51.408C63.0659 51.5607 63.1484 51.6886 63.2226 51.8206C63.1937 51.866 63.1649 51.9114 63.1401 51.9568C63.1195 51.9238 63.103 51.8908 63.0865 51.8536ZM65.0074 48.2519C65.0033 48.2684 64.995 48.2808 64.9909 48.2973C64.9579 48.2271 64.925 48.157 64.8879 48.0827C64.892 48.091 64.8961 48.0951 64.8961 48.1034C64.892 48.0951 64.8879 48.0869 64.8837 48.0745C64.8837 48.0745 64.8837 48.0786 64.8879 48.0786C64.756 47.7774 64.6735 47.4556 64.5952 47.138C64.9332 47.3937 65.0321 47.8476 65.0074 48.2519ZM64.3438 47.204C64.4551 47.567 64.5457 47.9383 64.7189 48.2766C64.5169 47.9548 64.3438 47.5918 64.3438 47.204ZM66.7098 39.8272C66.7139 39.8355 66.7139 39.8396 66.718 39.8478C65.8936 39.4477 64.7848 38.8783 64.6529 37.8799C65.2259 38.5895 65.8565 39.3363 66.6768 39.7571C66.6851 39.7818 66.6974 39.8066 66.7098 39.8272ZM65.2671 37.7355C65.8978 38.1439 66.2152 38.8247 66.5367 39.4765C65.9678 38.8907 65.3743 38.3255 64.9167 37.6447C65.0363 37.6612 65.1599 37.6736 65.2671 37.7355ZM59.4427 25.1191C60.7288 25.2759 61.817 26.2248 62.6001 27.2108C62.5383 27.1737 62.4765 27.1366 62.4147 27.1036C62.4147 27.1036 62.4147 27.1036 62.4188 27.1036C62.2374 27.0004 62.056 26.8932 61.8747 26.7941C61.8829 26.7983 61.8912 26.8024 61.8994 26.8065C60.8648 26.2165 59.8425 25.5152 58.6307 25.3708C58.8285 25.1604 59.1624 25.1356 59.4427 25.1191ZM62.4765 27.7843C61.1616 27.2232 59.7642 26.6786 58.676 25.7256C58.6801 25.7297 58.6842 25.7338 58.6884 25.738C58.643 25.6967 58.5977 25.6513 58.5606 25.6059C59.0841 25.6596 59.5581 25.8906 60.0321 26.1052C60.028 26.101 60.0198 26.101 60.0156 26.0969C60.9472 26.6415 61.8623 27.2108 62.8104 27.7307C62.798 27.7224 62.7856 27.7183 62.7733 27.71C62.9011 27.7761 63.0124 27.8709 63.1525 27.9122C63.1566 27.9163 63.1607 27.9205 63.1649 27.9246C62.9258 27.8998 62.6991 27.8709 62.4765 27.7843ZM58.9975 26.2413C59.6694 26.7735 60.4691 27.1159 61.2193 27.5326C60.3042 27.215 59.2696 26.8519 58.7172 26.0061C58.8079 26.0886 58.8986 26.167 58.9975 26.2413ZM53.1731 19.7351C54.4386 19.5948 55.6917 19.8753 56.8499 20.3663C55.0115 19.9826 53.1566 20.0816 51.3017 20.2508C51.8417 19.8671 52.526 19.7351 53.1731 19.7351ZM51.7304 20.6262C53.6018 20.3622 55.4814 20.3292 57.3487 20.6551C55.4773 20.8036 53.5194 21.1997 51.6851 20.6345C51.6974 20.6304 51.7139 20.6262 51.7304 20.6262ZM54.2819 19.3926C53.2803 19.3143 52.1838 19.3803 51.3141 19.9331C52.1385 18.9429 53.5194 18.9512 54.6199 19.4215C54.5086 19.4133 54.3974 19.4091 54.2819 19.3926ZM51.2976 21.014C53.4328 21.6081 55.7164 21.1708 57.8557 20.8119C57.9217 20.8531 57.9917 20.8985 58.0659 20.9192C58.0783 20.9357 58.0865 20.9563 58.103 20.9687C56.3718 21.4472 52.7527 22.2146 51.2893 21.0099C51.2893 21.0099 51.2935 21.014 51.2976 21.014ZM65.9555 33.5314C65.9307 33.4984 65.9019 33.4695 65.8771 33.4406C65.8854 33.4489 65.8936 33.4613 65.9019 33.4695C65.5103 33.0074 64.995 32.6114 64.4221 32.4051C65.1022 32.2937 65.6133 33.0322 65.9555 33.5314ZM64.1665 32.5165C65.1723 32.863 66.042 33.845 66.3141 34.8723C65.6587 34.0265 65.0692 33.0281 63.9975 32.665C64.0429 32.6072 64.1047 32.5577 64.1665 32.5165ZM63.9274 32.8094C64.7312 33.0941 65.3001 33.8202 65.6834 34.5587C65.1063 34.0595 63.9274 33.6758 63.9274 32.8094ZM65.0981 43.3836C65.0775 43.3464 65.061 43.3052 65.0445 43.268C65.0445 43.268 65.0445 43.2722 65.0486 43.2722C65.0445 43.2598 65.0404 43.2515 65.0363 43.2392C65.0363 43.2433 65.0363 43.2433 65.0404 43.2474C65.0033 43.1608 64.9579 43.0783 64.9332 42.9916C65.0651 43.2144 65.2424 43.3877 65.4196 43.5775C65.4979 43.6971 65.6092 43.7879 65.6958 43.8993C65.6917 43.8952 65.6917 43.891 65.6875 43.8869C65.7452 43.9653 65.8071 44.0396 65.8771 44.1056C65.601 43.8869 65.2836 43.6889 65.0981 43.3836ZM65.8771 43.8663C65.568 43.5156 65.2547 43.169 64.9538 42.8183C65.4856 42.9174 65.7823 43.4702 65.9472 43.9364C65.9225 43.9158 65.8978 43.891 65.8771 43.8663ZM64.657 43.0741C64.7972 43.4578 65.0156 43.8044 65.366 44.0231C65.0198 43.8209 64.6859 43.495 64.657 43.0741ZM68.8203 37.9129C68.3421 38.3048 67.9258 38.7545 67.563 39.2537C67.7733 38.6431 68.0865 37.8469 68.812 37.7437C68.812 37.8015 68.8161 37.8593 68.8203 37.9129ZM68.136 33.5025C67.9093 34.0182 67.5837 34.4968 67.2745 34.9671C67.2498 34.8062 67.2498 34.6453 67.2539 34.4803C67.6002 34.0265 67.8846 33.5232 68.0618 32.9786C68.0907 33.1518 68.1896 33.3251 68.136 33.5025ZM64.4633 27.4873C64.7065 27.0458 64.9785 26.6209 65.1682 26.1505C65.2176 26.233 65.2671 26.3156 65.3166 26.3981C65.0033 26.7405 64.7354 27.1159 64.4633 27.4873ZM65.0527 25.9649C65.0404 25.9979 65.0321 26.0309 65.0198 26.0639C65.0239 26.0556 65.0239 26.0474 65.028 26.0433C64.8673 26.5342 64.6282 26.9963 64.3809 27.4543C64.3685 27.4295 64.3561 27.4047 64.3438 27.38C64.4839 26.7694 64.5911 26.1505 64.7931 25.5564C64.8796 25.6926 64.9662 25.8287 65.0527 25.9649ZM58.3339 19.1616C58.3174 19.0255 58.2885 18.8893 58.2638 18.7532C58.2968 18.7779 58.3339 18.8027 58.3668 18.8274C58.3545 18.9388 58.3421 19.0502 58.3339 19.1616ZM57.2168 18.0518C57.2539 18.5634 57.4806 19.0378 57.6579 19.5123C57.596 19.4628 57.5342 19.4133 57.4682 19.3679C57.2951 18.8852 57.1014 18.4107 56.9983 17.9115C57.0725 17.9569 57.1426 18.0023 57.2127 18.0477C57.2168 18.0518 57.2168 18.0518 57.2168 18.0518ZM27.6331 19.9496C35.8936 13.4063 48.3421 13.2619 56.7675 19.5824C54.8879 18.8934 52.2992 17.829 50.8648 19.8506C50.2259 20.6345 50.906 21.5463 51.7057 21.8433C53.9893 22.5117 56.4996 21.8846 58.6966 21.1502C60.6339 22.9201 62.2663 25.0201 63.5523 27.3057C57.9423 20.7541 54.4221 28.0772 64.0346 28.5269C64.0882 28.5641 64.1541 28.5806 64.2201 28.5764C64.8137 29.7811 65.3001 31.0354 65.6875 32.3185C64.9332 31.4356 63.1896 31.8853 63.3998 33.1683C63.8945 34.4019 65.3701 34.9878 66.4501 35.6355C66.615 36.6834 66.7222 37.7396 66.7428 38.7999C64.5169 35.2064 62.6372 38.6555 66.7304 40.1655C66.6851 41.3125 66.5655 42.4594 66.3512 43.5857C64.3809 40.6235 62.9917 44.0849 66.0956 44.8028C65.8936 45.6692 65.6422 46.5232 65.3413 47.3607C64.2778 45.5949 63.0783 47.1503 64.6653 49.0523C64.3355 49.7866 63.9728 50.5086 63.5771 51.21C62.7362 50.3642 62.324 51.7464 62.9093 52.324C61.1162 55.1294 58.7419 57.5718 55.9761 59.4284C55.9678 59.4202 55.9596 59.416 55.9472 59.4119C55.8895 59.4532 55.8277 59.4944 55.7617 59.5274C55.7741 59.5357 55.7906 59.5398 55.8071 59.5398C48.305 64.6639 38.1937 64.6928 30.3372 60.4144C28.4905 59.35 26.7799 58.0422 25.2795 56.5322C25.3083 56.5363 25.3372 56.5404 25.366 56.5487C25.4114 56.5569 25.4608 56.5652 25.5062 56.5734C25.5268 56.5775 25.5474 56.5817 25.568 56.5858C25.6752 56.6064 25.7823 56.6229 25.8895 56.6436C26.817 55.0304 24.6117 53.8175 24.7477 55.9463C24.2119 55.3357 23.7007 54.7045 23.2308 54.0444C25.1764 52.1259 22.662 50.0342 22.258 52.5839C21.8211 51.8866 21.4254 51.1688 21.0626 50.4303C23.8986 48.8625 21.1203 45.203 20.1599 48.3633C19.7725 47.3484 19.4468 46.3087 19.1912 45.2566C22.7939 44.1303 20.8895 38.9361 18.7213 42.7812C18.5771 41.7333 18.5029 40.6771 18.4864 39.6168C18.7584 39.5797 19.0016 39.4477 19.2613 39.3775C19.249 39.3816 19.2407 39.3858 19.2283 39.3858C19.2448 39.3816 19.2654 39.3734 19.2819 39.3693C19.2778 39.3693 19.2737 39.3734 19.2696 39.3734C20.6175 38.9608 21.953 37.5251 21.7964 36.0522C21.2852 34.4267 19.2737 35.6396 18.6265 36.5638C19.3232 30.1566 22.5589 23.9515 27.6331 19.9496ZM26.8829 59.02C26.718 59.0323 26.5573 58.9952 26.3883 58.9952C26.2852 58.9993 26.1863 58.9704 26.0915 58.9292C26.3718 58.9044 26.6727 58.9086 26.9365 59.0158C26.92 59.02 26.8994 59.02 26.8829 59.02ZM21.6974 53.7143C21.2523 53.6731 20.8401 53.4626 20.4196 53.3265C20.3949 53.2894 20.3743 53.2564 20.3495 53.2192C20.3578 53.211 20.3701 53.1986 20.3825 53.1903C20.9967 53.2481 21.8499 53.2357 22.2127 53.8092C22.0437 53.7679 21.8747 53.7267 21.6974 53.7143ZM19.3067 49.7C19.1995 49.6753 19.0882 49.6546 18.981 49.634C18.9851 49.634 18.9893 49.634 18.9975 49.6381C18.7832 49.5886 18.5688 49.5309 18.3668 49.4442C18.3133 49.3163 18.2597 49.1843 18.2102 49.0523C18.7543 49.2049 19.2613 49.469 19.7354 49.7743C19.587 49.7536 19.4468 49.7289 19.3067 49.7ZM16.7593 43.9158C16.7387 43.792 16.718 43.6682 16.6974 43.5403C17.1797 43.7879 17.6331 44.0849 18.0453 44.4439C18.0577 44.5058 18.0742 44.5676 18.0865 44.6295C17.6125 44.448 17.1756 44.2005 16.7593 43.9158ZM21.413 36.6504C21.0503 37.7066 20.2135 38.6803 19.1088 38.9649C20.1805 38.4451 20.9637 37.4261 21.4419 36.3534C21.4377 36.4524 21.4295 36.5514 21.413 36.6504ZM20.5062 42.5172C20.5515 42.3769 20.6175 42.2407 20.6381 42.0922C21.211 43.0576 20.3289 44.25 19.4427 44.6667C19.9909 44.0602 20.2176 43.2639 20.5062 42.5172ZM20.4237 41.8653C20.0775 42.8679 19.8178 43.9653 19.08 44.7863C18.8285 43.9447 19.7683 42.4017 20.399 41.8406C20.4114 41.8488 20.4196 41.8529 20.432 41.8612C20.4279 41.8612 20.4279 41.8653 20.4237 41.8653ZM20.1228 41.7952C19.6241 42.2408 19.4427 42.8885 19.1748 43.4785C19.0882 43.6724 18.9975 43.8663 18.9357 44.0726C18.7048 43.2268 19.3891 42.1871 20.1228 41.7952ZM16.6974 37.719C16.6274 37.6654 16.5532 37.6158 16.479 37.5622C16.4831 37.5003 16.4913 37.4384 16.4955 37.3766C16.751 37.6488 17.0396 37.8881 17.2745 38.1811C17.0849 38.0243 16.8912 37.8716 16.6974 37.719ZM20.4196 36.9929C20.737 36.6381 21.0709 36.3039 21.3264 35.8996C21.3635 35.9408 21.38 35.9986 21.4006 36.0522C20.8978 37.327 19.8384 38.573 18.4864 38.9691C18.4864 38.9361 18.4864 38.9031 18.4864 38.8701C19.2448 38.3832 19.8837 37.7149 20.4196 36.9929ZM21.0709 35.8748C20.2753 36.8608 19.5334 37.9376 18.4864 38.6761C18.9316 37.4838 19.9456 36.4359 20.9678 35.6809C21.0338 35.7015 21.1039 35.718 21.1616 35.7593C21.1327 35.7964 21.0997 35.8335 21.0709 35.8748ZM20.5309 35.7139C19.8054 36.3699 19.0676 37.0259 18.5523 37.8716C18.5565 37.8675 18.5606 37.8593 18.5647 37.8551C18.5565 37.8675 18.5523 37.8758 18.5441 37.8881C18.5441 37.884 18.5482 37.884 18.5482 37.8799C18.5358 37.8964 18.5276 37.917 18.5152 37.9335C18.4823 36.8443 19.6241 36.044 20.5556 35.6933C20.5474 35.6974 20.5391 35.7056 20.5309 35.7139ZM16.4542 37.9335C16.5119 37.9789 16.5655 38.0243 16.6191 38.0697C16.5614 38.0367 16.5078 38.0078 16.4501 37.9748C16.4501 37.9665 16.4501 37.95 16.4542 37.9335ZM16.6274 43.07C16.6232 43.0411 16.6191 43.0164 16.615 42.9875C17.1014 43.2433 17.5424 43.6022 17.8516 44.0561C17.4847 43.7343 17.0643 43.4867 16.648 43.2309C16.6438 43.1773 16.6356 43.1236 16.6274 43.07ZM20.4814 49.0647C20.5062 48.6108 20.5515 48.058 20.9266 47.7527C20.6917 48.3179 20.7246 48.9533 20.6422 49.5515C20.5845 49.3865 20.4691 49.2379 20.4814 49.0647ZM21.0255 49.9145C21.0008 49.9352 20.972 49.9476 20.9472 49.9641C21.3842 49.3287 21.5449 48.5201 21.5985 47.7568C22.1962 48.3715 21.7757 49.5474 21.0503 49.8939C21.0668 49.8815 21.0791 49.8692 21.0956 49.8609C21.0709 49.8774 21.0462 49.898 21.0255 49.9145ZM21.3677 48.0992C21.2687 48.7181 21.1657 49.3741 20.803 49.898C20.8236 49.1389 20.8524 48.2313 21.31 47.5877C21.3347 47.6 21.3553 47.6083 21.38 47.6207C21.3759 47.7816 21.38 47.9425 21.3677 48.0992ZM22.7609 53.3554C22.6125 52.8933 22.5177 52.2992 22.9052 51.9279C22.8433 52.0599 22.8392 52.2126 22.8269 52.357C22.8269 52.3528 22.8269 52.3487 22.8269 52.3446C22.8269 52.3528 22.8269 52.3611 22.8269 52.3693C22.8269 52.3652 22.8269 52.3611 22.8269 52.357C22.8351 52.7283 22.7568 53.1285 22.864 53.4874C22.8598 53.4957 22.8598 53.4998 22.8557 53.508C22.8269 53.4585 22.7774 53.4131 22.7609 53.3554ZM22.8928 52.8232C22.8969 52.7406 22.9011 52.6581 22.9052 52.5797C22.9052 52.5797 22.9052 52.5797 22.9052 52.5839C22.9052 52.5797 22.9052 52.5756 22.9052 52.5715V52.5756C22.9093 52.2951 22.9917 52.031 23.1319 51.7917C23.136 51.7917 23.136 51.7917 23.1401 51.7917C23.136 52.3363 23.0783 52.9057 22.8928 53.4173C22.8598 53.3059 22.8681 53.1862 22.8681 53.0707C22.8804 52.9882 22.8887 52.9057 22.8928 52.8232ZM23.0494 53.376L23.0453 53.3801C23.202 52.9346 23.2638 52.4519 23.305 51.9856C23.3091 51.9526 23.3091 51.9155 23.3133 51.8825C23.6925 52.3446 23.3627 52.9676 23.0494 53.376ZM25.5886 56.0453C25.5927 55.7442 25.568 55.443 25.432 55.1666C25.9266 55.41 25.7947 55.9917 25.5804 56.3878C25.5845 56.2722 25.5927 56.1609 25.5886 56.0453ZM25.4072 56.1155C25.3949 56.2434 25.3908 56.3754 25.3701 56.5033C25.2795 56.0866 25.2836 55.6451 25.3166 55.2202C25.3784 55.3646 25.399 55.5214 25.4155 55.674C25.4155 55.6781 25.4155 55.6864 25.4155 55.6905C25.4155 55.6988 25.4155 55.7112 25.4155 55.7194C25.4155 55.7112 25.4155 55.7029 25.4155 55.6988C25.4237 55.8349 25.4155 55.9752 25.4072 56.1155ZM25.1929 55.7235C25.197 55.7895 25.197 55.8555 25.2011 55.9216C25.2011 55.9216 25.2011 55.9216 25.2011 55.9257C25.2011 55.9298 25.2011 55.9298 25.2011 55.9339V55.9381C25.2011 55.9381 25.2011 55.9381 25.2011 55.9339V55.9381C25.2011 55.9628 25.2053 55.9917 25.2053 56.0164C25.2053 56.0123 25.2053 56.0082 25.2053 56.0041C25.2053 56.0164 25.2053 56.0247 25.2053 56.0371C25.2053 56.0412 25.2053 56.0412 25.2053 56.0453C25.2053 56.0495 25.2053 56.0495 25.2053 56.0536C25.2135 56.1691 25.2176 56.2846 25.2382 56.4001C25.0981 56.0536 24.9621 55.5791 25.197 55.2449C25.1888 55.3976 25.1888 55.5585 25.1929 55.7235ZM15.8565 37.1084C15.2506 36.6009 14.6158 36.1306 13.9563 35.6933C14.6818 35.9161 15.2712 36.4111 15.8854 36.8402C15.8772 36.931 15.8689 37.0176 15.8565 37.1084ZM16.4295 38.3131C16.7716 38.5111 17.1261 38.6968 17.493 38.8371C17.493 38.8577 17.493 38.8783 17.493 38.8989C17.1302 38.804 16.7634 38.7133 16.4171 38.5606C16.4213 38.4781 16.4254 38.3956 16.4295 38.3131ZM16.8046 39.1052C17.0313 39.1712 17.2704 39.2084 17.493 39.2909C17.4889 40.6647 17.6166 42.0386 17.8475 43.3918C17.4724 43.037 17.0437 42.7235 16.5655 42.5254C16.4336 41.3455 16.3759 40.1573 16.4089 38.9732C16.5367 39.0227 16.6686 39.0681 16.8046 39.1052ZM16.0049 43.3712C15.9019 43.2928 15.8236 43.1855 15.7494 43.0824C15.8277 43.103 15.906 43.136 15.9802 43.169C15.9884 43.2392 15.9967 43.3052 16.0049 43.3712ZM16.8211 44.25C17.2374 44.4851 17.6785 44.6914 18.1319 44.8399C18.1401 44.8771 18.1484 44.9142 18.1566 44.9513C17.6991 44.8729 17.2621 44.7162 16.8623 44.4769C16.8458 44.4026 16.8335 44.3242 16.8211 44.25ZM19.3809 49.1513C19.5169 49.3163 19.6983 49.4566 19.7848 49.6588C19.2737 49.3122 18.7172 49.011 18.1195 48.8377C18.0989 48.7882 18.0824 48.7387 18.0618 48.6851C18.5482 48.6315 19.0387 48.7924 19.3809 49.1513ZM18.4575 49.6629C18.9439 49.8362 19.4592 49.931 19.9621 50.0383C19.9909 50.0961 20.0156 50.1538 20.0445 50.2116C19.5499 50.1951 19.0593 50.1291 18.5894 49.9723C18.5482 49.8692 18.5029 49.766 18.4575 49.6629ZM26.6933 58.8054C26.5161 58.7683 26.3347 58.7724 26.1533 58.7807C26.2729 58.6775 26.4336 58.6734 26.5779 58.7064C26.615 58.7435 26.6562 58.7724 26.6933 58.8054ZM66.751 48.2973C66.4584 48.4871 66.1698 48.681 65.8607 48.8336C66.1203 48.6026 66.4213 48.2106 66.8005 48.2601C66.784 48.2725 66.7675 48.289 66.751 48.2973ZM67.9588 43.7054C67.9794 43.6971 68 43.693 68.0206 43.6889C68.1401 44.2046 67.3034 44.3861 66.92 44.4521C67.2044 44.1262 67.5878 43.9199 67.9588 43.7054ZM67.7898 43.5568C67.4971 43.7631 67.1756 43.9323 66.9324 44.2005C66.9983 43.825 67.4847 43.5197 67.8516 43.5197C67.831 43.5321 67.8104 43.5445 67.7898 43.5568ZM67.5218 39.6581C67.9011 39.1547 68.3297 38.6638 68.8368 38.2842C68.8409 38.408 68.845 38.5359 68.8491 38.6596C68.4781 39.0557 68.0494 39.4807 67.5218 39.6581ZM66.8912 29.5089C67.2292 30.3175 67.526 31.1426 67.7774 31.9801C67.2168 32.3803 66.8541 32.9538 66.7345 33.6345C66.2399 31.745 65.6175 29.8719 64.723 28.1267C65.0115 27.7224 65.2918 27.3099 65.6257 26.9427C66.0997 27.7719 66.5202 28.6301 66.8912 29.5089ZM66.2935 24.4425C66.2358 24.9912 65.8978 25.4492 65.6422 25.9236C65.5639 25.7957 65.4814 25.6678 65.4031 25.5399C65.6752 24.8839 66.0668 24.2816 66.2069 23.5761C66.3677 23.8401 66.3264 24.1537 66.2935 24.4425ZM64.5045 24.1248C64.7189 23.7081 65.1187 23.4895 65.5556 23.3616C65.263 23.7659 65.0651 24.2445 64.8425 24.69C64.723 24.5168 64.5993 24.3435 64.4757 24.1743C64.4839 24.1619 64.4963 24.1454 64.5045 24.1248ZM61.5161 21.5091C62.3652 22.359 63.1525 23.2749 63.8739 24.2362C63.6224 24.8344 63.5894 25.4904 63.6224 26.1299C62.3034 24.001 60.6669 22.0661 58.7749 20.4241C58.7749 20.0239 58.9274 19.6402 58.9233 19.2359C59.8343 19.9331 60.6999 20.6964 61.5161 21.5091ZM59.1748 19.1864C59.1748 19.1864 59.1706 19.1822 59.1665 19.1822C59.1665 19.1822 59.1706 19.1864 59.1748 19.1864ZM58.0536 16.22C58.4039 16.8058 58.3545 17.532 58.3792 18.1921C58.3009 18.1384 58.2267 18.0848 58.1484 18.0312C58.1072 17.3587 58.0288 16.6903 57.9093 16.0261C57.9629 16.088 58.0082 16.154 58.0536 16.22ZM56.8252 17.0781C56.7716 16.5707 56.5985 15.6878 57.122 15.4031C57.0107 16.055 57.1138 16.7316 57.1673 17.3876C57.0643 17.3215 56.9571 17.2597 56.8499 17.1936C56.8417 17.1565 56.8293 17.1153 56.8252 17.0781ZM49.7354 14.8255C49.8302 15.0483 50.1352 15.1679 50.3166 14.974C51.0791 15.1803 51.8335 15.4278 52.5754 15.7084C52.7032 15.8528 52.9217 16.0219 53.1195 15.9229C54.2613 16.385 55.366 16.9379 56.4254 17.5608C56.5326 18.0105 56.6438 18.4602 56.8293 18.8811C53.5029 16.418 49.5705 14.776 45.4773 14.1489C46.9159 14.2479 48.3421 14.4831 49.7354 14.8255ZM19.0511 28.3743C19.4798 28.3041 19.7312 27.8008 19.5622 27.4006C19.8384 26.9014 20.1311 26.4063 20.4443 25.9277C20.7741 25.9484 20.9555 25.4987 20.9184 25.2223C23.6471 21.2905 27.5136 18.1591 31.9324 16.3273C23.9604 20.3869 18.0082 28.5269 17.5466 37.5828C17.1921 37.1579 16.9448 36.6628 16.6274 36.2131C16.8087 34.9383 17.0767 33.6799 17.4435 32.4463C17.9464 32.3226 18.0288 31.712 17.8145 31.3077C18.1607 30.301 18.5729 29.3232 19.0511 28.3743ZM14.554 35.4334C15.0486 35.5819 15.5556 35.784 15.9761 36.0935C15.9637 36.176 15.9555 36.2585 15.9431 36.341C15.3248 35.9284 14.6694 35.553 13.9398 35.3797C14.15 35.3838 14.352 35.3962 14.554 35.4334ZM15.6958 38.2264C14.8013 37.7644 13.878 37.1043 13.6183 36.0728C14.2036 36.8526 14.9621 37.4426 15.7906 37.9376C15.7823 38.0449 15.7782 38.1522 15.77 38.2595C15.7452 38.2512 15.7205 38.2388 15.6958 38.2264ZM15.9266 42.7812C15.9307 42.806 15.9349 42.8349 15.939 42.8596C15.8772 42.8349 15.8153 42.8142 15.7494 42.7936C15.8071 42.7853 15.8689 42.7812 15.9266 42.7812ZM15.8524 43.8539C15.6628 43.7054 15.4732 43.5321 15.4361 43.2804C15.601 43.5073 15.8359 43.6641 16.075 43.8085C16.0874 43.8828 16.0997 43.9612 16.1121 44.0354C16.0255 43.9777 15.9349 43.9158 15.8524 43.8539ZM16.9777 45.0338C17.3776 45.2236 17.8186 45.302 18.2556 45.3433C18.5276 46.4242 18.878 47.4845 19.2943 48.5201C18.8821 48.2643 18.3957 48.2684 17.9299 48.3262C17.5383 47.2493 17.2168 46.1519 16.9777 45.0338ZM17.5053 49.044C17.4765 49.0234 17.4435 49.011 17.4229 48.9821C17.4353 48.9615 17.4435 48.9409 17.46 48.9244C17.4765 48.9656 17.4889 49.0028 17.5053 49.044ZM17.4311 49.2256C17.4188 49.209 17.4105 49.1925 17.4023 49.176C17.4682 49.2173 17.5342 49.2544 17.6043 49.2874C17.629 49.3493 17.6537 49.4112 17.6785 49.4731C17.5919 49.3906 17.5053 49.3122 17.4311 49.2256ZM18.8244 50.4633C19.2943 50.5953 19.7807 50.6159 20.2671 50.6365C20.6298 51.342 21.0255 52.0269 21.4542 52.6953C21.0091 52.5302 20.4979 52.5302 20.1311 52.8644C19.6447 52.0929 19.216 51.2884 18.8244 50.4633ZM34.9208 63.9584C34.8714 63.946 34.8178 63.9295 34.7683 63.9172C34.7436 63.8676 34.7106 63.8264 34.6653 63.7893C34.5911 63.6077 34.3726 63.6779 34.249 63.7645C33.4287 63.517 32.6249 63.224 31.8335 62.8981C31.7675 62.5681 31.3842 62.3948 31.0997 62.5763C30.4361 62.271 29.7848 61.9409 29.1459 61.582C29.1335 61.1653 28.5606 60.7321 28.1855 61.0127C25.4031 59.2675 22.967 56.9654 21.0668 54.2878C21.5655 54.4528 22.1096 54.4446 22.6208 54.3662C23.0865 54.9644 23.54 55.5667 24.0387 56.1402C23.8656 56.1237 23.6842 56.1567 23.5235 56.2269C23.7543 56.2681 23.9893 56.3094 24.2242 56.3506C24.9538 57.1799 25.7288 57.9638 26.5573 58.694C26.3594 58.661 26.1657 58.628 25.9678 58.5909C25.2795 59.449 26.8335 59.6924 27.4023 59.4036C30.6875 62.0771 34.6364 63.913 38.7955 64.701C37.4847 64.5566 36.1904 64.3008 34.9208 63.9584ZM65.4649 51.932C62.7568 56.6271 58.4987 60.4062 53.5111 62.5227C57.7073 60.3361 61.2646 56.9571 63.6884 52.8892C65.0321 53.2357 65.6175 51.6308 64.3149 51.7794C64.6735 51.1069 65.0033 50.4179 65.3001 49.7165C65.7246 49.8238 66.1904 49.8362 66.6109 49.7041C66.2646 50.4674 65.8854 51.21 65.4649 51.932ZM67.967 45.9539C67.7898 46.6099 67.5795 47.2617 67.3487 47.9012C66.9695 47.5505 66.4171 47.5546 66.0049 47.8434C66.3058 46.9564 66.5532 46.0488 66.751 45.1287C67.3446 45.1906 67.9629 44.8358 68.3421 44.3944C68.2349 44.9183 68.1113 45.4382 67.967 45.9539ZM68.4946 43.594C68.2968 42.9504 67.5424 42.9462 67.0767 43.3011C67.2168 42.3026 67.3075 41.2918 67.3528 40.2852C67.8722 39.9716 68.4328 39.7282 68.8656 39.2702C68.8615 40.7184 68.7461 42.1665 68.4946 43.594Z" fill="white"/>
<g clip-path="url(#clip1_126_297)">
<path d="M35.5026 53.5758C37.4558 54.7446 44.2899 58.8372 50.4773 55.797C53.4645 54.3294 56.49 51.1055 56.7343 47.3482C56.9822 43.5277 54.1393 42.4863 51.935 37.241C48.3441 28.6948 51.9266 22.0212 49.3186 20.8132C47.0549 19.7657 44.8176 25.0023 37.4033 28.0629C30.0583 31.0951 26.2828 28.4195 24.1764 31.1938C20.7992 35.6446 26.303 48.0679 35.5026 53.5758Z" fill="white"/>
</g>
</g>
<path d="M22.9922 101V84.2422H36.8789V101H34.7109V86H25.1602V101H22.9922ZM42.8086 98.4922C43.6602 98.9141 44.6094 99.125 45.6562 99.125C48.4453 99.125 49.8398 97.5898 49.8398 94.5195C49.8398 91.8398 48.4531 90.5 45.6797 90.5C44.5859 90.5 43.6289 90.5938 42.8086 90.7812V98.4922ZM40.6406 89.1992C42.2734 88.8633 43.9609 88.6953 45.7031 88.6953C49.8828 88.6953 51.9727 90.6445 51.9727 94.543C51.9727 98.8477 49.8711 101 45.668 101C44.6836 101 43.7305 100.805 42.8086 100.414V105.453H40.6406V89.1992ZM59.9883 88.6953C63.4883 88.6953 65.2383 90.4258 65.2383 93.8867C65.2383 94.3789 65.2031 94.9062 65.1328 95.4688H56.4961C56.4961 97.9844 57.9648 99.2422 60.9023 99.2422C62.3008 99.2422 63.543 99.0859 64.6289 98.7734V100.531C63.543 100.844 62.2227 101 60.668 101C56.4414 101 54.3281 98.9023 54.3281 94.707C54.3281 90.6992 56.2148 88.6953 59.9883 88.6953ZM56.4961 93.6641H63.1523C63.1055 91.5078 62.0508 90.4297 59.9883 90.4297C57.8008 90.4297 56.6367 91.5078 56.4961 93.6641ZM77.4141 100.648C76.3984 100.883 75.3047 101 74.1328 101C69.7578 101 67.5703 98.8711 67.5703 94.6133C67.5703 90.668 69.7578 88.6953 74.1328 88.6953C75.3047 88.6953 76.3984 88.8125 77.4141 89.0469V90.8047C76.3984 90.5703 75.2656 90.4531 74.0156 90.4531C71.1641 90.4531 69.7383 91.8398 69.7383 94.6133C69.7383 97.6992 71.1641 99.2422 74.0156 99.2422C75.2656 99.2422 76.3984 99.125 77.4141 98.8906V100.648ZM85.2539 88.6953C88.7539 88.6953 90.5039 90.4258 90.5039 93.8867C90.5039 94.3789 90.4688 94.9062 90.3984 95.4688H81.7617C81.7617 97.9844 83.2305 99.2422 86.168 99.2422C87.5664 99.2422 88.8086 99.0859 89.8945 98.7734V100.531C88.8086 100.844 87.4883 101 85.9336 101C81.707 101 79.5938 98.9023 79.5938 94.707C79.5938 90.6992 81.4805 88.6953 85.2539 88.6953ZM81.7617 93.6641H88.418C88.3711 91.5078 87.3164 90.4297 85.2539 90.4297C83.0664 90.4297 81.9023 91.5078 81.7617 93.6641ZM104.18 88.6953V101H102.012V96.1484C100.871 97.0391 99.5078 97.4844 97.9219 97.4844C94.7266 97.4844 93.1289 95.8789 93.1289 92.668V88.6953H95.2969V92.7031C95.2969 94.6875 96.2695 95.6797 98.2148 95.6797C99.7695 95.6797 101.035 95.1602 102.012 94.1211V88.6953H104.18ZM112.77 88.6953C116.27 88.6953 118.02 90.4258 118.02 93.8867C118.02 94.3789 117.984 94.9062 117.914 95.4688H109.277C109.277 97.9844 110.746 99.2422 113.684 99.2422C115.082 99.2422 116.324 99.0859 117.41 98.7734V100.531C116.324 100.844 115.004 101 113.449 101C109.223 101 107.109 98.9023 107.109 94.707C107.109 90.6992 108.996 88.6953 112.77 88.6953ZM109.277 93.6641H115.934C115.887 91.5078 114.832 90.4297 112.77 90.4297C110.582 90.4297 109.418 91.5078 109.277 93.6641ZM120.938 101V88.6953H123.105V93.8516H129.609V88.6953H131.777V101H129.609V95.6094H123.105V101H120.938ZM144.094 101V91.4844L137.473 101H135.305V88.6953H137.355V98.2109L143.977 88.6953H146.145V101H144.094ZM154.746 88.6953C158.246 88.6953 159.996 90.4258 159.996 93.8867C159.996 94.3789 159.961 94.9062 159.891 95.4688H151.254C151.254 97.9844 152.723 99.2422 155.66 99.2422C157.059 99.2422 158.301 99.0859 159.387 98.7734V100.531C158.301 100.844 156.98 101 155.426 101C151.199 101 149.086 98.9023 149.086 94.707C149.086 90.6992 150.973 88.6953 154.746 88.6953ZM151.254 93.6641H157.91C157.863 91.5078 156.809 90.4297 154.746 90.4297C152.559 90.4297 151.395 91.5078 151.254 93.6641ZM184.371 101L182.648 98.1172C181.492 96.1875 180.375 95.2227 179.297 95.2227V93.7812C180.547 93.7812 181.477 92.9258 182.086 91.2148C182.703 89.4961 183.746 88.6367 185.215 88.6367H186.469V90.582H185.543C184.699 90.582 184.078 91.1523 183.68 92.293C183.281 93.4336 182.594 94.1953 181.617 94.5781C182.539 94.7422 183.645 95.8516 184.934 97.9062L186.879 101H184.371ZM178.16 88.6133V101H175.992V88.6133H178.16ZM167.309 101L169.254 97.9062C170.543 95.8516 171.648 94.7422 172.57 94.5781C171.594 94.1953 170.906 93.4336 170.508 92.293C170.109 91.1523 169.488 90.582 168.645 90.582H167.719V88.6367H168.973C170.441 88.6367 171.48 89.4961 172.09 91.2148C172.707 92.9258 173.641 93.7812 174.891 93.7812V95.2227C173.812 95.2227 172.695 96.1875 171.539 98.1172L169.816 101H167.309ZM194.004 88.6953C197.504 88.6953 199.254 90.4258 199.254 93.8867C199.254 94.3789 199.219 94.9062 199.148 95.4688H190.512C190.512 97.9844 191.98 99.2422 194.918 99.2422C196.316 99.2422 197.559 99.0859 198.645 98.7734V100.531C197.559 100.844 196.238 101 194.684 101C190.457 101 188.344 98.9023 188.344 94.707C188.344 90.6992 190.23 88.6953 194.004 88.6953ZM190.512 93.6641H197.168C197.121 91.5078 196.066 90.4297 194.004 90.4297C191.816 90.4297 190.652 91.5078 190.512 93.6641ZM211.43 100.648C210.414 100.883 209.32 101 208.148 101C203.773 101 201.586 98.8711 201.586 94.6133C201.586 90.668 203.773 88.6953 208.148 88.6953C209.32 88.6953 210.414 88.8125 211.43 89.0469V90.8047C210.414 90.5703 209.281 90.4531 208.031 90.4531C205.18 90.4531 203.754 91.8398 203.754 94.6133C203.754 97.6992 205.18 99.2422 208.031 99.2422C209.281 99.2422 210.414 99.125 211.43 98.8906V100.648ZM223.277 88.6953V90.4531H218.941V101H216.773V90.4531H212.438V88.6953H223.277ZM224.461 94.8477C224.461 90.668 226.492 88.5781 230.555 88.5781C234.617 88.5781 236.648 90.668 236.648 94.8477C236.648 99.0273 234.617 101.117 230.555 101.117C226.508 101.117 224.477 99.0273 224.461 94.8477ZM226.629 94.8008C226.629 97.8398 227.938 99.3594 230.555 99.3594C233.172 99.3594 234.48 97.8398 234.48 94.8008C234.48 91.8242 233.172 90.3359 230.555 90.3359C227.938 90.3359 226.629 91.8242 226.629 94.8008ZM247.957 101L246.234 98.1172C245.078 96.1875 243.961 95.2227 242.883 95.2227V93.7812C244.133 93.7812 245.062 92.9336 245.672 91.2383C246.289 89.543 247.332 88.6953 248.801 88.6953H250.055V90.5703H249.129C248.285 90.5703 247.664 91.1445 247.266 92.293C246.867 93.4336 246.18 94.1953 245.203 94.5781C246.125 94.7422 247.23 95.8516 248.52 97.9062L250.465 101H247.957ZM241.746 88.6953V101H239.578V88.6953H241.746ZM251.93 94.8477C251.93 90.668 253.961 88.5781 258.023 88.5781C262.086 88.5781 264.117 90.668 264.117 94.8477C264.117 99.0273 262.086 101.117 258.023 101.117C253.977 101.117 251.945 99.0273 251.93 94.8477ZM254.098 94.8008C254.098 97.8398 255.406 99.3594 258.023 99.3594C260.641 99.3594 261.949 97.8398 261.949 94.8008C261.949 91.8242 260.641 90.3359 258.023 90.3359C255.406 90.3359 254.098 91.8242 254.098 94.8008ZM267.047 101V88.6953H275.227V90.4531H269.215V101H267.047ZM276.398 94.8477C276.398 90.668 278.43 88.5781 282.492 88.5781C286.555 88.5781 288.586 90.668 288.586 94.8477C288.586 99.0273 286.555 101.117 282.492 101.117C278.445 101.117 276.414 99.0273 276.398 94.8477ZM278.566 94.8008C278.566 97.8398 279.875 99.3594 282.492 99.3594C285.109 99.3594 286.418 97.8398 286.418 94.8008C286.418 91.8242 285.109 90.3359 282.492 90.3359C279.875 90.3359 278.566 91.8242 278.566 94.8008ZM22.1719 121.848C22.1719 117.668 24.2031 115.578 28.2656 115.578C32.3281 115.578 34.3594 117.668 34.3594 121.848C34.3594 126.027 32.3281 128.117 28.2656 128.117C24.2188 128.117 22.1875 126.027 22.1719 121.848ZM24.3398 121.801C24.3398 124.84 25.6484 126.359 28.2656 126.359C30.8828 126.359 32.1914 124.84 32.1914 121.801C32.1914 118.824 30.8828 117.336 28.2656 117.336C25.6484 117.336 24.3398 118.824 24.3398 121.801ZM49.1953 121.906C49.1953 126.047 47.1719 128.117 43.125 128.117C39.0391 128.117 36.9961 126.047 36.9961 121.906V118.098C36.9961 113.527 39.1211 111.242 43.3711 111.242C45.6523 111.242 47.4609 110.816 48.7969 109.965V111.875C47.6016 112.625 45.7812 113 43.3359 113C40.5938 113 39.2227 114.66 39.2227 117.98C40.2305 116.457 41.5703 115.695 43.2422 115.695C47.2109 115.695 49.1953 117.68 49.1953 121.648V121.906ZM43.125 126.359C45.7188 126.359 47.0156 124.875 47.0156 121.906C47.0156 118.984 45.7578 117.523 43.2422 117.523C40.5625 117.523 39.2227 118.984 39.2227 121.906C39.2227 124.875 40.5234 126.359 43.125 126.359ZM54.4336 125.492C55.2852 125.914 56.2344 126.125 57.2812 126.125C60.0703 126.125 61.4648 124.59 61.4648 121.52C61.4648 118.84 60.0781 117.5 57.3047 117.5C56.2109 117.5 55.2539 117.594 54.4336 117.781V125.492ZM52.2656 116.199C53.8984 115.863 55.5859 115.695 57.3281 115.695C61.5078 115.695 63.5977 117.645 63.5977 121.543C63.5977 125.848 61.4961 128 57.293 128C56.3086 128 55.3555 127.805 54.4336 127.414V132.453H52.2656V116.199ZM65.9531 124.285C65.9531 121.762 67.6172 120.5 70.9453 120.5C72.0156 120.5 73.0859 120.578 74.1562 120.734V119.574C74.1562 118.16 73.0508 117.453 70.8398 117.453C69.5742 117.453 68.2773 117.648 66.9492 118.039V116.281C68.2773 115.891 69.5742 115.695 70.8398 115.695C74.4961 115.695 76.3242 116.969 76.3242 119.516V128H75.1055L74.3555 126.781C73.1289 127.594 71.793 128 70.3477 128C67.418 128 65.9531 126.762 65.9531 124.285ZM70.9453 122.258C69.0625 122.258 68.1211 122.922 68.1211 124.25C68.1211 125.578 68.8633 126.242 70.3477 126.242C71.8477 126.242 73.1172 125.844 74.1562 125.047V122.492C73.0859 122.336 72.0156 122.258 70.9453 122.258ZM79.8516 128V115.695H82.0195V126.242H86.5898V115.695H88.7578V126.242H93.3281V115.695H95.4961V126.242H97.6641V132.453H95.4961V128H79.8516ZM105.668 115.695C109.168 115.695 110.918 117.426 110.918 120.887C110.918 121.379 110.883 121.906 110.812 122.469H102.176C102.176 124.984 103.645 126.242 106.582 126.242C107.98 126.242 109.223 126.086 110.309 125.773V127.531C109.223 127.844 107.902 128 106.348 128C102.121 128 100.008 125.902 100.008 121.707C100.008 117.699 101.895 115.695 105.668 115.695ZM102.176 120.664H108.832C108.785 118.508 107.73 117.43 105.668 117.43C103.48 117.43 102.316 118.508 102.176 120.664ZM113.836 128V115.695H116.004V120.852H122.508V115.695H124.676V128H122.508V122.609H116.004V128H113.836ZM136.992 128V118.484L130.371 128H128.203V115.695H130.254V125.211L136.875 115.695H139.043V128H136.992ZM150.305 128V117.488H146.109C145.031 117.488 144.492 117.949 144.492 118.871C144.492 119.965 145.742 120.766 148.242 121.273V122.809L143.848 128H141.105L145.863 122.504C143.41 121.746 142.184 120.543 142.184 118.895C142.184 116.762 143.504 115.695 146.145 115.695H152.473V128H150.305ZM171.117 127.648C170.102 127.883 169.008 128 167.836 128C163.461 128 161.273 125.871 161.273 121.613C161.273 117.668 163.461 115.695 167.836 115.695C169.008 115.695 170.102 115.812 171.117 116.047V117.805C170.102 117.57 168.969 117.453 167.719 117.453C164.867 117.453 163.441 118.84 163.441 121.613C163.441 124.699 164.867 126.242 167.719 126.242C168.969 126.242 170.102 126.125 171.117 125.891V127.648ZM195.34 128L193.617 125.117C192.461 123.188 191.344 122.223 190.266 122.223V120.781C191.516 120.781 192.445 119.926 193.055 118.215C193.672 116.496 194.715 115.637 196.184 115.637H197.438V117.582H196.512C195.668 117.582 195.047 118.152 194.648 119.293C194.25 120.434 193.562 121.195 192.586 121.578C193.508 121.742 194.613 122.852 195.902 124.906L197.848 128H195.34ZM189.129 115.613V128H186.961V115.613H189.129ZM178.277 128L180.223 124.906C181.512 122.852 182.617 121.742 183.539 121.578C182.562 121.195 181.875 120.434 181.477 119.293C181.078 118.152 180.457 117.582 179.613 117.582H178.688V115.637H179.941C181.41 115.637 182.449 116.496 183.059 118.215C183.676 119.926 184.609 120.781 185.859 120.781V122.223C184.781 122.223 183.664 123.188 182.508 125.117L180.785 128H178.277ZM208.688 128V118.484L202.066 128H199.898V115.695H201.949V125.211L208.57 115.695H210.738V128H208.688ZM220.805 126.242C222.023 126.242 222.633 125.617 222.633 124.367C222.633 123.195 221.684 122.609 219.785 122.609H218.848V121.191C221.27 120.918 222.48 120.102 222.48 118.742C222.48 117.883 221.98 117.453 220.98 117.453H216.434V126.242H220.805ZM214.266 128V115.695H221.18C223.586 115.695 224.789 116.723 224.789 118.777C224.789 120.051 224.023 120.996 222.492 121.613C224.164 122.027 225 122.934 225 124.332C225 126.777 223.645 128 220.934 128H214.266ZM227.344 121.848C227.344 117.668 229.375 115.578 233.438 115.578C237.5 115.578 239.531 117.668 239.531 121.848C239.531 126.027 237.5 128.117 233.438 128.117C229.391 128.117 227.359 126.027 227.344 121.848ZM229.512 121.801C229.512 124.84 230.82 126.359 233.438 126.359C236.055 126.359 237.363 124.84 237.363 121.801C237.363 118.824 236.055 117.336 233.438 117.336C230.82 117.336 229.512 118.824 229.512 121.801ZM251.543 115.695V117.453H247.207V128H245.039V117.453H240.703V115.695H251.543ZM253.312 128V115.695H255.48V120.852H261.984V115.695H264.152V128H261.984V122.609H255.48V128H253.312ZM279.691 128V115.695H281.859V128H279.691ZM269.848 115.695V126.207H273.574C274.965 126.207 275.66 125.547 275.66 124.227C275.66 123.156 274.949 122.621 273.527 122.621H271.441V120.863H273.633C276.445 120.863 277.852 122.02 277.852 124.332C277.852 126.777 276.492 128 273.773 128H267.68V115.695H269.848ZM285.375 128V115.695H288.129L292.289 125.457L296.332 115.695H298.969V128H297.035V118.59L293.074 128H291.363L287.309 118.59V128H285.375ZM311.273 128V118.484L304.652 128H302.484V115.695H304.535V125.211L311.156 115.695H313.324V128H311.273ZM319.312 125.832L317.555 130.93H315.387L317.145 125.832H319.312ZM22.7578 155V142.695H33.5977V155H31.4297V144.453H24.9258V155H22.7578ZM39.293 152.492C40.1445 152.914 41.0938 153.125 42.1406 153.125C44.9297 153.125 46.3242 151.59 46.3242 148.52C46.3242 145.84 44.9375 144.5 42.1641 144.5C41.0703 144.5 40.1133 144.594 39.293 144.781V152.492ZM37.125 143.199C38.7578 142.863 40.4453 142.695 42.1875 142.695C46.3672 142.695 48.457 144.645 48.457 148.543C48.457 152.848 46.3555 155 42.1523 155C41.168 155 40.2148 154.805 39.293 154.414V159.453H37.125V143.199ZM60.1875 155V145.484L53.5664 155H51.3984V142.695H53.4492V152.211L60.0703 142.695H62.2383V155H60.1875ZM72.3047 153.242C73.5234 153.242 74.1328 152.617 74.1328 151.367C74.1328 150.195 73.1836 149.609 71.2852 149.609H70.3477V148.191C72.7695 147.918 73.9805 147.102 73.9805 145.742C73.9805 144.883 73.4805 144.453 72.4805 144.453H67.9336V153.242H72.3047ZM65.7656 155V142.695H72.6797C75.0859 142.695 76.2891 143.723 76.2891 145.777C76.2891 147.051 75.5234 147.996 73.9922 148.613C75.6641 149.027 76.5 149.934 76.5 151.332C76.5 153.777 75.1445 155 72.4336 155H65.7656ZM77.6719 153.242C79.5234 153.242 80.4492 152.188 80.4492 150.078V142.695H89.8242V155H87.6562V144.453H82.6172V150.078C82.6172 153.359 80.9688 155 77.6719 155V153.242ZM98.4258 142.695C101.926 142.695 103.676 144.426 103.676 147.887C103.676 148.379 103.641 148.906 103.57 149.469H94.9336C94.9336 151.984 96.4023 153.242 99.3398 153.242C100.738 153.242 101.98 153.086 103.066 152.773V154.531C101.98 154.844 100.66 155 99.1055 155C94.8789 155 92.7656 152.902 92.7656 148.707C92.7656 144.699 94.6523 142.695 98.4258 142.695ZM94.9336 147.664H101.59C101.543 145.508 100.488 144.43 98.4258 144.43C96.2383 144.43 95.0742 145.508 94.9336 147.664ZM117.352 142.695V155H115.184V150.148C114.043 151.039 112.68 151.484 111.094 151.484C107.898 151.484 106.301 149.879 106.301 146.668V142.695H108.469V146.703C108.469 148.688 109.441 149.68 111.387 149.68C112.941 149.68 114.207 149.16 115.184 148.121V142.695H117.352ZM125.941 142.695C129.441 142.695 131.191 144.426 131.191 147.887C131.191 148.379 131.156 148.906 131.086 149.469H122.449C122.449 151.984 123.918 153.242 126.855 153.242C128.254 153.242 129.496 153.086 130.582 152.773V154.531C129.496 154.844 128.176 155 126.621 155C122.395 155 120.281 152.902 120.281 148.707C120.281 144.699 122.168 142.695 125.941 142.695ZM122.449 147.664H129.105C129.059 145.508 128.004 144.43 125.941 144.43C123.754 144.43 122.59 145.508 122.449 147.664ZM134.109 155V142.695H136.277V147.852H142.781V142.695H144.949V155H142.781V149.609H136.277V155H134.109ZM157.266 155V145.484L150.645 155H148.477V142.695H150.527V152.211L157.148 142.695H159.316V155H157.266ZM167.918 142.695C171.418 142.695 173.168 144.426 173.168 147.887C173.168 148.379 173.133 148.906 173.062 149.469H164.426C164.426 151.984 165.895 153.242 168.832 153.242C170.23 153.242 171.473 153.086 172.559 152.773V154.531C171.473 154.844 170.152 155 168.598 155C164.371 155 162.258 152.902 162.258 148.707C162.258 144.699 164.145 142.695 167.918 142.695ZM164.426 147.664H171.082C171.035 145.508 169.98 144.43 167.918 144.43C165.73 144.43 164.566 145.508 164.426 147.664ZM190.324 155L188.602 152.117C187.445 150.188 186.328 149.223 185.25 149.223V147.781C186.5 147.781 187.43 146.934 188.039 145.238C188.656 143.543 189.699 142.695 191.168 142.695H192.422V144.57H191.496C190.652 144.57 190.031 145.145 189.633 146.293C189.234 147.434 188.547 148.195 187.57 148.578C188.492 148.742 189.598 149.852 190.887 151.906L192.832 155H190.324ZM184.113 142.695V155H181.945V142.695H184.113ZM200.156 148.848C200.156 144.668 202.188 142.578 206.25 142.578C210.312 142.578 212.344 144.668 212.344 148.848C212.344 153.027 210.312 155.117 206.25 155.117C202.203 155.117 200.172 153.027 200.156 148.848ZM202.324 148.801C202.324 151.84 203.633 153.359 206.25 153.359C208.867 153.359 210.176 151.84 210.176 148.801C210.176 145.824 208.867 144.336 206.25 144.336C203.633 144.336 202.324 145.824 202.324 148.801ZM224.355 142.695V144.453H220.02V155H217.852V144.453H213.516V142.695H224.355ZM232.664 153.242C233.883 153.242 234.492 152.617 234.492 151.367C234.492 150.195 233.543 149.609 231.645 149.609H230.707V148.191C233.129 147.918 234.34 147.102 234.34 145.742C234.34 144.883 233.84 144.453 232.84 144.453H228.293V153.242H232.664ZM226.125 155V142.695H233.039C235.445 142.695 236.648 143.723 236.648 145.777C236.648 147.051 235.883 147.996 234.352 148.613C236.023 149.027 236.859 149.934 236.859 151.332C236.859 153.777 235.504 155 232.793 155H226.125ZM244.863 142.695C248.363 142.695 250.113 144.426 250.113 147.887C250.113 148.379 250.078 148.906 250.008 149.469H241.371C241.371 151.984 242.84 153.242 245.777 153.242C247.176 153.242 248.418 153.086 249.504 152.773V154.531C248.418 154.844 247.098 155 245.543 155C241.316 155 239.203 152.902 239.203 148.707C239.203 144.699 241.09 142.695 244.863 142.695ZM241.371 147.664H248.027C247.98 145.508 246.926 144.43 244.863 144.43C242.676 144.43 241.512 145.508 241.371 147.664ZM262.113 142.695V144.453H257.777V155H255.609V144.453H251.273V142.695H262.113ZM273.141 154.648C272.125 154.883 271.031 155 269.859 155C265.484 155 263.297 152.871 263.297 148.613C263.297 144.668 265.484 142.695 269.859 142.695C271.031 142.695 272.125 142.812 273.141 143.047V144.805C272.125 144.57 270.992 144.453 269.742 144.453C266.891 144.453 265.465 145.84 265.465 148.613C265.465 151.699 266.891 153.242 269.742 153.242C270.992 153.242 272.125 153.125 273.141 152.891V154.648ZM284.988 142.695V144.453H280.652V155H278.484V144.453H274.148V142.695H284.988ZM293.297 153.242C294.516 153.242 295.125 152.617 295.125 151.367C295.125 150.195 294.176 149.609 292.277 149.609H291.34V148.191C293.762 147.918 294.973 147.102 294.973 145.742C294.973 144.883 294.473 144.453 293.473 144.453H288.926V153.242H293.297ZM286.758 155V142.695H293.672C296.078 142.695 297.281 143.723 297.281 145.777C297.281 147.051 296.516 147.996 294.984 148.613C296.656 149.027 297.492 149.934 297.492 151.332C297.492 153.777 296.137 155 293.426 155H286.758ZM305.496 142.695C308.996 142.695 310.746 144.426 310.746 147.887C310.746 148.379 310.711 148.906 310.641 149.469H302.004C302.004 151.984 303.473 153.242 306.41 153.242C307.809 153.242 309.051 153.086 310.137 152.773V154.531C309.051 154.844 307.73 155 306.176 155C301.949 155 299.836 152.902 299.836 148.707C299.836 144.699 301.723 142.695 305.496 142.695ZM302.004 147.664H308.66C308.613 145.508 307.559 144.43 305.496 144.43C303.309 144.43 302.145 145.508 302.004 147.664ZM313.664 155V142.695H315.832V147.852H322.336V142.695H324.504V155H322.336V149.609H315.832V155H313.664ZM328.031 155V142.695H330.199V147.852H336.703V142.695H338.871V155H336.703V149.609H330.199V155H328.031ZM341.812 148.848C341.812 144.668 343.844 142.578 347.906 142.578C351.969 142.578 354 144.668 354 148.848C354 153.027 351.969 155.117 347.906 155.117C343.859 155.117 341.828 153.027 341.812 148.848ZM343.98 148.801C343.98 151.84 345.289 153.359 347.906 153.359C350.523 153.359 351.832 151.84 351.832 148.801C351.832 145.824 350.523 144.336 347.906 144.336C345.289 144.336 343.98 145.824 343.98 148.801ZM366.188 154.648C365.172 154.883 364.078 155 362.906 155C358.531 155 356.344 152.871 356.344 148.613C356.344 144.668 358.531 142.695 362.906 142.695C364.078 142.695 365.172 142.812 366.188 143.047V144.805C365.172 144.57 364.039 144.453 362.789 144.453C359.938 144.453 358.512 145.84 358.512 148.613C358.512 151.699 359.938 153.242 362.789 153.242C364.039 153.242 365.172 153.125 366.188 152.891V154.648ZM378.035 142.695V144.453H373.699V155H371.531V144.453H367.195V142.695H378.035ZM388.594 155V145.484L381.973 155H379.805V142.695H381.855V152.211L388.477 142.695H390.645V155H388.594Z" fill="black"/>
<path d="M39.5964 31.984L39.5004 30.96C39.5004 30.0853 39.767 29.2853 40.3004 28.56C40.855 27.8347 41.7937 27.472 43.1164 27.472C45.2924 27.472 46.3804 29.104 46.3804 32.368C46.3804 35.4827 45.5697 37.1253 43.9484 37.296L44.2364 37.328C44.4284 37.3707 44.663 37.488 44.9404 37.68C45.239 37.8507 45.527 38.0853 45.8044 38.384C46.0817 38.6613 46.3164 39.1093 46.5084 39.728C46.7004 40.3253 46.7964 41.0187 46.7964 41.808C46.7964 44.6027 46.5084 46.6827 45.9324 48.048C45.3564 49.392 44.2577 50.064 42.6364 50.064C41.2497 50.064 40.279 49.6907 39.7244 48.944C39.191 48.1973 38.9244 46.8427 38.9244 44.88L39.0844 44.752C39.1697 44.6453 39.3084 44.5493 39.5004 44.464C39.6924 44.3573 39.8844 44.304 40.0764 44.304C40.311 44.304 40.5137 44.3893 40.6844 44.56C40.8764 44.7307 40.9937 45.0613 41.0364 45.552C41.079 46.0213 41.0897 46.4907 41.0684 46.96C41.047 47.4293 41.1537 47.856 41.3884 48.24C41.623 48.6027 42.0177 48.784 42.5724 48.784C44.023 48.784 44.7484 46.9067 44.7484 43.152V42.512C44.7484 39.568 43.7457 38.096 41.7404 38.096C41.3564 38.096 41.1644 37.8507 41.1644 37.36C41.1644 37.04 41.2497 36.8373 41.4204 36.752C41.6124 36.6453 41.8577 36.592 42.1564 36.592C42.455 36.592 42.6684 36.56 42.7964 36.496C43.095 36.3253 43.3404 36.144 43.5324 35.952C43.7244 35.7387 43.927 35.2693 44.1404 34.544C44.3537 33.7973 44.4604 32.848 44.4604 31.696C44.4604 30.9067 44.3324 30.224 44.0764 29.648C43.8417 29.072 43.4577 28.784 42.9244 28.784C42.3484 28.784 41.9324 29.072 41.6764 29.648C41.4204 30.2027 41.2924 30.7893 41.2924 31.408C41.2924 31.6 41.1324 31.7813 40.8124 31.952C40.4924 32.1013 40.215 32.176 39.9804 32.176C39.8097 32.176 39.6817 32.112 39.5964 31.984Z" fill="black"/>
<path d="M383.686 74.0947C380.921 76.4627 381.693 81.7688 382.759 85.4697C384.656 92.0613 390.916 100.314 396.529 96.3726C401.452 92.9157 399.427 88.2099 395.095 84.0358C388.985 78.1467 380.226 84.8462 377.795 92.9772C375.421 100.917 378.096 115.755 385.774 112.639C390.117 110.876 391.554 110.779 391.297 106.1C390.869 98.3353 376.21 98.4101 370.625 103.821C364.754 109.51 369.153 117.833 376.244 122.521" stroke="white"/>
<defs>
<clipPath id="clip0_126_297">
<rect width="65" height="60" fill="white" transform="translate(8 9)"/>
</clipPath>
<clipPath id="clip1_126_297">
<rect width="41" height="36" fill="white" transform="translate(31.6183 65.6298) rotate(-109.4)"/>
</clipPath>
</defs>
</svg>
