<svg width="1440" height="669" viewBox="0 0 1440 669" fill="none" xmlns="http://www.w3.org/2000/svg">
<path d="M1.62721e-05 14.6382C32.2049 4.95331 87.2406 -6.73119 152.356 4.93839C249.413 22.3308 313.267 81.6338 338.485 105.667C423.219 186.406 426.812 186.478 470.5 189C529.176 192.387 536.067 139.243 625.184 116.113C704.784 95.4522 827 133.5 873.5 181C969.412 295.957 1007.83 320.107 1077.5 323.591C1129.55 326.195 1155.34 320.983 1171 310.5C1209.78 284.52 1209.65 284.414 1250.5 263.5C1273.47 251.741 1302.45 226.586 1343.43 236.241C1391.1 247.47 1427.42 296.081 1440.62 356.742C1440.87 460.955 1441.13 565.16 1441.38 669.373C960.794 669.373 480.206 669.373 -0.375244 669.373C-0.247656 451.128 -0.127572 232.883 1.62721e-05 14.6382Z" fill="#64816D"/>
<path d="M167.623 105.405L162.479 126.469" stroke="white" stroke-width="0.5" stroke-miterlimit="10"/>
<path d="M127.17 120.083L145.91 133.644" stroke="white" stroke-width="0.5" stroke-miterlimit="10"/>
<path d="M141.414 101L153.492 131.792" stroke="white" stroke-width="0.5" stroke-miterlimit="10"/>
<path d="M310 468.365C312.221 474.229 316.893 478.205 321.288 477.992C328.093 477.665 331.149 467.444 331.371 461.852C331.443 460.006 331.539 457.616 330.146 456.716C327.178 454.803 318.165 460.094 318.266 464.702C318.383 469.993 330.578 477.184 340.023 473.517C349.762 469.738 353.339 455.678 350.606 453.434C348.18 451.438 338.26 456.708 338.306 461.437C338.357 466.988 352.167 475.305 361.743 470.19C369.286 466.159 369.958 456.05 370 455.217" stroke="white" stroke-miterlimit="10"/>
<path d="M721.424 252.931C715.788 262.041 705.303 265.988 696.934 262.996C686.179 259.154 680.933 244.567 685.339 238.732C688.784 234.173 698.976 233.837 701.205 237.471C704.695 243.156 692.034 264.026 679.38 261.773C671.252 260.325 663.679 249.424 665.195 235.919" stroke="white" stroke-miterlimit="10"/>
<path d="M68.4839 347.222C56.4621 346.763 47.1387 338.905 45.8584 329.323C44.2101 317.009 56.1574 304.153 64.264 305.204C70.5993 306.029 76.1506 315.554 73.6463 319.635C69.729 326.023 42.3181 325.21 38.1043 311.945C35.3976 303.424 42.4574 290.337 56.7792 284.504" stroke="white" stroke-miterlimit="10"/>
<path d="M1307.03 542.53C1275.54 538.889 1258.05 510.252 1252.24 500.746C1232.02 467.64 1227.26 416.463 1249.24 403.002C1263.23 394.437 1288.15 401.1 1302.53 413.448C1316.68 425.603 1318.89 441.772 1325.8 441.055C1332.43 440.369 1331.54 425.334 1343.06 410.464C1352.55 398.22 1371.01 385.364 1382.08 389.572C1401 396.757 1407.97 457.373 1380.58 499.254C1376.83 504.999 1348.26 547.298 1307.03 542.53Z" stroke="white" stroke-miterlimit="10"/>
<path d="M79.1799 595.505C79.1799 595.505 74.8269 588.238 74.5642 587.798C71.9599 583.44 65.9257 570.196 65.6706 554.468C65.4379 540.12 70.0011 522.444 74.6768 522.384C80.9136 522.302 86.4 553.55 86.6852 555.214C90.3702 576.703 88.3438 594.401 93.4398 595.505C94.5356 595.744 95.5263 595.117 96.2318 594.647C107.152 587.38 113.149 576.292 119.708 570.137C130.636 559.892 147.988 558.773 149.729 561.929C150.855 563.974 145.744 568.786 135.469 578.344C115.948 596.498 109.906 597.677 109.201 604.459C108.488 611.294 114.357 612.659 123.461 632.066C127.889 641.512 130.913 647.944 128.714 649.973C125.397 653.033 111.092 645.25 103.197 635.051C101.786 633.23 100.817 631.641 100.63 631.335C94.2654 620.829 95.2336 611.197 94.1904 611.174C93.0195 611.152 92.997 623.224 88.9367 637.289C86.3399 646.295 83.2177 657.114 78.4294 657.435C72.3277 657.845 62.6235 641.244 66.4211 628.335C69.1455 619.098 77.5363 615.972 76.1779 612.667C74.2865 608.063 58.3305 614.92 39.4023 608.936C28.152 605.377 17.3445 597.759 18.3878 594.013C19.4085 590.342 31.6945 590.708 42.4044 591.029C61.0774 591.581 79.1799 595.505 79.1799 595.505Z" stroke="white" stroke-miterlimit="10"/>
<path d="M369.04 235.005C367.967 235.243 370.811 243.988 366.991 247.331C363.719 250.196 357.129 247.689 357.002 248.286C356.882 248.86 363.396 249.151 368.079 253.434C373.1 258.03 373.438 264.88 374.579 264.686C375.69 264.492 373.716 258.269 376.988 253.792C380.673 248.748 388.989 248.733 388.906 248.286C388.831 247.883 382.354 250.509 377.348 247.928C371.044 244.682 370.151 234.758 369.04 235.005Z" stroke="white" stroke-miterlimit="10"/>
<path d="M348.165 257.007C346.551 257.365 350.837 270.572 345.08 275.608C340.134 279.936 330.198 276.153 330.002 277.056C329.822 277.921 339.654 278.369 346.717 284.823C354.297 291.754 354.807 302.096 356.526 301.797C358.199 301.506 355.227 292.113 360.158 285.36C365.72 277.749 378.268 277.72 378.141 277.056C378.028 276.444 368.256 280.413 360.699 276.511C351.182 271.601 349.839 256.634 348.165 257.007Z" stroke="white" stroke-miterlimit="10"/>
</svg>
