<svg width="448" height="207" viewBox="0 0 448 207" fill="none" xmlns="http://www.w3.org/2000/svg">
<rect width="448" height="207" rx="9" fill="#E48185"/>
<g clip-path="url(#clip0_126_296)">
<path d="M60.4 27.1001C60.3915 27.0958 60.3787 27.0872 60.3702 27.0829C60.3787 27.0915 60.3915 27.0958 60.4 27.1001Z" fill="white"/>
<path d="M61.8994 26.8107C61.9037 26.815 61.908 26.815 61.9123 26.8193C61.908 26.815 61.9037 26.8107 61.8994 26.8107Z" fill="white"/>
<path d="M21.2275 50.3065C21.211 50.3188 21.1987 50.3271 21.1822 50.3395C21.1987 50.3271 21.2152 50.3147 21.2275 50.3065Z" fill="white"/>
<path d="M22.9052 52.5764C22.9052 52.5813 22.9052 52.5813 22.9052 52.5764V52.5715C22.9101 52.5764 22.9052 52.5764 22.9052 52.5764Z" fill="white"/>
<path d="M19.183 49.2874C19.1873 49.2917 19.1958 49.2917 19.2001 49.296C19.1958 49.2917 19.1873 49.2874 19.183 49.2874Z" fill="white"/>
<path d="M69.3809 38.3378C69.3438 36.6917 69.0758 35.029 68.7131 33.42C68.7502 32.9291 68.7296 32.3391 68.338 31.9925C67.7692 30.0864 66.9819 28.2423 65.9926 26.5136C66.648 25.5152 67.4518 23.9928 66.4419 22.9655C65.704 22.458 64.5746 23.0563 64.1418 23.737C62.662 21.7938 60.9143 20.0569 58.9481 18.6088C59.3273 15.1638 55.9761 13.1422 56.2811 16.8718C55.3743 16.3603 54.4303 15.9023 53.4658 15.5021C53.5359 15.0235 52.8269 14.7059 52.6043 15.1638C51.9035 14.8998 51.1946 14.6687 50.4732 14.4707C50.4526 14.1406 49.8673 13.9426 49.7106 14.2727C39.0758 11.8509 26.7428 15.6011 20.4402 24.8056C20.1888 24.8138 20.0857 25.0737 20.1022 25.2924C19.7106 25.8741 19.3438 26.4723 19.0016 27.0829C18.3998 26.988 17.9588 27.6812 18.4534 28.1185C18.0082 29.0138 17.6125 29.9297 17.2704 30.8703C16.413 30.7259 15.939 31.9183 16.8046 32.2813C16.4666 33.387 16.2152 34.5133 16.042 35.6561C11.7923 33.4406 12.7609 37.6406 15.7494 38.6968C15.704 39.9262 15.7535 41.1557 15.8813 42.381C15.0033 42.2779 14.723 43.0741 15.094 43.7673C15.3495 44.1881 15.8112 44.4397 16.2275 44.6749C16.4913 45.9993 16.85 47.3071 17.3199 48.5737C16.6068 49.1348 17.427 49.8485 17.9629 50.1497C20.0322 54.8159 23.54 58.8095 27.8599 61.516C27.7321 62.0936 28.4617 62.5309 28.911 62.1431C29.5375 62.4979 30.1805 62.828 30.8359 63.1291C30.8607 63.5211 31.3759 63.7191 31.681 63.4963C32.493 63.8346 33.3215 64.1317 34.1624 64.3875C34.249 64.569 34.5004 64.6515 34.6694 64.5319C52.1467 68.9588 69.9951 57.0933 69.3809 38.3378ZM67.0107 48.4953C66.8706 49.0234 66.2317 49.1018 65.77 49.0234C66.1904 48.846 66.5697 48.5819 66.9613 48.3468C67.0231 48.3715 67.019 48.4334 67.0107 48.4953ZM51.3471 62.8775C47.1014 64.8248 42.2745 64.9238 37.7857 63.8264C44.5293 65.1136 51.7634 63.4592 57.2622 59.3418C55.465 60.7899 53.4658 61.974 51.3471 62.8775ZM40.3537 64.3751C40.3454 64.3751 40.3413 64.3751 40.3331 64.371C40.3372 64.3751 40.3454 64.3751 40.3537 64.3751ZM26.6026 59.2386C26.4419 59.2345 26.2523 59.218 26.1492 59.0818C26.4625 59.1644 26.7923 59.1726 27.1138 59.1644C27.122 59.1726 27.1303 59.1767 27.1385 59.185C26.9613 59.2304 26.7799 59.2386 26.6026 59.2386ZM22.2127 54.0196C21.6397 54.0279 20.8607 53.9866 20.5144 53.475C21.1039 53.7308 21.7263 53.8463 22.3446 53.9949C22.3487 53.999 22.3528 54.0031 22.3528 54.0072C22.3075 54.0114 22.258 54.0155 22.2127 54.0196ZM21.3306 53.0872C21.4089 53.1202 21.4872 53.1491 21.5573 53.1986C21.244 53.1078 20.9225 53.0501 20.5927 53.0418C20.8195 52.9222 21.0998 53.0171 21.3306 53.0872ZM14.488 36.7164C14.1995 36.3946 13.878 36.0976 13.6183 35.7469C13.6265 35.7304 13.6307 35.7139 13.6389 35.6974C14.4097 36.2255 15.1393 36.8113 15.8277 37.4384C15.8236 37.5003 15.8153 37.5663 15.8112 37.6282C15.366 37.3353 14.8879 37.0754 14.488 36.7164ZM57.6084 17.6722C57.5919 17.1936 57.5342 16.7151 57.5466 16.2365C57.662 16.7563 57.765 17.2803 57.8269 17.8125C57.7568 17.7671 57.6826 17.7217 57.6084 17.6722ZM57.9547 18.5386C58.0453 18.9058 58.136 19.2812 58.1278 19.6608C57.9299 19.24 57.7857 18.7903 57.662 18.3406C57.7609 18.4066 57.8599 18.4726 57.9547 18.5386ZM64.1047 25.6967C64.1129 25.3749 64.15 25.0531 64.2407 24.7437C64.3644 24.917 64.488 25.0944 64.6076 25.2718C64.3891 25.8287 64.3232 26.4228 64.1789 27.0004C64.1047 26.5714 64.0965 26.1299 64.1047 25.6967ZM65.8524 23.5926C65.8937 23.5555 65.9308 23.5183 65.9678 23.4771C65.8566 24.1413 65.5144 24.7148 65.2712 25.3336C65.1929 25.2099 65.1146 25.0902 65.0322 24.9706C65.2589 24.4879 65.4979 23.9887 65.8524 23.5926ZM67.596 32.9456C67.6331 32.8919 67.6744 32.8424 67.7197 32.7929C67.6208 33.1353 67.4724 33.4613 67.3075 33.7748C67.3281 33.651 67.3611 33.5314 67.4023 33.4118C67.3982 33.4324 67.3899 33.4489 67.3858 33.4695C67.4394 33.288 67.5054 33.1106 67.596 32.9456ZM68.6307 35.8748C68.6966 36.374 68.7461 36.8732 68.7832 37.3724C68.0453 37.4178 67.5342 38.1398 67.3611 38.8082C67.3405 37.7726 67.2498 36.7412 67.1055 35.718C67.1426 35.718 67.1756 35.7056 67.2127 35.6891C67.2127 35.6891 67.2127 35.6891 67.2086 35.6891C67.798 35.4746 67.9959 34.7815 68.3669 34.3235C68.4699 34.8351 68.5565 35.355 68.6307 35.8748ZM63.0866 51.8536C63.0453 51.7133 62.9835 51.5483 63.0618 51.408C63.066 51.5607 63.1484 51.6886 63.2226 51.8206C63.1937 51.866 63.1649 51.9114 63.1401 51.9568C63.1195 51.9238 63.1031 51.8908 63.0866 51.8536ZM65.0074 48.2519C65.0033 48.2684 64.9951 48.2808 64.9909 48.2973C64.958 48.2271 64.925 48.157 64.8879 48.0827C64.892 48.091 64.8961 48.0951 64.8961 48.1034C64.892 48.0951 64.8879 48.0869 64.8838 48.0745C64.8838 48.0745 64.8838 48.0786 64.8879 48.0786C64.756 47.7774 64.6735 47.4556 64.5952 47.138C64.9332 47.3937 65.0322 47.8476 65.0074 48.2519ZM64.3438 47.204C64.4551 47.567 64.5458 47.9383 64.7189 48.2766C64.5169 47.9548 64.3438 47.5918 64.3438 47.204ZM66.7098 39.8272C66.7139 39.8355 66.7139 39.8396 66.7181 39.8478C65.8937 39.4477 64.7848 38.8783 64.6529 37.8799C65.2259 38.5895 65.8566 39.3363 66.6768 39.7571C66.6851 39.7818 66.6974 39.8066 66.7098 39.8272ZM65.2671 37.7355C65.8978 38.1439 66.2152 38.8247 66.5367 39.4765C65.9678 38.8907 65.3743 38.3255 64.9167 37.6447C65.0363 37.6612 65.1599 37.6736 65.2671 37.7355ZM59.4427 25.1191C60.7288 25.2759 61.817 26.2248 62.6002 27.2108C62.5383 27.1737 62.4765 27.1366 62.4147 27.1036C62.4147 27.1036 62.4147 27.1036 62.4188 27.1036C62.2374 27.0004 62.0561 26.8932 61.8747 26.7941C61.8829 26.7983 61.8912 26.8024 61.8994 26.8065C60.8648 26.2165 59.8425 25.5152 58.6307 25.3708C58.8285 25.1604 59.1624 25.1356 59.4427 25.1191ZM62.4765 27.7843C61.1616 27.2232 59.7642 26.6786 58.676 25.7256C58.6801 25.7297 58.6843 25.7338 58.6884 25.738C58.643 25.6967 58.5977 25.6513 58.5606 25.6059C59.0841 25.6596 59.5581 25.8906 60.0322 26.1052C60.028 26.101 60.0198 26.101 60.0157 26.0969C60.9472 26.6415 61.8623 27.2108 62.8104 27.7307C62.798 27.7224 62.7857 27.7183 62.7733 27.71C62.9011 27.7761 63.0124 27.8709 63.1525 27.9122C63.1566 27.9163 63.1608 27.9205 63.1649 27.9246C62.9258 27.8998 62.6991 27.8709 62.4765 27.7843ZM58.9975 26.2413C59.6694 26.7735 60.4691 27.1159 61.2193 27.5326C60.3042 27.215 59.2696 26.8519 58.7172 26.0061C58.8079 26.0886 58.8986 26.167 58.9975 26.2413ZM53.1731 19.7351C54.4386 19.5948 55.6917 19.8753 56.85 20.3663C55.0115 19.9826 53.1566 20.0816 51.3017 20.2508C51.8417 19.8671 52.526 19.7351 53.1731 19.7351ZM51.7304 20.6262C53.6018 20.3622 55.4814 20.3292 57.3487 20.6551C55.4773 20.8036 53.5194 21.1997 51.6851 20.6345C51.6974 20.6304 51.7139 20.6262 51.7304 20.6262ZM54.2819 19.3926C53.2803 19.3143 52.1838 19.3803 51.3141 19.9331C52.1385 18.9429 53.5194 18.9512 54.6199 19.4215C54.5087 19.4133 54.3974 19.4091 54.2819 19.3926ZM51.2976 21.014C53.4328 21.6081 55.7164 21.1708 57.8557 20.8119C57.9217 20.8531 57.9918 20.8985 58.066 20.9192C58.0783 20.9357 58.0866 20.9563 58.1031 20.9687C56.3718 21.4472 52.7527 22.2146 51.2894 21.0099C51.2894 21.0099 51.2935 21.014 51.2976 21.014ZM65.9555 33.5314C65.9307 33.4984 65.9019 33.4695 65.8772 33.4406C65.8854 33.4489 65.8937 33.4613 65.9019 33.4695C65.5103 33.0074 64.9951 32.6114 64.4221 32.4051C65.1022 32.2937 65.6134 33.0322 65.9555 33.5314ZM64.1665 32.5165C65.1723 32.863 66.042 33.845 66.3141 34.8723C65.6587 34.0265 65.0692 33.0281 63.9975 32.665C64.0429 32.6072 64.1047 32.5577 64.1665 32.5165ZM63.9275 32.8094C64.7312 33.0941 65.3001 33.8202 65.6834 34.5587C65.1063 34.0595 63.9275 33.6758 63.9275 32.8094ZM65.0981 43.3836C65.0775 43.3464 65.061 43.3052 65.0445 43.268C65.0445 43.268 65.0445 43.2722 65.0486 43.2722C65.0445 43.2598 65.0404 43.2515 65.0363 43.2392C65.0363 43.2433 65.0363 43.2433 65.0404 43.2474C65.0033 43.1608 64.958 43.0783 64.9332 42.9916C65.0651 43.2144 65.2424 43.3877 65.4196 43.5775C65.4979 43.6971 65.6092 43.7879 65.6958 43.8993C65.6917 43.8952 65.6917 43.891 65.6875 43.8869C65.7453 43.9653 65.8071 44.0396 65.8772 44.1056C65.601 43.8869 65.2836 43.6889 65.0981 43.3836ZM65.8772 43.8663C65.568 43.5156 65.2547 43.169 64.9538 42.8183C65.4856 42.9174 65.7824 43.4702 65.9472 43.9364C65.9225 43.9158 65.8978 43.891 65.8772 43.8663ZM64.657 43.0741C64.7972 43.4578 65.0157 43.8044 65.366 44.0231C65.0198 43.8209 64.6859 43.495 64.657 43.0741ZM68.8203 37.9129C68.3421 38.3048 67.9258 38.7545 67.5631 39.2537C67.7733 38.6431 68.0866 37.8469 68.812 37.7437C68.812 37.8015 68.8162 37.8593 68.8203 37.9129ZM68.136 33.5025C67.9093 34.0182 67.5837 34.4968 67.2745 34.9671C67.2498 34.8062 67.2498 34.6453 67.2539 34.4803C67.6002 34.0265 67.8846 33.5232 68.0618 32.9786C68.0907 33.1518 68.1896 33.3251 68.136 33.5025ZM64.4633 27.4873C64.7065 27.0458 64.9786 26.6209 65.1682 26.1505C65.2176 26.233 65.2671 26.3156 65.3166 26.3981C65.0033 26.7405 64.7354 27.1159 64.4633 27.4873ZM65.0528 25.9649C65.0404 25.9979 65.0322 26.0309 65.0198 26.0639C65.0239 26.0556 65.0239 26.0474 65.028 26.0433C64.8673 26.5342 64.6282 26.9963 64.3809 27.4543C64.3685 27.4295 64.3561 27.4047 64.3438 27.38C64.4839 26.7694 64.5911 26.1505 64.7931 25.5564C64.8796 25.6926 64.9662 25.8287 65.0528 25.9649ZM58.3339 19.1616C58.3174 19.0255 58.2885 18.8893 58.2638 18.7532C58.2968 18.7779 58.3339 18.8027 58.3669 18.8274C58.3545 18.9388 58.3421 19.0502 58.3339 19.1616ZM57.2168 18.0518C57.2539 18.5634 57.4806 19.0378 57.6579 19.5123C57.596 19.4628 57.5342 19.4133 57.4683 19.3679C57.2951 18.8852 57.1014 18.4107 56.9983 17.9115C57.0725 17.9569 57.1426 18.0023 57.2127 18.0477C57.2168 18.0518 57.2168 18.0518 57.2168 18.0518ZM27.6331 19.9496C35.8937 13.4063 48.3421 13.2619 56.7675 19.5824C54.8879 18.8934 52.2993 17.829 50.8648 19.8506C50.2259 20.6345 50.906 21.5463 51.7057 21.8433C53.9893 22.5117 56.4996 21.8846 58.6966 21.1502C60.634 22.9201 62.2663 25.0201 63.5523 27.3057C57.9423 20.7541 54.4221 28.0772 64.0346 28.5269C64.0882 28.5641 64.1542 28.5806 64.2201 28.5764C64.8137 29.7811 65.3001 31.0354 65.6875 32.3185C64.9332 31.4356 63.1896 31.8853 63.3998 33.1683C63.8945 34.4019 65.3702 34.9878 66.4501 35.6355C66.615 36.6834 66.7222 37.7396 66.7428 38.7999C64.5169 35.2064 62.6373 38.6555 66.7304 40.1655C66.6851 41.3125 66.5655 42.4594 66.3512 43.5857C64.3809 40.6235 62.9918 44.0849 66.0956 44.8028C65.8937 45.6692 65.6422 46.5232 65.3413 47.3607C64.2778 45.5949 63.0783 47.1503 64.6653 49.0523C64.3355 49.7866 63.9728 50.5086 63.5771 51.21C62.7362 50.3642 62.324 51.7464 62.9093 52.324C61.1162 55.1294 58.742 57.5718 55.9761 59.4284C55.9678 59.4202 55.9596 59.416 55.9472 59.4119C55.8895 59.4532 55.8277 59.4944 55.7617 59.5274C55.7741 59.5357 55.7906 59.5398 55.8071 59.5398C48.305 64.6639 38.1937 64.6928 30.3372 60.4144C28.4905 59.35 26.7799 58.0422 25.2795 56.5322C25.3083 56.5363 25.3372 56.5404 25.366 56.5487C25.4114 56.5569 25.4608 56.5652 25.5062 56.5734C25.5268 56.5775 25.5474 56.5817 25.568 56.5858C25.6752 56.6064 25.7824 56.6229 25.8895 56.6436C26.817 55.0304 24.6117 53.8175 24.7477 55.9463C24.2119 55.3357 23.7007 54.7045 23.2308 54.0444C25.1764 52.1259 22.662 50.0342 22.258 52.5839C21.8211 51.8866 21.4254 51.1688 21.0627 50.4303C23.8986 48.8625 21.1204 45.203 20.1599 48.3633C19.7725 47.3484 19.4468 46.3087 19.1913 45.2566C22.7939 44.1303 20.8895 38.9361 18.7214 42.7812C18.5771 41.7333 18.5029 40.6771 18.4864 39.6168C18.7585 39.5797 19.0017 39.4477 19.2613 39.3775C19.249 39.3816 19.2407 39.3858 19.2284 39.3858C19.2448 39.3816 19.2655 39.3734 19.2819 39.3693C19.2778 39.3693 19.2737 39.3734 19.2696 39.3734C20.6175 38.9608 21.953 37.5251 21.7964 36.0522C21.2852 34.4267 19.2737 35.6396 18.6265 36.5638C19.3232 30.1566 22.5589 23.9515 27.6331 19.9496ZM26.8829 59.02C26.7181 59.0323 26.5573 58.9952 26.3883 58.9952C26.2852 58.9993 26.1863 58.9704 26.0915 58.9292C26.3718 58.9044 26.6727 58.9086 26.9365 59.0158C26.92 59.02 26.8994 59.02 26.8829 59.02ZM21.6974 53.7143C21.2523 53.6731 20.8401 53.4626 20.4196 53.3265C20.3949 53.2894 20.3743 53.2564 20.3495 53.2192C20.3578 53.211 20.3702 53.1986 20.3825 53.1903C20.9967 53.2481 21.85 53.2357 22.2127 53.8092C22.0437 53.7679 21.8747 53.7267 21.6974 53.7143ZM19.3067 49.7C19.1995 49.6753 19.0882 49.6546 18.981 49.634C18.9852 49.634 18.9893 49.634 18.9975 49.6381C18.7832 49.5886 18.5688 49.5309 18.3669 49.4442C18.3133 49.3163 18.2597 49.1843 18.2102 49.0523C18.7543 49.2049 19.2613 49.469 19.7354 49.7743C19.587 49.7536 19.4468 49.7289 19.3067 49.7ZM16.7593 43.9158C16.7387 43.792 16.7181 43.6682 16.6974 43.5403C17.1797 43.7879 17.6331 44.0849 18.0453 44.4439C18.0577 44.5058 18.0742 44.5676 18.0866 44.6295C17.6125 44.448 17.1756 44.2005 16.7593 43.9158ZM21.413 36.6504C21.0503 37.7066 20.2135 38.6803 19.1088 38.9649C20.1805 38.4451 20.9637 37.4261 21.4419 36.3534C21.4378 36.4524 21.4295 36.5514 21.413 36.6504ZM20.5062 42.5172C20.5515 42.3769 20.6175 42.2407 20.6381 42.0922C21.211 43.0576 20.3289 44.25 19.4427 44.6667C19.9909 44.0602 20.2176 43.2639 20.5062 42.5172ZM20.4237 41.8653C20.0775 42.8679 19.8178 43.9653 19.08 44.7863C18.8285 43.9447 19.7683 42.4017 20.399 41.8406C20.4114 41.8488 20.4196 41.8529 20.432 41.8612C20.4279 41.8612 20.4279 41.8653 20.4237 41.8653ZM20.1228 41.7952C19.6241 42.2408 19.4427 42.8885 19.1748 43.4785C19.0882 43.6724 18.9975 43.8663 18.9357 44.0726C18.7049 43.2268 19.3891 42.1871 20.1228 41.7952ZM16.6974 37.719C16.6274 37.6654 16.5532 37.6158 16.479 37.5622C16.4831 37.5003 16.4913 37.4384 16.4955 37.3766C16.751 37.6488 17.0396 37.8881 17.2745 38.1811C17.0849 38.0243 16.8912 37.8716 16.6974 37.719ZM20.4196 36.9929C20.737 36.6381 21.0709 36.3039 21.3265 35.8996C21.3636 35.9408 21.3801 35.9986 21.4007 36.0522C20.8978 37.327 19.8384 38.573 18.4864 38.9691C18.4864 38.9361 18.4864 38.9031 18.4864 38.8701C19.2448 38.3832 19.8838 37.7149 20.4196 36.9929ZM21.0709 35.8748C20.2754 36.8608 19.5334 37.9376 18.4864 38.6761C18.9316 37.4838 19.9456 36.4359 20.9678 35.6809C21.0338 35.7015 21.1039 35.718 21.1616 35.7593C21.1327 35.7964 21.0998 35.8335 21.0709 35.8748ZM20.5309 35.7139C19.8054 36.3699 19.0676 37.0259 18.5524 37.8716C18.5565 37.8675 18.5606 37.8593 18.5647 37.8551C18.5565 37.8675 18.5524 37.8758 18.5441 37.8881C18.5441 37.884 18.5482 37.884 18.5482 37.8799C18.5359 37.8964 18.5276 37.917 18.5153 37.9335C18.4823 36.8443 19.6241 36.044 20.5556 35.6933C20.5474 35.6974 20.5392 35.7056 20.5309 35.7139ZM16.4542 37.9335C16.512 37.9789 16.5655 38.0243 16.6191 38.0697C16.5614 38.0367 16.5078 38.0078 16.4501 37.9748C16.4501 37.9665 16.4501 37.95 16.4542 37.9335ZM16.6274 43.07C16.6232 43.0411 16.6191 43.0164 16.615 42.9875C17.1014 43.2433 17.5425 43.6022 17.8516 44.0561C17.4847 43.7343 17.0643 43.4867 16.648 43.2309C16.6439 43.1773 16.6356 43.1236 16.6274 43.07ZM20.4815 49.0647C20.5062 48.6108 20.5515 48.058 20.9266 47.7527C20.6917 48.3179 20.7247 48.9533 20.6422 49.5515C20.5845 49.3865 20.4691 49.2379 20.4815 49.0647ZM21.0256 49.9145C21.0008 49.9352 20.972 49.9476 20.9472 49.9641C21.3842 49.3287 21.5449 48.5201 21.5985 47.7568C22.1962 48.3715 21.7758 49.5474 21.0503 49.8939C21.0668 49.8815 21.0791 49.8692 21.0956 49.8609C21.0709 49.8774 21.0462 49.898 21.0256 49.9145ZM21.3677 48.0992C21.2688 48.7181 21.1657 49.3741 20.803 49.898C20.8236 49.1389 20.8524 48.2313 21.31 47.5877C21.3347 47.6 21.3553 47.6083 21.3801 47.6207C21.3759 47.7816 21.38 47.9425 21.3677 48.0992ZM22.7609 53.3554C22.6125 52.8933 22.5177 52.2992 22.9052 51.9279C22.8434 52.0599 22.8392 52.2126 22.8269 52.357C22.8269 52.3528 22.8269 52.3487 22.8269 52.3446C22.8269 52.3528 22.8269 52.3611 22.8269 52.3693C22.8269 52.3652 22.8269 52.3611 22.8269 52.357C22.8351 52.7283 22.7568 53.1285 22.864 53.4874C22.8599 53.4957 22.8599 53.4998 22.8557 53.508C22.8269 53.4585 22.7774 53.4131 22.7609 53.3554ZM22.8928 52.8232C22.8969 52.7406 22.9011 52.6581 22.9052 52.5797C22.9052 52.5797 22.9052 52.5797 22.9052 52.5839C22.9052 52.5797 22.9052 52.5756 22.9052 52.5715V52.5756C22.9093 52.2951 22.9918 52.031 23.1319 51.7917C23.136 51.7917 23.136 51.7917 23.1401 51.7917C23.136 52.3363 23.0783 52.9057 22.8928 53.4173C22.8599 53.3059 22.8681 53.1862 22.8681 53.0707C22.8805 52.9882 22.8887 52.9057 22.8928 52.8232ZM23.0495 53.376L23.0453 53.3801C23.202 52.9346 23.2638 52.4519 23.305 51.9856C23.3092 51.9526 23.3092 51.9155 23.3133 51.8825C23.6925 52.3446 23.3627 52.9676 23.0495 53.376ZM25.5886 56.0453C25.5927 55.7442 25.568 55.443 25.432 55.1666C25.9266 55.41 25.7947 55.9917 25.5804 56.3878C25.5845 56.2722 25.5927 56.1609 25.5886 56.0453ZM25.4073 56.1155C25.3949 56.2434 25.3908 56.3754 25.3702 56.5033C25.2795 56.0866 25.2836 55.6451 25.3166 55.2202C25.3784 55.3646 25.399 55.5214 25.4155 55.674C25.4155 55.6781 25.4155 55.6864 25.4155 55.6905C25.4155 55.6988 25.4155 55.7112 25.4155 55.7194C25.4155 55.7112 25.4155 55.7029 25.4155 55.6988C25.4237 55.8349 25.4155 55.9752 25.4073 56.1155ZM25.1929 55.7235C25.197 55.7895 25.197 55.8555 25.2012 55.9216C25.2012 55.9216 25.2012 55.9216 25.2012 55.9257C25.2012 55.9298 25.2012 55.9298 25.2012 55.9339V55.9381C25.2012 55.9381 25.2012 55.9381 25.2012 55.9339V55.9381C25.2012 55.9628 25.2053 55.9917 25.2053 56.0164C25.2053 56.0123 25.2053 56.0082 25.2053 56.0041C25.2053 56.0164 25.2053 56.0247 25.2053 56.0371C25.2053 56.0412 25.2053 56.0412 25.2053 56.0453C25.2053 56.0495 25.2053 56.0495 25.2053 56.0536C25.2135 56.1691 25.2176 56.2846 25.2383 56.4001C25.0981 56.0536 24.9621 55.5791 25.197 55.2449C25.1888 55.3976 25.1888 55.5585 25.1929 55.7235ZM15.8566 37.1084C15.2506 36.6009 14.6158 36.1306 13.9563 35.6933C14.6818 35.9161 15.2712 36.4111 15.8854 36.8402C15.8772 36.931 15.8689 37.0176 15.8566 37.1084ZM16.4295 38.3131C16.7716 38.5111 17.1261 38.6968 17.493 38.8371C17.493 38.8577 17.493 38.8783 17.493 38.8989C17.1303 38.804 16.7634 38.7133 16.4171 38.5606C16.4213 38.4781 16.4254 38.3956 16.4295 38.3131ZM16.8046 39.1052C17.0313 39.1712 17.2704 39.2084 17.493 39.2909C17.4889 40.6647 17.6167 42.0386 17.8475 43.3918C17.4724 43.037 17.0437 42.7235 16.5655 42.5254C16.4336 41.3455 16.3759 40.1573 16.4089 38.9732C16.5367 39.0227 16.6686 39.0681 16.8046 39.1052ZM16.0049 43.3712C15.9019 43.2928 15.8236 43.1855 15.7494 43.0824C15.8277 43.103 15.906 43.136 15.9802 43.169C15.9885 43.2392 15.9967 43.3052 16.0049 43.3712ZM16.8211 44.25C17.2374 44.4851 17.6785 44.6914 18.1319 44.8399C18.1402 44.8771 18.1484 44.9142 18.1566 44.9513C17.6991 44.8729 17.2622 44.7162 16.8623 44.4769C16.8458 44.4026 16.8335 44.3242 16.8211 44.25ZM19.3809 49.1513C19.5169 49.3163 19.6983 49.4566 19.7848 49.6588C19.2737 49.3122 18.7172 49.011 18.1195 48.8377C18.0989 48.7882 18.0824 48.7387 18.0618 48.6851C18.5482 48.6315 19.0387 48.7924 19.3809 49.1513ZM18.4575 49.6629C18.9439 49.8362 19.4592 49.931 19.9621 50.0383C19.9909 50.0961 20.0157 50.1538 20.0445 50.2116C19.5499 50.1951 19.0594 50.1291 18.5894 49.9723C18.5482 49.8692 18.5029 49.766 18.4575 49.6629ZM26.6933 58.8054C26.5161 58.7683 26.3347 58.7724 26.1533 58.7807C26.2729 58.6775 26.4336 58.6734 26.5779 58.7064C26.615 58.7435 26.6562 58.7724 26.6933 58.8054ZM66.751 48.2973C66.4584 48.4871 66.1698 48.681 65.8607 48.8336C66.1204 48.6026 66.4213 48.2106 66.8005 48.2601C66.784 48.2725 66.7675 48.289 66.751 48.2973ZM67.9588 43.7054C67.9794 43.6971 68 43.693 68.0206 43.6889C68.1401 44.2046 67.3034 44.3861 66.92 44.4521C67.2045 44.1262 67.5878 43.9199 67.9588 43.7054ZM67.7898 43.5568C67.4971 43.7631 67.1756 43.9323 66.9324 44.2005C66.9983 43.825 67.4847 43.5197 67.8516 43.5197C67.831 43.5321 67.8104 43.5445 67.7898 43.5568ZM67.5218 39.6581C67.9011 39.1547 68.3298 38.6638 68.8368 38.2842C68.8409 38.408 68.845 38.5359 68.8491 38.6596C68.4781 39.0557 68.0495 39.4807 67.5218 39.6581ZM66.8912 29.5089C67.2292 30.3175 67.526 31.1426 67.7774 31.9801C67.2168 32.3803 66.8541 32.9538 66.7345 33.6345C66.2399 31.745 65.6175 29.8719 64.723 28.1267C65.0115 27.7224 65.2918 27.3099 65.6257 26.9427C66.0998 27.7719 66.5202 28.6301 66.8912 29.5089ZM66.2935 24.4425C66.2358 24.9912 65.8978 25.4492 65.6422 25.9236C65.5639 25.7957 65.4814 25.6678 65.4031 25.5399C65.6752 24.8839 66.0668 24.2816 66.2069 23.5761C66.3677 23.8401 66.3265 24.1537 66.2935 24.4425ZM64.5045 24.1248C64.7189 23.7081 65.1187 23.4895 65.5556 23.3616C65.263 23.7659 65.0651 24.2445 64.8425 24.69C64.723 24.5168 64.5993 24.3435 64.4757 24.1743C64.4839 24.1619 64.4963 24.1454 64.5045 24.1248ZM61.5161 21.5091C62.3652 22.359 63.1525 23.2749 63.8739 24.2362C63.6224 24.8344 63.5894 25.4904 63.6224 26.1299C62.3034 24.001 60.6669 22.0661 58.7749 20.4241C58.7749 20.0239 58.9275 19.6402 58.9233 19.2359C59.8343 19.9331 60.6999 20.6964 61.5161 21.5091ZM59.1748 19.1864C59.1748 19.1864 59.1707 19.1822 59.1665 19.1822C59.1665 19.1822 59.1707 19.1864 59.1748 19.1864ZM58.0536 16.22C58.404 16.8058 58.3545 17.532 58.3792 18.1921C58.3009 18.1384 58.2267 18.0848 58.1484 18.0312C58.1072 17.3587 58.0289 16.6903 57.9093 16.0261C57.9629 16.088 58.0082 16.154 58.0536 16.22ZM56.8252 17.0781C56.7716 16.5707 56.5985 15.6878 57.122 15.4031C57.0107 16.055 57.1138 16.7316 57.1674 17.3876C57.0643 17.3215 56.9571 17.2597 56.85 17.1936C56.8417 17.1565 56.8293 17.1153 56.8252 17.0781ZM49.7354 14.8255C49.8302 15.0483 50.1352 15.1679 50.3166 14.974C51.0791 15.1803 51.8335 15.4278 52.5754 15.7084C52.7032 15.8528 52.9217 16.0219 53.1195 15.9229C54.2613 16.385 55.366 16.9379 56.4254 17.5608C56.5326 18.0105 56.6439 18.4602 56.8293 18.8811C53.5029 16.418 49.5705 14.776 45.4773 14.1489C46.9159 14.2479 48.3421 14.4831 49.7354 14.8255ZM19.0511 28.3743C19.4798 28.3041 19.7312 27.8008 19.5622 27.4006C19.8384 26.9014 20.1311 26.4063 20.4444 25.9277C20.7741 25.9484 20.9555 25.4987 20.9184 25.2223C23.6472 21.2905 27.5136 18.1591 31.9324 16.3273C23.9604 20.3869 18.0082 28.5269 17.5466 37.5828C17.1921 37.1579 16.9448 36.6628 16.6274 36.2131C16.8087 34.9383 17.0767 33.6799 17.4435 32.4463C17.9464 32.3226 18.0289 31.712 17.8145 31.3077C18.1608 30.301 18.573 29.3232 19.0511 28.3743ZM14.554 35.4334C15.0486 35.5819 15.5556 35.784 15.9761 36.0935C15.9637 36.176 15.9555 36.2585 15.9431 36.341C15.3248 35.9284 14.6694 35.553 13.9398 35.3797C14.15 35.3838 14.352 35.3962 14.554 35.4334ZM15.6958 38.2264C14.8013 37.7644 13.878 37.1043 13.6183 36.0728C14.2036 36.8526 14.9621 37.4426 15.7906 37.9376C15.7824 38.0449 15.7782 38.1522 15.77 38.2595C15.7453 38.2512 15.7205 38.2388 15.6958 38.2264ZM15.9266 42.7812C15.9308 42.806 15.9349 42.8349 15.939 42.8596C15.8772 42.8349 15.8153 42.8142 15.7494 42.7936C15.8071 42.7853 15.8689 42.7812 15.9266 42.7812ZM15.8524 43.8539C15.6628 43.7054 15.4732 43.5321 15.4361 43.2804C15.601 43.5073 15.8359 43.6641 16.075 43.8085C16.0874 43.8828 16.0998 43.9612 16.1121 44.0354C16.0256 43.9777 15.9349 43.9158 15.8524 43.8539ZM16.9777 45.0338C17.3776 45.2236 17.8186 45.302 18.2556 45.3433C18.5276 46.4242 18.878 47.4845 19.2943 48.5201C18.8821 48.2643 18.3957 48.2684 17.9299 48.3262C17.5383 47.2493 17.2168 46.1519 16.9777 45.0338ZM17.5054 49.044C17.4765 49.0234 17.4435 49.011 17.4229 48.9821C17.4353 48.9615 17.4435 48.9409 17.46 48.9244C17.4765 48.9656 17.4889 49.0028 17.5054 49.044ZM17.4312 49.2256C17.4188 49.209 17.4106 49.1925 17.4023 49.176C17.4683 49.2173 17.5342 49.2544 17.6043 49.2874C17.629 49.3493 17.6538 49.4112 17.6785 49.4731C17.5919 49.3906 17.5054 49.3122 17.4312 49.2256ZM18.8244 50.4633C19.2943 50.5953 19.7807 50.6159 20.2671 50.6365C20.6298 51.342 21.0256 52.0269 21.4542 52.6953C21.0091 52.5302 20.4979 52.5302 20.1311 52.8644C19.6447 52.0929 19.216 51.2884 18.8244 50.4633ZM34.9209 63.9584C34.8714 63.946 34.8178 63.9295 34.7683 63.9172C34.7436 63.8676 34.7106 63.8264 34.6653 63.7893C34.5911 63.6077 34.3726 63.6779 34.249 63.7645C33.4287 63.517 32.6249 63.224 31.8335 62.8981C31.7675 62.5681 31.3842 62.3948 31.0998 62.5763C30.4361 62.271 29.7848 61.9409 29.1459 61.582C29.1336 61.1653 28.5606 60.7321 28.1855 61.0127C25.4031 59.2675 22.967 56.9654 21.0668 54.2878C21.5655 54.4528 22.1096 54.4446 22.6208 54.3662C23.0866 54.9644 23.54 55.5667 24.0387 56.1402C23.8656 56.1237 23.6843 56.1567 23.5235 56.2269C23.7543 56.2681 23.9893 56.3094 24.2242 56.3506C24.9538 57.1799 25.7288 57.9638 26.5573 58.694C26.3594 58.661 26.1657 58.628 25.9678 58.5909C25.2795 59.449 26.8335 59.6924 27.4023 59.4036C30.6876 62.0771 34.6364 63.913 38.7955 64.701C37.4847 64.5566 36.1904 64.3008 34.9209 63.9584ZM65.465 51.932C62.7568 56.6271 58.4988 60.4062 53.5111 62.5227C57.7073 60.3361 61.2646 56.9571 63.6884 52.8892C65.0322 53.2357 65.6175 51.6308 64.3149 51.7794C64.6735 51.1069 65.0033 50.4179 65.3001 49.7165C65.7246 49.8238 66.1904 49.8362 66.6109 49.7041C66.2646 50.4674 65.8854 51.21 65.465 51.932ZM67.967 45.9539C67.7898 46.6099 67.5796 47.2617 67.3487 47.9012C66.9695 47.5505 66.4171 47.5546 66.0049 47.8434C66.3059 46.9564 66.5532 46.0488 66.751 45.1287C67.3446 45.1906 67.9629 44.8358 68.3421 44.3944C68.235 44.9183 68.1113 45.4382 67.967 45.9539ZM68.4946 43.594C68.2968 42.9504 67.5425 42.9462 67.0767 43.3011C67.2168 42.3026 67.3075 41.2918 67.3528 40.2852C67.8722 39.9716 68.4328 39.7282 68.8656 39.2702C68.8615 40.7184 68.7461 42.1665 68.4946 43.594Z" fill="white"/>
<path d="M33.7782 28.7233C32.2346 30.1662 31.4742 31.9466 29.9556 35.5056C27.848 40.4453 26.1579 44.406 27.7959 47.2104C28.5904 48.5712 30.0656 49.4804 38.4382 50.8134C49.3908 52.5574 54.868 53.4304 56.403 51.2673C58.3713 48.493 53.4332 44.8929 54.4575 37.0522C55.0274 32.6993 56.8022 31.8644 55.9856 29.8595C53.9534 24.8664 40.0252 22.8821 33.7782 28.7233Z" fill="white"/>
</g>
<path d="M39.6484 104.414C38.2031 104.883 36.6406 105.117 34.9609 105.117C29.1016 105.117 26.1719 102.207 26.1719 96.3867C26.1719 90.8789 29.1016 88.125 34.9609 88.125C36.6406 88.125 38.2031 88.3594 39.6484 88.8281V90.7031C38.2031 90.1562 36.7188 89.8828 35.1953 89.8828C30.625 89.8828 28.3398 92.0508 28.3398 96.3867C28.3398 101.035 30.625 103.359 35.1953 103.359C36.7188 103.359 38.2031 103.086 39.6484 102.539V104.414ZM43 105V92.6953H53.8398V105H51.6719V94.4531H45.168V105H43ZM56.7812 101.285C56.7812 98.7617 58.4453 97.5 61.7734 97.5C62.8438 97.5 63.9141 97.5781 64.9844 97.7344V96.5742C64.9844 95.1602 63.8789 94.4531 61.668 94.4531C60.4023 94.4531 59.1055 94.6484 57.7773 95.0391V93.2812C59.1055 92.8906 60.4023 92.6953 61.668 92.6953C65.3242 92.6953 67.1523 93.9688 67.1523 96.5156V105H65.9336L65.1836 103.781C63.957 104.594 62.6211 105 61.1758 105C58.2461 105 56.7812 103.762 56.7812 101.285ZM61.7734 99.2578C59.8906 99.2578 58.9492 99.9219 58.9492 101.25C58.9492 102.578 59.6914 103.242 61.1758 103.242C62.6758 103.242 63.9453 102.844 64.9844 102.047V99.4922C63.9141 99.3359 62.8438 99.2578 61.7734 99.2578ZM79.9375 104.648C78.9219 104.883 77.8281 105 76.6562 105C72.2812 105 70.0938 102.871 70.0938 98.6133C70.0938 94.668 72.2812 92.6953 76.6562 92.6953C77.8281 92.6953 78.9219 92.8125 79.9375 93.0469V94.8047C78.9219 94.5703 77.7891 94.4531 76.5391 94.4531C73.6875 94.4531 72.2617 95.8398 72.2617 98.6133C72.2617 101.699 73.6875 103.242 76.5391 103.242C77.7891 103.242 78.9219 103.125 79.9375 102.891V104.648ZM87.7773 92.6953C91.2773 92.6953 93.0273 94.4258 93.0273 97.8867C93.0273 98.3789 92.9922 98.9062 92.9219 99.4688H84.2852C84.2852 101.984 85.7539 103.242 88.6914 103.242C90.0898 103.242 91.332 103.086 92.418 102.773V104.531C91.332 104.844 90.0117 105 88.457 105C84.2305 105 82.1172 102.902 82.1172 98.707C82.1172 94.6992 84.0039 92.6953 87.7773 92.6953ZM84.2852 97.6641H90.9414C90.8945 95.5078 89.8398 94.4297 87.7773 94.4297C85.5898 94.4297 84.4258 95.5078 84.2852 97.6641ZM95.9453 105V92.6953H98.1133V97.8516H104.617V92.6953H106.785V105H104.617V99.6094H98.1133V105H95.9453ZM119.102 105V95.4844L112.48 105H110.312V92.6953H112.363V102.211L118.984 92.6953H121.152V105H119.102ZM129.754 92.6953C133.254 92.6953 135.004 94.4258 135.004 97.8867C135.004 98.3789 134.969 98.9062 134.898 99.4688H126.262C126.262 101.984 127.73 103.242 130.668 103.242C132.066 103.242 133.309 103.086 134.395 102.773V104.531C133.309 104.844 131.988 105 130.434 105C126.207 105 124.094 102.902 124.094 98.707C124.094 94.6992 125.98 92.6953 129.754 92.6953ZM126.262 97.6641H132.918C132.871 95.5078 131.816 94.4297 129.754 94.4297C127.566 94.4297 126.402 95.5078 126.262 97.6641ZM159.379 105L157.656 102.117C156.5 100.188 155.383 99.2227 154.305 99.2227V97.7812C155.555 97.7812 156.484 96.9258 157.094 95.2148C157.711 93.4961 158.754 92.6367 160.223 92.6367H161.477V94.582H160.551C159.707 94.582 159.086 95.1523 158.688 96.293C158.289 97.4336 157.602 98.1953 156.625 98.5781C157.547 98.7422 158.652 99.8516 159.941 101.906L161.887 105H159.379ZM153.168 92.6133V105H151V92.6133H153.168ZM142.316 105L144.262 101.906C145.551 99.8516 146.656 98.7422 147.578 98.5781C146.602 98.1953 145.914 97.4336 145.516 96.293C145.117 95.1523 144.496 94.582 143.652 94.582H142.727V92.6367H143.98C145.449 92.6367 146.488 93.4961 147.098 95.2148C147.715 96.9258 148.648 97.7812 149.898 97.7812V99.2227C148.82 99.2227 147.703 100.188 146.547 102.117L144.824 105H142.316ZM172.727 105V95.4844L166.105 105H163.938V92.6953H165.988V102.211L172.609 92.6953H174.777V105H172.727ZM177.719 93.2812C179.281 92.8125 180.648 92.5781 181.82 92.5781C185.062 92.5781 186.684 93.7188 186.684 96C186.684 97.2031 186.145 98.1133 185.066 98.7305C186.145 99.3164 186.684 100.195 186.684 101.367C186.684 103.867 185.062 105.117 181.82 105.117C180.648 105.117 179.281 104.883 177.719 104.414V102.539C179.281 103.086 180.648 103.359 181.82 103.359C183.617 103.359 184.516 102.695 184.516 101.367C184.516 100.195 183.922 99.6094 182.734 99.6094H178.891V97.8516H182.699C183.91 97.8516 184.516 97.2344 184.516 96C184.516 94.8906 183.617 94.3359 181.82 94.3359C180.648 94.3359 179.281 94.6094 177.719 95.1562V93.2812ZM189.625 105V92.6953H191.793V97.8516H198.297V92.6953H200.465V105H198.297V99.6094H191.793V105H189.625ZM209.066 92.6953C212.566 92.6953 214.316 94.4258 214.316 97.8867C214.316 98.3789 214.281 98.9062 214.211 99.4688H205.574C205.574 101.984 207.043 103.242 209.98 103.242C211.379 103.242 212.621 103.086 213.707 102.773V104.531C212.621 104.844 211.301 105 209.746 105C205.52 105 203.406 102.902 203.406 98.707C203.406 94.6992 205.293 92.6953 209.066 92.6953ZM205.574 97.6641H212.23C212.184 95.5078 211.129 94.4297 209.066 94.4297C206.879 94.4297 205.715 95.5078 205.574 97.6641ZM226.023 105V95.4844L219.402 105H217.234V92.6953H219.285V102.211L225.906 92.6953H228.074V105H226.023ZM219.555 88.2422H221.137C221.137 89.4141 221.645 90 222.66 90C223.676 90 224.184 89.4141 224.184 88.2422H225.766C225.766 90.2734 224.73 91.2891 222.66 91.2891C220.59 91.2891 219.555 90.2734 219.555 88.2422ZM237.461 105V92.6953H248.301V105H246.133V94.4531H239.629V105H237.461ZM260.617 105V95.4844L253.996 105H251.828V92.6953H253.879V102.211L260.5 92.6953H262.668V105H260.617ZM275.277 92.6953V94.4531H270.941V105H268.773V94.4531H264.438V92.6953H275.277ZM276.461 98.8477C276.461 94.668 278.492 92.5781 282.555 92.5781C286.617 92.5781 288.648 94.668 288.648 98.8477C288.648 103.027 286.617 105.117 282.555 105.117C278.508 105.117 276.477 103.027 276.461 98.8477ZM278.629 98.8008C278.629 101.84 279.938 103.359 282.555 103.359C285.172 103.359 286.48 101.84 286.48 98.8008C286.48 95.8242 285.172 94.3359 282.555 94.3359C279.938 94.3359 278.629 95.8242 278.629 98.8008ZM291.578 105V92.6953H294.332L298.492 102.457L302.535 92.6953H305.172V105H303.238V95.5898L299.277 105H297.566L293.512 95.5898V105H291.578ZM308.688 105V92.6953H310.855V103.242H317.664V92.6953H319.832V103.242H322V109.453H319.832V105H308.688ZM330.004 92.6953C333.504 92.6953 335.254 94.4258 335.254 97.8867C335.254 98.3789 335.219 98.9062 335.148 99.4688H326.512C326.512 101.984 327.98 103.242 330.918 103.242C332.316 103.242 333.559 103.086 334.645 102.773V104.531C333.559 104.844 332.238 105 330.684 105C326.457 105 324.344 102.902 324.344 98.707C324.344 94.6992 326.23 92.6953 330.004 92.6953ZM326.512 97.6641H333.168C333.121 95.5078 332.066 94.4297 330.004 94.4297C327.816 94.4297 326.652 95.5078 326.512 97.6641ZM344.711 103.242C345.93 103.242 346.539 102.617 346.539 101.367C346.539 100.195 345.59 99.6094 343.691 99.6094H342.754V98.1914C345.176 97.918 346.387 97.1016 346.387 95.7422C346.387 94.8828 345.887 94.4531 344.887 94.4531H340.34V103.242H344.711ZM338.172 105V92.6953H345.086C347.492 92.6953 348.695 93.7227 348.695 95.7773C348.695 97.0508 347.93 97.9961 346.398 98.6133C348.07 99.0273 348.906 99.9336 348.906 101.332C348.906 103.777 347.551 105 344.84 105H338.172ZM354.297 102.832L352.539 107.93H350.371L352.129 102.832H354.297ZM38.6641 125.906C38.6641 130.047 36.6406 132.117 32.5938 132.117C28.5078 132.117 26.4648 130.047 26.4648 125.906V122.098C26.4648 117.527 28.5898 115.242 32.8398 115.242C35.1211 115.242 36.9297 114.816 38.2656 113.965V115.875C37.0703 116.625 35.25 117 32.8047 117C30.0625 117 28.6914 118.66 28.6914 121.98C29.6992 120.457 31.0391 119.695 32.7109 119.695C36.6797 119.695 38.6641 121.68 38.6641 125.648V125.906ZM32.5938 130.359C35.1875 130.359 36.4844 128.875 36.4844 125.906C36.4844 122.984 35.2266 121.523 32.7109 121.523C30.0312 121.523 28.6914 122.984 28.6914 125.906C28.6914 128.875 29.9922 130.359 32.5938 130.359ZM39.9766 130.242C41.8281 130.242 42.7539 129.188 42.7539 127.078V119.695H52.1289V132H49.9609V121.453H44.9219V127.078C44.9219 130.359 43.2734 132 39.9766 132V130.242ZM55.0703 128.285C55.0703 125.762 56.7344 124.5 60.0625 124.5C61.1328 124.5 62.2031 124.578 63.2734 124.734V123.574C63.2734 122.16 62.168 121.453 59.957 121.453C58.6914 121.453 57.3945 121.648 56.0664 122.039V120.281C57.3945 119.891 58.6914 119.695 59.957 119.695C63.6133 119.695 65.4414 120.969 65.4414 123.516V132H64.2227L63.4727 130.781C62.2461 131.594 60.9102 132 59.4648 132C56.5352 132 55.0703 130.762 55.0703 128.285ZM60.0625 126.258C58.1797 126.258 57.2383 126.922 57.2383 128.25C57.2383 129.578 57.9805 130.242 59.4648 130.242C60.9648 130.242 62.2344 129.844 63.2734 129.047V126.492C62.2031 126.336 61.1328 126.258 60.0625 126.258ZM68.9688 132V119.695H77.1484V121.453H71.1367V132H68.9688ZM78.3203 125.848C78.3203 121.668 80.3516 119.578 84.4141 119.578C88.4766 119.578 90.5078 121.668 90.5078 125.848C90.5078 130.027 88.4766 132.117 84.4141 132.117C80.3672 132.117 78.3359 130.027 78.3203 125.848ZM80.4883 125.801C80.4883 128.84 81.7969 130.359 84.4141 130.359C87.0312 130.359 88.3398 128.84 88.3398 125.801C88.3398 122.824 87.0312 121.336 84.4141 121.336C81.7969 121.336 80.4883 122.824 80.4883 125.801ZM97 130.242H103.199V121.453H98.8633C98.8633 125.82 98.2422 128.75 97 130.242ZM91.6797 136.453V130.242H93.8359C95.7422 130.242 96.6953 127.312 96.6953 121.453V119.695H105.367V130.242H107.535V136.453H105.367V132H93.8359V136.453H91.6797ZM109.586 128.285C109.586 125.762 111.25 124.5 114.578 124.5C115.648 124.5 116.719 124.578 117.789 124.734V123.574C117.789 122.16 116.684 121.453 114.473 121.453C113.207 121.453 111.91 121.648 110.582 122.039V120.281C111.91 119.891 113.207 119.695 114.473 119.695C118.129 119.695 119.957 120.969 119.957 123.516V132H118.738L117.988 130.781C116.762 131.594 115.426 132 113.98 132C111.051 132 109.586 130.762 109.586 128.285ZM114.578 126.258C112.695 126.258 111.754 126.922 111.754 128.25C111.754 129.578 112.496 130.242 113.98 130.242C115.48 130.242 116.75 129.844 117.789 129.047V126.492C116.719 126.336 115.648 126.258 114.578 126.258ZM125.652 129.492C126.504 129.914 127.453 130.125 128.5 130.125C131.289 130.125 132.684 128.59 132.684 125.52C132.684 122.84 131.297 121.5 128.523 121.5C127.43 121.5 126.473 121.594 125.652 121.781V129.492ZM123.484 120.199C125.117 119.863 126.805 119.695 128.547 119.695C132.727 119.695 134.816 121.645 134.816 125.543C134.816 129.848 132.715 132 128.512 132C127.527 132 126.574 131.805 125.652 131.414V136.453H123.484V120.199ZM145.492 132V121.488H141.297C140.219 121.488 139.68 121.949 139.68 122.871C139.68 123.965 140.93 124.766 143.43 125.273V126.809L139.035 132H136.293L141.051 126.504C138.598 125.746 137.371 124.543 137.371 122.895C137.371 120.762 138.691 119.695 141.332 119.695H147.66V132H145.492ZM160.609 130.242H166.809V121.453H162.473C162.473 125.82 161.852 128.75 160.609 130.242ZM155.289 136.453V130.242H157.445C159.352 130.242 160.305 127.312 160.305 121.453V119.695H168.977V130.242H171.145V136.453H168.977V132H157.445V136.453H155.289ZM173.195 125.848C173.195 121.668 175.227 119.578 179.289 119.578C183.352 119.578 185.383 121.668 185.383 125.848C185.383 130.027 183.352 132.117 179.289 132.117C175.242 132.117 173.211 130.027 173.195 125.848ZM175.363 125.801C175.363 128.84 176.672 130.359 179.289 130.359C181.906 130.359 183.215 128.84 183.215 125.801C183.215 122.824 181.906 121.336 179.289 121.336C176.672 121.336 175.363 122.824 175.363 125.801ZM200.219 125.906C200.219 130.047 198.195 132.117 194.148 132.117C190.062 132.117 188.02 130.047 188.02 125.906V122.098C188.02 117.527 190.145 115.242 194.395 115.242C196.676 115.242 198.484 114.816 199.82 113.965V115.875C198.625 116.625 196.805 117 194.359 117C191.617 117 190.246 118.66 190.246 121.98C191.254 120.457 192.594 119.695 194.266 119.695C198.234 119.695 200.219 121.68 200.219 125.648V125.906ZM194.148 130.359C196.742 130.359 198.039 128.875 198.039 125.906C198.039 122.984 196.781 121.523 194.266 121.523C191.586 121.523 190.246 122.984 190.246 125.906C190.246 128.875 191.547 130.359 194.148 130.359ZM205.457 129.492C206.309 129.914 207.258 130.125 208.305 130.125C211.094 130.125 212.488 128.59 212.488 125.52C212.488 122.84 211.102 121.5 208.328 121.5C207.234 121.5 206.277 121.594 205.457 121.781V129.492ZM203.289 120.199C204.922 119.863 206.609 119.695 208.352 119.695C212.531 119.695 214.621 121.645 214.621 125.543C214.621 129.848 212.52 132 208.316 132C207.332 132 206.379 131.805 205.457 131.414V136.453H203.289V120.199ZM229.574 132V119.695H231.742V132H229.574ZM219.73 119.695V130.207H223.457C224.848 130.207 225.543 129.547 225.543 128.227C225.543 127.156 224.832 126.621 223.41 126.621H221.324V124.863H223.516C226.328 124.863 227.734 126.02 227.734 128.332C227.734 130.777 226.375 132 223.656 132H217.562V119.695H219.73ZM235.258 132V119.695H238.012L242.172 129.457L246.215 119.695H248.852V132H246.918V122.59L242.957 132H241.246L237.191 122.59V132H235.258ZM256.469 130.242C258.32 130.242 259.246 129.188 259.246 127.078V119.695H268.621V132H266.453V121.453H261.414V127.078C261.414 130.359 259.766 132 256.469 132V130.242ZM283.809 130.359C285.855 130.359 286.879 128.84 286.879 125.801C286.879 122.824 285.855 121.336 283.809 121.336C281.676 121.336 280.609 122.824 280.609 125.801C280.609 128.84 281.676 130.359 283.809 130.359ZM272.148 132V119.695H274.305V124.852H278.359C278.648 121.336 280.465 119.578 283.809 119.578C287.379 119.578 289.164 121.676 289.164 125.871C289.164 130.035 287.379 132.117 283.809 132.117C280.379 132.117 278.559 130.281 278.348 126.609H274.305V132H272.148ZM295.656 130.242H301.855V121.453H297.52C297.52 125.82 296.898 128.75 295.656 130.242ZM290.336 136.453V130.242H292.492C294.398 130.242 295.352 127.312 295.352 121.453V119.695H304.023V130.242H306.191V136.453H304.023V132H292.492V136.453H290.336ZM316.562 132V121.488H312.367C311.289 121.488 310.75 121.949 310.75 122.871C310.75 123.965 312 124.766 314.5 125.273V126.809L310.105 132H307.363L312.121 126.504C309.668 125.746 308.441 124.543 308.441 122.895C308.441 120.762 309.762 119.695 312.402 119.695H318.73V132H316.562ZM322.258 132V119.695H325.012L329.172 129.457L333.215 119.695H335.852V132H333.918V122.59L329.957 132H328.246L324.191 122.59V132H322.258Z" fill="black"/>
<path d="M39.3583 33.584L39.2303 32.176C39.2303 31.664 39.2729 31.184 39.3583 30.736C39.4649 30.2667 39.6463 29.7867 39.9023 29.296C40.1583 28.784 40.5529 28.3893 41.0863 28.112C41.6409 27.8133 42.3129 27.664 43.1023 27.664C43.9556 27.664 44.7449 27.984 45.4703 28.624C46.1956 29.264 46.5583 30.3307 46.5583 31.824C46.5583 34.4267 45.5556 37.6267 43.5503 41.424C43.1663 42.192 42.1316 44.3573 40.4463 47.92C41.7903 47.92 42.8676 47.9307 43.6783 47.952C44.4889 47.952 45.0223 47.952 45.2783 47.952H45.6943C46.3343 47.952 46.6543 48.208 46.6543 48.72C46.6543 49.04 46.5689 49.2853 46.3983 49.456C46.2276 49.6267 46.0143 49.712 45.7583 49.712C45.2463 49.712 44.1049 49.7333 42.3343 49.776C40.5636 49.7973 39.6036 49.808 39.4543 49.808C39.1343 49.808 38.8463 49.712 38.5903 49.52C38.3343 49.328 38.1849 49.072 38.1423 48.752C38.1423 48.3893 38.1956 48.0587 38.3023 47.76C38.4089 47.44 38.5583 47.12 38.7503 46.8C38.9636 46.4587 39.1023 46.192 39.1663 46C39.3156 45.7013 39.6036 45.1253 40.0303 44.272C40.4569 43.3973 40.7876 42.7467 41.0223 42.32C43.3689 37.8827 44.5423 34.4267 44.5423 31.952C44.5423 30.2453 43.9769 29.392 42.8463 29.392C42.6116 29.392 42.3876 29.456 42.1743 29.584C41.9609 29.6907 41.7263 30.0107 41.4703 30.544C41.2143 31.0773 41.0649 31.792 41.0223 32.688L40.9583 32.976C40.9156 33.1893 40.8089 33.4027 40.6383 33.616C40.4676 33.8293 40.2543 33.936 39.9983 33.936C39.7849 33.936 39.5716 33.8187 39.3583 33.584Z" fill="black"/>
<path d="M377.961 55.0199C372.962 50.7699 371.009 44.6048 364.461 45.0199C354.348 45.661 360.674 61.5235 364.438 70.962L364.461 71.0199C369.842 84.5148 387.961 99.0199 394.461 93.0199C400.961 87.0199 412.083 77.58 411.961 64.5199C411.885 56.4292 413.048 44.7594 404.961 45.0199C399.301 45.2023 398.078 50.6628 394.461 55.0199C391.59 58.4788 392.356 63.5785 387.961 64.5199C382.694 65.648 382.064 58.5092 377.961 55.0199Z" stroke="white"/>
<defs>
<clipPath id="clip0_126_296">
<rect width="65" height="60" fill="white" transform="translate(8 9)"/>
</clipPath>
</defs>
</svg>
