<svg width="1376" height="711" viewBox="0 0 1376 711" fill="none" xmlns="http://www.w3.org/2000/svg">
<g clip-path="url(#clip0_102_545)">
<path d="M1339.39 45.8451C1236.78 -80.8481 1019 98.4301 461.505 63.5396C337.588 55.7862 132.227 33.4026 91.9604 113.406C71.5162 154.015 109.331 189.806 87.7029 272.657C67.5568 349.846 23.6031 361.452 6.1477 421.163C-17.7876 503.008 27.1623 609.9 91.9604 661.133C226.989 767.896 383.185 581.588 714.396 619.31C926.544 643.471 1110.71 748.175 1255.94 697.327C1277.56 689.758 1341.1 667.512 1364.93 613.68C1381.23 576.867 1371.95 541.108 1368.82 527.966C1325.78 347.063 1425.82 152.567 1339.39 45.8451Z" fill="#64816D"/>
<path d="M220.604 639.877C214.301 644.027 203.642 644.527 197.162 640.887C195.83 640.138 194.786 639.267 194.039 638.322C192.092 635.865 189.405 633.65 185.937 631.884L185.001 631.408C181.43 629.588 177.218 628.236 172.625 627.407C170.453 627.015 168.417 626.336 166.682 625.361C160.894 622.109 160.601 616.565 166.012 612.679C169.58 610.115 174.739 608.817 179.75 608.874C186.948 608.963 194.153 607.592 200.304 605.139C207.443 602.29 217.058 600.347 225.855 604.828C234.56 609.262 232.443 615.048 228.49 619.536C225.063 623.422 223.853 627.764 224.848 631.937C225.496 634.652 224.097 637.577 220.604 639.877Z" fill="#F6B8C4" fill-opacity="0.3"/>
<path d="M190.858 603.05C198.366 601.417 203.761 596.676 202.909 592.459C202.057 588.242 195.281 586.147 187.773 587.779C180.266 589.411 174.87 594.153 175.722 598.37C176.574 602.586 183.351 604.682 190.858 603.05Z" fill="#F6B8C4" fill-opacity="0.3"/>
<path d="M230.211 596.928C237.719 595.296 243.114 590.554 242.263 586.337C241.411 582.12 234.634 580.025 227.127 581.657C219.619 583.289 214.224 588.031 215.075 592.248C215.927 596.465 222.704 598.56 230.211 596.928Z" fill="#F6B8C4" fill-opacity="0.3"/>
<path d="M248.152 632.234C255.659 630.602 261.055 625.86 260.203 621.643C259.351 617.426 252.574 615.331 245.067 616.963C237.559 618.595 232.164 623.337 233.016 627.554C233.868 631.771 240.644 633.866 248.152 632.234Z" fill="#F6B8C4" fill-opacity="0.3"/>
<path d="M253.604 608.845C261.111 607.213 266.507 602.471 265.655 598.254C264.803 594.038 258.027 591.942 250.519 593.574C243.012 595.206 237.616 599.948 238.468 604.165C239.32 608.382 246.096 610.477 253.604 608.845Z" fill="#F6B8C4" fill-opacity="0.3"/>
<path d="M375.026 633.435C368.724 637.585 358.065 638.084 351.585 634.444C350.253 633.696 349.209 632.824 348.462 631.88C346.515 629.423 343.828 627.207 340.36 625.441L339.424 624.965C335.853 623.145 331.641 621.794 327.048 620.965C324.876 620.573 322.84 619.893 321.105 618.918C315.316 615.666 315.024 610.122 320.435 606.237C324.002 603.672 329.161 602.374 334.172 602.432C341.371 602.52 348.576 601.15 354.727 598.696C361.866 595.848 371.481 593.905 380.278 598.385C388.982 602.82 386.866 608.606 382.913 613.094C379.486 616.979 378.276 621.322 379.271 625.495C379.923 628.209 378.52 631.135 375.026 633.435Z" fill="#F6B8C4" fill-opacity="0.3"/>
<path d="M345.276 596.613C352.783 594.981 358.179 590.24 357.327 586.023C356.475 581.806 349.698 579.711 342.191 581.343C334.683 582.975 329.288 587.717 330.14 591.933C330.992 596.15 337.768 598.246 345.276 596.613Z" fill="#F6B8C4" fill-opacity="0.3"/>
<path d="M384.634 590.495C392.141 588.862 397.537 584.121 396.685 579.904C395.833 575.687 389.056 573.592 381.549 575.224C374.041 576.856 368.646 581.598 369.498 585.815C370.349 590.031 377.126 592.127 384.634 590.495Z" fill="#F6B8C4" fill-opacity="0.3"/>
<path d="M402.573 625.797C410.081 624.165 415.476 619.423 414.624 615.206C413.772 610.989 406.996 608.894 399.488 610.526C391.981 612.158 386.585 616.9 387.437 621.117C388.289 625.334 395.066 627.429 402.573 625.797Z" fill="#F6B8C4" fill-opacity="0.3"/>
<path d="M408.022 602.409C415.529 600.777 420.925 596.035 420.073 591.818C419.221 587.601 412.444 585.506 404.937 587.138C397.429 588.77 392.034 593.512 392.886 597.729C393.738 601.946 400.514 604.041 408.022 602.409Z" fill="#F6B8C4" fill-opacity="0.3"/>
<path d="M326.175 536.284C319.872 540.434 309.214 540.933 302.733 537.294C301.401 536.545 300.357 535.673 299.61 534.729C297.663 532.272 294.976 530.056 291.509 528.29L290.572 527.814C287.001 525.994 282.789 524.643 278.197 523.814C276.024 523.422 273.989 522.742 272.253 521.767C266.465 518.515 266.172 512.971 271.583 509.086C275.151 506.521 280.31 505.224 285.321 505.281C292.519 505.369 299.725 503.999 305.876 501.545C313.015 498.697 322.629 496.754 331.426 501.234C340.131 505.669 338.014 511.455 334.061 515.943C330.634 519.828 329.424 524.171 330.42 528.344C331.071 531.059 329.668 533.984 326.175 536.284Z" fill="#F6B8C4" fill-opacity="0.3"/>
<path d="M296.429 499.464C303.937 497.832 309.332 493.09 308.48 488.873C307.628 484.656 300.852 482.561 293.344 484.193C285.837 485.825 280.441 490.567 281.293 494.784C282.145 499.001 288.922 501.096 296.429 499.464Z" fill="#F6B8C4" fill-opacity="0.3"/>
<path d="M335.787 493.345C343.294 491.713 348.69 486.972 347.838 482.755C346.986 478.538 340.21 476.442 332.702 478.074C325.195 479.707 319.799 484.448 320.651 488.665C321.503 492.882 328.279 494.977 335.787 493.345Z" fill="#F6B8C4" fill-opacity="0.3"/>
<path d="M353.726 528.647C361.234 527.015 366.629 522.274 365.778 518.057C364.926 513.84 358.149 511.745 350.642 513.377C343.134 515.009 337.739 519.75 338.59 523.967C339.442 528.184 346.219 530.28 353.726 528.647Z" fill="#F6B8C4" fill-opacity="0.3"/>
<path d="M359.175 505.26C366.683 503.627 372.078 498.886 371.226 494.669C370.374 490.452 363.598 488.357 356.09 489.989C348.583 491.621 343.187 496.363 344.039 500.579C344.891 504.796 351.668 506.892 359.175 505.26Z" fill="#F6B8C4" fill-opacity="0.3"/>
<path d="M493.455 558.567C487.152 562.718 476.493 563.217 470.013 559.577C468.681 558.829 467.637 557.957 466.89 557.013C464.943 554.555 462.256 552.34 458.788 550.574L457.852 550.098C454.281 548.278 450.069 546.927 445.476 546.097C443.304 545.706 441.268 545.026 439.533 544.051C433.745 540.799 433.452 535.255 438.863 531.37C442.431 528.805 447.59 527.507 452.601 527.565C459.799 527.653 467.004 526.282 473.155 523.829C480.294 520.98 489.909 519.038 498.706 523.518C507.411 527.953 505.294 533.738 501.341 538.227C497.914 542.112 496.704 546.454 497.699 550.628C498.347 553.342 496.948 556.268 493.455 558.567Z" fill="#F6B8C4" fill-opacity="0.3"/>
<path d="M463.703 521.753C471.21 520.121 476.606 515.379 475.754 511.162C474.902 506.945 468.125 504.85 460.618 506.482C453.11 508.114 447.715 512.856 448.567 517.073C449.418 521.29 456.195 523.385 463.703 521.753Z" fill="#F6B8C4" fill-opacity="0.3"/>
<path d="M503.057 515.635C510.564 514.003 515.96 509.261 515.108 505.044C514.256 500.827 507.479 498.732 499.972 500.364C492.464 501.996 487.069 506.738 487.921 510.955C488.773 515.172 495.549 517.267 503.057 515.635Z" fill="#F6B8C4" fill-opacity="0.3"/>
<path d="M520.996 550.937C528.504 549.305 533.899 544.563 533.047 540.346C532.195 536.13 525.419 534.034 517.911 535.666C510.404 537.298 505.008 542.04 505.86 546.257C506.712 550.474 513.489 552.569 520.996 550.937Z" fill="#F6B8C4" fill-opacity="0.3"/>
<path d="M526.448 527.548C533.956 525.916 539.351 521.175 538.5 516.958C537.648 512.741 530.871 510.645 523.364 512.278C515.856 513.91 510.461 518.651 511.312 522.868C512.164 527.085 518.941 529.181 526.448 527.548Z" fill="#F6B8C4" fill-opacity="0.3"/>
<path d="M451.098 453.83C444.795 457.98 434.137 458.48 427.657 454.84C426.324 454.091 425.281 453.22 424.533 452.275C422.586 449.818 419.9 447.603 416.432 445.837L415.496 445.36C411.924 443.541 407.713 442.189 403.12 441.36C400.947 440.968 398.912 440.289 397.176 439.314C391.388 436.062 391.096 430.518 396.506 426.632C400.074 424.067 405.233 422.77 410.244 422.827C417.442 422.916 424.648 421.545 430.799 419.092C437.938 416.243 447.553 414.3 456.35 418.781C465.054 423.215 462.937 429.001 458.985 433.489C455.558 437.375 454.347 441.717 455.343 445.89C455.994 448.601 454.592 451.526 451.098 453.83Z" fill="#F6B8C4" fill-opacity="0.3"/>
<path d="M421.351 417.014C428.858 415.382 434.254 410.64 433.402 406.423C432.55 402.206 425.773 400.111 418.266 401.743C410.758 403.375 405.363 408.117 406.215 412.334C407.067 416.551 413.843 418.646 421.351 417.014Z" fill="#F6B8C4" fill-opacity="0.3"/>
<path d="M460.708 410.895C468.216 409.263 473.611 404.521 472.76 400.304C471.908 396.087 465.131 393.992 457.624 395.624C450.116 397.256 444.721 401.998 445.573 406.215C446.424 410.432 453.201 412.527 460.708 410.895Z" fill="#F6B8C4" fill-opacity="0.3"/>
<path d="M478.645 446.202C486.153 444.57 491.548 439.828 490.696 435.611C489.844 431.394 483.068 429.299 475.56 430.931C468.053 432.563 462.657 437.305 463.509 441.522C464.361 445.739 471.138 447.834 478.645 446.202Z" fill="#F6B8C4" fill-opacity="0.3"/>
<path d="M484.097 422.809C491.604 421.177 497 416.436 496.148 412.219C495.296 408.002 488.519 405.906 481.012 407.539C473.504 409.171 468.109 413.912 468.961 418.129C469.813 422.346 476.589 424.442 484.097 422.809Z" fill="#F6B8C4" fill-opacity="0.3"/>
<path d="M612.986 456.809C606.683 460.96 596.024 461.459 589.544 457.819C588.212 457.07 587.168 456.199 586.421 455.254C584.474 452.797 581.787 450.582 578.319 448.816L577.383 448.34C573.812 446.52 569.6 445.169 565.007 444.339C562.835 443.948 560.8 443.268 559.064 442.293C553.276 439.041 552.983 433.497 558.394 429.611C561.962 427.051 567.121 425.749 572.132 425.807C579.33 425.895 586.535 424.524 592.686 422.071C599.825 419.222 609.44 417.28 618.237 421.76C626.942 426.194 624.825 431.98 620.872 436.469C617.445 440.354 616.235 444.696 617.231 448.87C617.882 451.584 616.479 454.51 612.986 456.809Z" fill="#F6B8C4" fill-opacity="0.3"/>
<path d="M583.233 420.003C590.741 418.371 596.136 413.629 595.284 409.412C594.433 405.195 587.656 403.1 580.148 404.732C572.641 406.364 567.246 411.106 568.097 415.323C568.949 419.54 575.726 421.635 583.233 420.003Z" fill="#F6B8C4" fill-opacity="0.3"/>
<path d="M622.591 413.884C630.099 412.252 635.494 407.51 634.642 403.294C633.79 399.077 627.014 396.981 619.506 398.613C611.999 400.246 606.603 404.987 607.455 409.204C608.307 413.421 615.084 415.516 622.591 413.884Z" fill="#F6B8C4" fill-opacity="0.3"/>
<path d="M640.531 449.186C648.038 447.554 653.434 442.813 652.582 438.596C651.73 434.379 644.953 432.284 637.446 433.916C629.938 435.548 624.543 440.289 625.395 444.506C626.246 448.723 633.023 450.819 640.531 449.186Z" fill="#F6B8C4" fill-opacity="0.3"/>
<path d="M645.979 425.799C653.487 424.166 658.882 419.425 658.03 415.208C657.179 410.991 650.402 408.896 642.894 410.528C635.387 412.16 629.991 416.902 630.843 421.118C631.695 425.335 638.472 427.431 645.979 425.799Z" fill="#F6B8C4" fill-opacity="0.3"/>
<path d="M645.879 366.765C639.221 369.253 630.631 368.19 627.016 364.358C626.272 363.571 625.805 362.722 625.602 361.855C625.073 359.601 623.862 357.439 621.853 355.531L621.313 355.017C619.244 353.055 616.483 351.381 613.204 350.079C611.653 349.465 610.328 348.636 609.362 347.607C606.135 344.182 608.167 339.659 614.014 337.264C617.871 335.682 622.464 335.34 626.383 336.081C632.012 337.145 638.244 337.026 644.084 335.889C650.868 334.568 659.228 334.323 664.321 339.153C669.361 343.936 665.331 348.325 660.386 351.408C656.101 354.08 653.373 357.424 652.455 360.933C651.867 363.214 649.569 365.383 645.879 366.765Z" fill="#F6B8C4" fill-opacity="0.3"/>
<path d="M640.381 332.624C647.021 331.518 651.982 327.898 651.462 324.537C650.942 321.177 645.138 319.349 638.498 320.455C631.858 321.56 626.897 325.181 627.417 328.541C627.937 331.902 633.741 333.729 640.381 332.624Z" fill="#F6B8C4" fill-opacity="0.3"/>
<path d="M673.861 333.093C680.5 331.987 685.462 328.366 684.942 325.006C684.422 321.646 678.617 319.818 671.978 320.924C665.338 322.029 660.377 325.65 660.897 329.01C661.417 332.371 667.221 334.198 673.861 333.093Z" fill="#F6B8C4" fill-opacity="0.3"/>
<path d="M673.564 364.108C680.204 363.003 685.165 359.382 684.645 356.022C684.125 352.661 678.321 350.834 671.681 351.939C665.041 353.045 660.08 356.665 660.6 360.026C661.12 363.386 666.924 365.214 673.564 364.108Z" fill="#F6B8C4" fill-opacity="0.3"/>
<path d="M687.406 345.948C694.046 344.842 699.007 341.221 698.487 337.861C697.968 334.501 692.163 332.673 685.524 333.779C678.884 334.884 673.923 338.505 674.443 341.865C674.963 345.226 680.767 347.053 687.406 345.948Z" fill="#F6B8C4" fill-opacity="0.3"/>
<path d="M756.639 410.664C749.507 413.363 740.307 412.212 736.432 408.054C735.636 407.197 735.137 406.28 734.919 405.339C734.352 402.893 733.057 400.548 730.903 398.482L730.322 397.925C728.105 395.794 725.148 393.978 721.636 392.569C719.978 391.901 718.557 391.003 717.521 389.89C714.064 386.173 716.24 381.27 722.506 378.667C726.636 376.951 731.554 376.582 735.755 377.381C741.787 378.533 748.46 378.406 754.718 377.174C761.987 375.738 770.939 375.473 776.394 380.717C781.794 385.904 777.475 390.665 772.183 394.009C767.594 396.908 764.674 400.536 763.689 404.341C763.053 406.81 760.591 409.167 756.639 410.664Z" fill="#F6B8C4" fill-opacity="0.3"/>
<path d="M750.757 373.568C757.866 372.359 763.163 368.425 762.588 364.782C762.012 361.14 755.781 359.167 748.672 360.376C741.562 361.586 736.265 365.519 736.841 369.162C737.416 372.805 743.647 374.778 750.757 373.568Z" fill="#F6B8C4" fill-opacity="0.3"/>
<path d="M786.613 374.074C793.723 372.864 799.02 368.931 798.444 365.288C797.868 361.645 791.638 359.672 784.528 360.882C777.419 362.091 772.122 366.025 772.697 369.667C773.273 373.31 779.504 375.283 786.613 374.074Z" fill="#F6B8C4" fill-opacity="0.3"/>
<path d="M786.301 407.72C793.41 406.511 798.707 402.577 798.131 398.935C797.556 395.292 791.325 393.319 784.215 394.528C777.106 395.738 771.809 399.671 772.385 403.314C772.96 406.957 779.191 408.93 786.301 407.72Z" fill="#F6B8C4" fill-opacity="0.3"/>
<path d="M801.125 388.017C808.235 386.808 813.532 382.874 812.956 379.231C812.38 375.588 806.15 373.615 799.04 374.825C791.93 376.034 786.633 379.968 787.209 383.611C787.785 387.254 794.015 389.226 801.125 388.017Z" fill="#F6B8C4" fill-opacity="0.3"/>
<path d="M1204.69 282.929C1200.62 285.444 1195.41 285.486 1193.25 282.968C1192.81 282.449 1192.54 281.858 1192.42 281.228C1192.13 279.589 1191.42 278.088 1190.22 276.855L1189.9 276.521C1188.66 275.251 1187 274.268 1185.03 273.611C1184.09 273.3 1183.29 272.809 1182.72 272.133C1180.8 269.879 1182.09 266.293 1185.67 263.924C1188.03 262.362 1190.83 261.659 1193.2 261.828C1196.61 262.074 1200.4 261.379 1203.97 259.955C1208.11 258.3 1213.19 257.302 1216.23 260.427C1219.24 263.521 1216.74 267.203 1213.7 269.998C1211.06 272.417 1209.36 275.193 1208.76 277.915C1208.38 279.681 1206.95 281.536 1204.69 282.929Z" fill="#F6B8C4" fill-opacity="0.3"/>
<path d="M1202.98 257.396C1206.93 255.519 1209.34 252.23 1208.38 250.051C1207.41 247.871 1203.43 247.626 1199.49 249.503C1195.55 251.381 1193.14 254.669 1194.1 256.849C1195.07 259.028 1199.04 259.273 1202.98 257.396Z" fill="#F6B8C4" fill-opacity="0.3"/>
<path d="M1223.33 254.475C1227.27 252.598 1229.69 249.31 1228.72 247.13C1227.76 244.951 1223.78 244.706 1219.84 246.583C1215.9 248.46 1213.48 251.749 1214.45 253.928C1215.41 256.108 1219.39 256.353 1223.33 254.475Z" fill="#F6B8C4" fill-opacity="0.3"/>
<path d="M1222.79 277.757C1226.73 275.88 1229.15 272.591 1228.18 270.412C1227.22 268.232 1223.24 267.987 1219.3 269.864C1215.36 271.741 1212.94 275.03 1213.91 277.209C1214.87 279.389 1218.85 279.634 1222.79 277.757Z" fill="#F6B8C4" fill-opacity="0.3"/>
<path d="M1231.42 262.788C1235.36 260.91 1237.77 257.622 1236.81 255.442C1235.84 253.263 1231.87 253.018 1227.92 254.895C1223.98 256.772 1221.57 260.061 1222.53 262.24C1223.5 264.42 1227.48 264.665 1231.42 262.788Z" fill="#F6B8C4" fill-opacity="0.3"/>
<path d="M1296.82 206.338C1293.31 208.369 1287.67 208.465 1284.43 206.511C1283.76 206.108 1283.24 205.647 1282.89 205.156C1281.98 203.869 1280.66 202.698 1278.91 201.742L1278.44 201.485C1276.65 200.502 1274.49 199.75 1272.1 199.258C1270.98 199.028 1269.94 198.648 1269.07 198.126C1266.16 196.379 1266.26 193.542 1269.28 191.633C1271.28 190.374 1274.05 189.787 1276.69 189.89C1280.47 190.04 1284.33 189.449 1287.68 188.286C1291.57 186.934 1296.72 186.082 1301.15 188.504C1305.53 190.9 1304.16 193.826 1301.88 196.06C1299.9 197.995 1299.07 200.199 1299.41 202.345C1299.62 203.735 1298.76 205.213 1296.82 206.338Z" fill="#F6B8C4" fill-opacity="0.3"/>
<path d="M1283.02 186.998C1287.04 186.201 1289.97 183.818 1289.58 181.675C1289.18 179.532 1285.61 178.441 1281.59 179.237C1277.57 180.033 1274.64 182.416 1275.03 184.559C1275.42 186.702 1279 187.794 1283.02 186.998Z" fill="#F6B8C4" fill-opacity="0.3"/>
<path d="M1304.02 184.452C1308.03 183.656 1310.97 181.273 1310.58 179.13C1310.18 176.987 1306.6 175.895 1302.59 176.692C1298.57 177.488 1295.63 179.871 1296.03 182.014C1296.42 184.157 1300 185.249 1304.02 184.452Z" fill="#F6B8C4" fill-opacity="0.3"/>
<path d="M1311.89 202.761C1315.91 201.964 1318.84 199.582 1318.45 197.438C1318.05 195.295 1314.48 194.204 1310.46 195C1306.44 195.796 1303.51 198.179 1303.9 200.322C1304.3 202.466 1307.87 203.557 1311.89 202.761Z" fill="#F6B8C4" fill-opacity="0.3"/>
<path d="M1315.8 190.886C1319.82 190.09 1322.76 187.707 1322.36 185.564C1321.97 183.421 1318.39 182.329 1314.37 183.126C1310.36 183.922 1307.42 186.305 1307.82 188.448C1308.21 190.591 1311.79 191.683 1315.8 190.886Z" fill="#F6B8C4" fill-opacity="0.3"/>
<path d="M1201.83 204.975C1198.31 207.317 1192.33 207.617 1188.67 205.589C1187.92 205.171 1187.33 204.687 1186.9 204.157C1185.79 202.783 1184.27 201.547 1182.31 200.56L1181.78 200.295C1179.76 199.281 1177.39 198.529 1174.81 198.076C1173.59 197.861 1172.44 197.485 1171.46 196.939C1168.19 195.127 1168 192.017 1171.01 189.825C1173 188.381 1175.89 187.64 1178.7 187.664C1182.74 187.698 1186.78 186.915 1190.22 185.529C1194.21 183.916 1199.59 182.807 1204.56 185.302C1209.47 187.771 1208.32 191.023 1206.13 193.549C1204.22 195.738 1203.57 198.176 1204.16 200.514C1204.54 202.034 1203.77 203.677 1201.83 204.975Z" fill="#F6B8C4" fill-opacity="0.3"/>
<path d="M1184.88 184.345C1189.08 183.427 1192.11 180.762 1191.63 178.392C1191.15 176.022 1187.34 174.846 1183.14 175.764C1178.93 176.682 1175.91 179.347 1176.39 181.717C1176.87 184.087 1180.67 185.263 1184.88 184.345Z" fill="#F6B8C4" fill-opacity="0.3"/>
<path d="M1206.94 180.831C1211.15 179.913 1214.17 177.247 1213.69 174.878C1213.21 172.508 1209.41 171.331 1205.2 172.249C1200.99 173.167 1197.97 175.833 1198.45 178.202C1198.93 180.572 1202.73 181.749 1206.94 180.831Z" fill="#F6B8C4" fill-opacity="0.3"/>
<path d="M1217.22 200.603C1221.43 199.685 1224.45 197.02 1223.97 194.65C1223.49 192.28 1219.69 191.104 1215.48 192.022C1211.27 192.94 1208.25 195.605 1208.73 197.975C1209.21 200.345 1213.01 201.521 1217.22 200.603Z" fill="#F6B8C4" fill-opacity="0.3"/>
<path d="M1220.14 187.469C1224.35 186.551 1227.37 183.886 1226.89 181.516C1226.41 179.146 1222.61 177.969 1218.4 178.888C1214.19 179.806 1211.17 182.471 1211.65 184.841C1212.13 187.21 1215.93 188.387 1220.14 187.469Z" fill="#F6B8C4" fill-opacity="0.3"/>
<path d="M1104.31 254.894C1099.43 256.668 1093.23 255.808 1090.71 252.959C1090.19 252.372 1089.88 251.746 1089.75 251.105C1089.43 249.442 1088.61 247.841 1087.2 246.421L1086.82 246.037C1085.38 244.574 1083.42 243.319 1081.08 242.336C1079.97 241.871 1079.04 241.249 1078.36 240.485C1076.11 237.936 1077.7 234.63 1082 232.918C1084.83 231.789 1088.17 231.578 1090.99 232.154C1095.04 232.983 1099.55 232.952 1103.81 232.169C1108.76 231.255 1114.82 231.148 1118.39 234.749C1121.92 238.312 1118.88 241.503 1115.22 243.729C1112.05 245.657 1109.98 248.091 1109.23 250.667C1108.74 252.333 1107.02 253.911 1104.31 254.894Z" fill="#F6B8C4" fill-opacity="0.3"/>
<path d="M1101.41 229.659C1106.24 228.857 1109.85 226.211 1109.47 223.749C1109.09 221.286 1104.87 219.94 1100.04 220.741C1095.2 221.543 1091.59 224.189 1091.97 226.651C1092.35 229.114 1096.58 230.46 1101.41 229.659Z" fill="#F6B8C4" fill-opacity="0.3"/>
<path d="M1125.65 230.295C1130.48 229.493 1134.09 226.847 1133.71 224.385C1133.33 221.922 1129.11 220.576 1124.27 221.377C1119.44 222.179 1115.83 224.825 1116.21 227.287C1116.59 229.75 1120.82 231.096 1125.65 230.295Z" fill="#F6B8C4" fill-opacity="0.3"/>
<path d="M1124.63 253.105C1129.46 252.304 1133.07 249.658 1132.69 247.195C1132.31 244.733 1128.08 243.386 1123.25 244.188C1118.42 244.989 1114.81 247.635 1115.19 250.098C1115.57 252.56 1119.8 253.907 1124.63 253.105Z" fill="#F6B8C4" fill-opacity="0.3"/>
<path d="M1135.13 239.866C1139.96 239.064 1143.57 236.418 1143.19 233.956C1142.81 231.493 1138.58 230.147 1133.75 230.949C1128.92 231.75 1125.31 234.396 1125.69 236.859C1126.07 239.321 1130.29 240.667 1135.13 239.866Z" fill="#F6B8C4" fill-opacity="0.3"/>
<path d="M813.573 315.076C806.704 316.147 800.032 313.717 798.955 309.678C798.733 308.849 798.777 308.012 799.051 307.205C799.762 305.105 799.85 302.971 799.136 300.928L798.944 300.379C798.211 298.275 796.745 296.306 794.658 294.582C793.67 293.768 792.982 292.8 792.693 291.718C791.734 288.109 795.757 284.434 801.897 283.305C805.946 282.561 809.98 283.048 812.896 284.384C817.085 286.3 822.378 287.272 827.87 287.268C834.246 287.26 841.397 288.481 843.206 293.668C844.994 298.797 839.361 302.011 833.632 303.907C828.665 305.547 824.661 308.058 822.096 311.026C820.424 312.945 817.381 314.481 813.573 315.076Z" fill="#F6B8C4" fill-opacity="0.3"/>
<path d="M829.224 283.627C835.496 283.022 840.361 280.077 840.089 277.049C839.818 274.022 834.513 272.058 828.241 272.663C821.969 273.268 817.104 276.213 817.375 279.241C817.647 282.268 822.951 284.232 829.224 283.627Z" fill="#F6B8C4" fill-opacity="0.3"/>
<path d="M857.113 289.818C863.386 289.212 868.25 286.268 867.979 283.24C867.708 280.212 862.403 278.249 856.13 278.854C849.858 279.459 844.993 282.404 845.265 285.431C845.536 288.459 850.841 290.423 857.113 289.818Z" fill="#F6B8C4" fill-opacity="0.3"/>
<path d="M840.995 317.395C847.267 316.79 852.132 313.845 851.861 310.817C851.589 307.79 846.284 305.826 840.012 306.431C833.74 307.036 828.875 309.981 829.146 313.009C829.418 316.036 834.723 318 840.995 317.395Z" fill="#F6B8C4" fill-opacity="0.3"/>
<path d="M861.92 303.601C868.192 302.996 873.057 300.051 872.786 297.023C872.514 293.996 867.21 292.032 860.937 292.637C854.665 293.242 849.8 296.187 850.072 299.215C850.343 302.242 855.648 304.206 861.92 303.601Z" fill="#F6B8C4" fill-opacity="0.3"/>
<path d="M919.467 376.986C913.242 379.212 906.702 378.011 905.141 374.283C904.819 373.515 904.741 372.697 904.881 371.868C905.248 369.706 905.033 367.625 904.086 365.763L903.83 365.264C902.853 363.348 901.221 361.693 899.041 360.384C898.013 359.766 897.235 358.948 896.817 357.946C895.422 354.614 898.642 350.352 904.186 348.194C907.838 346.774 911.654 346.547 914.548 347.334C918.704 348.467 923.756 348.494 928.852 347.538C934.77 346.424 941.579 346.374 943.981 351.089C946.357 355.754 941.579 359.847 936.524 362.676C932.142 365.126 928.778 368.255 926.809 371.576C925.525 373.73 922.916 375.749 919.467 376.986Z" fill="#F6B8C4" fill-opacity="0.3"/>
<path d="M929.829 343.705C935.551 341.967 939.537 338.247 938.732 335.396C937.928 332.545 932.637 331.643 926.915 333.381C921.193 335.119 917.207 338.839 918.011 341.69C918.816 344.541 924.107 345.443 929.829 343.705Z" fill="#F6B8C4" fill-opacity="0.3"/>
<path d="M956.59 344.88C962.312 343.142 966.298 339.422 965.494 336.571C964.689 333.72 959.398 332.818 953.676 334.556C947.954 336.294 943.968 340.014 944.773 342.865C945.578 345.716 950.868 346.618 956.59 344.88Z" fill="#F6B8C4" fill-opacity="0.3"/>
<path d="M945.479 374.416C951.201 372.678 955.187 368.957 954.383 366.107C953.578 363.256 948.287 362.353 942.565 364.091C936.843 365.829 932.857 369.55 933.662 372.401C934.466 375.252 939.757 376.154 945.479 374.416Z" fill="#F6B8C4" fill-opacity="0.3"/>
<path d="M962.977 357.416C968.699 355.678 972.685 351.958 971.881 349.107C971.076 346.256 965.785 345.354 960.063 347.092C954.341 348.83 950.355 352.55 951.16 355.401C951.964 358.252 957.255 359.154 962.977 357.416Z" fill="#F6B8C4" fill-opacity="0.3"/>
<path d="M1275.31 148.268C1272.08 150.648 1266.57 150.956 1263.21 148.894C1262.52 148.468 1261.97 147.976 1261.58 147.439C1260.56 146.041 1259.16 144.782 1257.36 143.78L1256.88 143.511C1255.02 142.482 1252.84 141.718 1250.46 141.254C1249.34 141.035 1248.28 140.651 1247.38 140.098C1244.38 138.255 1244.2 135.095 1246.97 132.865C1248.8 131.394 1251.45 130.642 1254.04 130.668C1257.76 130.703 1261.48 129.908 1264.64 128.495C1268.31 126.856 1273.26 125.727 1277.83 128.265C1282.35 130.776 1281.29 134.082 1279.27 136.65C1277.52 138.873 1276.92 141.353 1277.46 143.734C1277.8 145.277 1277.1 146.947 1275.31 148.268Z" fill="#F6B8C4" fill-opacity="0.3"/>
<path d="M1259.99 127.227C1263.84 126.205 1266.48 123.453 1265.9 121.08C1265.31 118.707 1261.72 117.613 1257.87 118.635C1254.01 119.658 1251.37 122.41 1251.95 124.783C1252.54 127.155 1256.13 128.25 1259.99 127.227Z" fill="#F6B8C4" fill-opacity="0.3"/>
<path d="M1280.27 123.657C1284.13 122.634 1286.77 119.882 1286.19 117.509C1285.6 115.137 1282.01 114.042 1278.15 115.065C1274.3 116.087 1271.66 118.839 1272.24 121.212C1272.83 123.585 1276.42 124.679 1280.27 123.657Z" fill="#F6B8C4" fill-opacity="0.3"/>
<path d="M1289.73 143.759C1293.58 142.736 1296.23 139.984 1295.65 137.611C1295.06 135.239 1291.47 134.144 1287.61 135.167C1283.76 136.189 1281.12 138.941 1281.7 141.314C1282.29 143.686 1285.88 144.781 1289.73 143.759Z" fill="#F6B8C4" fill-opacity="0.3"/>
<path d="M1292.42 130.402C1296.27 129.379 1298.92 126.627 1298.33 124.254C1297.75 121.882 1294.15 120.787 1290.3 121.81C1286.45 122.832 1283.8 125.584 1284.39 127.957C1284.97 130.329 1288.57 131.424 1292.42 130.402Z" fill="#F6B8C4" fill-opacity="0.3"/>
<path d="M1094.52 341.971C1088.67 344.094 1081.25 343.065 1078.24 339.652C1077.62 338.949 1077.25 338.197 1077.09 337.433C1076.71 335.44 1075.73 333.528 1074.04 331.827L1073.59 331.37C1071.86 329.62 1069.51 328.118 1066.72 326.94C1065.39 326.383 1064.27 325.638 1063.46 324.724C1060.77 321.676 1062.68 317.718 1067.82 315.667C1071.21 314.316 1075.2 314.063 1078.58 314.754C1083.43 315.748 1088.83 315.71 1093.93 314.773C1099.85 313.679 1107.1 313.552 1111.37 317.86C1115.59 322.121 1111.96 325.945 1107.58 328.606C1103.78 330.913 1101.31 333.827 1100.41 336.907C1099.82 338.907 1097.76 340.796 1094.52 341.971Z" fill="#F6B8C4" fill-opacity="0.3"/>
<path d="M1091.04 311.774C1096.82 310.815 1101.14 307.649 1100.69 304.703C1100.24 301.757 1095.18 300.146 1089.4 301.106C1083.61 302.065 1079.29 305.231 1079.75 308.177C1080.2 311.123 1085.26 312.734 1091.04 311.774Z" fill="#F6B8C4" fill-opacity="0.3"/>
<path d="M1120.05 312.537C1125.83 311.578 1130.15 308.412 1129.69 305.466C1129.24 302.52 1124.18 300.909 1118.4 301.868C1112.62 302.828 1108.3 305.994 1108.75 308.94C1109.21 311.886 1114.26 313.497 1120.05 312.537Z" fill="#F6B8C4" fill-opacity="0.3"/>
<path d="M1118.83 339.836C1124.61 338.877 1128.93 335.711 1128.47 332.765C1128.02 329.819 1122.96 328.208 1117.18 329.167C1111.4 330.126 1107.08 333.292 1107.53 336.238C1107.99 339.184 1113.04 340.795 1118.83 339.836Z" fill="#F6B8C4" fill-opacity="0.3"/>
<path d="M1131.39 323.994C1137.17 323.034 1141.49 319.868 1141.04 316.922C1140.58 313.976 1135.53 312.365 1129.75 313.325C1123.96 314.284 1119.64 317.45 1120.1 320.396C1120.55 323.342 1125.61 324.953 1131.39 323.994Z" fill="#F6B8C4" fill-opacity="0.3"/>
<path d="M972.704 291.71C965.835 292.781 959.162 290.351 958.085 286.312C957.863 285.482 957.908 284.645 958.181 283.839C958.892 281.739 958.981 279.604 958.267 277.562L958.074 277.013C957.341 274.909 955.876 272.939 953.789 271.215C952.8 270.401 952.112 269.434 951.823 268.351C950.865 264.742 954.888 261.068 961.027 259.939C965.076 259.194 969.11 259.682 972.027 261.018C976.216 262.934 981.508 263.905 987 263.901C993.377 263.894 1000.53 265.115 1002.34 270.302C1004.12 275.431 998.491 278.645 992.762 280.541C987.796 282.181 983.792 284.691 981.227 287.659C979.554 289.579 976.512 291.119 972.704 291.71Z" fill="#F6B8C4" fill-opacity="0.3"/>
<path d="M988.351 260.268C994.624 259.663 999.488 256.718 999.217 253.69C998.946 250.663 993.641 248.699 987.369 249.304C981.096 249.909 976.232 252.854 976.503 255.882C976.774 258.909 982.079 260.873 988.351 260.268Z" fill="#F6B8C4" fill-opacity="0.3"/>
<path d="M1016.24 266.458C1022.52 265.853 1027.38 262.908 1027.11 259.881C1026.84 256.853 1021.53 254.889 1015.26 255.494C1008.99 256.1 1004.12 259.044 1004.4 262.072C1004.67 265.1 1009.97 267.063 1016.24 266.458Z" fill="#F6B8C4" fill-opacity="0.3"/>
<path d="M1000.13 294.036C1006.4 293.43 1011.26 290.485 1010.99 287.458C1010.72 284.43 1005.42 282.466 999.143 283.072C992.871 283.677 988.006 286.622 988.278 289.649C988.549 292.677 993.854 294.641 1000.13 294.036Z" fill="#F6B8C4" fill-opacity="0.3"/>
<path d="M1021.05 280.242C1027.32 279.637 1032.19 276.692 1031.92 273.664C1031.65 270.636 1026.34 268.673 1020.07 269.278C1013.8 269.883 1008.93 272.828 1009.2 275.855C1009.47 278.883 1014.78 280.847 1021.05 280.242Z" fill="#F6B8C4" fill-opacity="0.3"/>
<path d="M1199.61 546.578C1207.34 542.008 1200.15 528.098 1209.19 505.688C1213.53 494.928 1222.46 480.128 1228.99 481.408C1235.07 482.598 1237.57 497.408 1237.93 506.328C1238.95 531.358 1224.5 543.528 1230.26 551.048C1235.46 557.828 1248.03 548.988 1268.59 555.518C1281.05 559.478 1294.66 568.508 1293.51 574.688C1292.21 581.658 1272.31 583.928 1262.84 584.268C1243.14 584.978 1230.98 578.718 1228.98 582.348C1226.77 586.358 1241.79 593.558 1247.51 611.098C1251.52 623.418 1250.42 639.228 1244.32 641.768C1237.47 644.608 1224.48 630.698 1217.49 619.408C1207.09 602.608 1206.91 586.638 1204.07 586.828C1201.14 587.018 1203.51 603.948 1194.49 621.968C1188.62 633.678 1176.56 648.598 1168.3 646.248C1160.68 644.078 1156.64 627.318 1159.36 613.668C1163.1 594.858 1178.35 588.618 1175.33 580.448C1172.56 572.958 1158.38 577.758 1142.11 567.028C1132.22 560.518 1121.59 548.348 1124.48 541.108C1127.72 532.988 1147.24 532.868 1158.72 534.448C1182.67 537.738 1191.73 551.228 1199.61 546.578Z" stroke="white" stroke-opacity="0.4" stroke-width="2" stroke-miterlimit="10"/>
</g>
<path d="M294.36 214.28C295.256 214.664 295.832 215.176 296.088 215.816C296.408 216.456 296.568 217.608 296.568 219.272C296.568 227.4 296.504 238.12 296.376 251.432C296.312 264.744 296.28 271.88 296.28 272.84V278.984C296.28 279.176 296.184 279.432 295.992 279.752C295.864 280.008 295.512 280.296 294.936 280.616C294.424 280.936 293.784 281.096 293.016 281.096C291.736 281.096 290.936 280.872 290.616 280.424C290.296 279.912 290.136 279.144 290.136 278.12C290.136 277.736 290.136 277.128 290.136 276.296C290.2 275.4 290.232 274.728 290.232 274.28C290.424 260.072 290.52 241.832 290.52 219.56C287.768 219.624 283.288 219.656 277.08 219.656C277.08 227.784 277.016 238.472 276.888 251.72C276.824 264.904 276.792 271.944 276.792 272.84V278.984C276.792 279.112 276.664 279.336 276.408 279.656C276.216 279.976 275.8 280.296 275.16 280.616C274.584 280.936 273.912 281.096 273.144 281.096C272.312 281.096 271.672 280.968 271.224 280.712C270.84 280.392 270.616 280.104 270.552 279.848C270.488 279.528 270.456 279.016 270.456 278.312C270.456 277.928 270.456 277.288 270.456 276.392C270.52 275.496 270.552 274.792 270.552 274.28C270.744 259.688 270.84 241.256 270.84 218.984V217.832C270.84 216.744 271.192 215.816 271.896 215.048C272.6 214.28 273.56 213.896 274.776 213.896C287.32 213.896 293.848 214.024 294.36 214.28ZM303.838 230.6V230.12C304.542 226.792 307.966 225.128 314.11 225.128C318.846 225.128 322.078 226.536 323.806 229.352C324.702 230.76 325.15 233.576 325.15 237.8C325.15 245.224 324.702 250.376 323.806 253.256C322.206 257.928 319.198 260.264 314.782 260.264C311.198 260.264 309.374 260.296 309.31 260.36C308.99 260.68 308.83 264.712 308.83 272.456L308.926 278.024C308.926 278.472 308.638 279.112 308.062 279.944C307.486 280.776 306.718 281.192 305.758 281.192C304.222 281.192 303.454 280.744 303.454 279.848L303.838 230.6ZM309.31 230.888C309.054 239.72 308.99 247.976 309.118 255.656H313.726C315.518 255.656 316.958 254.856 318.046 253.256C319.198 251.592 319.774 249.544 319.774 247.112L319.87 238.472C319.87 235.208 319.39 232.904 318.43 231.56C317.534 230.152 315.71 229.448 312.958 229.448C312.19 229.448 311.39 229.608 310.558 229.928C309.79 230.184 309.374 230.504 309.31 230.888ZM355.213 227.912V260.84C355.213 261.736 355.213 263.048 355.213 264.776C355.277 275.272 354.797 280.52 353.773 280.52C352.237 280.52 350.893 279.976 349.741 278.888L349.933 256.712C349.933 256.136 349.965 253.8 350.029 249.704C350.157 245.544 350.189 243.016 350.125 242.12L338.413 278.984C338.157 279.752 337.389 280.136 336.109 280.136C335.021 280.136 333.901 279.848 332.749 279.272C331.597 278.632 331.021 277.96 331.021 277.256C330.829 276.424 330.733 273.576 330.733 268.712C330.733 263.528 330.797 255.624 330.925 245C331.117 234.376 331.213 228.52 331.213 227.432C331.533 226.28 332.077 225.576 332.845 225.32C334.189 224.872 335.085 225 335.533 225.704C336.045 226.344 336.301 227.176 336.301 228.2V235.016C336.301 236.936 336.237 240.872 336.109 246.824C335.981 252.712 335.917 257.128 335.917 260.072C335.917 260.904 335.853 262.984 335.725 266.312C335.661 269.576 335.661 271.656 335.725 272.552C338.477 265.064 342.797 251.112 348.685 230.696C349.517 227.624 350.317 225.864 351.085 225.416C353.581 225.416 354.957 226.248 355.213 227.912ZM396.404 238.472C396.404 239.944 396.436 242.056 396.5 244.808C396.628 247.56 396.692 249.544 396.692 250.76C396.692 260.488 395.892 268.008 394.292 273.32C392.692 278.568 389.908 281.192 385.94 281.192C383.252 281.192 381.012 280.488 379.22 279.08C377.492 277.672 376.244 274.952 375.476 270.92C374.772 267.656 374.324 263.592 374.132 258.728L368.084 258.824V264.104V271.88C368.084 277.384 367.444 280.296 366.164 280.616H364.82C363.54 280.616 362.9 279.912 362.9 278.504C362.9 275.048 362.9 270.792 362.9 265.736C362.964 260.616 362.996 257.224 362.996 255.56V227.24C362.996 226.28 363.828 225.8 365.492 225.8C366.068 225.8 366.676 225.928 367.316 226.184C367.956 226.44 368.276 226.76 368.276 227.144C368.148 243.656 368.084 252.776 368.084 254.504C368.852 254.44 370.292 254.408 372.404 254.408H374.036C374.036 253 374.036 251.144 374.036 248.84C374.1 246.472 374.132 244.872 374.132 244.04C374.132 242.056 374.292 240.072 374.612 238.088C374.996 236.104 375.604 234.056 376.436 231.944C377.268 229.832 378.548 228.104 380.276 226.76C382.068 225.416 384.18 224.744 386.612 224.744C389.3 224.744 391.572 226.184 393.428 229.064C395.284 231.88 396.276 235.016 396.404 238.472ZM385.46 277.16C389.364 277.16 391.316 268.744 391.316 251.912C391.316 243.592 391.06 238.12 390.548 235.496C390.356 234.088 389.78 232.68 388.82 231.272C387.924 229.864 386.868 229.16 385.652 229.16C384.372 229.16 383.284 229.704 382.388 230.792C381.556 231.88 380.82 234.312 380.18 238.088C379.54 241.8 379.22 246.888 379.22 253.352C379.22 255.08 379.252 256.808 379.316 258.536C379.38 260.264 379.54 262.312 379.796 264.68C380.052 267.048 380.372 269.096 380.756 270.824C381.204 272.552 381.812 274.056 382.58 275.336C383.412 276.552 384.372 277.16 385.46 277.16ZM420.321 225.416C420.577 225.544 420.833 225.864 421.089 226.376C421.409 226.888 421.569 227.272 421.569 227.528C421.569 227.848 421.409 228.328 421.089 228.968C420.833 229.608 420.609 229.928 420.417 229.928L412.929 230.12C412.929 236.84 412.897 245.672 412.833 256.616C412.769 267.56 412.737 273.416 412.737 274.184V279.368C412.737 279.496 412.641 279.688 412.449 279.944C412.257 280.2 411.905 280.456 411.393 280.712C410.881 280.968 410.305 281.096 409.665 281.096C408.577 281.096 407.873 280.904 407.553 280.52C407.233 280.072 407.073 279.432 407.073 278.6C407.073 278.28 407.073 277.768 407.073 277.064C407.137 276.36 407.169 275.816 407.169 275.432C407.361 264.104 407.457 249 407.457 230.12C403.105 230.248 400.673 230.216 400.161 230.024C399.457 229.96 399.105 229 399.105 227.144C399.361 226.056 399.905 225.384 400.737 225.128C413.345 225.128 419.873 225.224 420.321 225.416ZM478.674 277.256C479.25 277.64 479.538 279.016 479.538 281.384L479.25 285.896C479.25 286.6 478.578 286.952 477.234 286.952C475.954 286.952 475.314 286.632 475.314 285.992L475.122 281H448.722L448.53 285.992C448.53 286.632 447.89 286.952 446.61 286.952C445.266 286.952 444.594 286.6 444.594 285.896C444.402 284.424 444.306 282.92 444.306 281.384C444.306 279.016 444.594 277.64 445.17 277.256C445.554 276.872 447.346 276.68 450.546 276.68H451.698C452.786 271.24 453.746 263.624 454.578 253.832C455.41 243.976 455.826 235.912 455.826 229.64V228.584C455.826 227.624 456.114 226.824 456.69 226.184C457.266 225.544 458.066 225.224 459.09 225.224C466.322 225.224 470.162 225.32 470.61 225.512C471.378 225.832 471.89 226.28 472.146 226.856C472.402 227.432 472.53 228.424 472.53 229.832C472.53 236.872 472.466 245.8 472.338 256.616C472.274 267.432 472.242 273.224 472.242 273.992V276.68H473.298C476.434 276.68 478.226 276.872 478.674 277.256ZM461.01 230.696C461.01 245.224 459.666 260.552 456.978 276.68H467.25V275.24C467.442 262.952 467.538 247.784 467.538 229.736C467.282 229.736 466.514 229.768 465.234 229.832C463.954 229.832 462.546 229.832 461.01 229.832V230.696ZM496.865 231.56C496.481 232.776 496.065 234.728 495.617 237.416C495.169 240.104 494.529 243.816 493.697 248.552C492.929 253.288 492.129 257.768 491.297 261.992C491.233 262.248 491.009 263.656 490.625 266.216C490.241 268.776 489.825 271.4 489.377 274.088C488.929 276.776 488.577 278.472 488.321 279.176C488.065 279.368 487.425 279.656 486.401 280.04C485.441 280.36 484.769 280.52 484.385 280.52C483.681 280.52 483.329 279.976 483.329 278.888C483.329 278.184 483.393 277.64 483.521 277.256C487.553 254.152 490.241 239.336 491.585 232.808C491.585 232.744 491.649 232.36 491.777 231.656C491.969 230.888 492.065 230.44 492.065 230.312C492.129 230.12 492.257 229.736 492.449 229.16C492.641 228.52 492.801 228.104 492.929 227.912C493.121 227.656 493.345 227.336 493.601 226.952C493.921 226.504 494.241 226.216 494.561 226.088C494.945 225.896 495.361 225.736 495.809 225.608C496.321 225.416 496.865 225.32 497.441 225.32C499.681 225.32 501.121 227.72 501.761 232.52L507.905 277.064C507.969 277.32 508.001 277.64 508.001 278.024C508.001 279.688 506.721 280.584 504.161 280.712C503.585 280.712 503.169 280.168 502.913 279.08L496.865 231.56ZM524.402 225.32C529.97 225.32 533.298 226.952 534.386 230.216L533.618 279.848C533.618 280.744 532.946 281.192 531.602 281.192C530.642 281.192 529.874 280.776 529.298 279.944C528.722 279.112 528.434 278.472 528.434 278.024C528.562 276.424 528.626 274.568 528.626 272.456C528.626 271.752 528.626 270.568 528.626 268.904C528.69 267.24 528.722 266.024 528.722 265.256C528.722 262.12 528.626 260.488 528.434 260.36C528.37 260.296 528.05 260.264 527.474 260.264H525.554C523.442 261.736 521.522 264.456 519.794 268.424C518.066 272.392 516.85 276.168 516.146 279.752C516.018 280.072 515.634 280.424 514.994 280.808C514.418 281.192 513.874 281.384 513.362 281.384C512.21 281.384 511.346 281.096 510.77 280.52C511.858 272.84 514.77 265.896 519.506 259.688C517.01 258.792 515.25 256.68 514.226 253.352C513.586 251.304 513.266 246.152 513.266 237.896C513.266 234.568 513.874 231.944 515.09 230.024C517.138 226.888 520.242 225.32 524.402 225.32ZM528.722 256.328C528.978 249.672 529.106 241.192 529.106 230.888C529.042 230.504 528.626 230.184 527.858 229.928C527.09 229.608 526.322 229.448 525.554 229.448C520.626 229.448 518.162 232.488 518.162 238.568C518.162 243.24 518.13 246.12 518.066 247.208C518.322 253.288 520.37 256.328 524.21 256.328H528.722ZM288.792 340.608C289.176 342.976 289.304 347.264 289.176 353.472C289.112 359.68 289.144 363.552 289.272 365.088C289.784 363.616 291 360.416 292.92 355.488C294.84 350.496 296.184 346.848 296.952 344.544C297.72 342.432 298.392 341.216 298.968 340.896C299.48 340.704 300.12 340.672 300.888 340.8C301.976 340.928 302.52 341.28 302.52 341.856C302.52 343.264 302.232 344.416 301.656 345.312C301.272 346.144 299.736 349.856 297.048 356.448C294.424 363.04 292.664 367.328 291.768 369.312C292.472 371.04 293.24 372.64 294.072 374.112C295.672 376.992 297.368 380.32 299.16 384.096C300.952 387.808 302.168 390.304 302.808 391.584C303.64 393.312 303.96 394.624 303.768 395.52C303.704 395.84 303.512 396.064 303.192 396.192C302.872 396.384 302.584 396.48 302.328 396.48C302.072 396.544 301.752 396.576 301.368 396.576C300.984 396.64 300.76 396.672 300.696 396.672C300.12 396.736 299.608 396.512 299.16 396C298.776 395.424 298.36 394.528 297.912 393.312L296.088 389.088C294.168 384.608 291.64 379.744 288.504 374.496C288.44 375.328 288.408 376.544 288.408 378.144C288.408 380.192 288.44 383.168 288.504 387.072C288.632 390.912 288.696 393.248 288.696 394.08C288.696 394.976 288.568 395.648 288.312 396.096C288.12 396.608 287.864 396.896 287.544 396.96C287.224 397.088 286.776 397.152 286.2 397.152C285.752 397.152 285.08 397.024 284.184 396.768C283.992 396.64 283.896 395.904 283.896 394.56C283.96 393.408 283.992 391.712 283.992 389.472C283.992 387.232 283.992 384.608 283.992 381.6C284.056 378.592 284.088 376.192 284.088 374.4C283.704 375.296 282.648 377.536 280.92 381.12C279.192 384.704 277.976 387.36 277.272 389.088L275.448 393.312C275.064 394.144 274.776 394.752 274.584 395.136C274.392 395.52 274.104 395.872 273.72 396.192C273.4 396.512 273.048 396.672 272.664 396.672C272.6 396.672 272.344 396.64 271.896 396.576C271.512 396.576 271.192 396.544 270.936 396.48C270.68 396.48 270.392 396.384 270.072 396.192C269.752 396.064 269.56 395.84 269.496 395.52C269.304 394.624 269.624 393.312 270.456 391.584C271.288 389.92 272.216 388.032 273.24 385.92C274.264 383.808 275.224 381.856 276.12 380.064C277.016 378.272 278.072 376.288 279.288 374.112C280.184 372.448 280.92 370.848 281.496 369.312C280.664 367.456 278.936 363.232 276.312 356.64C273.688 350.048 272.12 346.272 271.608 345.312C271.096 344.288 270.84 343.136 270.84 341.856C270.84 341.28 271.352 340.928 272.376 340.8C273.144 340.672 273.784 340.704 274.296 340.896C274.872 341.216 275.544 342.432 276.312 344.544C276.952 346.656 278.2 350.08 280.056 354.816C281.912 359.488 283.192 362.88 283.896 364.992C284.088 356.16 284.184 349.792 284.184 345.888C284.184 343.072 284.312 341.536 284.568 341.28C285.144 340.64 285.752 340.32 286.392 340.32C286.904 340.32 287.704 340.416 288.792 340.608ZM333.463 342.912V375.84C333.463 376.736 333.463 378.048 333.463 379.776C333.527 390.272 333.047 395.52 332.023 395.52C330.487 395.52 329.143 394.976 327.991 393.888L328.183 371.712C328.183 371.136 328.215 368.8 328.279 364.704C328.407 360.544 328.439 358.016 328.375 357.12L316.663 393.984C316.407 394.752 315.639 395.136 314.359 395.136C313.271 395.136 312.151 394.848 310.999 394.272C309.847 393.632 309.271 392.96 309.271 392.256C309.079 391.424 308.983 388.576 308.983 383.712C308.983 378.528 309.047 370.624 309.175 360C309.367 349.376 309.463 343.52 309.463 342.432C309.783 341.28 310.327 340.576 311.095 340.32C312.439 339.872 313.335 340 313.783 340.704C314.295 341.344 314.551 342.176 314.551 343.2V350.016C314.551 351.936 314.487 355.872 314.359 361.824C314.231 367.712 314.167 372.128 314.167 375.072C314.167 375.904 314.103 377.984 313.975 381.312C313.911 384.576 313.911 386.656 313.975 387.552C316.727 380.064 321.047 366.112 326.935 345.696C327.767 342.624 328.567 340.864 329.335 340.416C331.831 340.416 333.207 341.248 333.463 342.912ZM360.638 367.68C362.302 369.664 363.134 372.768 363.134 376.992C363.134 379.552 363.07 381.664 362.942 383.328C362.878 384.928 362.654 386.624 362.27 388.416C361.886 390.144 361.342 391.488 360.638 392.448C359.934 393.408 358.942 394.208 357.662 394.848C356.446 395.488 354.91 395.808 353.054 395.808H343.07C341.854 395.808 341.246 394.816 341.246 392.832L341.63 345.504V345.024C342.27 341.888 345.534 340.32 351.422 340.32C355.006 340.32 357.406 341.376 358.622 343.488C359.838 345.6 360.446 348.576 360.446 352.416C360.446 358.112 359.294 362.272 356.99 364.896C358.526 365.664 359.742 366.592 360.638 367.68ZM350.27 344.256C349.502 344.256 348.766 344.416 348.062 344.736C347.358 345.056 346.974 345.408 346.91 345.792C346.91 347.136 346.878 349.056 346.814 351.552C346.75 353.984 346.686 356.224 346.622 358.272C346.622 360.256 346.622 362.144 346.622 363.936L350.846 363.84C353.79 363.584 355.262 360.256 355.262 353.856V351.168C355.262 348.864 354.91 347.136 354.206 345.984C353.566 344.832 352.254 344.256 350.27 344.256ZM358.046 382.656C358.046 382.016 358.046 381.216 358.046 380.256C358.11 379.296 358.142 378.752 358.142 378.624C358.142 376.96 358.078 375.616 357.95 374.592C357.822 373.504 357.534 372.416 357.086 371.328C356.638 370.176 355.902 369.344 354.878 368.832C353.854 368.256 352.542 367.968 350.942 367.968C350.878 367.968 350.782 367.968 350.654 367.968C350.59 367.904 350.526 367.872 350.462 367.872L346.526 367.968C346.462 372.064 346.43 378.496 346.43 387.264C346.43 389.312 346.462 390.656 346.526 391.296C346.718 391.36 347.07 391.392 347.582 391.392H351.998C356.03 391.392 358.046 388.48 358.046 382.656ZM389.84 353.184C389.84 354.656 389.872 356.768 389.936 359.52C390.064 362.272 390.128 364.256 390.128 365.472C390.128 375.328 389.328 382.912 387.728 388.224C386.128 393.536 383.312 396.192 379.28 396.192C376.592 396.192 374.352 395.488 372.56 394.08C370.832 392.672 369.552 389.92 368.72 385.824C367.76 381.024 367.28 375.488 367.28 369.216C367.28 367.808 367.28 365.92 367.28 363.552C367.344 361.184 367.376 359.552 367.376 358.656C367.376 356.672 367.536 354.688 367.855 352.704C368.24 350.72 368.848 348.672 369.68 346.56C370.512 344.384 371.824 342.624 373.616 341.28C375.408 339.936 377.52 339.264 379.952 339.264C382.704 339.264 385.008 340.704 386.864 343.584C388.72 346.464 389.712 349.664 389.84 353.184ZM378.799 391.872C382.576 391.872 384.464 383.488 384.464 366.72C384.464 358.784 384.208 353.248 383.696 350.112C383.504 348.64 382.992 347.232 382.16 345.888C381.328 344.544 380.272 343.872 378.992 343.872C377.712 343.872 376.656 344.416 375.824 345.504C374.992 346.592 374.256 348.992 373.616 352.704C373.04 356.416 372.752 361.536 372.752 368.064C372.752 383.936 374.768 391.872 378.799 391.872ZM413.946 340.416C414.202 340.544 414.458 340.864 414.714 341.376C415.034 341.888 415.194 342.272 415.194 342.528C415.194 342.848 415.034 343.328 414.714 343.968C414.458 344.608 414.234 344.928 414.042 344.928L406.554 345.12C406.554 351.84 406.522 360.672 406.458 371.616C406.394 382.56 406.362 388.416 406.362 389.184V394.368C406.362 394.496 406.266 394.688 406.074 394.944C405.882 395.2 405.53 395.456 405.018 395.712C404.506 395.968 403.93 396.096 403.29 396.096C402.202 396.096 401.498 395.904 401.178 395.52C400.858 395.072 400.698 394.432 400.698 393.6C400.698 393.28 400.698 392.768 400.698 392.064C400.762 391.36 400.794 390.816 400.794 390.432C400.986 379.104 401.082 364 401.082 345.12C396.73 345.248 394.298 345.216 393.786 345.024C393.082 344.96 392.73 344 392.73 342.144C392.986 341.056 393.53 340.384 394.362 340.128C406.97 340.128 413.498 340.224 413.946 340.416ZM437.292 340.224C438.252 340.224 439.148 340.64 439.98 341.472V351.648C439.98 370.912 439.82 385.184 439.5 394.464C438.732 395.168 437.644 395.52 436.236 395.52C435.02 395.52 434.412 395.296 434.412 394.848L434.508 372.864V372.672C433.804 372.672 432.108 372.704 429.42 372.768C426.732 372.768 425.036 372.8 424.332 372.864V379.104V386.784C424.332 392.288 423.692 395.2 422.412 395.52H421.164C419.884 395.52 419.244 394.816 419.244 393.408C419.244 389.952 419.244 385.696 419.244 380.64C419.308 375.584 419.34 372.192 419.34 370.464V342.24C419.34 341.344 420.172 340.896 421.836 340.896C422.476 340.896 423.084 341.024 423.66 341.28C424.3 341.536 424.62 341.856 424.62 342.24C424.556 346.656 424.492 351.776 424.428 357.6C424.364 363.36 424.332 366.976 424.332 368.448C425.1 368.384 426.572 368.352 428.748 368.352C431.628 368.352 433.548 368.384 434.508 368.448L434.796 341.664C434.796 341.28 435.052 340.96 435.564 340.704C436.14 340.384 436.716 340.224 437.292 340.224ZM458.51 363.744C461.838 363.744 464.622 364.992 466.862 367.488C468.526 369.408 469.358 372.544 469.358 376.896C469.358 379.456 469.294 381.568 469.166 383.232C469.102 384.832 468.878 386.528 468.494 388.32C468.11 390.048 467.566 391.392 466.862 392.352C466.158 393.312 465.166 394.144 463.886 394.848C462.606 395.488 461.038 395.808 459.182 395.808H449.102C447.886 395.808 447.278 394.784 447.278 392.736L447.662 341.952C447.726 341.504 448.014 341.12 448.526 340.8C449.102 340.48 449.614 340.32 450.062 340.32C450.574 340.32 451.15 340.544 451.79 340.992C452.494 341.44 452.91 341.888 453.038 342.336C452.974 342.72 452.942 344.896 452.942 348.864L452.654 363.744H458.51ZM476.654 340.32C477.166 340.32 477.742 340.544 478.382 340.992C479.086 341.44 479.502 341.888 479.63 342.336C479.566 342.72 479.534 344.896 479.534 348.864C479.214 363.776 479.054 376.576 479.054 387.264L478.862 392.832C478.862 393.28 478.574 393.888 477.998 394.656C477.422 395.424 476.654 395.808 475.694 395.808C474.478 395.808 473.87 394.784 473.87 392.736L474.254 341.952C474.318 341.504 474.606 341.12 475.118 340.8C475.694 340.48 476.206 340.32 476.654 340.32ZM464.366 382.56V378.048C464.366 374.656 463.854 372.128 462.83 370.464C461.87 368.736 459.95 367.872 457.07 367.872L452.558 367.968C452.494 371.808 452.462 378.24 452.462 387.264C452.462 387.84 452.43 388.608 452.366 389.568C452.366 390.464 452.366 391.072 452.366 391.392C452.686 391.456 453.134 391.488 453.71 391.488H458.126C460.046 391.488 461.55 390.624 462.638 388.896C463.79 387.168 464.366 385.056 464.366 382.56ZM500.102 366.624C504.134 376.736 507.878 385.888 511.334 394.08C510.758 395.552 509.862 396.288 508.646 396.288C507.878 396.288 507.302 396.096 506.918 395.712C505.638 394.112 502.406 386.688 497.222 373.44C494.854 379.008 492.006 385.728 488.678 393.6C487.91 395.52 486.854 396.48 485.51 396.48C484.294 396.48 483.334 395.936 482.63 394.848C486.534 385.568 490.534 376.224 494.63 366.816C491.302 358.496 488.486 350.976 486.182 344.256C485.798 343.104 485.605 342.4 485.605 342.144C486.246 341.056 487.142 340.512 488.294 340.512C489.574 340.512 490.47 341.408 490.982 343.2L497.51 360C502.118 349.632 504.998 343.296 506.15 340.992C506.214 340.864 506.438 340.704 506.822 340.512C507.27 340.32 507.622 340.224 507.878 340.224C508.39 340.224 508.934 340.448 509.51 340.896C510.15 341.344 510.502 341.824 510.566 342.336C510.566 342.528 510.47 342.816 510.278 343.2C509.318 345.12 505.926 352.928 500.102 366.624ZM277.56 460.024C276.408 460.664 275.192 460.984 273.912 460.984C271.672 460.984 270.552 459.416 270.552 456.28C270.552 455.128 271.064 453.112 272.088 450.232C273.112 447.352 274.008 445.464 274.776 444.568C275.224 443.992 275.768 443.704 276.408 443.704C277.048 443.704 277.56 443.96 277.944 444.472C278.392 444.984 278.584 445.4 278.52 445.72C278.52 445.848 278.264 446.936 277.752 448.984C277.24 450.968 276.984 452.248 276.984 452.824C278.328 453.656 279 455.16 279 457.336C279 458.552 278.52 459.448 277.56 460.024ZM289.368 460.024C288.216 460.664 287 460.984 285.72 460.984C283.48 460.984 282.36 459.416 282.36 456.28C282.36 455.128 282.872 453.112 283.896 450.232C284.92 447.352 285.816 445.464 286.584 444.568C287.096 443.992 287.64 443.704 288.216 443.704C288.856 443.704 289.368 443.96 289.752 444.472C290.2 444.984 290.392 445.4 290.328 445.72C290.328 445.848 290.072 446.936 289.56 448.984C289.048 450.968 288.792 452.248 288.792 452.824C290.136 453.656 290.808 455.16 290.808 457.336C290.808 458.552 290.328 459.448 289.368 460.024ZM341.399 475.288L346.775 444.952C347.223 444.184 348.279 443.8 349.943 443.8C351.223 443.8 351.863 444.76 351.863 446.68C351.863 446.744 351.607 448.408 351.095 451.672C347.575 473.24 344.087 490.456 340.631 503.32C340.567 503.576 340.439 504.056 340.247 504.76C340.055 505.464 339.927 505.944 339.863 506.2C339.799 506.392 339.671 506.776 339.479 507.352C339.287 507.928 339.095 508.344 338.903 508.6C338.775 508.792 338.583 509.08 338.327 509.464C338.071 509.784 337.783 510.008 337.463 510.136C337.143 510.264 336.759 510.392 336.311 510.52C335.927 510.648 335.479 510.712 334.967 510.712C332.215 510.712 330.359 507.768 329.399 501.88C328.247 495.48 326.455 483.064 324.023 464.632C321.271 479.672 318.455 492.568 315.575 503.32C315.511 503.576 315.383 504.056 315.191 504.76C314.999 505.464 314.871 505.944 314.807 506.2C314.743 506.392 314.615 506.776 314.423 507.352C314.231 507.928 314.039 508.344 313.847 508.6C313.719 508.792 313.527 509.08 313.271 509.464C313.015 509.784 312.727 510.008 312.407 510.136C312.087 510.264 311.703 510.392 311.255 510.52C310.871 510.648 310.423 510.712 309.911 510.712C307.159 510.712 305.303 507.768 304.343 501.88C303.127 494.712 300.503 476.76 296.471 448.024C296.407 447.704 296.375 447.32 296.375 446.872C296.375 445.656 296.599 444.856 297.047 444.472C297.495 444.088 298.423 443.864 299.831 443.8C300.407 443.8 300.983 443.992 301.559 444.376C302.135 444.696 302.455 445.08 302.519 445.528C302.967 447.192 303.383 450.072 303.767 454.168C304.151 458.2 304.887 464.6 305.975 473.368C307.063 482.072 308.599 491.96 310.583 503.032L316.343 475.288L320.663 458.392C320.663 457.944 321.079 457.336 321.911 456.568C322.807 455.8 323.671 455.416 324.503 455.416H325.079C325.655 455.416 326.167 455.608 326.615 455.992C327.127 456.312 327.447 456.696 327.575 457.144C327.959 458.744 328.311 460.408 328.631 462.136C328.951 463.8 329.271 465.752 329.591 467.992C329.975 470.168 330.711 474.488 331.799 480.952C332.887 487.352 334.167 494.712 335.639 503.032L341.399 475.288ZM365.855 460.024C363.999 460.024 362.527 460.152 361.439 460.408C361.055 460.536 360.863 462.712 360.863 466.936C360.863 469.816 360.831 472.216 360.767 474.136C360.767 476.056 360.767 477.048 360.767 477.112C360.767 479.288 360.927 480.408 361.247 480.472C361.567 480.6 363.807 480.664 367.967 480.664C369.311 480.664 370.143 480.856 370.463 481.24C370.783 481.624 370.943 482.328 370.943 483.352C370.943 484.824 370.207 485.56 368.735 485.56H363.743C362.655 485.56 361.951 485.688 361.631 485.944C361.375 486.136 361.247 486.616 361.247 487.384C361.311 489.816 361.311 492.024 361.247 494.008C361.247 495.928 361.215 498.2 361.151 500.824C361.151 503.448 361.151 505.08 361.151 505.72C361.151 506.296 361.407 506.584 361.919 506.584H362.399C363.103 506.584 364.031 506.552 365.183 506.488C366.335 506.36 367.487 506.296 368.639 506.296C370.431 506.296 371.423 506.52 371.615 506.968C371.807 507.288 371.903 507.992 371.903 509.08C371.903 510.04 371.327 510.584 370.175 510.712C366.591 511.096 363.039 511.288 359.519 511.288C357.983 511.288 356.927 511.064 356.351 510.616C355.839 510.168 355.583 509.272 355.583 507.928V503.608C355.711 500.216 355.775 495.352 355.775 489.016C355.839 482.616 355.871 476.984 355.871 472.12C355.871 467.256 355.871 464.696 355.871 464.44C355.871 464.12 355.903 463.48 355.967 462.52C356.031 461.56 356.063 460.76 356.063 460.12C356.127 459.48 356.255 458.776 356.447 458.008C356.703 457.176 356.991 456.504 357.311 455.992C357.631 455.48 359.263 455.224 362.207 455.224C362.719 455.224 363.583 455.256 364.799 455.32C366.015 455.32 366.879 455.32 367.391 455.32C369.311 455.32 370.559 455.448 371.135 455.704C371.775 455.896 372.095 456.472 372.095 457.432C372.095 458.456 371.807 459.16 371.231 459.544C370.719 459.928 369.471 460.12 367.487 460.12C367.359 460.12 367.103 460.12 366.719 460.12C366.335 460.056 366.047 460.024 365.855 460.024ZM420.871 469.144C420.295 469.848 419.335 470.2 417.991 470.2C416.839 470.2 416.071 470.072 415.687 469.816C415.623 469.496 415.527 468.664 415.399 467.32C415.271 465.912 415.111 464.728 414.919 463.768C414.727 462.808 414.215 461.912 413.383 461.08C412.551 460.184 411.431 459.736 410.023 459.736C408.231 459.736 406.855 460.856 405.895 463.096C404.999 465.336 404.551 467.768 404.551 470.392C404.551 470.84 404.519 472.472 404.455 475.288C404.391 478.104 404.359 480.6 404.359 482.776V489.784C404.359 500.6 406.375 506.008 410.407 506.008C414.567 506.008 416.647 503.544 416.647 498.616C416.647 497.272 416.615 496.184 416.551 495.352C416.743 494.456 417.703 494.008 419.431 494.008C420.455 494.008 421.095 494.264 421.351 494.776C421.607 495.288 421.735 496.056 421.735 497.08C421.735 500.024 421.479 502.104 420.967 503.32C418.855 508.184 415.367 510.616 410.503 510.616C403.655 510.616 399.975 506.744 399.463 499C399.015 494.456 398.791 487.768 398.791 478.936C398.791 473.112 399.175 468.376 399.943 464.728C400.711 461.08 402.023 458.584 403.879 457.24C405.799 455.832 408.135 455.128 410.887 455.128C415.239 455.128 418.215 457.464 419.815 462.136C420.455 463.928 420.807 466.264 420.871 469.144ZM450.248 507.064C450.312 507.32 450.344 507.64 450.344 508.024C450.344 509.688 449.064 510.584 446.504 510.712C445.928 510.712 445.512 510.168 445.256 509.08L442.664 488.92L434.216 489.016C433.96 490.296 433.768 491.288 433.64 491.992C433.576 492.248 433.352 493.656 432.968 496.216C432.584 498.776 432.168 501.4 431.72 504.088C431.272 506.776 430.92 508.472 430.664 509.176C430.408 509.368 429.768 509.656 428.744 510.04C427.784 510.36 427.112 510.52 426.728 510.52C426.024 510.52 425.672 509.976 425.672 508.888C425.672 508.184 425.736 507.64 425.864 507.256C429.896 484.152 432.584 469.336 433.928 462.808C433.928 462.744 433.992 462.36 434.12 461.656C434.312 460.888 434.408 460.44 434.408 460.312C434.472 460.12 434.6 459.736 434.792 459.16C434.984 458.52 435.144 458.104 435.272 457.912C435.464 457.656 435.688 457.336 435.944 456.952C436.264 456.504 436.584 456.216 436.904 456.088C437.288 455.896 437.704 455.736 438.152 455.608C438.664 455.416 439.208 455.32 439.784 455.32C442.024 455.32 443.464 457.72 444.104 462.52L450.248 507.064ZM434.984 484.888C435.752 484.888 436.968 484.888 438.632 484.888C440.296 484.824 441.48 484.792 442.184 484.792L439.208 461.56C438.888 462.648 438.536 464.184 438.152 466.168C437.768 468.152 437.256 471.064 436.616 474.904C436.04 478.744 435.496 482.072 434.984 484.888ZM475.962 483.256C474.874 486.584 473.05 488.696 470.49 489.592C475.098 496.056 477.85 503.032 478.746 510.52C478.17 511.096 477.306 511.384 476.154 511.384C475.642 511.384 475.002 511.192 474.234 510.808C473.53 510.424 473.114 510.072 472.986 509.752C472.282 506.04 471.162 502.232 469.626 498.328C468.09 494.36 466.266 491.672 464.154 490.264H461.466C461.146 490.584 460.986 494.648 460.986 502.456L461.082 508.024C461.082 508.472 460.794 509.112 460.218 509.944C459.642 510.776 458.874 511.192 457.914 511.192C456.378 511.192 455.61 510.744 455.61 509.848L455.994 460.6V460.12C456.698 456.792 460.122 455.128 466.266 455.128C471.002 455.128 474.234 456.536 475.962 459.352C476.858 460.76 477.306 463.576 477.306 467.8C477.306 475.224 476.858 480.376 475.962 483.256ZM461.274 485.656H465.882C467.674 485.656 469.114 484.856 470.202 483.256C471.354 481.592 471.93 479.544 471.93 477.112L472.026 468.472C472.026 465.208 471.546 462.904 470.586 461.56C469.69 460.152 467.866 459.448 465.114 459.448C464.346 459.448 463.546 459.608 462.714 459.928C461.946 460.184 461.53 460.504 461.466 460.888C461.21 469.72 461.146 477.976 461.274 485.656ZM492.699 460.024C490.843 460.024 489.371 460.152 488.283 460.408C487.899 460.536 487.707 462.712 487.707 466.936C487.707 469.816 487.675 472.216 487.611 474.136C487.611 476.056 487.611 477.048 487.611 477.112C487.611 479.288 487.771 480.408 488.091 480.472C488.411 480.6 490.651 480.664 494.811 480.664C496.155 480.664 496.987 480.856 497.307 481.24C497.627 481.624 497.787 482.328 497.787 483.352C497.787 484.824 497.051 485.56 495.579 485.56H490.587C489.499 485.56 488.795 485.688 488.475 485.944C488.219 486.136 488.091 486.616 488.091 487.384C488.155 489.816 488.155 492.024 488.091 494.008C488.091 495.928 488.059 498.2 487.995 500.824C487.995 503.448 487.995 505.08 487.995 505.72C487.995 506.296 488.251 506.584 488.763 506.584H489.243C489.947 506.584 490.875 506.552 492.027 506.488C493.179 506.36 494.331 506.296 495.483 506.296C497.275 506.296 498.267 506.52 498.459 506.968C498.651 507.288 498.747 507.992 498.747 509.08C498.747 510.04 498.171 510.584 497.019 510.712C493.435 511.096 489.883 511.288 486.363 511.288C484.827 511.288 483.771 511.064 483.195 510.616C482.683 510.168 482.427 509.272 482.427 507.928V503.608C482.555 500.216 482.619 495.352 482.619 489.016C482.683 482.616 482.715 476.984 482.715 472.12C482.715 467.256 482.715 464.696 482.715 464.44C482.715 464.12 482.747 463.48 482.811 462.52C482.875 461.56 482.907 460.76 482.907 460.12C482.971 459.48 483.099 458.776 483.291 458.008C483.547 457.176 483.835 456.504 484.155 455.992C484.475 455.48 486.107 455.224 489.051 455.224C489.563 455.224 490.427 455.256 491.643 455.32C492.859 455.32 493.723 455.32 494.235 455.32C496.155 455.32 497.403 455.448 497.979 455.704C498.619 455.896 498.939 456.472 498.939 457.432C498.939 458.456 498.651 459.16 498.075 459.544C497.563 459.928 496.315 460.12 494.331 460.12C494.203 460.12 493.947 460.12 493.563 460.12C493.179 460.056 492.891 460.024 492.699 460.024ZM506.18 444.664C507.332 444.024 508.548 443.704 509.828 443.704C512.068 443.704 513.188 445.272 513.188 448.408C513.188 449.56 512.676 451.576 511.652 454.456C510.628 457.336 509.732 459.224 508.964 460.12C508.516 460.696 507.972 460.984 507.332 460.984C506.692 460.984 506.148 460.728 505.7 460.216C505.316 459.704 505.156 459.288 505.22 458.968C505.22 458.84 505.476 457.784 505.988 455.8C506.5 453.752 506.756 452.44 506.756 451.864C505.412 451.032 504.74 449.528 504.74 447.352C504.74 446.136 505.22 445.24 506.18 444.664ZM517.892 444.664C519.044 444.024 520.26 443.704 521.54 443.704C523.78 443.704 524.9 445.272 524.9 448.408C524.9 449.56 524.388 451.576 523.364 454.456C522.34 457.336 521.444 459.224 520.676 460.12C520.228 460.696 519.684 460.984 519.044 460.984C518.404 460.984 517.86 460.728 517.412 460.216C517.028 459.704 516.868 459.288 516.932 458.968C516.932 458.84 517.188 457.784 517.7 455.8C518.212 453.752 518.468 452.44 518.468 451.864C517.124 451.032 516.452 449.528 516.452 447.352C516.452 446.136 516.932 445.24 517.892 444.664Z" fill="white"/>
<defs>
<clipPath id="clip0_102_545">
<rect width="1376" height="711" fill="white" transform="matrix(1 0 0 -1 0 711)"/>
</clipPath>
</defs>
</svg>
