<svg width="144" height="72" viewBox="0 0 144 72" fill="none" xmlns="http://www.w3.org/2000/svg">
<g clip-path="url(#clip0_69_1266)">
<path d="M64.6164 41.6012C64.5216 41.07 63.8989 37.9625 61.1285 36.4288C58.1527 34.7817 54.5543 35.9709 52.6276 37.6202C47.7251 41.8168 50.006 52.0505 53.5571 53.5909C53.7285 53.6643 53.918 53.7043 54.1098 53.7265C53.7601 54.2689 47.8582 63.0911 36.941 63.0022C26.7075 62.9177 21.0334 55.0824 20.5258 54.3533C23.9528 48.6008 23.9528 42.3325 20.7379 38.8472C19.127 37.1045 15.3977 34.6373 12.0316 36.1087C9.38978 37.2735 8.52119 40.1853 8.35198 40.8099C7.61424 40.332 0.115031 35.3174 -2.95871e-05 26.8086C-0.108321 18.9111 6.20194 12.3383 12.4423 10.6379C20.959 8.31286 24.2777 16.4438 36.0228 16.2793C47.1791 16.1237 49.7714 8.70852 58.446 10.4845C65.0428 11.8337 72.5645 17.9686 72.9819 26.3507C73.4331 35.4575 65.2007 41.2056 64.6164 41.6012Z" fill="#F6B8C4"/>
<path d="M20.5236 54.3488C16.4694 49.8343 12.4062 45.3198 8.34976 40.8076C8.52122 40.183 9.38756 37.2689 12.0294 36.1064C15.3955 34.6327 19.1225 37.1022 20.7356 38.8449C23.9528 42.328 23.9528 48.5962 20.5236 54.3488Z" fill="#828282"/>
<path d="M64.6164 41.6014C61.1127 45.6447 57.6113 49.6812 54.1076 53.7222C53.9158 53.7022 53.7263 53.6622 53.5548 53.5867C50.0038 52.0463 47.7229 41.8148 52.6253 37.616C54.5498 35.9689 58.1482 34.7775 61.1263 36.4246C63.9012 37.9605 64.5217 41.0702 64.6164 41.6014Z" fill="#828282"/>
</g>
<path d="M88.7 4.1C88.8867 4.18 89.0067 4.28667 89.06 4.42C89.1267 4.55333 89.16 4.79333 89.16 5.14C89.16 6.83333 89.1467 9.06667 89.12 11.84C89.1067 14.6133 89.1 16.1 89.1 16.3V17.58C89.1 17.62 89.08 17.6733 89.04 17.74C89.0133 17.7933 88.94 17.8533 88.82 17.92C88.7133 17.9867 88.58 18.02 88.42 18.02C88.1533 18.02 87.9867 17.9733 87.92 17.88C87.8533 17.7733 87.82 17.6133 87.82 17.4C87.82 17.32 87.82 17.1933 87.82 17.02C87.8333 16.8333 87.84 16.6933 87.84 16.6C87.88 13.64 87.9 9.84 87.9 5.2C87.3267 5.21333 86.3933 5.22 85.1 5.22C85.1 6.91333 85.0867 9.14 85.06 11.9C85.0467 14.6467 85.04 16.1133 85.04 16.3V17.58C85.04 17.6067 85.0133 17.6533 84.96 17.72C84.92 17.7867 84.8333 17.8533 84.7 17.92C84.58 17.9867 84.44 18.02 84.28 18.02C84.1067 18.02 83.9733 17.9933 83.88 17.94C83.8 17.8733 83.7533 17.8133 83.74 17.76C83.7267 17.6933 83.72 17.5867 83.72 17.44C83.72 17.36 83.72 17.2267 83.72 17.04C83.7333 16.8533 83.74 16.7067 83.74 16.6C83.78 13.56 83.8 9.72 83.8 5.08V4.84C83.8 4.61333 83.8733 4.42 84.02 4.26C84.1667 4.1 84.3667 4.02 84.62 4.02C87.2333 4.02 88.5933 4.04667 88.7 4.1ZM90.6745 7.5V7.4C90.8212 6.70667 91.5345 6.36 92.8145 6.36C93.8012 6.36 94.4745 6.65333 94.8345 7.24C95.0212 7.53333 95.1145 8.12 95.1145 9C95.1145 10.5467 95.0212 11.62 94.8345 12.22C94.5012 13.1933 93.8745 13.68 92.9545 13.68C92.2079 13.68 91.8279 13.6867 91.8145 13.7C91.7479 13.7667 91.7145 14.6067 91.7145 16.22L91.7345 17.38C91.7345 17.4733 91.6745 17.6067 91.5545 17.78C91.4345 17.9533 91.2745 18.04 91.0745 18.04C90.7545 18.04 90.5945 17.9467 90.5945 17.76L90.6745 7.5ZM91.8145 7.56C91.7612 9.4 91.7479 11.12 91.7745 12.72H92.7345C93.1079 12.72 93.4079 12.5533 93.6345 12.22C93.8745 11.8733 93.9945 11.4467 93.9945 10.94L94.0145 9.14C94.0145 8.46 93.9145 7.98 93.7145 7.7C93.5279 7.40667 93.1479 7.26 92.5745 7.26C92.4145 7.26 92.2479 7.29333 92.0745 7.36C91.9145 7.41333 91.8279 7.48 91.8145 7.56ZM101.378 6.94V13.8C101.378 13.9867 101.378 14.26 101.378 14.62C101.391 16.8067 101.291 17.9 101.078 17.9C100.758 17.9 100.478 17.7867 100.238 17.56L100.278 12.94C100.278 12.82 100.284 12.3333 100.298 11.48C100.324 10.6133 100.331 10.0867 100.318 9.9L97.8777 17.58C97.8243 17.74 97.6643 17.82 97.3977 17.82C97.171 17.82 96.9377 17.76 96.6977 17.64C96.4577 17.5067 96.3377 17.3667 96.3377 17.22C96.2977 17.0467 96.2777 16.4533 96.2777 15.44C96.2777 14.36 96.291 12.7133 96.3177 10.5C96.3577 8.28667 96.3777 7.06667 96.3777 6.84C96.4443 6.6 96.5577 6.45333 96.7177 6.4C96.9977 6.30667 97.1843 6.33333 97.2777 6.48C97.3843 6.61333 97.4377 6.78667 97.4377 7V8.42C97.4377 8.82 97.4243 9.64 97.3977 10.88C97.371 12.1067 97.3577 13.0267 97.3577 13.64C97.3577 13.8133 97.3443 14.2467 97.3177 14.94C97.3043 15.62 97.3043 16.0533 97.3177 16.24C97.891 14.68 98.791 11.7733 100.018 7.52C100.191 6.88 100.358 6.51333 100.518 6.42C101.038 6.42 101.324 6.59333 101.378 6.94ZM109.959 9.14C109.959 9.44667 109.966 9.88667 109.979 10.46C110.006 11.0333 110.019 11.4467 110.019 11.7C110.019 13.7267 109.853 15.2933 109.519 16.4C109.186 17.4933 108.606 18.04 107.779 18.04C107.219 18.04 106.753 17.8933 106.379 17.6C106.019 17.3067 105.759 16.74 105.599 15.9C105.453 15.22 105.359 14.3733 105.319 13.36L104.059 13.38V14.48V16.1C104.059 17.2467 103.926 17.8533 103.659 17.92H103.379C103.113 17.92 102.979 17.7733 102.979 17.48C102.979 16.76 102.979 15.8733 102.979 14.82C102.993 13.7533 102.999 13.0467 102.999 12.7V6.8C102.999 6.6 103.173 6.5 103.519 6.5C103.639 6.5 103.766 6.52667 103.899 6.58C104.033 6.63333 104.099 6.7 104.099 6.78C104.073 10.22 104.059 12.12 104.059 12.48C104.219 12.4667 104.519 12.46 104.959 12.46H105.299C105.299 12.1667 105.299 11.78 105.299 11.3C105.313 10.8067 105.319 10.4733 105.319 10.3C105.319 9.88667 105.353 9.47333 105.419 9.06C105.499 8.64667 105.626 8.22 105.799 7.78C105.973 7.34 106.239 6.98 106.599 6.7C106.973 6.42 107.413 6.28 107.919 6.28C108.479 6.28 108.953 6.58 109.339 7.18C109.726 7.76667 109.933 8.42 109.959 9.14ZM107.679 17.2C108.493 17.2 108.899 15.4467 108.899 11.94C108.899 10.2067 108.846 9.06667 108.739 8.52C108.699 8.22667 108.579 7.93333 108.379 7.64C108.193 7.34667 107.973 7.2 107.719 7.2C107.453 7.2 107.226 7.31333 107.039 7.54C106.866 7.76667 106.713 8.27333 106.579 9.06C106.446 9.83333 106.379 10.8933 106.379 12.24C106.379 12.6 106.386 12.96 106.399 13.32C106.413 13.68 106.446 14.1067 106.499 14.6C106.553 15.0933 106.619 15.52 106.699 15.88C106.793 16.24 106.919 16.5533 107.079 16.82C107.253 17.0733 107.453 17.2 107.679 17.2ZM114.942 6.42C114.995 6.44667 115.049 6.51333 115.102 6.62C115.169 6.72667 115.202 6.80667 115.202 6.86C115.202 6.92667 115.169 7.02667 115.102 7.16C115.049 7.29333 115.002 7.36 114.962 7.36L113.402 7.4C113.402 8.8 113.395 10.64 113.382 12.92C113.369 15.2 113.362 16.42 113.362 16.58V17.66C113.362 17.6867 113.342 17.7267 113.302 17.78C113.262 17.8333 113.189 17.8867 113.082 17.94C112.975 17.9933 112.855 18.02 112.722 18.02C112.495 18.02 112.349 17.98 112.282 17.9C112.215 17.8067 112.182 17.6733 112.182 17.5C112.182 17.4333 112.182 17.3267 112.182 17.18C112.195 17.0333 112.202 16.92 112.202 16.84C112.242 14.48 112.262 11.3333 112.262 7.4C111.355 7.42667 110.849 7.42 110.742 7.38C110.595 7.36667 110.522 7.16667 110.522 6.78C110.575 6.55333 110.689 6.41333 110.862 6.36C113.489 6.36 114.849 6.38 114.942 6.42ZM127.099 17.22C127.219 17.3 127.279 17.5867 127.279 18.08L127.219 19.02C127.219 19.1667 127.079 19.24 126.799 19.24C126.532 19.24 126.399 19.1733 126.399 19.04L126.359 18H120.859L120.819 19.04C120.819 19.1733 120.685 19.24 120.419 19.24C120.139 19.24 119.999 19.1667 119.999 19.02C119.959 18.7133 119.939 18.4 119.939 18.08C119.939 17.5867 119.999 17.3 120.119 17.22C120.199 17.14 120.572 17.1 121.239 17.1H121.479C121.705 15.9667 121.905 14.38 122.079 12.34C122.252 10.2867 122.339 8.60667 122.339 7.3V7.08C122.339 6.88 122.399 6.71333 122.519 6.58C122.639 6.44667 122.805 6.38 123.019 6.38C124.525 6.38 125.325 6.4 125.419 6.44C125.579 6.50667 125.685 6.6 125.739 6.72C125.792 6.84 125.819 7.04667 125.819 7.34C125.819 8.80667 125.805 10.6667 125.779 12.92C125.765 15.1733 125.759 16.38 125.759 16.54V17.1H125.979C126.632 17.1 127.005 17.14 127.099 17.22ZM123.419 7.52C123.419 10.5467 123.139 13.74 122.579 17.1H124.719V16.8C124.759 14.24 124.779 11.08 124.779 7.32C124.725 7.32 124.565 7.32667 124.299 7.34C124.032 7.34 123.739 7.34 123.419 7.34V7.52ZM130.888 7.7C130.808 7.95333 130.722 8.36 130.628 8.92C130.535 9.48 130.402 10.2533 130.228 11.24C130.068 12.2267 129.902 13.16 129.728 14.04C129.715 14.0933 129.668 14.3867 129.588 14.92C129.508 15.4533 129.422 16 129.328 16.56C129.235 17.12 129.162 17.4733 129.108 17.62C129.055 17.66 128.922 17.72 128.708 17.8C128.508 17.8667 128.368 17.9 128.288 17.9C128.142 17.9 128.068 17.7867 128.068 17.56C128.068 17.4133 128.082 17.3 128.108 17.22C128.948 12.4067 129.508 9.32 129.788 7.96C129.788 7.94667 129.802 7.86667 129.828 7.72C129.868 7.56 129.888 7.46667 129.888 7.44C129.902 7.4 129.928 7.32 129.968 7.2C130.008 7.06667 130.042 6.98 130.068 6.94C130.108 6.88667 130.155 6.82 130.208 6.74C130.275 6.64667 130.342 6.58667 130.408 6.56C130.488 6.52 130.575 6.48667 130.668 6.46C130.775 6.42 130.888 6.4 131.008 6.4C131.475 6.4 131.775 6.9 131.908 7.9L133.188 17.18C133.202 17.2333 133.208 17.3 133.208 17.38C133.208 17.7267 132.942 17.9133 132.408 17.94C132.288 17.94 132.202 17.8267 132.148 17.6L130.888 7.7ZM136.625 6.4C137.785 6.4 138.479 6.74 138.705 7.42L138.545 17.76C138.545 17.9467 138.405 18.04 138.125 18.04C137.925 18.04 137.765 17.9533 137.645 17.78C137.525 17.6067 137.465 17.4733 137.465 17.38C137.492 17.0467 137.505 16.66 137.505 16.22C137.505 16.0733 137.505 15.8267 137.505 15.48C137.519 15.1333 137.525 14.88 137.525 14.72C137.525 14.0667 137.505 13.7267 137.465 13.7C137.452 13.6867 137.385 13.68 137.265 13.68H136.865C136.425 13.9867 136.025 14.5533 135.665 15.38C135.305 16.2067 135.052 16.9933 134.905 17.74C134.879 17.8067 134.799 17.88 134.665 17.96C134.545 18.04 134.432 18.08 134.325 18.08C134.085 18.08 133.905 18.02 133.785 17.9C134.012 16.3 134.619 14.8533 135.605 13.56C135.085 13.3733 134.719 12.9333 134.505 12.24C134.372 11.8133 134.305 10.74 134.305 9.02C134.305 8.32667 134.432 7.78 134.685 7.38C135.112 6.72667 135.759 6.4 136.625 6.4ZM137.525 12.86C137.579 11.4733 137.605 9.70667 137.605 7.56C137.592 7.48 137.505 7.41333 137.345 7.36C137.185 7.29333 137.025 7.26 136.865 7.26C135.839 7.26 135.325 7.89333 135.325 9.16C135.325 10.1333 135.319 10.7333 135.305 10.96C135.359 12.2267 135.785 12.86 136.585 12.86H137.525ZM87.54 30.46C87.62 30.9533 87.6467 31.8467 87.62 33.14C87.6067 34.4333 87.6133 35.24 87.64 35.56C87.7467 35.2533 88 34.5867 88.4 33.56C88.8 32.52 89.08 31.76 89.24 31.28C89.4 30.84 89.54 30.5867 89.66 30.52C89.7667 30.48 89.9 30.4733 90.06 30.5C90.2867 30.5267 90.4 30.6 90.4 30.72C90.4 31.0133 90.34 31.2533 90.22 31.44C90.14 31.6133 89.82 32.3867 89.26 33.76C88.7133 35.1333 88.3467 36.0267 88.16 36.44C88.3067 36.8 88.4667 37.1333 88.64 37.44C88.9733 38.04 89.3267 38.7333 89.7 39.52C90.0733 40.2933 90.3267 40.8133 90.46 41.08C90.6333 41.44 90.7 41.7133 90.66 41.9C90.6467 41.9667 90.6067 42.0133 90.54 42.04C90.4733 42.08 90.4133 42.1 90.36 42.1C90.3067 42.1133 90.24 42.12 90.16 42.12C90.08 42.1333 90.0333 42.14 90.02 42.14C89.9 42.1533 89.7933 42.1067 89.7 42C89.62 41.88 89.5333 41.6933 89.44 41.44L89.06 40.56C88.66 39.6267 88.1333 38.6133 87.48 37.52C87.4667 37.6933 87.46 37.9467 87.46 38.28C87.46 38.7067 87.4667 39.3267 87.48 40.14C87.5067 40.94 87.52 41.4267 87.52 41.6C87.52 41.7867 87.4933 41.9267 87.44 42.02C87.4 42.1267 87.3467 42.1867 87.28 42.2C87.2133 42.2267 87.12 42.24 87 42.24C86.9067 42.24 86.7667 42.2133 86.58 42.16C86.54 42.1333 86.52 41.98 86.52 41.7C86.5333 41.46 86.54 41.1067 86.54 40.64C86.54 40.1733 86.54 39.6267 86.54 39C86.5533 38.3733 86.56 37.8733 86.56 37.5C86.48 37.6867 86.26 38.1533 85.9 38.9C85.54 39.6467 85.2867 40.2 85.14 40.56L84.76 41.44C84.68 41.6133 84.62 41.74 84.58 41.82C84.54 41.9 84.48 41.9733 84.4 42.04C84.3333 42.1067 84.26 42.14 84.18 42.14C84.1667 42.14 84.1133 42.1333 84.02 42.12C83.94 42.12 83.8733 42.1133 83.82 42.1C83.7667 42.1 83.7067 42.08 83.64 42.04C83.5733 42.0133 83.5333 41.9667 83.52 41.9C83.48 41.7133 83.5467 41.44 83.72 41.08C83.8933 40.7333 84.0867 40.34 84.3 39.9C84.5133 39.46 84.7133 39.0533 84.9 38.68C85.0867 38.3067 85.3067 37.8933 85.56 37.44C85.7467 37.0933 85.9 36.76 86.02 36.44C85.8467 36.0533 85.4867 35.1733 84.94 33.8C84.3933 32.4267 84.0667 31.64 83.96 31.44C83.8533 31.2267 83.8 30.9867 83.8 30.72C83.8 30.6 83.9067 30.5267 84.12 30.5C84.28 30.4733 84.4133 30.48 84.52 30.52C84.64 30.5867 84.78 30.84 84.94 31.28C85.0733 31.72 85.3333 32.4333 85.72 33.42C86.1067 34.3933 86.3733 35.1 86.52 35.54C86.56 33.7 86.58 32.3733 86.58 31.56C86.58 30.9733 86.6067 30.6533 86.66 30.6C86.78 30.4667 86.9067 30.4 87.04 30.4C87.1467 30.4 87.3133 30.42 87.54 30.46ZM96.8464 30.94V37.8C96.8464 37.9867 96.8464 38.26 96.8464 38.62C96.8597 40.8067 96.7597 41.9 96.5464 41.9C96.2264 41.9 95.9464 41.7867 95.7064 41.56L95.7464 36.94C95.7464 36.82 95.7531 36.3333 95.7664 35.48C95.7931 34.6133 95.7997 34.0867 95.7864 33.9L93.3464 41.58C93.2931 41.74 93.1331 41.82 92.8664 41.82C92.6397 41.82 92.4064 41.76 92.1664 41.64C91.9264 41.5067 91.8064 41.3667 91.8064 41.22C91.7664 41.0467 91.7464 40.4533 91.7464 39.44C91.7464 38.36 91.7597 36.7133 91.7864 34.5C91.8264 32.2867 91.8464 31.0667 91.8464 30.84C91.9131 30.6 92.0264 30.4533 92.1864 30.4C92.4664 30.3067 92.6531 30.3333 92.7464 30.48C92.8531 30.6133 92.9064 30.7867 92.9064 31V32.42C92.9064 32.82 92.8931 33.64 92.8664 34.88C92.8397 36.1067 92.8264 37.0267 92.8264 37.64C92.8264 37.8133 92.8131 38.2467 92.7864 38.94C92.7731 39.62 92.7731 40.0533 92.7864 40.24C93.3597 38.68 94.2597 35.7733 95.4864 31.52C95.6597 30.88 95.8264 30.5133 95.9864 30.42C96.5064 30.42 96.7931 30.5933 96.8464 30.94ZM102.508 36.1C102.855 36.5133 103.028 37.16 103.028 38.04C103.028 38.5733 103.015 39.0133 102.988 39.36C102.975 39.6933 102.928 40.0467 102.848 40.42C102.768 40.78 102.655 41.06 102.508 41.26C102.361 41.46 102.155 41.6267 101.888 41.76C101.635 41.8933 101.315 41.96 100.928 41.96H98.848C98.5946 41.96 98.468 41.7533 98.468 41.34L98.548 31.48V31.38C98.6813 30.7267 99.3613 30.4 100.588 30.4C101.335 30.4 101.835 30.62 102.088 31.06C102.341 31.5 102.468 32.12 102.468 32.92C102.468 34.1067 102.228 34.9733 101.748 35.52C102.068 35.68 102.321 35.8733 102.508 36.1ZM100.348 31.22C100.188 31.22 100.035 31.2533 99.888 31.32C99.7413 31.3867 99.6613 31.46 99.648 31.54C99.648 31.82 99.6413 32.22 99.628 32.74C99.6146 33.2467 99.6013 33.7133 99.588 34.14C99.588 34.5533 99.588 34.9467 99.588 35.32L100.468 35.3C101.081 35.2467 101.388 34.5533 101.388 33.22V32.66C101.388 32.18 101.315 31.82 101.168 31.58C101.035 31.34 100.761 31.22 100.348 31.22ZM101.968 39.22C101.968 39.0867 101.968 38.92 101.968 38.72C101.981 38.52 101.988 38.4067 101.988 38.38C101.988 38.0333 101.975 37.7533 101.948 37.54C101.921 37.3133 101.861 37.0867 101.768 36.86C101.675 36.62 101.521 36.4467 101.308 36.34C101.095 36.22 100.821 36.16 100.488 36.16C100.475 36.16 100.455 36.16 100.428 36.16C100.415 36.1467 100.401 36.14 100.388 36.14L99.568 36.16C99.5546 37.0133 99.548 38.3533 99.548 40.18C99.548 40.6067 99.5546 40.8867 99.568 41.02C99.608 41.0333 99.6813 41.04 99.788 41.04H100.708C101.548 41.04 101.968 40.4333 101.968 39.22ZM108.592 33.08C108.592 33.3867 108.598 33.8267 108.612 34.4C108.638 34.9733 108.652 35.3867 108.652 35.64C108.652 37.6933 108.485 39.2733 108.152 40.38C107.818 41.4867 107.232 42.04 106.392 42.04C105.832 42.04 105.365 41.8933 104.992 41.6C104.632 41.3067 104.365 40.7333 104.192 39.88C103.992 38.88 103.892 37.7267 103.892 36.42C103.892 36.1267 103.892 35.7333 103.892 35.24C103.905 34.7467 103.912 34.4067 103.912 34.22C103.912 33.8067 103.945 33.3933 104.012 32.98C104.092 32.5667 104.218 32.14 104.392 31.7C104.565 31.2467 104.838 30.88 105.212 30.6C105.585 30.32 106.025 30.18 106.532 30.18C107.105 30.18 107.585 30.48 107.972 31.08C108.358 31.68 108.565 32.3467 108.592 33.08ZM106.292 41.14C107.078 41.14 107.472 39.3933 107.472 35.9C107.472 34.2467 107.418 33.0933 107.312 32.44C107.272 32.1333 107.165 31.84 106.992 31.56C106.818 31.28 106.598 31.14 106.332 31.14C106.065 31.14 105.845 31.2533 105.672 31.48C105.498 31.7067 105.345 32.2067 105.212 32.98C105.092 33.7533 105.032 34.82 105.032 36.18C105.032 39.4867 105.452 41.14 106.292 41.14ZM113.614 30.42C113.667 30.4467 113.72 30.5133 113.774 30.62C113.84 30.7267 113.874 30.8067 113.874 30.86C113.874 30.9267 113.84 31.0267 113.774 31.16C113.72 31.2933 113.674 31.36 113.634 31.36L112.074 31.4C112.074 32.8 112.067 34.64 112.054 36.92C112.04 39.2 112.034 40.42 112.034 40.58V41.66C112.034 41.6867 112.014 41.7267 111.974 41.78C111.934 41.8333 111.86 41.8867 111.754 41.94C111.647 41.9933 111.527 42.02 111.394 42.02C111.167 42.02 111.02 41.98 110.954 41.9C110.887 41.8067 110.854 41.6733 110.854 41.5C110.854 41.4333 110.854 41.3267 110.854 41.18C110.867 41.0333 110.874 40.92 110.874 40.84C110.914 38.48 110.934 35.3333 110.934 31.4C110.027 31.4267 109.52 31.42 109.414 31.38C109.267 31.3667 109.194 31.1667 109.194 30.78C109.247 30.5533 109.36 30.4133 109.534 30.36C112.16 30.36 113.52 30.38 113.614 30.42ZM118.478 30.38C118.678 30.38 118.864 30.4667 119.038 30.64V32.76C119.038 36.7733 119.004 39.7467 118.938 41.68C118.778 41.8267 118.551 41.9 118.258 41.9C118.004 41.9 117.878 41.8533 117.878 41.76L117.898 37.18V37.14C117.751 37.14 117.398 37.1467 116.838 37.16C116.278 37.16 115.924 37.1667 115.778 37.18V38.48V40.08C115.778 41.2267 115.644 41.8333 115.378 41.9H115.118C114.851 41.9 114.718 41.7533 114.718 41.46C114.718 40.74 114.718 39.8533 114.718 38.8C114.731 37.7467 114.738 37.04 114.738 36.68V30.8C114.738 30.6133 114.911 30.52 115.257 30.52C115.391 30.52 115.518 30.5467 115.638 30.6C115.771 30.6533 115.838 30.72 115.838 30.8C115.824 31.72 115.811 32.7867 115.798 34C115.784 35.2 115.778 35.9533 115.778 36.26C115.938 36.2467 116.244 36.24 116.698 36.24C117.298 36.24 117.698 36.2467 117.898 36.26L117.958 30.68C117.958 30.6 118.011 30.5333 118.118 30.48C118.238 30.4133 118.358 30.38 118.478 30.38ZM122.898 35.28C123.591 35.28 124.171 35.54 124.638 36.06C124.984 36.46 125.158 37.1133 125.158 38.02C125.158 38.5533 125.144 38.9933 125.118 39.34C125.104 39.6733 125.058 40.0267 124.978 40.4C124.898 40.76 124.784 41.04 124.638 41.24C124.491 41.44 124.284 41.6133 124.018 41.76C123.751 41.8933 123.424 41.96 123.038 41.96H120.938C120.684 41.96 120.558 41.7467 120.558 41.32L120.638 30.74C120.651 30.6467 120.711 30.5667 120.818 30.5C120.938 30.4333 121.044 30.4 121.138 30.4C121.244 30.4 121.364 30.4467 121.498 30.54C121.644 30.6333 121.731 30.7267 121.758 30.82C121.744 30.9 121.738 31.3533 121.738 32.18L121.678 35.28H122.898ZM126.678 30.4C126.784 30.4 126.904 30.4467 127.038 30.54C127.184 30.6333 127.271 30.7267 127.298 30.82C127.284 30.9 127.278 31.3533 127.278 32.18C127.211 35.2867 127.178 37.9533 127.178 40.18L127.138 41.34C127.138 41.4333 127.078 41.56 126.958 41.72C126.838 41.88 126.678 41.96 126.478 41.96C126.224 41.96 126.098 41.7467 126.098 41.32L126.178 30.74C126.191 30.6467 126.251 30.5667 126.358 30.5C126.478 30.4333 126.584 30.4 126.678 30.4ZM124.118 39.2V38.26C124.118 37.5533 124.011 37.0267 123.798 36.68C123.598 36.32 123.198 36.14 122.598 36.14L121.658 36.16C121.644 36.96 121.638 38.3 121.638 40.18C121.638 40.3 121.631 40.46 121.618 40.66C121.618 40.8467 121.618 40.9733 121.618 41.04C121.684 41.0533 121.778 41.06 121.898 41.06H122.818C123.218 41.06 123.531 40.88 123.758 40.52C123.998 40.16 124.118 39.72 124.118 39.2ZM131.563 35.88C132.403 37.9867 133.183 39.8933 133.903 41.6C133.783 41.9067 133.596 42.06 133.343 42.06C133.183 42.06 133.063 42.02 132.983 41.94C132.716 41.6067 132.043 40.06 130.963 37.3C130.469 38.46 129.876 39.86 129.183 41.5C129.023 41.9 128.803 42.1 128.523 42.1C128.269 42.1 128.069 41.9867 127.923 41.76C128.736 39.8267 129.569 37.88 130.423 35.92C129.729 34.1867 129.143 32.62 128.663 31.22C128.583 30.98 128.543 30.8333 128.543 30.78C128.676 30.5533 128.863 30.44 129.103 30.44C129.369 30.44 129.556 30.6267 129.663 31L131.023 34.5C131.983 32.34 132.583 31.02 132.823 30.54C132.836 30.5133 132.883 30.48 132.963 30.44C133.056 30.4 133.129 30.38 133.183 30.38C133.289 30.38 133.403 30.4267 133.523 30.52C133.656 30.6133 133.729 30.7133 133.743 30.82C133.743 30.86 133.723 30.92 133.683 31C133.483 31.4 132.776 33.0267 131.563 35.88ZM89.6531 55.38C89.4131 55.5133 89.1598 55.58 88.8931 55.58C88.4265 55.58 88.1931 55.2533 88.1931 54.6C88.1931 54.36 88.2998 53.94 88.5131 53.34C88.7265 52.74 88.9131 52.3467 89.0731 52.16C89.1665 52.04 89.2798 51.98 89.4131 51.98C89.5465 51.98 89.6531 52.0333 89.7331 52.14C89.8265 52.2467 89.8665 52.3333 89.8531 52.4C89.8531 52.4267 89.7998 52.6533 89.6931 53.08C89.5865 53.4933 89.5331 53.76 89.5331 53.88C89.8131 54.0533 89.9531 54.3667 89.9531 54.82C89.9531 55.0733 89.8531 55.26 89.6531 55.38ZM92.1131 55.38C91.8731 55.5133 91.6198 55.58 91.3531 55.58C90.8865 55.58 90.6531 55.2533 90.6531 54.6C90.6531 54.36 90.7598 53.94 90.9731 53.34C91.1865 52.74 91.3731 52.3467 91.5331 52.16C91.6398 52.04 91.7531 51.98 91.8731 51.98C92.0065 51.98 92.1131 52.0333 92.1931 52.14C92.2865 52.2467 92.3265 52.3333 92.3131 52.4C92.3131 52.4267 92.2598 52.6533 92.1531 53.08C92.0465 53.4933 91.9931 53.76 91.9931 53.88C92.2731 54.0533 92.4131 54.3667 92.4131 54.82C92.4131 55.0733 92.3131 55.26 92.1131 55.38ZM102.953 58.56L104.073 52.24C104.166 52.08 104.386 52 104.733 52C105 52 105.133 52.2 105.133 52.6C105.133 52.6133 105.08 52.96 104.973 53.64C104.24 58.1333 103.513 61.72 102.793 64.4C102.78 64.4533 102.753 64.5533 102.713 64.7C102.673 64.8467 102.646 64.9467 102.633 65C102.62 65.04 102.593 65.12 102.553 65.24C102.513 65.36 102.473 65.4467 102.433 65.5C102.406 65.54 102.366 65.6 102.313 65.68C102.26 65.7467 102.2 65.7933 102.133 65.82C102.066 65.8467 101.986 65.8733 101.893 65.9C101.813 65.9267 101.72 65.94 101.613 65.94C101.04 65.94 100.653 65.3267 100.453 64.1C100.213 62.7667 99.8396 60.18 99.333 56.34C98.7596 59.4733 98.173 62.16 97.573 64.4C97.5596 64.4533 97.533 64.5533 97.493 64.7C97.453 64.8467 97.4263 64.9467 97.413 65C97.3996 65.04 97.373 65.12 97.333 65.24C97.293 65.36 97.253 65.4467 97.213 65.5C97.1863 65.54 97.1463 65.6 97.093 65.68C97.0396 65.7467 96.9796 65.7933 96.913 65.82C96.8463 65.8467 96.7663 65.8733 96.673 65.9C96.593 65.9267 96.4996 65.94 96.393 65.94C95.8196 65.94 95.433 65.3267 95.233 64.1C94.9796 62.6067 94.433 58.8667 93.593 52.88C93.5796 52.8133 93.573 52.7333 93.573 52.64C93.573 52.3867 93.6196 52.22 93.713 52.14C93.8063 52.06 93.9996 52.0133 94.293 52C94.413 52 94.533 52.04 94.653 52.12C94.773 52.1867 94.8396 52.2667 94.853 52.36C94.9463 52.7067 95.033 53.3067 95.113 54.16C95.193 55 95.3463 56.3333 95.573 58.16C95.7996 59.9733 96.1196 62.0333 96.533 64.34L97.733 58.56L98.633 55.04C98.633 54.9467 98.7196 54.82 98.893 54.66C99.0796 54.5 99.2596 54.42 99.433 54.42H99.553C99.673 54.42 99.7796 54.46 99.873 54.54C99.9796 54.6067 100.046 54.6867 100.073 54.78C100.153 55.1133 100.226 55.46 100.293 55.82C100.36 56.1667 100.426 56.5733 100.493 57.04C100.573 57.4933 100.726 58.3933 100.953 59.74C101.18 61.0733 101.446 62.6067 101.753 64.34L102.953 58.56ZM108.048 55.38C107.661 55.38 107.355 55.4067 107.128 55.46C107.048 55.4867 107.008 55.94 107.008 56.82C107.008 57.42 107.001 57.92 106.988 58.32C106.988 58.72 106.988 58.9267 106.988 58.94C106.988 59.3933 107.021 59.6267 107.088 59.64C107.155 59.6667 107.621 59.68 108.488 59.68C108.768 59.68 108.941 59.72 109.008 59.8C109.075 59.88 109.108 60.0267 109.108 60.24C109.108 60.5467 108.955 60.7 108.648 60.7H107.608C107.381 60.7 107.235 60.7267 107.168 60.78C107.115 60.82 107.088 60.92 107.088 61.08C107.101 61.5867 107.101 62.0467 107.088 62.46C107.088 62.86 107.081 63.3333 107.068 63.88C107.068 64.4267 107.068 64.7667 107.068 64.9C107.068 65.02 107.121 65.08 107.228 65.08H107.328C107.475 65.08 107.668 65.0733 107.908 65.06C108.148 65.0333 108.388 65.02 108.628 65.02C109.001 65.02 109.208 65.0667 109.248 65.16C109.288 65.2267 109.308 65.3733 109.308 65.6C109.308 65.8 109.188 65.9133 108.948 65.94C108.201 66.02 107.461 66.06 106.728 66.06C106.408 66.06 106.188 66.0133 106.068 65.92C105.961 65.8267 105.908 65.64 105.908 65.36V64.46C105.935 63.7533 105.948 62.74 105.948 61.42C105.961 60.0867 105.968 58.9133 105.968 57.9C105.968 56.8867 105.968 56.3533 105.968 56.3C105.968 56.2333 105.975 56.1 105.988 55.9C106.001 55.7 106.008 55.5333 106.008 55.4C106.021 55.2667 106.048 55.12 106.088 54.96C106.141 54.7867 106.201 54.6467 106.268 54.54C106.335 54.4333 106.675 54.38 107.288 54.38C107.395 54.38 107.575 54.3867 107.828 54.4C108.081 54.4 108.261 54.4 108.368 54.4C108.768 54.4 109.028 54.4267 109.148 54.48C109.281 54.52 109.348 54.64 109.348 54.84C109.348 55.0533 109.288 55.2 109.168 55.28C109.061 55.36 108.801 55.4 108.388 55.4C108.361 55.4 108.308 55.4 108.228 55.4C108.148 55.3867 108.088 55.38 108.048 55.38ZM119.51 57.28C119.39 57.4267 119.19 57.5 118.91 57.5C118.67 57.5 118.51 57.4733 118.43 57.42C118.416 57.3533 118.396 57.18 118.37 56.9C118.343 56.6067 118.31 56.36 118.27 56.16C118.23 55.96 118.123 55.7733 117.95 55.6C117.776 55.4133 117.543 55.32 117.25 55.32C116.876 55.32 116.59 55.5533 116.39 56.02C116.203 56.4867 116.11 56.9933 116.11 57.54C116.11 57.6333 116.103 57.9733 116.09 58.56C116.076 59.1467 116.07 59.6667 116.07 60.12V61.58C116.07 63.8333 116.49 64.96 117.33 64.96C118.196 64.96 118.63 64.4467 118.63 63.42C118.63 63.14 118.623 62.9133 118.61 62.74C118.65 62.5533 118.85 62.46 119.21 62.46C119.423 62.46 119.556 62.5133 119.61 62.62C119.663 62.7267 119.69 62.8867 119.69 63.1C119.69 63.7133 119.636 64.1467 119.53 64.4C119.09 65.4133 118.363 65.92 117.35 65.92C115.923 65.92 115.156 65.1133 115.05 63.5C114.956 62.5533 114.91 61.16 114.91 59.32C114.91 58.1067 114.99 57.12 115.15 56.36C115.31 55.6 115.583 55.08 115.97 54.8C116.37 54.5067 116.856 54.36 117.43 54.36C118.336 54.36 118.956 54.8467 119.29 55.82C119.423 56.1933 119.496 56.68 119.51 57.28ZM125.63 65.18C125.643 65.2333 125.65 65.3 125.65 65.38C125.65 65.7267 125.383 65.9133 124.85 65.94C124.73 65.94 124.643 65.8267 124.59 65.6L124.05 61.4L122.29 61.42C122.237 61.6867 122.197 61.8933 122.17 62.04C122.157 62.0933 122.11 62.3867 122.03 62.92C121.95 63.4533 121.863 64 121.77 64.56C121.677 65.12 121.603 65.4733 121.55 65.62C121.497 65.66 121.363 65.72 121.15 65.8C120.95 65.8667 120.81 65.9 120.73 65.9C120.583 65.9 120.51 65.7867 120.51 65.56C120.51 65.4133 120.523 65.3 120.55 65.22C121.39 60.4067 121.95 57.32 122.23 55.96C122.23 55.9467 122.243 55.8667 122.27 55.72C122.31 55.56 122.33 55.4667 122.33 55.44C122.343 55.4 122.37 55.32 122.41 55.2C122.45 55.0667 122.483 54.98 122.51 54.94C122.55 54.8867 122.597 54.82 122.65 54.74C122.717 54.6467 122.783 54.5867 122.85 54.56C122.93 54.52 123.017 54.4867 123.11 54.46C123.217 54.42 123.33 54.4 123.45 54.4C123.917 54.4 124.217 54.9 124.35 55.9L125.63 65.18ZM122.45 60.56C122.61 60.56 122.863 60.56 123.21 60.56C123.557 60.5467 123.803 60.54 123.95 60.54L123.33 55.7C123.263 55.9267 123.19 56.2467 123.11 56.66C123.03 57.0733 122.923 57.68 122.79 58.48C122.67 59.28 122.557 59.9733 122.45 60.56ZM130.987 60.22C130.76 60.9133 130.38 61.3533 129.847 61.54C130.807 62.8867 131.38 64.34 131.567 65.9C131.447 66.02 131.267 66.08 131.027 66.08C130.92 66.08 130.787 66.04 130.627 65.96C130.48 65.88 130.394 65.8067 130.367 65.74C130.22 64.9667 129.987 64.1733 129.667 63.36C129.347 62.5333 128.967 61.9733 128.527 61.68H127.967C127.9 61.7467 127.867 62.5933 127.867 64.22L127.887 65.38C127.887 65.4733 127.827 65.6067 127.707 65.78C127.587 65.9533 127.427 66.04 127.227 66.04C126.907 66.04 126.747 65.9467 126.747 65.76L126.827 55.5V55.4C126.974 54.7067 127.687 54.36 128.967 54.36C129.954 54.36 130.627 54.6533 130.987 55.24C131.174 55.5333 131.267 56.12 131.267 57C131.267 58.5467 131.174 59.62 130.987 60.22ZM127.927 60.72H128.887C129.26 60.72 129.56 60.5533 129.787 60.22C130.027 59.8733 130.147 59.4467 130.147 58.94L130.167 57.14C130.167 56.46 130.067 55.98 129.867 55.7C129.68 55.4067 129.3 55.26 128.727 55.26C128.567 55.26 128.4 55.2933 128.227 55.36C128.067 55.4133 127.98 55.48 127.967 55.56C127.914 57.4 127.9 59.12 127.927 60.72ZM134.474 55.38C134.087 55.38 133.78 55.4067 133.554 55.46C133.474 55.4867 133.434 55.94 133.434 56.82C133.434 57.42 133.427 57.92 133.414 58.32C133.414 58.72 133.414 58.9267 133.414 58.94C133.414 59.3933 133.447 59.6267 133.514 59.64C133.58 59.6667 134.047 59.68 134.914 59.68C135.194 59.68 135.367 59.72 135.434 59.8C135.5 59.88 135.534 60.0267 135.534 60.24C135.534 60.5467 135.38 60.7 135.074 60.7H134.034C133.807 60.7 133.66 60.7267 133.594 60.78C133.54 60.82 133.514 60.92 133.514 61.08C133.527 61.5867 133.527 62.0467 133.514 62.46C133.514 62.86 133.507 63.3333 133.494 63.88C133.494 64.4267 133.494 64.7667 133.494 64.9C133.494 65.02 133.547 65.08 133.654 65.08H133.754C133.9 65.08 134.094 65.0733 134.334 65.06C134.574 65.0333 134.814 65.02 135.054 65.02C135.427 65.02 135.634 65.0667 135.674 65.16C135.714 65.2267 135.734 65.3733 135.734 65.6C135.734 65.8 135.614 65.9133 135.374 65.94C134.627 66.02 133.887 66.06 133.154 66.06C132.834 66.06 132.614 66.0133 132.494 65.92C132.387 65.8267 132.334 65.64 132.334 65.36V64.46C132.36 63.7533 132.374 62.74 132.374 61.42C132.387 60.0867 132.394 58.9133 132.394 57.9C132.394 56.8867 132.394 56.3533 132.394 56.3C132.394 56.2333 132.4 56.1 132.414 55.9C132.427 55.7 132.434 55.5333 132.434 55.4C132.447 55.2667 132.474 55.12 132.514 54.96C132.567 54.7867 132.627 54.6467 132.694 54.54C132.76 54.4333 133.1 54.38 133.714 54.38C133.82 54.38 134 54.3867 134.254 54.4C134.507 54.4 134.687 54.4 134.794 54.4C135.194 54.4 135.454 54.4267 135.574 54.48C135.707 54.52 135.774 54.64 135.774 54.84C135.774 55.0533 135.714 55.2 135.594 55.28C135.487 55.36 135.227 55.4 134.814 55.4C134.787 55.4 134.734 55.4 134.654 55.4C134.574 55.3867 134.514 55.38 134.474 55.38ZM137.282 52.18C137.522 52.0467 137.776 51.98 138.042 51.98C138.509 51.98 138.742 52.3067 138.742 52.96C138.742 53.2 138.636 53.62 138.422 54.22C138.209 54.82 138.022 55.2133 137.862 55.4C137.769 55.52 137.656 55.58 137.522 55.58C137.389 55.58 137.276 55.5267 137.182 55.42C137.102 55.3133 137.069 55.2267 137.082 55.16C137.082 55.1333 137.136 54.9133 137.242 54.5C137.349 54.0733 137.402 53.8 137.402 53.68C137.122 53.5067 136.982 53.1933 136.982 52.74C136.982 52.4867 137.082 52.3 137.282 52.18ZM139.722 52.18C139.962 52.0467 140.216 51.98 140.482 51.98C140.949 51.98 141.182 52.3067 141.182 52.96C141.182 53.2 141.076 53.62 140.862 54.22C140.649 54.82 140.462 55.2133 140.302 55.4C140.209 55.52 140.096 55.58 139.962 55.58C139.829 55.58 139.716 55.5267 139.622 55.42C139.542 55.3133 139.509 55.2267 139.522 55.16C139.522 55.1333 139.576 54.9133 139.682 54.5C139.789 54.0733 139.842 53.8 139.842 53.68C139.562 53.5067 139.422 53.1933 139.422 52.74C139.422 52.4867 139.522 52.3 139.722 52.18Z" fill="white"/>
<defs>
<clipPath id="clip0_69_1266">
<rect width="73" height="53" fill="white" transform="translate(0 10)"/>
</clipPath>
</defs>
</svg>
