<svg width="55" height="55" viewBox="0 0 55 55" fill="none" xmlns="http://www.w3.org/2000/svg">
<path d="M48.1293 7.04274C46.7898 6.98406 45.4243 7.38435 44.2986 8.21579L41.2779 10.4459L27.5 20.6316L13.851 10.5425C13.6608 10.3567 13.4097 10.246 13.1441 10.231H13.4191L10.7078 8.22438C9.58145 7.39089 8.21387 6.98834 6.87286 7.04704C5.53185 7.10574 4.21845 7.62478 3.19903 8.63044C1.90405 9.90718 1.10001 11.693 1.10001 13.6513V17.4283C1.08397 17.5358 1.08397 17.6452 1.10001 17.7527V43.4502C1.10001 45.5635 2.8367 47.3002 4.95001 47.3002H13.2C13.4917 47.3001 13.7715 47.1842 13.9778 46.978C14.1841 46.7717 14.3 46.4919 14.3 46.2002V27.9105L26.8469 37.1853C27.036 37.3249 27.2649 37.4002 27.5 37.4002C27.7351 37.4002 27.964 37.3249 28.1531 37.1853L40.7 27.9105V46.2002C40.7 46.4919 40.8159 46.7717 41.0222 46.978C41.2285 47.1842 41.5083 47.3001 41.8 47.3002H50.05C52.1633 47.3002 53.9 45.5635 53.9 43.4502V17.7312C53.9124 17.6364 53.9124 17.5403 53.9 17.4455V13.6513C53.9 11.717 53.1195 9.93953 51.8418 8.66052C51.8049 8.62359 51.7925 8.61336 51.8074 8.62829C51.8053 8.62613 51.8031 8.62398 51.801 8.62185C50.7818 7.61841 49.4688 7.10143 48.1293 7.04274ZM48.009 9.2406C48.8409 9.27321 49.6475 9.58874 50.2584 10.1902C50.2792 10.2107 50.2944 10.2263 50.2842 10.216C51.1603 11.093 51.7 12.3076 51.7 13.6513V17.0459L42.9 23.5492V12.1002C42.9005 12.0629 42.899 12.0256 42.8957 11.9884L45.6049 9.9861H45.607C46.3205 9.45904 47.1771 9.20798 48.009 9.2406ZM6.99317 9.24704C7.82603 9.21444 8.68549 9.46425 9.39942 9.99255L12.1043 11.9927C12.1011 12.0285 12.0997 12.0643 12.1 12.1002V23.5492L3.30001 17.0459V13.6513C3.30001 12.2921 3.85194 11.0759 4.74376 10.1967C5.35454 9.59411 6.16031 9.27964 6.99317 9.24704ZM40.7 13.6084V25.1756L27.5 34.9316L14.3 25.1756V13.6105L26.8469 22.8853C27.036 23.0249 27.2649 23.1002 27.5 23.1002C27.7351 23.1002 27.964 23.0249 28.1531 22.8853L40.7 13.6084ZM3.30001 19.7808L12.1 26.2863V45.1002H4.95001C4.02511 45.1002 3.30001 44.3751 3.30001 43.4502V19.7808ZM51.7 19.7808V43.4502C51.7 44.3751 50.9749 45.1002 50.05 45.1002H42.9V26.2863L51.7 19.7808Z" fill="white"/>
</svg>
