<svg width="527" height="527" viewBox="0 0 527 527" fill="none" xmlns="http://www.w3.org/2000/svg">
<g clip-path="url(#clip0_68_335)">
<path d="M262.764 518.168C403.007 518.168 516.696 404.479 516.696 264.236C516.696 123.994 403.007 10.3047 262.764 10.3047C122.521 10.3047 8.8324 123.994 8.8324 264.236C8.8324 404.479 122.521 518.168 262.764 518.168Z" fill="#F6B8C4"/>
<path d="M382.737 116.293H142.791V413.651H382.737V116.293Z" fill="#F2F2F2"/>
<path d="M375.377 123.654V406.291H150.151V123.654H375.377ZM390.098 108.933H135.43V421.011H390.098V108.933Z" fill="#F2F2F2"/>
<path d="M217.13 168.552H352.56" stroke="#F6B8C4" stroke-width="3" stroke-miterlimit="10"/>
<path d="M217.866 276.013H353.296" stroke="#F6B8C4" stroke-width="3" stroke-miterlimit="10"/>
<path d="M217.866 329.007H353.296" stroke="#F6B8C4" stroke-width="3" stroke-miterlimit="10"/>
<path d="M217.866 223.018H353.296" stroke="#F6B8C4" stroke-width="3" stroke-miterlimit="10"/>
<path d="M217.866 382.001H353.296" stroke="#F6B8C4" stroke-width="3" stroke-miterlimit="10"/>
<path d="M185.48 145.735V164.871H166.344V145.735H185.48ZM189.897 141.318H161.927V169.288H189.897V141.318Z" fill="#F6B8C4"/>
<path d="M169.509 155.303L175.912 161.118L193.577 136.166" stroke="#F6B8C4" stroke-miterlimit="10"/>
<path d="M185.48 357.713V376.849H166.344V357.713H185.48ZM189.897 353.296H161.927V381.266H189.897V353.296Z" fill="#F6B8C4"/>
<path d="M169.509 367.281L175.912 373.096L193.577 348.144" stroke="#F6B8C4" stroke-miterlimit="10"/>
<path d="M185.48 304.718V323.855H166.344V304.718H185.48ZM189.897 300.302H161.927V328.271H189.897V300.302Z" fill="#F6B8C4"/>
<path d="M169.509 314.286L175.912 320.101L193.577 295.149" stroke="#F6B8C4" stroke-miterlimit="10"/>
<path d="M185.48 253.195V272.332H166.344V253.195H185.48ZM189.897 248.779H161.927V276.749H189.897V248.779Z" fill="#F6B8C4"/>
<path d="M169.509 262.764L175.912 268.578L193.577 243.627" stroke="#F6B8C4" stroke-miterlimit="10"/>
<path d="M186.952 198.729V217.866H167.816V198.729H186.952ZM191.369 194.313H163.399V222.282H191.369V194.313Z" fill="#F6B8C4"/>
<path d="M170.981 208.298L177.384 214.112L195.049 189.161" stroke="#F6B8C4" stroke-miterlimit="10"/>
</g>
<defs>
<clipPath id="clip0_68_335">
<rect width="527" height="527" fill="white"/>
</clipPath>
</defs>
</svg>
