<?xml version="1.0" encoding="utf-8"?>
<!-- Generator: Adobe Illustrator 26.4.1, SVG Export Plug-In . SVG Version: 6.00 Build 0)  -->
<svg version="1.1" id="Слой_1" xmlns="http://www.w3.org/2000/svg" xmlns:xlink="http://www.w3.org/1999/xlink" x="0px" y="0px"
	 viewBox="0 0 477.96 368.68" style="enable-background:new 0 0 477.96 368.68;" xml:space="preserve">
<style type="text/css">
	.st0{fill:#F5C3AD;}
	.st1{fill:#E2AE9C;}
	.st2{fill:#F7F2F3;}
	.st3{fill:#F6B8C4;}
</style>
<g>
	<path class="st0" d="M168.64,361.29h-58.98c-12.48,0-22.6-10.12-22.6-22.6V204.65c0-12.48,10.12-22.6,22.6-22.6h58.98
		c12.48,0,22.6,10.12,22.6,22.6v134.04C191.23,351.17,181.12,361.29,168.64,361.29z"/>
	<rect x="109.09" y="165.97" class="st1" width="60.13" height="16.09"/>
</g>
<g>
	<path class="st0" d="M454.4,363.39H250.91c-9.17,0-16.6-7.43-16.6-16.6V92.75c0-9.17,7.43-16.6,16.6-16.6H454.4
		c9.17,0,16.6,7.43,16.6,16.6V346.8C471,355.96,463.57,363.39,454.4,363.39z"/>
	<rect x="276.45" y="47.82" class="st1" width="152.43" height="28.34"/>
	<path class="st0" d="M444.45,47.82H260.87c-5.36,0-9.7-4.34-9.7-9.7V15.39c0-5.36,4.34-9.7,9.7-9.7h183.57c5.36,0,9.7,4.34,9.7,9.7
		v22.72C454.15,43.47,449.8,47.82,444.45,47.82z"/>
	<g>
		<circle class="st2" cx="352.66" cy="216.75" r="53.11"/>
		<g>
			<path class="st3" d="M353.14,206.91c-1.99,0.04-4.54,0.85-10.44,7.46c-9.25,10.35-13.87,15.53-12.23,21.35
				c1.69,5.98,9.42,10.74,14.28,9.23c4.12-1.28,5.04-6.73,7.98-6.46c2.69,0.25,2.67,4.87,6.02,6.5c4.65,2.26,13.91-2.2,16.23-8.82
				c2.55-7.27-4.18-14.61-11.17-22.24C357.48,207.04,354.17,206.9,353.14,206.91z"/>
			<ellipse class="st3" cx="329.12" cy="209.89" rx="4.99" ry="5.71"/>
			<ellipse class="st3" cx="343.76" cy="194.32" rx="4.94" ry="6.39"/>
			<ellipse class="st3" cx="361.95" cy="194.32" rx="4.94" ry="6.39"/>
			<ellipse class="st3" cx="376.24" cy="209.77" rx="4.96" ry="5.54"/>
		</g>
	</g>
	<g>
		<circle class="st2" cx="139.15" cy="277.91" r="26.31"/>
		<g>
			<path class="st3" d="M139.39,273.03c-0.99,0.02-2.25,0.42-5.17,3.69c-4.58,5.13-6.87,7.69-6.06,10.58
				c0.84,2.96,4.67,5.32,7.07,4.57c2.04-0.63,2.5-3.34,3.95-3.2c1.33,0.12,1.32,2.41,2.98,3.22c2.31,1.12,6.89-1.09,8.04-4.37
				c1.26-3.6-2.07-7.24-5.54-11.02C141.54,273.09,139.9,273.02,139.39,273.03z"/>
			<ellipse class="st3" cx="127.48" cy="274.51" rx="2.47" ry="2.83"/>
			<ellipse class="st3" cx="134.74" cy="266.79" rx="2.45" ry="3.16"/>
			<ellipse class="st3" cx="143.75" cy="266.79" rx="2.45" ry="3.16"/>
			<ellipse class="st3" cx="150.83" cy="274.45" rx="2.46" ry="2.75"/>
		</g>
	</g>
</g>
<rect x="8.17" y="153.54" class="st1" width="60.13" height="16.09"/>
<path class="st1" d="M46.91,153.54H29.55c-0.28,0-0.51-0.23-0.51-0.51v-44.04c0-3.74,3.03-6.77,6.77-6.77h5.23
	c3.53,0,6.38,2.86,6.38,6.38v44.43C47.43,153.31,47.2,153.54,46.91,153.54z"/>
<rect x="31.6" y="169.63" class="st2" width="13.28" height="127.91"/>
<path class="st2" d="M36.73,305.32l-4.83-7.24c-0.8-1.2,0.06-2.81,1.51-2.81h9.65c1.45,0,2.31,1.61,1.51,2.81l-4.83,7.24
	C39.02,306.4,37.44,306.4,36.73,305.32z"/>
</svg>
