<?xml version="1.0" encoding="utf-8"?>
<!-- Generator: Adobe Illustrator 26.4.1, SVG Export Plug-In . SVG Version: 6.00 Build 0)  -->
<svg version="1.1" id="Слой_1" xmlns="http://www.w3.org/2000/svg" xmlns:xlink="http://www.w3.org/1999/xlink" x="0px" y="0px"
	 viewBox="0 0 364 358" style="enable-background:new 0 0 364 358;" xml:space="preserve">
<style type="text/css">
	.st0{fill:#F6B8C4;}
	.st1{fill:#E6E6E6;}
	.st2{fill:#F2F2F2;}
	.st3{fill:none;stroke:#F6B8C4;stroke-width:3;stroke-miterlimit:10;}
	.st4{fill:none;stroke:#F6B8C4;stroke-miterlimit:10;}
	.st5{fill:#F6B8C4;stroke:#E6E6E6;stroke-width:10;stroke-miterlimit:10;}
	.st6{fill:none;stroke:#FFFFFF;stroke-width:10;stroke-miterlimit:10;}
	.st7{fill:#FFFFFF;}
	.st8{fill:none;stroke:#E6E6E6;stroke-width:4;stroke-miterlimit:10;}
</style>
<g>
	<circle class="st0" cx="-217.5" cy="179.5" r="172.5"/>
	<path class="st1" d="M-217.5,12c44.74,0,86.8,17.42,118.44,49.06C-67.42,92.7-50,134.76-50,179.5s-17.42,86.8-49.06,118.44
		C-130.7,329.58-172.76,347-217.5,347s-86.8-17.42-118.44-49.06C-367.58,266.3-385,224.24-385,179.5s17.42-86.8,49.06-118.44
		C-304.3,29.42-262.24,12-217.5,12 M-217.5,2C-315.53,2-395,81.47-395,179.5S-315.53,357-217.5,357S-40,277.53-40,179.5
		S-119.47,2-217.5,2L-217.5,2z"/>
</g>
<g>
	<circle class="st0" cx="180.5" cy="179.5" r="172.5"/>
	<path class="st1" d="M180.5,12c44.74,0,86.8,17.42,118.44,49.06C330.58,92.7,348,134.76,348,179.5s-17.42,86.8-49.06,118.44
		C267.3,329.58,225.24,347,180.5,347s-86.8-17.42-118.44-49.06C30.42,266.3,13,224.24,13,179.5S30.42,92.7,62.06,61.06
		C93.7,29.42,135.76,12,180.5,12 M180.5,2C82.47,2,3,81.47,3,179.5S82.47,357,180.5,357S358,277.53,358,179.5S278.53,2,180.5,2
		L180.5,2z"/>
</g>
<g>
	<circle class="st0" cx="619.5" cy="179.5" r="172.5"/>
	<path class="st1" d="M619.5,12c44.74,0,86.8,17.42,118.44,49.06C769.58,92.7,787,134.76,787,179.5s-17.42,86.8-49.06,118.44
		C706.3,329.58,664.24,347,619.5,347s-86.8-17.42-118.44-49.06C469.42,266.3,452,224.24,452,179.5s17.42-86.8,49.06-118.44
		C532.7,29.42,574.76,12,619.5,12 M619.5,2C521.47,2,442,81.47,442,179.5S521.47,357,619.5,357S797,277.53,797,179.5
		S717.53,2,619.5,2L619.5,2z"/>
</g>
<g>
	<rect x="-299" y="79" class="st2" width="163" height="202"/>
	<path class="st2" d="M-141,84v192h-153V84H-141 M-131,74h-173v212h173V74L-131,74z"/>
</g>
<g>
	<line class="st3" x1="-248.5" y1="114.5" x2="-156.5" y2="114.5"/>
</g>
<g>
	<line class="st3" x1="-248" y1="187.5" x2="-156" y2="187.5"/>
</g>
<g>
	<line class="st3" x1="-248" y1="223.5" x2="-156" y2="223.5"/>
</g>
<g>
	<line class="st3" x1="-248" y1="151.5" x2="-156" y2="151.5"/>
</g>
<g>
	<line class="st3" x1="-248" y1="259.5" x2="-156" y2="259.5"/>
</g>
<g>
	<g>
		<path class="st0" d="M-270,99v13h-13V99H-270 M-267,96h-19v19h19V96L-267,96z"/>
	</g>
	<polyline class="st4" points="-280.85,105.5 -276.5,109.45 -264.5,92.5 	"/>
</g>
<g>
	<g>
		<path class="st0" d="M-270,243v13h-13v-13H-270 M-267,240h-19v19h19V240L-267,240z"/>
	</g>
	<polyline class="st4" points="-280.85,249.5 -276.5,253.45 -264.5,236.5 	"/>
</g>
<g>
	<g>
		<path class="st0" d="M-270,207v13h-13v-13H-270 M-267,204h-19v19h19V204L-267,204z"/>
	</g>
	<polyline class="st4" points="-280.85,213.5 -276.5,217.45 -264.5,200.5 	"/>
</g>
<g>
	<g>
		<path class="st0" d="M-270,172v13h-13v-13H-270 M-267,169h-19v19h19V169L-267,169z"/>
	</g>
	<polyline class="st4" points="-280.85,178.5 -276.5,182.45 -264.5,165.5 	"/>
</g>
<g>
	<g>
		<path class="st0" d="M-269,135v13h-13v-13H-269 M-266,132h-19v19h19V132L-266,132z"/>
	</g>
	<polyline class="st4" points="-279.85,141.5 -275.5,145.45 -263.5,128.5 	"/>
</g>
<path class="st5" d="M68,254c25,0,50,0,75,0c1.17-40.51-21.12-67.95-37.3-68C89.5,185.95,66.95,213.33,68,254z"/>
<circle class="st5" cx="105" cy="165" r="18"/>
<g>
	<path class="st6" d="M215.86,88.78V61.02c0-6.8-5.51-12.32-12.32-12.32h-60.76c-6.8,0-12.32,5.51-12.32,12.32v27.76
		c0,6.8,5.51,12.32,12.32,12.32h50.61h10.15C210.35,101.1,215.86,95.58,215.86,88.78z"/>
	<path class="st6" d="M213,97c6.13,5.05,8.8,8.39,8,10c-1.31,2.65-11.93,0.68-31.85-5.9"/>
</g>
<circle class="st2" cx="157" cy="176" r="5"/>
<circle class="st2" cx="207" cy="176" r="5"/>
<circle class="st2" cx="182" cy="176" r="5"/>
<circle class="st2" cx="148" cy="75" r="5"/>
<circle class="st2" cx="198" cy="75" r="5"/>
<circle class="st2" cx="173" cy="75" r="5"/>
<path class="st5" d="M161-15"/>
<g>
	<g>
		<rect x="593.35" y="85.06" class="st1" width="60" height="14.93"/>
		<path class="st1" d="M648.35,90.06v4.93h-50v-4.93H648.35 M658.35,80.06h-70v24.93h70V80.06L658.35,80.06z"/>
	</g>
	<g>
		<path class="st7" d="M689.84,158.07v119.27c0,6.99-5.67,12.66-12.66,12.66H568.66c-6.99,0-12.66-5.67-12.66-12.66V156.37
			c0-0.12,0.09-0.21,0.21-0.21h131.72C688.98,156.16,689.84,157.02,689.84,158.07z"/>
		<path class="st7" d="M689.84,156.16H556c0-36.96,29.96-66.92,66.92-66.92S689.84,119.2,689.84,156.16z"/>
		<g>
			<circle class="st0" cx="623.58" cy="167.31" r="38.96"/>
			<g>
				<path class="st1" d="M623.58,133.36c18.72,0,33.96,15.23,33.96,33.96s-15.23,33.96-33.96,33.96s-33.96-15.23-33.96-33.96
					S604.85,133.36,623.58,133.36 M623.58,123.36c-24.28,0-43.96,19.68-43.96,43.96s19.68,43.96,43.96,43.96
					c24.28,0,43.96-19.68,43.96-43.96S647.85,123.36,623.58,123.36L623.58,123.36z"/>
			</g>
		</g>
	</g>
	<g>
		<path class="st1" d="M643.85,67v9.06h-39.24V67H643.85 M647.85,63h-47.24v17.06h47.24V63L647.85,63z"/>
	</g>
	<g>
		<path class="st0" d="M587.22,249.71c-2.36,0-4.29-1.92-4.29-4.29v-4.48c0-2.36,1.92-4.29,4.29-4.29h3.92
			c2.36,0,4.29,1.92,4.29,4.29v4.48c0,2.36-1.92,4.29-4.29,4.29H587.22z"/>
		<g>
			<path class="st1" d="M591.14,238.65c1.26,0,2.29,1.03,2.29,2.29v4.48c0,1.26-1.03,2.29-2.29,2.29h-3.92
				c-1.26,0-2.29-1.03-2.29-2.29v-4.48c0-1.26,1.03-2.29,2.29-2.29H591.14 M591.14,234.65h-3.92c-3.47,0-6.29,2.81-6.29,6.29v4.48
				c0,3.47,2.81,6.29,6.29,6.29h3.92c3.47,0,6.29-2.81,6.29-6.29v-4.48C597.43,237.47,594.62,234.65,591.14,234.65L591.14,234.65z"
				/>
		</g>
	</g>
	<g>
		<path class="st0" d="M657.44,249.72c-2.36,0-4.29-1.92-4.29-4.29v-4.48c0-2.36,1.92-4.29,4.29-4.29h3.93
			c2.36,0,4.29,1.92,4.29,4.29v4.48c0,2.36-1.92,4.29-4.29,4.29H657.44z"/>
		<g>
			<path class="st1" d="M661.37,238.66c1.26,0,2.29,1.03,2.29,2.29v4.48c0,1.26-1.03,2.29-2.29,2.29h-3.92
				c-1.26,0-2.29-1.03-2.29-2.29v-4.48c0-1.26,1.03-2.29,2.29-2.29H661.37 M661.37,234.66h-3.92c-3.47,0-6.29,2.81-6.29,6.29v4.48
				c0,3.47,2.81,6.29,6.29,6.29h3.92c3.47,0,6.29-2.81,6.29-6.29v-4.48C667.65,237.48,664.84,234.66,661.37,234.66L661.37,234.66z"
				/>
		</g>
	</g>
	<g>
		<path class="st0" d="M621.44,249.72c-2.36,0-4.29-1.92-4.29-4.29v-4.48c0-2.36,1.92-4.29,4.29-4.29h3.93
			c2.36,0,4.29,1.92,4.29,4.29v4.48c0,2.36-1.92,4.29-4.29,4.29H621.44z"/>
		<g>
			<path class="st1" d="M625.37,238.66c1.26,0,2.29,1.03,2.29,2.29v4.48c0,1.26-1.03,2.29-2.29,2.29h-3.92
				c-1.26,0-2.29-1.03-2.29-2.29v-4.48c0-1.26,1.03-2.29,2.29-2.29H625.37 M625.37,234.66h-3.92c-3.47,0-6.29,2.81-6.29,6.29v4.48
				c0,3.47,2.81,6.29,6.29,6.29h3.92c3.47,0,6.29-2.81,6.29-6.29v-4.48C631.65,237.48,628.84,234.66,625.37,234.66L625.37,234.66z"
				/>
		</g>
	</g>
</g>
<path class="st8" d="M604,162c1.65-11.89,2.33-12.75,3-13c2.99-1.12,9.21,8.44,12,13c3.33,0,6.67,0,10,0c0.53-1.54,4.7-13.47,8-13
	c2.5,0.36,3.85,7.71,5,14c0.76,4.13,1.13,6.19,1,8c-0.57,7.67-7.68,18.48-19,19c-12.6,0.58-20.69-12.02-21-20
	C602.98,169.37,603.32,166.92,604,162z"/>
<path class="st8" d="M609,184c-1.67,3.16-4.54,9.73-2,15c5.69,11.81,35.13,10.14,39,1c0.89-2.1,1.4-6.9-8-17"/>
<path class="st5" d="M223.45,254.22c25,0,50,0,75,0c1.17-40.51-21.12-67.95-37.3-68C244.95,186.17,222.41,213.56,223.45,254.22z"/>
<circle class="st5" cx="260.45" cy="165.22" r="18"/>
</svg>
