<?xml version="1.0" encoding="utf-8"?>
<!-- Generator: Adobe Illustrator 26.4.1, SVG Export Plug-In . SVG Version: 6.00 Build 0)  -->
<svg version="1.1" id="Слой_1" xmlns="http://www.w3.org/2000/svg" xmlns:xlink="http://www.w3.org/1999/xlink" x="0px" y="0px"
	 viewBox="0 0 377.02 460.73" style="enable-background:new 0 0 377.02 460.73;" xml:space="preserve">
<style type="text/css">
	.st0{fill:#65816D;stroke:#65816D;stroke-miterlimit:10;}
	.st1{fill:#E48185;stroke:#E48185;stroke-miterlimit:10;}
	.st2{fill:#A48A7B;stroke:#A48A7B;stroke-miterlimit:10;}
	.st3{fill:#706F6F;stroke:#706F6F;stroke-miterlimit:10;}
	.st4{fill:#D9767F;}
	.st5{fill:#F6B8C4;stroke:#F6B8C4;stroke-miterlimit:10;}
	.st6{fill:#B2B2B2;stroke:#B2B2B2;stroke-miterlimit:10;}
	.st7{fill:none;stroke:#F6B8C4;stroke-miterlimit:10;}
</style>
<polygon class="st0" points="325.06,189.13 325.06,448.85 52.76,448.85 52.76,189.13 188.94,36.41 "/>
<g>
	<path class="st1" d="M136.89,303.8c0,0,7.27,0.05,15.32-2.3c10.9-3.18,8.47-21.63,18.38-30.64c11.93-10.85,35.88-2.64,41.36-0.77
		c63.1,21.61,95.9,146.37,69.7,164.68c-3.28,2.29-5.91,1.81-16.85,1.53c-60.82-1.55-69.37,11.04-84.26,1.53
		c-11.35-7.25-9.03-39-5.36-101.11c0.21-3.51,0.76-11.12,6.13-15.74c4.52-3.89,10.72-4.18,10.72-4.17c0,0.02-10.45,2.95-20.68,4.6
		c-21.16,3.4-42.32-5.97-42.89-12.26c-0.17-1.82,0.77-3.15,0.77-3.15C130.88,303.68,134.69,303.81,136.89,303.8z"/>
	<path class="st2" d="M130.37,312.15c-1.41-0.35-2.65-3.37-1.44-5.64c1.52-2.86,5.89-2.62,6.71-1.34
		C136.78,306.91,132.61,312.7,130.37,312.15z"/>
	<path class="st3" d="M189.41,285.28c-1.54-0.16-2.94,1.39-2.93,2.97c0.01,1.42,1.14,2.87,2.6,2.89c1.56,0.01,2.73-1.65,2.64-3.16
		C191.65,286.75,190.72,285.42,189.41,285.28z"/>
	<path class="st2" d="M207.36,286.44c-1.29,5.88-3.1,10.65-4.94,15.49c-4.32,11.36-6.29,12.48-5.45,15.32
		c2.19,7.36,19.45,13.35,28.94,6.13c7.89-6.01,6.62-18.28,6.3-21.45c-0.69-6.72-3.45-11.29-6.81-16.85
		c-0.59-0.98-10.52-17.23-14.98-15.49C208.09,270.5,209.78,275.33,207.36,286.44z"/>
</g>
<path class="st4" d="M181.53,320.43"/>
<g>
	<g>
		<path class="st5" d="M140.7,435.36c-8.41-5.55-20.08-31.79-11.74-58.21c0,0,5.32-16.86,22.72-33.83c0.77-0.75,2.47-2.16,5.87-4.98
			c4.09-3.39,5.33-4.25,6.13-3.83c1.12,0.59,0.01,2.95,1.53,6.51c0.46,1.07,1.08,2.53,2.39,3.52c2.66,2.02,5.29-0.24,9.69,0.69
			c0.72,0.15,6.3,1.42,9.11,5.87c2.02,3.21,1.51,6.32,3.66,9.45c0.22,0.32,0.79,1.11,0.85,2.21c0.07,1.14-0.44,2.06-1.1,3.09
			c-0.61,0.97-2.14,3.37-3.41,4.57c-4.01,3.79-19.55,8.98-26.81,1.87c-2.51-2.46-3.84-6.21-3.06-6.89c0.67-0.59,2.49,1.37,6.79,3.36
			c5.61,2.59,7.16,1.4,11.25,3.87c0.81,0.49,1.51,1,6.38,5.87c3.63,3.63,6.16,6.16,7.57,7.74c8.58,9.57,12.87,24.93,13.19,26.13
			c2.8,10.32,6.18,22.66,0.51,27.57c-3.66,3.17-8.93,1.62-17.87,0C153.28,434.33,149.65,441.27,140.7,435.36z"/>
		<path class="st3" d="M179.57,357.06c-0.76-0.08-1.46,0.69-1.46,1.48c0,0.7,0.57,1.43,1.29,1.44c0.78,0.01,1.36-0.82,1.31-1.57
			C180.68,357.79,180.22,357.13,179.57,357.06z"/>
		<path class="st4" d="M190.63,361.35c0.27-0.12,0.85,0.23,0.93,0.75c0.1,0.66-0.65,1.15-0.94,1.04
			C190.21,362.99,190.19,361.53,190.63,361.35z"/>
	</g>
	<path class="st5" d="M141.6,436.41c0.58-1.77-0.86-4.01-6.08-8.76c-8.77-7.98-11.69-8.01-17.92-14.13
		c-4.96-4.88-8.01-9.69-8.76-10.89c-2.76-4.45-4.15-6.67-5.36-10.09c-1.56-4.39-2.05-8.34-4.32-8.81c-0.9-0.19-1.68,0.25-1.95,0.41
		c-2.74,1.62-3.21,6.98-2.11,10.97c0.77,2.81,1.86,3.23,8.51,11.09c4.54,5.36,3.56,4.53,7.28,8.68c4.82,5.38,8.84,9.17,11.61,11.76
		c7.45,6.98,6.38,4.96,8.95,7.9c2.03,2.33,3.34,4.32,5.61,4.47C138.88,439.13,141.07,438.04,141.6,436.41z"/>
</g>
<path class="st6" d="M343.98,441.41v7.25c0,5.05-4.09,9.13-9.13,9.13H41.3c-5.04,0-9.13-4.08-9.13-9.13v-7.25
	c0-5.04,4.09-9.13,9.13-9.13h293.55C339.89,432.28,343.98,436.37,343.98,441.41z"/>
<path class="st7" d="M189.78,230.13c-2.97-2.98-6.51-5.36-9.56-8.26c-10.39-9.9-23.92-13.93-32.49-23.99
	c-11.03-12.96-13.73-35.88-3.74-50.04c4.17-5.92,12.72-13.12,21.11-11.91c9.82,1.41,20.45,14.5,25.19,24.85
	c1.1,2.4,2.77,6.6,4.77,6.47c2.02-0.13,2.93-4.62,4.43-8.85c0.54-1.52,6.71-18.48,16.34-21.79c7.68-2.64,18.4,3.1,23.83,10.55
	c11.49,15.77,5.47,46.14-9.87,57.87c-5.16,3.94-15.95,9.28-20.94,17.02c-1.25,1.93-2.96,3.96-6.38,8c-3.22,3.81-4.4,4.86-5.96,4.94
	C194.26,235.09,192.77,233.13,189.78,230.13z"/>
<path class="st6" d="M370.93,227.9l-5.47,4.59c-3.88,3.26-9.68,2.75-12.94-1.14L188.94,36.41L25.06,231.7
	c-3.26,3.89-9.05,4.4-12.94,1.14l-5.47-4.59c-3.89-3.26-4.39-9.06-1.13-12.95L181.16,5.98c0.44-0.51,2.59-2.92,6.24-3.25
	c4.25-0.38,7.07,2.36,7.46,2.75C253.94,75.31,313,145.13,372.07,214.96C375.33,218.84,374.82,224.64,370.93,227.9z"/>
</svg>
