<svg width="1033" height="379" viewBox="0 0 1033 379" fill="none" xmlns="http://www.w3.org/2000/svg">
<g clip-path="url(#clip0_147_185)">
<path d="M143.598 283.173C220.239 283.173 282.369 221.043 282.369 144.402C282.369 67.7612 220.239 5.63135 143.598 5.63135C66.9567 5.63135 4.82678 67.7612 4.82678 144.402C4.82678 221.043 66.9567 283.173 143.598 283.173Z" fill="#F6B8C4"/>
<path d="M209.162 63.5532H78.0335V226.056H209.162V63.5532Z" fill="#F2F2F2"/>
<path d="M205.14 67.5755V222.034H82.0559V67.5755H205.14ZM213.184 59.5308H74.0112V230.078H213.184V59.5308Z" fill="#F2F2F2"/>
<path d="M118.659 92.1118H192.67" stroke="#F6B8C4" stroke-width="3" stroke-miterlimit="10"/>
<path d="M119.061 150.838H193.073" stroke="#F6B8C4" stroke-width="3" stroke-miterlimit="10"/>
<path d="M119.061 179.799H193.073" stroke="#F6B8C4" stroke-width="3" stroke-miterlimit="10"/>
<path d="M119.061 121.877H193.073" stroke="#F6B8C4" stroke-width="3" stroke-miterlimit="10"/>
<path d="M119.061 208.76H193.073" stroke="#F6B8C4" stroke-width="3" stroke-miterlimit="10"/>
<path d="M101.363 79.6424V90.1005H90.905V79.6424H101.363ZM103.777 77.229H88.4916V92.5139H103.777V77.229Z" fill="#F6B8C4"/>
<path d="M92.6346 84.8717L96.1341 88.0493L105.788 74.4136" stroke="#F6B8C4" stroke-miterlimit="10"/>
<path d="M101.363 195.486V205.944H90.905V195.486H101.363ZM103.777 193.072H88.4916V208.357H103.777V193.072Z" fill="#F6B8C4"/>
<path d="M92.6346 200.715L96.1341 203.893L105.788 190.257" stroke="#F6B8C4" stroke-miterlimit="10"/>
<path d="M101.363 166.525V176.983H90.905V166.525H101.363ZM103.777 164.111H88.4916V179.396H103.777V164.111Z" fill="#F6B8C4"/>
<path d="M92.6346 171.754L96.1341 174.932L105.788 161.296" stroke="#F6B8C4" stroke-miterlimit="10"/>
<path d="M101.363 138.368V148.827H90.905V138.368H101.363ZM103.777 135.955H88.4916V151.24H103.777V135.955Z" fill="#F6B8C4"/>
<path d="M92.6346 143.598L96.1341 146.775L105.788 133.14" stroke="#F6B8C4" stroke-miterlimit="10"/>
<path d="M102.168 108.603V119.061H91.7095V108.603H102.168ZM104.581 106.19H89.2961V121.475H104.581V106.19Z" fill="#F6B8C4"/>
<path d="M93.4391 113.833L96.9385 117.01L106.592 103.375" stroke="#F6B8C4" stroke-miterlimit="10"/>
</g>
<g clip-path="url(#clip1_147_185)">
<path d="M512.813 283.173C588.191 283.173 649.297 221.043 649.297 144.402C649.297 67.7612 588.191 5.63135 512.813 5.63135C437.435 5.63135 376.33 67.7612 376.33 144.402C376.33 221.043 437.435 283.173 512.813 283.173Z" fill="#F6B8C4"/>
<path d="M423.802 204.335C443.582 204.335 463.363 204.335 483.143 204.335C484.069 171.746 466.433 149.672 453.631 149.631C440.813 149.591 422.971 171.618 423.802 204.335Z" fill="#F6B8C4" stroke="#E6E6E6" stroke-width="5" stroke-miterlimit="10"/>
<path d="M453.077 147.218C460.942 147.218 467.319 140.735 467.319 132.737C467.319 124.74 460.942 118.257 453.077 118.257C445.211 118.257 438.835 124.74 438.835 132.737C438.835 140.735 445.211 147.218 453.077 147.218Z" fill="#F6B8C4" stroke="#E6E6E6" stroke-width="5" stroke-miterlimit="10"/>
<path d="M540.79 71.4209V49.0888C540.79 43.6184 536.431 39.1777 531.043 39.1777H482.969C477.589 39.1777 473.221 43.6104 473.221 49.0888V71.4209C473.221 76.8913 477.581 81.3319 482.969 81.3319H523.012H531.043C536.431 81.3319 540.79 76.8913 540.79 71.4209Z" stroke="white" stroke-width="5" stroke-miterlimit="10"/>
<path d="M538.527 78.0337C543.378 82.0963 545.49 84.7832 544.857 86.0784C543.821 88.2102 535.418 86.6254 519.657 81.332" stroke="white" stroke-width="5" stroke-miterlimit="10"/>
<path d="M494.22 145.609C496.405 145.609 498.176 143.808 498.176 141.587C498.176 139.365 496.405 137.564 494.22 137.564C492.035 137.564 490.264 139.365 490.264 141.587C490.264 143.808 492.035 145.609 494.22 145.609Z" fill="#F2F2F2"/>
<path d="M533.78 145.609C535.965 145.609 537.736 143.808 537.736 141.587C537.736 139.365 535.965 137.564 533.78 137.564C531.595 137.564 529.824 139.365 529.824 141.587C529.824 143.808 531.595 145.609 533.78 145.609Z" fill="#F2F2F2"/>
<path d="M514 145.609C516.185 145.609 517.956 143.808 517.956 141.587C517.956 139.365 516.185 137.564 514 137.564C511.815 137.564 510.044 139.365 510.044 141.587C510.044 143.808 511.815 145.609 514 145.609Z" fill="#F2F2F2"/>
<path d="M487.099 64.3577C489.284 64.3577 491.055 62.5568 491.055 60.3353C491.055 58.1139 489.284 56.313 487.099 56.313C484.914 56.313 483.143 58.1139 483.143 60.3353C483.143 62.5568 484.914 64.3577 487.099 64.3577Z" fill="#F2F2F2"/>
<path d="M526.659 64.3577C528.844 64.3577 530.615 62.5568 530.615 60.3353C530.615 58.1139 528.844 56.313 526.659 56.313C524.474 56.313 522.703 58.1139 522.703 60.3353C522.703 62.5568 524.474 64.3577 526.659 64.3577Z" fill="#F2F2F2"/>
<path d="M506.879 64.3577C509.064 64.3577 510.835 62.5568 510.835 60.3353C510.835 58.1139 509.064 56.313 506.879 56.313C504.694 56.313 502.923 58.1139 502.923 60.3353C502.923 62.5568 504.694 64.3577 506.879 64.3577Z" fill="#F2F2F2"/>
<path d="M546.796 204.512C566.576 204.512 586.356 204.512 606.136 204.512C607.062 171.923 589.426 149.848 576.624 149.808C563.807 149.768 545.973 171.802 546.796 204.512Z" fill="#F6B8C4" stroke="#E6E6E6" stroke-width="5" stroke-miterlimit="10"/>
<path d="M576.07 147.395C583.936 147.395 590.312 140.912 590.312 132.915C590.312 124.917 583.936 118.434 576.07 118.434C568.205 118.434 561.829 124.917 561.829 132.915C561.829 140.912 568.205 147.395 576.07 147.395Z" fill="#F6B8C4" stroke="#E6E6E6" stroke-width="5" stroke-miterlimit="10"/>
</g>
<g clip-path="url(#clip2_147_185)">
<path d="M888.168 283.173C962.323 283.173 1022.44 221.043 1022.44 144.402C1022.44 67.7612 962.323 5.63135 888.168 5.63135C814.012 5.63135 753.897 67.7612 753.897 144.402C753.897 221.043 814.012 283.173 888.168 283.173Z" fill="#F6B8C4"/>
<path d="M914.516 68.4282H867.813V80.4389H914.516V68.4282Z" fill="#E6E6E6"/>
<path d="M910.624 72.4505V76.4165H871.705V72.4505H910.624ZM918.408 64.4058H863.921V84.4612H918.408V64.4058Z" fill="#E6E6E6"/>
<path d="M942.919 127.163V223.112C942.919 228.735 938.505 233.296 933.064 233.296H848.595C843.154 233.296 838.741 228.735 838.741 223.112V125.795C838.741 125.698 838.811 125.626 838.904 125.626H941.432C942.249 125.626 942.919 126.318 942.919 127.163Z" fill="white"/>
<path d="M942.919 125.626H838.741C838.741 95.8929 862.061 71.791 890.83 71.791C919.598 71.791 942.919 95.8929 942.919 125.626Z" fill="white"/>
<path d="M891.343 165.938C908.092 165.938 921.669 151.906 921.669 134.596C921.669 117.286 908.092 103.254 891.343 103.254C874.595 103.254 861.018 117.286 861.018 134.596C861.018 151.906 874.595 165.938 891.343 165.938Z" fill="#F6B8C4"/>
<path d="M891.343 107.284C905.915 107.284 917.777 119.537 917.777 134.604C917.777 149.672 905.922 161.924 891.343 161.924C876.764 161.924 864.91 149.672 864.91 134.604C864.91 119.537 876.764 107.284 891.343 107.284ZM891.343 99.2397C872.444 99.2397 857.126 115.072 857.126 134.604C857.126 154.137 872.444 169.969 891.343 169.969C910.242 169.969 925.561 154.137 925.561 134.604C925.561 115.072 910.235 99.2397 891.343 99.2397Z" fill="#E6E6E6"/>
<path d="M907.121 53.8995V61.188H876.578V53.8995H907.121ZM910.235 50.6816H873.464V64.4059H910.235V50.6816Z" fill="#E6E6E6"/>
<path d="M863.042 200.884C861.205 200.884 859.702 199.339 859.702 197.433V193.829C859.702 191.93 861.197 190.377 863.042 190.377H866.093C867.93 190.377 869.432 191.922 869.432 193.829V197.433C869.432 199.331 867.938 200.884 866.093 200.884H863.042Z" fill="#F6B8C4"/>
<path d="M866.093 191.986C867.074 191.986 867.875 192.815 867.875 193.829V197.433C867.875 198.446 867.074 199.275 866.093 199.275H863.042C862.061 199.275 861.259 198.446 861.259 197.433V193.829C861.259 192.815 862.061 191.986 863.042 191.986H866.093ZM866.093 188.769H863.042C860.341 188.769 858.146 191.029 858.146 193.829V197.433C858.146 200.224 860.333 202.493 863.042 202.493H866.093C868.794 202.493 870.989 200.232 870.989 197.433V193.829C870.989 191.037 868.802 188.769 866.093 188.769Z" fill="#E6E6E6"/>
<path d="M917.699 200.892C915.862 200.892 914.36 199.348 914.36 197.441V193.837C914.36 191.938 915.854 190.386 917.699 190.386H920.758C922.595 190.386 924.098 191.93 924.098 193.837V197.441C924.098 199.339 922.603 200.892 920.758 200.892H917.699Z" fill="#F6B8C4"/>
<path d="M920.758 191.995C921.739 191.995 922.541 192.823 922.541 193.837V197.441C922.541 198.455 921.739 199.283 920.758 199.283H917.707C916.726 199.283 915.925 198.455 915.925 197.441V193.837C915.925 192.823 916.726 191.995 917.707 191.995H920.758ZM920.758 188.777H917.707C915.006 188.777 912.811 191.037 912.811 193.837V197.441C912.811 200.232 914.998 202.501 917.707 202.501H920.758C923.459 202.501 925.654 200.241 925.654 197.441V193.837C925.646 191.045 923.459 188.777 920.758 188.777Z" fill="#E6E6E6"/>
<path d="M889.678 200.892C887.841 200.892 886.338 199.348 886.338 197.441V193.837C886.338 191.938 887.833 190.386 889.678 190.386H892.737C894.574 190.386 896.076 191.93 896.076 193.837V197.441C896.076 199.339 894.581 200.892 892.737 200.892H889.678Z" fill="#F6B8C4"/>
<path d="M892.737 191.995C893.717 191.995 894.519 192.823 894.519 193.837V197.441C894.519 198.455 893.717 199.283 892.737 199.283H889.685C888.705 199.283 887.903 198.455 887.903 197.441V193.837C887.903 192.823 888.705 191.995 889.685 191.995H892.737ZM892.737 188.777H889.685C886.984 188.777 884.789 191.037 884.789 193.837V197.441C884.789 200.232 886.977 202.501 889.685 202.501H892.737C895.438 202.501 897.633 200.241 897.633 197.441V193.837C897.625 191.045 895.438 188.777 892.737 188.777Z" fill="#E6E6E6"/>
<path d="M876.103 130.324C877.387 120.759 877.916 120.067 878.438 119.866C880.765 118.965 885.607 126.655 887.778 130.324C890.37 130.324 892.97 130.324 895.562 130.324C895.975 129.085 899.221 119.488 901.789 119.866C903.735 120.155 904.786 126.068 905.681 131.128C906.273 134.451 906.561 136.108 906.459 137.564C906.016 143.734 900.482 152.431 891.67 152.849C881.863 153.316 875.566 143.179 875.324 136.76C875.309 136.253 875.573 134.282 876.103 130.324Z" stroke="#E6E6E6" stroke-width="4" stroke-miterlimit="10"/>
<path d="M879.995 148.022C878.695 150.564 876.461 155.85 878.438 160.089C882.867 169.59 905.782 168.247 908.795 160.894C909.487 159.204 909.884 155.343 902.568 147.218" stroke="#E6E6E6" stroke-width="4" stroke-miterlimit="10"/>
</g>
<path d="M43.4922 303.828C45.0547 303.359 46.6172 303.125 48.1797 303.125C52.2031 303.125 54.2148 304.648 54.2148 307.695C54.2148 309.539 53.4805 310.809 52.0117 311.504C53.4805 312.168 54.2148 313.438 54.2148 315.312C54.2148 318.516 52.2031 320.117 48.1797 320.117C46.6172 320.117 45.0547 319.883 43.4922 319.414V317.539C45.0547 318.086 46.6172 318.359 48.1797 318.359C50.7578 318.359 52.0469 317.344 52.0469 315.312C52.0469 313.359 51.0625 312.383 49.0938 312.383H45.25V310.625H49.0586C51.0508 310.625 52.0469 309.648 52.0469 307.695C52.0469 305.82 50.7578 304.883 48.1797 304.883C46.6172 304.883 45.0547 305.156 43.4922 305.703V303.828ZM56.5703 316.285C56.5703 313.762 58.2344 312.5 61.5625 312.5C62.6328 312.5 63.7031 312.578 64.7734 312.734V311.574C64.7734 310.16 63.668 309.453 61.457 309.453C60.1914 309.453 58.8945 309.648 57.5664 310.039V308.281C58.8945 307.891 60.1914 307.695 61.457 307.695C65.1133 307.695 66.9414 308.969 66.9414 311.516V320H65.7227L64.9727 318.781C63.7461 319.594 62.4102 320 60.9648 320C58.0352 320 56.5703 318.762 56.5703 316.285ZM61.5625 314.258C59.6797 314.258 58.7383 314.922 58.7383 316.25C58.7383 317.578 59.4805 318.242 60.9648 318.242C62.4648 318.242 63.7344 317.844 64.7734 317.047V314.492C63.7031 314.336 62.6328 314.258 61.5625 314.258ZM70.4688 320V307.695H81.3086V320H79.1406V309.453H72.6367V320H70.4688ZM84.25 313.848C84.25 309.668 86.2812 307.578 90.3438 307.578C94.4062 307.578 96.4375 309.668 96.4375 313.848C96.4375 318.027 94.4062 320.117 90.3438 320.117C86.2969 320.117 84.2656 318.027 84.25 313.848ZM86.418 313.801C86.418 316.84 87.7266 318.359 90.3438 318.359C92.9609 318.359 94.2695 316.84 94.2695 313.801C94.2695 310.824 92.9609 309.336 90.3438 309.336C87.7266 309.336 86.418 310.824 86.418 313.801ZM97.6094 318.242C99.4609 318.242 100.387 317.188 100.387 315.078V307.695H109.762V320H107.594V309.453H102.555V315.078C102.555 318.359 100.906 320 97.6094 320V318.242ZM113.289 320V307.695H115.457V312.852H121.961V307.695H124.129V320H121.961V314.609H115.457V320H113.289ZM136.445 320V310.484L129.824 320H127.656V307.695H129.707V317.211L136.328 307.695H138.496V320H136.445ZM151.105 307.695V309.453H146.77V320H144.602V309.453H140.266V307.695H151.105ZM155.043 307.695V318.207H158.77C160.16 318.207 160.855 317.547 160.855 316.227C160.855 315.156 160.145 314.621 158.723 314.621H156.637V312.863H158.828C161.641 312.863 163.047 314.02 163.047 316.332C163.047 318.777 161.688 320 158.969 320H152.875V307.695H155.043ZM171.836 316.285C171.836 313.762 173.5 312.5 176.828 312.5C177.898 312.5 178.969 312.578 180.039 312.734V311.574C180.039 310.16 178.934 309.453 176.723 309.453C175.457 309.453 174.16 309.648 172.832 310.039V308.281C174.16 307.891 175.457 307.695 176.723 307.695C180.379 307.695 182.207 308.969 182.207 311.516V320H180.988L180.238 318.781C179.012 319.594 177.676 320 176.23 320C173.301 320 171.836 318.762 171.836 316.285ZM176.828 314.258C174.945 314.258 174.004 314.922 174.004 316.25C174.004 317.578 174.746 318.242 176.23 318.242C177.73 318.242 179 317.844 180.039 317.047V314.492C178.969 314.336 177.898 314.258 176.828 314.258ZM185.734 320V307.695H187.902V312.852H194.406V307.695H196.574V320H194.406V314.609H187.902V320H185.734ZM208.48 320L206.758 317.117C205.602 315.188 204.484 314.223 203.406 314.223V312.781C204.656 312.781 205.586 311.934 206.195 310.238C206.812 308.543 207.855 307.695 209.324 307.695H210.578V309.57H209.652C208.809 309.57 208.188 310.145 207.789 311.293C207.391 312.434 206.703 313.195 205.727 313.578C206.648 313.742 207.754 314.852 209.043 316.906L210.988 320H208.48ZM202.27 307.695V320H200.102V307.695H202.27ZM218.113 307.695C221.613 307.695 223.363 309.426 223.363 312.887C223.363 313.379 223.328 313.906 223.258 314.469H214.621C214.621 316.984 216.09 318.242 219.027 318.242C220.426 318.242 221.668 318.086 222.754 317.773V319.531C221.668 319.844 220.348 320 218.793 320C214.566 320 212.453 317.902 212.453 313.707C212.453 309.699 214.34 307.695 218.113 307.695ZM214.621 312.664H221.277C221.23 310.508 220.176 309.43 218.113 309.43C215.926 309.43 214.762 310.508 214.621 312.664ZM235.363 307.695V309.453H231.027V320H228.859V309.453H224.523V307.695H235.363ZM235.668 307.695H238.023L241.504 317.305L245.102 307.695H247.398L242.289 320.363C241.383 322.598 240.023 323.992 238.211 324.547L237.379 323.012C238.754 322.41 239.754 321.43 240.379 320.07L235.668 307.695ZM92.1719 347L90.4492 344.117C89.293 342.188 88.1758 341.223 87.0977 341.223V339.781C88.3477 339.781 89.2773 338.934 89.8867 337.238C90.5039 335.543 91.5469 334.695 93.0156 334.695H94.2695V336.57H93.3438C92.5 336.57 91.8789 337.145 91.4805 338.293C91.082 339.434 90.3945 340.195 89.418 340.578C90.3398 340.742 91.4453 341.852 92.7344 343.906L94.6797 347H92.1719ZM85.9609 334.695V347H83.793V334.695H85.9609ZM96.1445 343.285C96.1445 340.762 97.8086 339.5 101.137 339.5C102.207 339.5 103.277 339.578 104.348 339.734V338.574C104.348 337.16 103.242 336.453 101.031 336.453C99.7656 336.453 98.4688 336.648 97.1406 337.039V335.281C98.4688 334.891 99.7656 334.695 101.031 334.695C104.688 334.695 106.516 335.969 106.516 338.516V347H105.297L104.547 345.781C103.32 346.594 101.984 347 100.539 347C97.6094 347 96.1445 345.762 96.1445 343.285ZM101.137 341.258C99.2539 341.258 98.3125 341.922 98.3125 343.25C98.3125 344.578 99.0547 345.242 100.539 345.242C102.039 345.242 103.309 344.844 104.348 344.047V341.492C103.277 341.336 102.207 341.258 101.137 341.258ZM110.043 347V334.695H112.211V339.852H118.715V334.695H120.883V347H118.715V341.609H112.211V347H110.043ZM127.973 345.242H134.172V336.453H129.836C129.836 340.82 129.215 343.75 127.973 345.242ZM122.652 351.453V345.242H124.809C126.715 345.242 127.668 342.312 127.668 336.453V334.695H136.34V345.242H138.508V351.453H136.34V347H124.809V351.453H122.652ZM149.934 347V337.484L143.312 347H141.145V334.695H143.195V344.211L149.816 334.695H151.984V347H149.934ZM159.074 345.242H165.273V336.453H160.938C160.938 340.82 160.316 343.75 159.074 345.242ZM153.754 351.453V345.242H155.91C157.816 345.242 158.77 342.312 158.77 336.453V334.695H167.441V345.242H169.609V351.453H167.441V347H155.91V351.453H153.754ZM171.66 343.285C171.66 340.762 173.324 339.5 176.652 339.5C177.723 339.5 178.793 339.578 179.863 339.734V338.574C179.863 337.16 178.758 336.453 176.547 336.453C175.281 336.453 173.984 336.648 172.656 337.039V335.281C173.984 334.891 175.281 334.695 176.547 334.695C180.203 334.695 182.031 335.969 182.031 338.516V347H180.812L180.062 345.781C178.836 346.594 177.5 347 176.055 347C173.125 347 171.66 345.762 171.66 343.285ZM176.652 341.258C174.77 341.258 173.828 341.922 173.828 343.25C173.828 344.578 174.57 345.242 176.055 345.242C177.555 345.242 178.824 344.844 179.863 344.047V341.492C178.793 341.336 177.723 341.258 176.652 341.258ZM194.641 334.695V336.453H190.305V347H188.137V336.453H183.801V334.695H194.641ZM195.824 343.285C195.824 340.762 197.488 339.5 200.816 339.5C201.887 339.5 202.957 339.578 204.027 339.734V338.574C204.027 337.16 202.922 336.453 200.711 336.453C199.445 336.453 198.148 336.648 196.82 337.039V335.281C198.148 334.891 199.445 334.695 200.711 334.695C204.367 334.695 206.195 335.969 206.195 338.516V347H204.977L204.227 345.781C203 346.594 201.664 347 200.219 347C197.289 347 195.824 345.762 195.824 343.285ZM200.816 341.258C198.934 341.258 197.992 341.922 197.992 343.25C197.992 344.578 198.734 345.242 200.219 345.242C201.719 345.242 202.988 344.844 204.027 344.047V341.492C202.957 341.336 201.887 341.258 200.816 341.258ZM70.0938 361.695H72.4492L75.9297 371.305L79.5273 361.695H81.8242L76.7148 374.363C75.8086 376.598 74.4492 377.992 72.6367 378.547L71.8047 377.012C73.1797 376.41 74.1797 375.43 74.8047 374.07L70.0938 361.695ZM93.1211 373.648C92.1055 373.883 91.0117 374 89.8398 374C85.4648 374 83.2773 371.871 83.2773 367.613C83.2773 363.668 85.4648 361.695 89.8398 361.695C91.0117 361.695 92.1055 361.812 93.1211 362.047V363.805C92.1055 363.57 90.9727 363.453 89.7227 363.453C86.8711 363.453 85.4453 364.84 85.4453 367.613C85.4453 370.699 86.8711 372.242 89.7227 372.242C90.9727 372.242 92.1055 372.125 93.1211 371.891V373.648ZM107.898 374V361.695H110.066V374H107.898ZM98.0547 361.695V372.207H101.781C103.172 372.207 103.867 371.547 103.867 370.227C103.867 369.156 103.156 368.621 101.734 368.621H99.6484V366.863H101.84C104.652 366.863 106.059 368.02 106.059 370.332C106.059 372.777 104.699 374 101.98 374H95.8867V361.695H98.0547ZM113.582 374V361.695H115.75V366.852H122.254V361.695H124.422V374H122.254V368.609H115.75V374H113.582ZM127.363 367.848C127.363 363.668 129.395 361.578 133.457 361.578C137.52 361.578 139.551 363.668 139.551 367.848C139.551 372.027 137.52 374.117 133.457 374.117C129.41 374.117 127.379 372.027 127.363 367.848ZM129.531 367.801C129.531 370.84 130.84 372.359 133.457 372.359C136.074 372.359 137.383 370.84 137.383 367.801C137.383 364.824 136.074 363.336 133.457 363.336C130.84 363.336 129.531 364.824 129.531 367.801ZM149.02 372.242C150.238 372.242 150.848 371.617 150.848 370.367C150.848 369.195 149.898 368.609 148 368.609H147.062V367.191C149.484 366.918 150.695 366.102 150.695 364.742C150.695 363.883 150.195 363.453 149.195 363.453H144.648V372.242H149.02ZM142.48 374V361.695H149.395C151.801 361.695 153.004 362.723 153.004 364.777C153.004 366.051 152.238 366.996 150.707 367.613C152.379 368.027 153.215 368.934 153.215 370.332C153.215 372.777 151.859 374 149.148 374H142.48ZM164.934 374V364.484L158.312 374H156.145V361.695H158.195V371.211L164.816 361.695H166.984V374H164.934ZM179.594 361.695V363.453H175.258V374H173.09V363.453H168.754V361.695H179.594ZM186.438 361.695C189.938 361.695 191.688 363.426 191.688 366.887C191.688 367.379 191.652 367.906 191.582 368.469H182.945C182.945 370.984 184.414 372.242 187.352 372.242C188.75 372.242 189.992 372.086 191.078 371.773V373.531C189.992 373.844 188.672 374 187.117 374C182.891 374 180.777 371.902 180.777 367.707C180.777 363.699 182.664 361.695 186.438 361.695ZM182.945 366.664H189.602C189.555 364.508 188.5 363.43 186.438 363.43C184.25 363.43 183.086 364.508 182.945 366.664ZM192.848 372.242C194.699 372.242 195.625 371.188 195.625 369.078V361.695H205V374H202.832V363.453H197.793V369.078C197.793 372.359 196.145 374 192.848 374V372.242ZM216.262 374V363.488H212.066C210.988 363.488 210.449 363.949 210.449 364.871C210.449 365.965 211.699 366.766 214.199 367.273V368.809L209.805 374H207.062L211.82 368.504C209.367 367.746 208.141 366.543 208.141 364.895C208.141 362.762 209.461 361.695 212.102 361.695H218.43V374H216.262Z" fill="black"/>
<path d="M439.457 333V316.242H446.605C449.793 316.242 451.387 317.543 451.387 320.145C451.387 322.051 450.348 323.414 448.27 324.234C450.488 324.648 451.598 325.918 451.598 328.043C451.598 331.348 449.852 333 446.359 333H439.457ZM446.23 331.242C448.23 331.242 449.23 330.227 449.23 328.195C449.23 326.219 447.891 325.23 445.211 325.23H444.273V323.812C447.477 323.383 449.078 322.227 449.078 320.344C449.078 318.781 448.188 318 446.406 318H441.625V331.242H446.23ZM464.066 332.648C463.051 332.883 461.957 333 460.785 333C456.41 333 454.223 330.871 454.223 326.613C454.223 322.668 456.41 320.695 460.785 320.695C461.957 320.695 463.051 320.812 464.066 321.047V322.805C463.051 322.57 461.918 322.453 460.668 322.453C457.816 322.453 456.391 323.84 456.391 326.613C456.391 329.699 457.816 331.242 460.668 331.242C461.918 331.242 463.051 331.125 464.066 330.891V332.648ZM475.914 320.695V322.453H471.578V333H469.41V322.453H465.074V320.695H475.914ZM479.852 330.492C480.703 330.914 481.652 331.125 482.699 331.125C485.488 331.125 486.883 329.59 486.883 326.52C486.883 323.84 485.496 322.5 482.723 322.5C481.629 322.5 480.672 322.594 479.852 322.781V330.492ZM477.684 321.199C479.316 320.863 481.004 320.695 482.746 320.695C486.926 320.695 489.016 322.645 489.016 326.543C489.016 330.848 486.914 333 482.711 333C481.727 333 480.773 332.805 479.852 332.414V337.453H477.684V321.199ZM497.031 320.695C500.531 320.695 502.281 322.426 502.281 325.887C502.281 326.379 502.246 326.906 502.176 327.469H493.539C493.539 329.984 495.008 331.242 497.945 331.242C499.344 331.242 500.586 331.086 501.672 330.773V332.531C500.586 332.844 499.266 333 497.711 333C493.484 333 491.371 330.902 491.371 326.707C491.371 322.699 493.258 320.695 497.031 320.695ZM493.539 325.664H500.195C500.148 323.508 499.094 322.43 497.031 322.43C494.844 322.43 493.68 323.508 493.539 325.664ZM514.281 320.695V322.453H509.945V333H507.777V322.453H503.441V320.695H514.281ZM524.84 333V323.484L518.219 333H516.051V320.695H518.102V330.211L524.723 320.695H526.891V333H524.84ZM539.5 320.695V322.453H535.164V333H532.996V322.453H528.66V320.695H539.5ZM543.438 320.695V331.207H547.164C548.555 331.207 549.25 330.547 549.25 329.227C549.25 328.156 548.539 327.621 547.117 327.621H545.031V325.863H547.223C550.035 325.863 551.441 327.02 551.441 329.332C551.441 331.777 550.082 333 547.363 333H541.27V320.695H543.438ZM564.215 332.648C563.199 332.883 562.105 333 560.934 333C556.559 333 554.371 330.871 554.371 326.613C554.371 322.668 556.559 320.695 560.934 320.695C562.105 320.695 563.199 320.812 564.215 321.047V322.805C563.199 322.57 562.066 322.453 560.816 322.453C557.965 322.453 556.539 323.84 556.539 326.613C556.539 329.699 557.965 331.242 560.816 331.242C562.066 331.242 563.199 331.125 564.215 330.891V332.648ZM574.715 333V322.488H570.52C569.441 322.488 568.902 322.949 568.902 323.871C568.902 324.965 570.152 325.766 572.652 326.273V327.809L568.258 333H565.516L570.273 327.504C567.82 326.746 566.594 325.543 566.594 323.895C566.594 321.762 567.914 320.695 570.555 320.695H576.883V333H574.715ZM595.527 332.648C594.512 332.883 593.418 333 592.246 333C587.871 333 585.684 330.871 585.684 326.613C585.684 322.668 587.871 320.695 592.246 320.695C593.418 320.695 594.512 320.812 595.527 321.047V322.805C594.512 322.57 593.379 322.453 592.129 322.453C589.277 322.453 587.852 323.84 587.852 326.613C587.852 329.699 589.277 331.242 592.129 331.242C593.379 331.242 594.512 331.125 595.527 330.891V332.648ZM397.938 359.648C396.922 359.883 395.828 360 394.656 360C390.281 360 388.094 357.871 388.094 353.613C388.094 349.668 390.281 347.695 394.656 347.695C395.828 347.695 396.922 347.812 397.938 348.047V349.805C396.922 349.57 395.789 349.453 394.539 349.453C391.688 349.453 390.262 350.84 390.262 353.613C390.262 356.699 391.688 358.242 394.539 358.242C395.789 358.242 396.922 358.125 397.938 357.891V359.648ZM400.117 353.848C400.117 349.668 402.148 347.578 406.211 347.578C410.273 347.578 412.305 349.668 412.305 353.848C412.305 358.027 410.273 360.117 406.211 360.117C402.164 360.117 400.133 358.027 400.117 353.848ZM402.285 353.801C402.285 356.84 403.594 358.359 406.211 358.359C408.828 358.359 410.137 356.84 410.137 353.801C410.137 350.824 408.828 349.336 406.211 349.336C403.594 349.336 402.285 350.824 402.285 353.801ZM424.316 347.695V349.453H419.98V360H417.812V349.453H413.477V347.695H424.316ZM428.254 357.492C429.105 357.914 430.055 358.125 431.102 358.125C433.891 358.125 435.285 356.59 435.285 353.52C435.285 350.84 433.898 349.5 431.125 349.5C430.031 349.5 429.074 349.594 428.254 349.781V357.492ZM426.086 348.199C427.719 347.863 429.406 347.695 431.148 347.695C435.328 347.695 437.418 349.645 437.418 353.543C437.418 357.848 435.316 360 431.113 360C430.129 360 429.176 359.805 428.254 359.414V364.453H426.086V348.199ZM438.895 347.695H441.25L444.73 357.305L448.328 347.695H450.625L445.516 360.363C444.609 362.598 443.25 363.992 441.438 364.547L440.605 363.012C441.98 362.41 442.98 361.43 443.605 360.07L438.895 347.695ZM456.227 358.242H462.426V349.453H458.09C458.09 353.82 457.469 356.75 456.227 358.242ZM450.906 364.453V358.242H453.062C454.969 358.242 455.922 355.312 455.922 349.453V347.695H464.594V358.242H466.762V364.453H464.594V360H453.062V364.453H450.906ZM469.398 360V347.695H471.566V352.852H478.07V347.695H480.238V360H478.07V354.609H471.566V360H469.398ZM492.555 360V350.484L485.934 360H483.766V347.695H485.816V357.211L492.438 347.695H494.605V360H492.555ZM506.512 360L504.789 357.117C503.633 355.188 502.516 354.223 501.438 354.223V352.781C502.688 352.781 503.617 351.934 504.227 350.238C504.844 348.543 505.887 347.695 507.355 347.695H508.609V349.57H507.684C506.84 349.57 506.219 350.145 505.82 351.293C505.422 352.434 504.734 353.195 503.758 353.578C504.68 353.742 505.785 354.852 507.074 356.906L509.02 360H506.512ZM500.301 347.695V360H498.133V347.695H500.301ZM510.484 356.285C510.484 353.762 512.148 352.5 515.477 352.5C516.547 352.5 517.617 352.578 518.688 352.734V351.574C518.688 350.16 517.582 349.453 515.371 349.453C514.105 349.453 512.809 349.648 511.48 350.039V348.281C512.809 347.891 514.105 347.695 515.371 347.695C519.027 347.695 520.855 348.969 520.855 351.516V360H519.637L518.887 358.781C517.66 359.594 516.324 360 514.879 360C511.949 360 510.484 358.762 510.484 356.285ZM515.477 354.258C513.594 354.258 512.652 354.922 512.652 356.25C512.652 357.578 513.395 358.242 514.879 358.242C516.379 358.242 517.648 357.844 518.688 357.047V354.492C517.617 354.336 516.547 354.258 515.477 354.258ZM524.383 360V347.695H527.137L531.297 357.457L535.34 347.695H537.977V360H536.043V350.59L532.082 360H530.371L526.316 350.59V360H524.383ZM550.281 360V350.484L543.66 360H541.492V347.695H543.543V357.211L550.164 347.695H552.332V360H550.281ZM561.719 360V347.695H572.559V360H570.391V349.453H563.887V360H561.719ZM578.254 357.492C579.105 357.914 580.055 358.125 581.102 358.125C583.891 358.125 585.285 356.59 585.285 353.52C585.285 350.84 583.898 349.5 581.125 349.5C580.031 349.5 579.074 349.594 578.254 349.781V357.492ZM576.086 348.199C577.719 347.863 579.406 347.695 581.148 347.695C585.328 347.695 587.418 349.645 587.418 353.543C587.418 357.848 585.316 360 581.113 360C580.129 360 579.176 359.805 578.254 359.414V364.453H576.086V348.199ZM599.148 360V350.484L592.527 360H590.359V347.695H592.41V357.211L599.031 347.695H601.199V360H599.148ZM616.387 358.359C618.434 358.359 619.457 356.84 619.457 353.801C619.457 350.824 618.434 349.336 616.387 349.336C614.254 349.336 613.188 350.824 613.188 353.801C613.188 356.84 614.254 358.359 616.387 358.359ZM604.727 360V347.695H606.883V352.852H610.938C611.227 349.336 613.043 347.578 616.387 347.578C619.957 347.578 621.742 349.676 621.742 353.871C621.742 358.035 619.957 360.117 616.387 360.117C612.957 360.117 611.137 358.281 610.926 354.609H606.883V360H604.727ZM633.754 347.695V349.453H629.418V360H627.25V349.453H622.914V347.695H633.754ZM634.938 356.285C634.938 353.762 636.602 352.5 639.93 352.5C641 352.5 642.07 352.578 643.141 352.734V351.574C643.141 350.16 642.035 349.453 639.824 349.453C638.559 349.453 637.262 349.648 635.934 350.039V348.281C637.262 347.891 638.559 347.695 639.824 347.695C643.48 347.695 645.309 348.969 645.309 351.516V360H644.09L643.34 358.781C642.113 359.594 640.777 360 639.332 360C636.402 360 634.938 358.762 634.938 356.285ZM639.93 354.258C638.047 354.258 637.105 354.922 637.105 356.25C637.105 357.578 637.848 358.242 639.332 358.242C640.832 358.242 642.102 357.844 643.141 357.047V354.492C642.07 354.336 641 354.258 639.93 354.258Z" fill="black"/>
<path d="M794.105 316.828C795.668 316.359 797.23 316.125 798.793 316.125C802.816 316.125 804.828 317.648 804.828 320.695C804.828 322.539 804.094 323.809 802.625 324.504C804.094 325.168 804.828 326.438 804.828 328.312C804.828 331.516 802.816 333.117 798.793 333.117C797.23 333.117 795.668 332.883 794.105 332.414V330.539C795.668 331.086 797.23 331.359 798.793 331.359C801.371 331.359 802.66 330.344 802.66 328.312C802.66 326.359 801.676 325.383 799.707 325.383H795.863V323.625H799.672C801.664 323.625 802.66 322.648 802.66 320.695C802.66 318.82 801.371 317.883 798.793 317.883C797.23 317.883 795.668 318.156 794.105 318.703V316.828ZM807.184 329.285C807.184 326.762 808.848 325.5 812.176 325.5C813.246 325.5 814.316 325.578 815.387 325.734V324.574C815.387 323.16 814.281 322.453 812.07 322.453C810.805 322.453 809.508 322.648 808.18 323.039V321.281C809.508 320.891 810.805 320.695 812.07 320.695C815.727 320.695 817.555 321.969 817.555 324.516V333H816.336L815.586 331.781C814.359 332.594 813.023 333 811.578 333C808.648 333 807.184 331.762 807.184 329.285ZM812.176 327.258C810.293 327.258 809.352 327.922 809.352 329.25C809.352 330.578 810.094 331.242 811.578 331.242C813.078 331.242 814.348 330.844 815.387 330.047V327.492C814.316 327.336 813.246 327.258 812.176 327.258ZM832.988 326.906C832.988 331.047 830.965 333.117 826.918 333.117C822.832 333.117 820.789 331.047 820.789 326.906V323.098C820.789 318.527 822.914 316.242 827.164 316.242C829.445 316.242 831.254 315.816 832.59 314.965V316.875C831.395 317.625 829.574 318 827.129 318C824.387 318 823.016 319.66 823.016 322.98C824.023 321.457 825.363 320.695 827.035 320.695C831.004 320.695 832.988 322.68 832.988 326.648V326.906ZM826.918 331.359C829.512 331.359 830.809 329.875 830.809 326.906C830.809 323.984 829.551 322.523 827.035 322.523C824.355 322.523 823.016 323.984 823.016 326.906C823.016 329.875 824.316 331.359 826.918 331.359ZM838.227 330.492C839.078 330.914 840.027 331.125 841.074 331.125C843.863 331.125 845.258 329.59 845.258 326.52C845.258 323.84 843.871 322.5 841.098 322.5C840.004 322.5 839.047 322.594 838.227 322.781V330.492ZM836.059 321.199C837.691 320.863 839.379 320.695 841.121 320.695C845.301 320.695 847.391 322.645 847.391 326.543C847.391 330.848 845.289 333 841.086 333C840.102 333 839.148 332.805 838.227 332.414V337.453H836.059V321.199ZM849.746 329.285C849.746 326.762 851.41 325.5 854.738 325.5C855.809 325.5 856.879 325.578 857.949 325.734V324.574C857.949 323.16 856.844 322.453 854.633 322.453C853.367 322.453 852.07 322.648 850.742 323.039V321.281C852.07 320.891 853.367 320.695 854.633 320.695C858.289 320.695 860.117 321.969 860.117 324.516V333H858.898L858.148 331.781C856.922 332.594 855.586 333 854.141 333C851.211 333 849.746 331.762 849.746 329.285ZM854.738 327.258C852.855 327.258 851.914 327.922 851.914 329.25C851.914 330.578 852.656 331.242 854.141 331.242C855.641 331.242 856.91 330.844 857.949 330.047V327.492C856.879 327.336 855.809 327.258 854.738 327.258ZM872.727 320.695V322.453H868.391V333H866.223V322.453H861.887V320.695H872.727ZM876.664 320.695V331.207H880.391C881.781 331.207 882.477 330.547 882.477 329.227C882.477 328.156 881.766 327.621 880.344 327.621H878.258V325.863H880.449C883.262 325.863 884.668 327.02 884.668 329.332C884.668 331.777 883.309 333 880.59 333H874.496V320.695H876.664ZM894.043 333V320.695H904.883V333H902.715V322.453H896.211V333H894.043ZM917.199 333V323.484L910.578 333H908.41V320.695H910.461V330.211L917.082 320.695H919.25V333H917.199ZM931.859 320.695V322.453H927.523V333H925.355V322.453H921.02V320.695H931.859ZM933.043 326.848C933.043 322.668 935.074 320.578 939.137 320.578C943.199 320.578 945.23 322.668 945.23 326.848C945.23 331.027 943.199 333.117 939.137 333.117C935.09 333.117 933.059 331.027 933.043 326.848ZM935.211 326.801C935.211 329.84 936.52 331.359 939.137 331.359C941.754 331.359 943.062 329.84 943.062 326.801C943.062 323.824 941.754 322.336 939.137 322.336C936.52 322.336 935.211 323.824 935.211 326.801ZM948.16 333V320.695H950.914L955.074 330.457L959.117 320.695H961.754V333H959.82V323.59L955.859 333H954.148L950.094 323.59V333H948.16ZM965.27 333V320.695H967.438V331.242H974.246V320.695H976.414V331.242H978.582V337.453H976.414V333H965.27ZM980.926 329.285C980.926 326.762 982.59 325.5 985.918 325.5C986.988 325.5 988.059 325.578 989.129 325.734V324.574C989.129 323.16 988.023 322.453 985.812 322.453C984.547 322.453 983.25 322.648 981.922 323.039V321.281C983.25 320.891 984.547 320.695 985.812 320.695C989.469 320.695 991.297 321.969 991.297 324.516V333H990.078L989.328 331.781C988.102 332.594 986.766 333 985.32 333C982.391 333 980.926 331.762 980.926 329.285ZM985.918 327.258C984.035 327.258 983.094 327.922 983.094 329.25C983.094 330.578 983.836 331.242 985.32 331.242C986.82 331.242 988.09 330.844 989.129 330.047V327.492C988.059 327.336 986.988 327.258 985.918 327.258ZM859.684 358.242H865.883V349.453H861.547C861.547 353.82 860.926 356.75 859.684 358.242ZM854.363 364.453V358.242H856.52C858.426 358.242 859.379 355.312 859.379 349.453V347.695H868.051V358.242H870.219V364.453H868.051V360H856.52V364.453H854.363ZM872.27 353.848C872.27 349.668 874.301 347.578 878.363 347.578C882.426 347.578 884.457 349.668 884.457 353.848C884.457 358.027 882.426 360.117 878.363 360.117C874.316 360.117 872.285 358.027 872.27 353.848ZM874.438 353.801C874.438 356.84 875.746 358.359 878.363 358.359C880.98 358.359 882.289 356.84 882.289 353.801C882.289 350.824 880.98 349.336 878.363 349.336C875.746 349.336 874.438 350.824 874.438 353.801ZM887.387 360V347.695H890.141L894.301 357.457L898.344 347.695H900.98V360H899.047V350.59L895.086 360H893.375L889.32 350.59V360H887.387ZM903.91 353.848C903.91 349.668 905.941 347.578 910.004 347.578C914.066 347.578 916.098 349.668 916.098 353.848C916.098 358.027 914.066 360.117 910.004 360.117C905.957 360.117 903.926 358.027 903.91 353.848ZM906.078 353.801C906.078 356.84 907.387 358.359 910.004 358.359C912.621 358.359 913.93 356.84 913.93 353.801C913.93 350.824 912.621 349.336 910.004 349.336C907.387 349.336 906.078 350.824 906.078 353.801ZM927.816 360V350.484L921.195 360H919.027V347.695H921.078V357.211L927.699 347.695H929.867V360H927.816ZM921.348 343.242H922.93C922.93 344.414 923.438 345 924.453 345C925.469 345 925.977 344.414 925.977 343.242H927.559C927.559 345.273 926.523 346.289 924.453 346.289C922.383 346.289 921.348 345.273 921.348 343.242Z" fill="black"/>
<defs>
<clipPath id="clip0_147_185">
<rect width="288" height="288" fill="white"/>
</clipPath>
<clipPath id="clip1_147_185">
<rect width="288" height="288" fill="white" transform="translate(370)"/>
</clipPath>
<clipPath id="clip2_147_185">
<rect width="288" height="288" fill="white" transform="translate(743)"/>
</clipPath>
</defs>
</svg>
