<svg width="527" height="527" viewBox="0 0 527 527" fill="none" xmlns="http://www.w3.org/2000/svg">
<g clip-path="url(#clip0_68_893)">
<path d="M265.636 518.168C401.33 518.168 511.332 404.479 511.332 264.236C511.332 123.994 401.33 10.3047 265.636 10.3047C129.942 10.3047 19.9404 123.994 19.9404 264.236C19.9404 404.479 129.942 518.168 265.636 518.168Z" fill="#F6B8C4"/>
<path d="M313.85 125.214H228.39V147.192H313.85V125.214Z" fill="#E6E6E6"/>
<path d="M306.728 132.574V139.831H235.512V132.574H306.728ZM320.972 117.854H221.269V154.552H320.972V117.854Z" fill="#E6E6E6"/>
<path d="M365.823 232.69V408.263C365.823 418.553 357.748 426.899 347.791 426.899H193.224C183.268 426.899 175.192 418.553 175.192 408.263V230.187C175.192 230.01 175.32 229.878 175.491 229.878H363.103C364.599 229.878 365.823 231.144 365.823 232.69Z" fill="white"/>
<path d="M365.823 229.878H175.192C175.192 175.47 217.865 131.367 270.508 131.367C323.151 131.367 365.823 175.47 365.823 229.878Z" fill="white"/>
<path d="M271.448 303.643C302.095 303.643 326.939 277.966 326.939 246.292C326.939 214.617 302.095 188.94 271.448 188.94C240.801 188.94 215.956 214.617 215.956 246.292C215.956 277.966 240.801 303.643 271.448 303.643Z" fill="#F6B8C4"/>
<path d="M271.448 196.315C298.111 196.315 319.818 218.735 319.818 246.306C319.818 273.878 298.125 296.298 271.448 296.298C244.77 296.298 223.078 273.878 223.078 246.306C223.078 218.735 244.77 196.315 271.448 196.315ZM271.448 181.594C236.865 181.594 208.834 210.565 208.834 246.306C208.834 282.048 236.865 311.018 271.448 311.018C306.03 311.018 334.061 282.048 334.061 246.306C334.061 210.565 306.016 181.594 271.448 181.594Z" fill="#E6E6E6"/>
<path d="M300.319 98.6285V111.965H244.428V98.6285H300.319ZM306.016 92.7402H238.731V117.854H306.016V92.7402Z" fill="#E6E6E6"/>
<path d="M219.659 367.59C216.298 367.59 213.549 364.764 213.549 361.275V354.68C213.549 351.206 216.284 348.365 219.659 348.365H225.243C228.604 348.365 231.353 351.191 231.353 354.68V361.275C231.353 364.749 228.618 367.59 225.243 367.59H219.659Z" fill="#F6B8C4"/>
<path d="M225.243 351.309C227.037 351.309 228.504 352.825 228.504 354.68V361.275C228.504 363.129 227.037 364.646 225.243 364.646H219.659C217.865 364.646 216.397 363.129 216.397 361.275V354.68C216.397 352.825 217.865 351.309 219.659 351.309H225.243ZM225.243 345.42H219.659C214.717 345.42 210.7 349.557 210.7 354.68V361.275C210.7 366.383 214.703 370.534 219.659 370.534H225.243C230.185 370.534 234.202 366.397 234.202 361.275V354.68C234.202 349.572 230.199 345.42 225.243 345.42Z" fill="#E6E6E6"/>
<path d="M319.675 367.605C316.314 367.605 313.565 364.778 313.565 361.289V354.695C313.565 351.22 316.3 348.379 319.675 348.379H325.273C328.634 348.379 331.383 351.206 331.383 354.695V361.289C331.383 364.763 328.649 367.605 325.273 367.605H319.675Z" fill="#F6B8C4"/>
<path d="M325.273 351.323C327.067 351.323 328.535 352.84 328.535 354.694V361.289C328.535 363.144 327.067 364.66 325.273 364.66H319.689C317.895 364.66 316.428 363.144 316.428 361.289V354.694C316.428 352.84 317.895 351.323 319.689 351.323H325.273ZM325.273 345.435H319.689C314.747 345.435 310.73 349.572 310.73 354.694V361.289C310.73 366.397 314.733 370.549 319.689 370.549H325.273C330.215 370.549 334.232 366.412 334.232 361.289V354.694C334.218 349.586 330.215 345.435 325.273 345.435Z" fill="#E6E6E6"/>
<path d="M268.4 367.605C265.039 367.605 262.29 364.778 262.29 361.289V354.695C262.29 351.22 265.024 348.379 268.4 348.379H273.997C277.359 348.379 280.108 351.206 280.108 354.695V361.289C280.108 364.763 277.373 367.605 273.997 367.605H268.4Z" fill="#F6B8C4"/>
<path d="M273.997 351.323C275.792 351.323 277.259 352.84 277.259 354.694V361.289C277.259 363.144 275.792 364.66 273.997 364.66H268.414C266.619 364.66 265.152 363.144 265.152 361.289V354.694C265.152 352.84 266.619 351.323 268.414 351.323H273.997ZM273.997 345.435H268.414C263.472 345.435 259.455 349.572 259.455 354.694V361.289C259.455 366.397 263.457 370.549 268.414 370.549H273.997C278.94 370.549 282.956 366.412 282.956 361.289V354.694C282.942 349.586 278.94 345.435 273.997 345.435Z" fill="#E6E6E6"/>
<path d="M243.559 238.475C245.909 220.972 246.878 219.706 247.832 219.338C252.091 217.689 260.95 231.762 264.924 238.475C269.667 238.475 274.424 238.475 279.167 238.475C279.922 236.208 285.862 218.646 290.562 219.338C294.123 219.868 296.046 230.687 297.684 239.947C298.766 246.026 299.293 249.059 299.108 251.723C298.296 263.014 288.169 278.927 272.046 279.693C254.099 280.546 242.577 261.998 242.135 250.251C242.106 249.324 242.591 245.717 243.559 238.475Z" stroke="#E6E6E6" stroke-width="4" stroke-miterlimit="10"/>
<path d="M250.681 270.86C248.302 275.512 244.215 285.183 247.832 292.941C255.937 310.326 297.869 307.868 303.381 294.413C304.649 291.322 305.375 284.256 291.986 269.388" stroke="#E6E6E6" stroke-width="4" stroke-miterlimit="10"/>
</g>
<defs>
<clipPath id="clip0_68_893">
<rect width="527" height="527" fill="white"/>
</clipPath>
</defs>
</svg>
