<svg width="527" height="527" viewBox="0 0 527 527" fill="none" xmlns="http://www.w3.org/2000/svg">
<g clip-path="url(#clip0_68_709)">
<path d="M261.328 518.168C399.259 518.168 511.074 404.479 511.074 264.236C511.074 123.994 399.259 10.3047 261.328 10.3047C123.398 10.3047 11.5825 123.994 11.5825 264.236C11.5825 404.479 123.398 518.168 261.328 518.168Z" fill="#F6B8C4"/>
<path d="M98.4506 373.905C134.646 373.905 170.841 373.905 207.036 373.905C208.73 314.271 176.458 273.878 153.033 273.804C129.578 273.731 96.9304 314.036 98.4506 373.905Z" fill="#F6B8C4" stroke="#E6E6E6" stroke-width="10" stroke-miterlimit="10"/>
<path d="M152.019 269.388C166.412 269.388 178.08 257.525 178.08 242.891C178.08 228.257 166.412 216.394 152.019 216.394C137.626 216.394 125.959 228.257 125.959 242.891C125.959 257.525 137.626 269.388 152.019 269.388Z" fill="#F6B8C4" stroke="#E6E6E6" stroke-width="10" stroke-miterlimit="10"/>
<path d="M312.523 130.69V89.8253C312.523 79.8153 304.545 71.6895 294.686 71.6895H206.717C196.872 71.6895 188.88 79.8005 188.88 89.8253V130.69C188.88 140.7 196.858 148.826 206.717 148.826H279.991H294.686C304.545 148.826 312.523 140.7 312.523 130.69Z" stroke="white" stroke-width="10" stroke-miterlimit="10"/>
<path d="M308.382 142.791C317.257 150.224 321.123 155.141 319.964 157.511C318.068 161.412 302.692 158.512 273.852 148.826" stroke="white" stroke-width="10" stroke-miterlimit="10"/>
<path d="M227.305 266.444C231.303 266.444 234.544 263.149 234.544 259.084C234.544 255.019 231.303 251.724 227.305 251.724C223.307 251.724 220.066 255.019 220.066 259.084C220.066 263.149 223.307 266.444 227.305 266.444Z" fill="#F2F2F2"/>
<path d="M299.695 266.444C303.693 266.444 306.934 263.149 306.934 259.084C306.934 255.019 303.693 251.724 299.695 251.724C295.697 251.724 292.456 255.019 292.456 259.084C292.456 263.149 295.697 266.444 299.695 266.444Z" fill="#F2F2F2"/>
<path d="M263.5 266.444C267.498 266.444 270.739 263.149 270.739 259.084C270.739 255.019 267.498 251.724 263.5 251.724C259.502 251.724 256.261 255.019 256.261 259.084C256.261 263.149 259.502 266.444 263.5 266.444Z" fill="#F2F2F2"/>
<path d="M214.275 117.766C218.273 117.766 221.514 114.47 221.514 110.405C221.514 106.34 218.273 103.045 214.275 103.045C210.277 103.045 207.036 106.34 207.036 110.405C207.036 114.47 210.277 117.766 214.275 117.766Z" fill="#F2F2F2"/>
<path d="M286.665 117.766C290.663 117.766 293.904 114.47 293.904 110.405C293.904 106.34 290.663 103.045 286.665 103.045C282.667 103.045 279.426 106.34 279.426 110.405C279.426 114.47 282.667 117.766 286.665 117.766Z" fill="#F2F2F2"/>
<path d="M250.47 117.766C254.468 117.766 257.709 114.47 257.709 110.405C257.709 106.34 254.468 103.045 250.47 103.045C246.472 103.045 243.231 106.34 243.231 110.405C243.231 114.47 246.472 117.766 250.47 117.766Z" fill="#F2F2F2"/>
<path d="M323.511 374.229C359.707 374.229 395.902 374.229 432.097 374.229C433.791 314.596 401.519 274.202 378.094 274.129C354.639 274.055 322.006 314.375 323.511 374.229Z" fill="#F6B8C4" stroke="#E6E6E6" stroke-width="10" stroke-miterlimit="10"/>
<path d="M377.08 269.712C391.473 269.712 403.14 257.849 403.14 243.215C403.14 228.581 391.473 216.718 377.08 216.718C362.687 216.718 351.02 228.581 351.02 243.215C351.02 257.849 362.687 269.712 377.08 269.712Z" fill="#F6B8C4" stroke="#E6E6E6" stroke-width="10" stroke-miterlimit="10"/>
</g>
<defs>
<clipPath id="clip0_68_709">
<rect width="527" height="527" fill="white"/>
</clipPath>
</defs>
</svg>
