<svg width="54" height="55" viewBox="0 0 54 55" fill="none" xmlns="http://www.w3.org/2000/svg">
<path d="M27 2.2002C13.2943 2.2002 2.16 13.5407 2.16 27.5002C2.16 31.9872 3.36819 36.1747 5.38313 39.8301L2.20008 51.4037C2.14923 51.5889 2.14693 51.7845 2.19342 51.9708C2.2399 52.1572 2.33355 52.328 2.46502 52.466C2.59648 52.604 2.76118 52.7045 2.94269 52.7575C3.12419 52.8105 3.31616 52.8141 3.49946 52.768L15.3478 49.7773C18.8294 51.6704 22.78 52.8002 27 52.8002C40.7057 52.8002 51.84 41.4597 51.84 27.5002C51.84 13.5407 40.7057 2.2002 27 2.2002ZM27 4.4002C39.5383 4.4002 49.68 14.7297 49.68 27.5002C49.68 40.2707 39.5383 50.6002 27 50.6002C22.9803 50.6002 19.2155 49.5328 15.9427 47.6676C15.7033 47.5313 15.422 47.4929 15.1559 47.5602L4.77985 50.1791L7.56211 40.0686C7.60192 39.9257 7.61292 39.7761 7.59443 39.6287C7.57594 39.4814 7.52835 39.3394 7.45454 39.2113C5.46555 35.7761 4.32 31.7793 4.32 27.5002C4.32 14.7297 14.4617 4.4002 27 4.4002ZM17.974 14.3002C17.2817 14.3002 16.2929 14.5625 15.4807 15.4539C14.9929 15.9893 12.96 18.0067 12.96 21.5533C12.96 25.251 15.4779 28.4416 15.7823 28.8516H15.7845V28.8537C15.7556 28.8151 16.1709 29.4276 16.7252 30.1621C17.2796 30.8966 18.0548 31.8613 19.0287 32.9057C20.9764 34.9944 23.7149 37.4084 27.1139 38.8848C28.6792 39.5637 29.914 39.9736 30.8496 40.2727C32.5834 40.8272 34.1626 40.7429 35.3489 40.5648C36.2368 40.4317 37.2134 39.9974 38.1797 39.3746C39.146 38.7518 40.0929 37.9774 40.5106 36.8008C40.8097 35.9573 40.9618 35.1778 41.0168 34.5363C41.0443 34.2156 41.0478 33.9326 41.0273 33.6705C41.0069 33.4085 41.0288 33.2077 40.789 32.8068C40.2862 31.966 39.7167 31.944 39.1226 31.6445C38.7925 31.4781 37.8526 31.0107 36.9098 30.5531C35.9682 30.0961 35.1528 29.6913 34.6507 29.509C34.3335 29.3927 33.9461 29.2254 33.3872 29.2898C32.8283 29.3543 32.2763 29.765 31.9549 30.2502C31.6503 30.7101 30.424 32.1844 30.0502 32.6178C30.0452 32.6147 30.0776 32.6299 29.9299 32.5555C29.4675 32.3224 28.9021 32.1242 28.0652 31.6746C27.2284 31.225 26.1816 30.5611 25.0362 29.5326V29.5305C23.3313 28.0017 22.1371 26.0824 21.7603 25.4377C21.7857 25.4069 21.7573 25.4442 21.8109 25.3904L21.8131 25.3883C22.1981 25.002 22.5393 24.5407 22.8277 24.2023C23.2365 23.7226 23.4169 23.2998 23.6123 22.9047C24.0019 22.1173 23.785 21.2508 23.5596 20.7949V20.7928C23.5752 20.8243 23.4377 20.5154 23.2896 20.159C23.1411 19.8016 22.9518 19.3382 22.7496 18.8441C22.3452 17.8559 21.8938 16.7476 21.6253 16.0984V16.0963C21.309 15.3316 20.8812 14.7808 20.3217 14.515C19.7623 14.2493 19.268 14.3248 19.2481 14.3238H19.2459C18.8467 14.3051 18.4086 14.3002 17.974 14.3002ZM17.974 16.5002C18.3904 16.5002 18.8009 16.5054 19.1447 16.5217C19.4984 16.5396 19.4764 16.5411 19.4084 16.5088C19.3393 16.476 19.433 16.4653 19.6341 16.9514C19.8969 17.587 20.3506 18.6994 20.7563 19.6906C20.9591 20.1863 21.1489 20.6514 21.3005 21.0162C21.4521 21.381 21.5342 21.5847 21.6295 21.7789V21.7811L21.6316 21.7832C21.7251 21.971 21.7168 21.8508 21.6844 21.9164C21.4565 22.3771 21.4255 22.4902 21.195 22.7607C20.844 23.1726 20.4859 23.6319 20.2964 23.8221C20.1306 23.988 19.8314 24.2464 19.6446 24.7523C19.4575 25.259 19.5448 25.9542 19.845 26.4732C20.2446 27.1643 21.5616 29.3474 23.6081 31.1826C24.897 32.3398 26.0977 33.1057 27.057 33.6211C28.0162 34.1365 28.7974 34.4375 28.9723 34.5256C29.3874 34.7348 29.8411 34.8973 30.3687 34.8328C30.8962 34.7683 31.3511 34.4423 31.6406 34.1088L31.6427 34.1066C32.0281 33.6617 33.1731 32.33 33.7226 31.5092C33.7459 31.5175 33.7382 31.5111 33.9209 31.5779V31.5801H33.923C34.0063 31.6103 35.0506 32.0864 35.9817 32.5383C36.9128 32.9902 37.8578 33.4599 38.1649 33.6146C38.6081 33.838 38.8175 33.9835 38.8716 33.9842C38.8752 34.081 38.8789 34.1858 38.8652 34.3451C38.8274 34.7869 38.7114 35.3984 38.4792 36.0531C38.3655 36.3736 37.773 37.0346 37.0259 37.5162C36.2787 37.9978 35.3693 38.338 35.0325 38.3885C34.0199 38.5404 32.8176 38.5959 31.4972 38.1736C30.5816 37.8809 29.4401 37.5021 27.9619 36.8609C24.964 35.5587 22.416 33.3429 20.5959 31.391C19.6859 30.4151 18.9568 29.5066 18.4381 28.8193C17.9203 28.1333 17.6942 27.7764 17.5057 27.5238L17.5036 27.5217C17.169 27.071 15.12 24.1681 15.12 21.5533C15.12 18.786 16.382 17.7008 17.0648 16.9514C17.4233 16.5579 17.8153 16.5002 17.974 16.5002Z" fill="white"/>
</svg>
